G04 #@! TF.GenerationSoftware,KiCad,Pcbnew,(5.1.2)-2*
G04 #@! TF.CreationDate,2019-09-08T17:56:47+02:00*
G04 #@! TF.ProjectId,BLDC_driver_v1,424c4443-5f64-4726-9976-65725f76312e,rev?*
G04 #@! TF.SameCoordinates,Original*
G04 #@! TF.FileFunction,Legend,Top*
G04 #@! TF.FilePolarity,Positive*
%FSLAX46Y46*%
G04 Gerber Fmt 4.6, Leading zero omitted, Abs format (unit mm)*
G04 Created by KiCad (PCBNEW (5.1.2)-2) date 2019-09-08 17:56:47*
%MOMM*%
%LPD*%
G04 APERTURE LIST*
%ADD10C,0.150000*%
%ADD11C,0.120000*%
%ADD12C,0.100000*%
%ADD13C,0.250000*%
G04 APERTURE END LIST*
D10*
X101600000Y-44352380D02*
X101600000Y-43352380D01*
X101933333Y-44066666D01*
X102266666Y-43352380D01*
X102266666Y-44352380D01*
X103314285Y-44257142D02*
X103266666Y-44304761D01*
X103123809Y-44352380D01*
X103028571Y-44352380D01*
X102885714Y-44304761D01*
X102790476Y-44209523D01*
X102742857Y-44114285D01*
X102695238Y-43923809D01*
X102695238Y-43780952D01*
X102742857Y-43590476D01*
X102790476Y-43495238D01*
X102885714Y-43400000D01*
X103028571Y-43352380D01*
X103123809Y-43352380D01*
X103266666Y-43400000D01*
X103314285Y-43447619D01*
X103742857Y-43352380D02*
X103742857Y-44161904D01*
X103790476Y-44257142D01*
X103838095Y-44304761D01*
X103933333Y-44352380D01*
X104123809Y-44352380D01*
X104219047Y-44304761D01*
X104266666Y-44257142D01*
X104314285Y-44161904D01*
X104314285Y-43352380D01*
X106123809Y-44352380D02*
X105790476Y-43876190D01*
X105552380Y-44352380D02*
X105552380Y-43352380D01*
X105933333Y-43352380D01*
X106028571Y-43400000D01*
X106076190Y-43447619D01*
X106123809Y-43542857D01*
X106123809Y-43685714D01*
X106076190Y-43780952D01*
X106028571Y-43828571D01*
X105933333Y-43876190D01*
X105552380Y-43876190D01*
X106552380Y-43828571D02*
X106885714Y-43828571D01*
X107028571Y-44352380D02*
X106552380Y-44352380D01*
X106552380Y-43352380D01*
X107028571Y-43352380D01*
X107409523Y-44304761D02*
X107552380Y-44352380D01*
X107790476Y-44352380D01*
X107885714Y-44304761D01*
X107933333Y-44257142D01*
X107980952Y-44161904D01*
X107980952Y-44066666D01*
X107933333Y-43971428D01*
X107885714Y-43923809D01*
X107790476Y-43876190D01*
X107600000Y-43828571D01*
X107504761Y-43780952D01*
X107457142Y-43733333D01*
X107409523Y-43638095D01*
X107409523Y-43542857D01*
X107457142Y-43447619D01*
X107504761Y-43400000D01*
X107600000Y-43352380D01*
X107838095Y-43352380D01*
X107980952Y-43400000D01*
X108409523Y-43828571D02*
X108742857Y-43828571D01*
X108885714Y-44352380D02*
X108409523Y-44352380D01*
X108409523Y-43352380D01*
X108885714Y-43352380D01*
X109171428Y-43352380D02*
X109742857Y-43352380D01*
X109457142Y-44352380D02*
X109457142Y-43352380D01*
X76876190Y-44204761D02*
X77019047Y-44252380D01*
X77257142Y-44252380D01*
X77352380Y-44204761D01*
X77400000Y-44157142D01*
X77447619Y-44061904D01*
X77447619Y-43966666D01*
X77400000Y-43871428D01*
X77352380Y-43823809D01*
X77257142Y-43776190D01*
X77066666Y-43728571D01*
X76971428Y-43680952D01*
X76923809Y-43633333D01*
X76876190Y-43538095D01*
X76876190Y-43442857D01*
X76923809Y-43347619D01*
X76971428Y-43300000D01*
X77066666Y-43252380D01*
X77304761Y-43252380D01*
X77447619Y-43300000D01*
X77733333Y-43252380D02*
X78304761Y-43252380D01*
X78019047Y-44252380D02*
X78019047Y-43252380D01*
X78590476Y-44204761D02*
X78733333Y-44252380D01*
X78971428Y-44252380D01*
X79066666Y-44204761D01*
X79114285Y-44157142D01*
X79161904Y-44061904D01*
X79161904Y-43966666D01*
X79114285Y-43871428D01*
X79066666Y-43823809D01*
X78971428Y-43776190D01*
X78780952Y-43728571D01*
X78685714Y-43680952D01*
X78638095Y-43633333D01*
X78590476Y-43538095D01*
X78590476Y-43442857D01*
X78638095Y-43347619D01*
X78685714Y-43300000D01*
X78780952Y-43252380D01*
X79019047Y-43252380D01*
X79161904Y-43300000D01*
X79590476Y-44252380D02*
X79590476Y-43252380D01*
X79971428Y-43252380D01*
X80066666Y-43300000D01*
X80114285Y-43347619D01*
X80161904Y-43442857D01*
X80161904Y-43585714D01*
X80114285Y-43680952D01*
X80066666Y-43728571D01*
X79971428Y-43776190D01*
X79590476Y-43776190D01*
X80590476Y-44252380D02*
X80590476Y-43252380D01*
X81066666Y-44252380D02*
X81066666Y-43252380D01*
X81638095Y-44252380D01*
X81638095Y-43252380D01*
X82304761Y-43252380D02*
X82400000Y-43252380D01*
X82495238Y-43300000D01*
X82542857Y-43347619D01*
X82590476Y-43442857D01*
X82638095Y-43633333D01*
X82638095Y-43871428D01*
X82590476Y-44061904D01*
X82542857Y-44157142D01*
X82495238Y-44204761D01*
X82400000Y-44252380D01*
X82304761Y-44252380D01*
X82209523Y-44204761D01*
X82161904Y-44157142D01*
X82114285Y-44061904D01*
X82066666Y-43871428D01*
X82066666Y-43633333D01*
X82114285Y-43442857D01*
X82161904Y-43347619D01*
X82209523Y-43300000D01*
X82304761Y-43252380D01*
X84400000Y-44252380D02*
X84066666Y-43776190D01*
X83828571Y-44252380D02*
X83828571Y-43252380D01*
X84209523Y-43252380D01*
X84304761Y-43300000D01*
X84352380Y-43347619D01*
X84400000Y-43442857D01*
X84400000Y-43585714D01*
X84352380Y-43680952D01*
X84304761Y-43728571D01*
X84209523Y-43776190D01*
X83828571Y-43776190D01*
X84828571Y-43728571D02*
X85161904Y-43728571D01*
X85304761Y-44252380D02*
X84828571Y-44252380D01*
X84828571Y-43252380D01*
X85304761Y-43252380D01*
X85685714Y-44204761D02*
X85828571Y-44252380D01*
X86066666Y-44252380D01*
X86161904Y-44204761D01*
X86209523Y-44157142D01*
X86257142Y-44061904D01*
X86257142Y-43966666D01*
X86209523Y-43871428D01*
X86161904Y-43823809D01*
X86066666Y-43776190D01*
X85876190Y-43728571D01*
X85780952Y-43680952D01*
X85733333Y-43633333D01*
X85685714Y-43538095D01*
X85685714Y-43442857D01*
X85733333Y-43347619D01*
X85780952Y-43300000D01*
X85876190Y-43252380D01*
X86114285Y-43252380D01*
X86257142Y-43300000D01*
X86685714Y-43728571D02*
X87019047Y-43728571D01*
X87161904Y-44252380D02*
X86685714Y-44252380D01*
X86685714Y-43252380D01*
X87161904Y-43252380D01*
X87447619Y-43252380D02*
X88019047Y-43252380D01*
X87733333Y-44252380D02*
X87733333Y-43252380D01*
X126185714Y-103571428D02*
X126528571Y-103571428D01*
X126357142Y-104171428D02*
X126357142Y-103571428D01*
X126728571Y-104171428D02*
X126728571Y-103571428D01*
X126871428Y-103571428D01*
X126957142Y-103600000D01*
X127014285Y-103657142D01*
X127042857Y-103714285D01*
X127071428Y-103828571D01*
X127071428Y-103914285D01*
X127042857Y-104028571D01*
X127014285Y-104085714D01*
X126957142Y-104142857D01*
X126871428Y-104171428D01*
X126728571Y-104171428D01*
X127328571Y-104171428D02*
X127328571Y-103571428D01*
X126214285Y-101571428D02*
X126214285Y-100971428D01*
X126557142Y-101571428D01*
X126557142Y-100971428D01*
X127185714Y-101571428D02*
X126985714Y-101285714D01*
X126842857Y-101571428D02*
X126842857Y-100971428D01*
X127071428Y-100971428D01*
X127128571Y-101000000D01*
X127157142Y-101028571D01*
X127185714Y-101085714D01*
X127185714Y-101171428D01*
X127157142Y-101228571D01*
X127128571Y-101257142D01*
X127071428Y-101285714D01*
X126842857Y-101285714D01*
X127414285Y-101542857D02*
X127500000Y-101571428D01*
X127642857Y-101571428D01*
X127700000Y-101542857D01*
X127728571Y-101514285D01*
X127757142Y-101457142D01*
X127757142Y-101400000D01*
X127728571Y-101342857D01*
X127700000Y-101314285D01*
X127642857Y-101285714D01*
X127528571Y-101257142D01*
X127471428Y-101228571D01*
X127442857Y-101200000D01*
X127414285Y-101142857D01*
X127414285Y-101085714D01*
X127442857Y-101028571D01*
X127471428Y-101000000D01*
X127528571Y-100971428D01*
X127671428Y-100971428D01*
X127757142Y-101000000D01*
X127928571Y-100971428D02*
X128271428Y-100971428D01*
X128100000Y-101571428D02*
X128100000Y-100971428D01*
X126214285Y-98471428D02*
X126557142Y-98471428D01*
X126385714Y-99071428D02*
X126385714Y-98471428D01*
X126757142Y-99071428D02*
X126757142Y-98471428D01*
X126900000Y-98471428D01*
X126985714Y-98500000D01*
X127042857Y-98557142D01*
X127071428Y-98614285D01*
X127100000Y-98728571D01*
X127100000Y-98814285D01*
X127071428Y-98928571D01*
X127042857Y-98985714D01*
X126985714Y-99042857D01*
X126900000Y-99071428D01*
X126757142Y-99071428D01*
X127471428Y-98471428D02*
X127585714Y-98471428D01*
X127642857Y-98500000D01*
X127700000Y-98557142D01*
X127728571Y-98671428D01*
X127728571Y-98871428D01*
X127700000Y-98985714D01*
X127642857Y-99042857D01*
X127585714Y-99071428D01*
X127471428Y-99071428D01*
X127414285Y-99042857D01*
X127357142Y-98985714D01*
X127328571Y-98871428D01*
X127328571Y-98671428D01*
X127357142Y-98557142D01*
X127414285Y-98500000D01*
X127471428Y-98471428D01*
X126228571Y-95971428D02*
X126228571Y-96371428D01*
X126228571Y-96028571D02*
X126257142Y-96000000D01*
X126314285Y-95971428D01*
X126400000Y-95971428D01*
X126457142Y-96000000D01*
X126485714Y-96057142D01*
X126485714Y-96371428D01*
X126685714Y-95771428D02*
X127028571Y-95771428D01*
X126857142Y-96371428D02*
X126857142Y-95771428D01*
X127571428Y-96371428D02*
X127371428Y-96085714D01*
X127228571Y-96371428D02*
X127228571Y-95771428D01*
X127457142Y-95771428D01*
X127514285Y-95800000D01*
X127542857Y-95828571D01*
X127571428Y-95885714D01*
X127571428Y-95971428D01*
X127542857Y-96028571D01*
X127514285Y-96057142D01*
X127457142Y-96085714D01*
X127228571Y-96085714D01*
X127800000Y-96342857D02*
X127885714Y-96371428D01*
X128028571Y-96371428D01*
X128085714Y-96342857D01*
X128114285Y-96314285D01*
X128142857Y-96257142D01*
X128142857Y-96200000D01*
X128114285Y-96142857D01*
X128085714Y-96114285D01*
X128028571Y-96085714D01*
X127914285Y-96057142D01*
X127857142Y-96028571D01*
X127828571Y-96000000D01*
X127800000Y-95942857D01*
X127800000Y-95885714D01*
X127828571Y-95828571D01*
X127857142Y-95800000D01*
X127914285Y-95771428D01*
X128057142Y-95771428D01*
X128142857Y-95800000D01*
X128314285Y-95771428D02*
X128657142Y-95771428D01*
X128485714Y-96371428D02*
X128485714Y-95771428D01*
X112842857Y-104042857D02*
X112928571Y-104071428D01*
X113071428Y-104071428D01*
X113128571Y-104042857D01*
X113157142Y-104014285D01*
X113185714Y-103957142D01*
X113185714Y-103900000D01*
X113157142Y-103842857D01*
X113128571Y-103814285D01*
X113071428Y-103785714D01*
X112957142Y-103757142D01*
X112900000Y-103728571D01*
X112871428Y-103700000D01*
X112842857Y-103642857D01*
X112842857Y-103585714D01*
X112871428Y-103528571D01*
X112900000Y-103500000D01*
X112957142Y-103471428D01*
X113100000Y-103471428D01*
X113185714Y-103500000D01*
X113385714Y-103471428D02*
X113528571Y-104071428D01*
X113642857Y-103642857D01*
X113757142Y-104071428D01*
X113900000Y-103471428D01*
X114471428Y-104014285D02*
X114442857Y-104042857D01*
X114357142Y-104071428D01*
X114300000Y-104071428D01*
X114214285Y-104042857D01*
X114157142Y-103985714D01*
X114128571Y-103928571D01*
X114100000Y-103814285D01*
X114100000Y-103728571D01*
X114128571Y-103614285D01*
X114157142Y-103557142D01*
X114214285Y-103500000D01*
X114300000Y-103471428D01*
X114357142Y-103471428D01*
X114442857Y-103500000D01*
X114471428Y-103528571D01*
X115014285Y-104071428D02*
X114728571Y-104071428D01*
X114728571Y-103471428D01*
X115214285Y-104071428D02*
X115214285Y-103471428D01*
X115557142Y-104071428D02*
X115300000Y-103728571D01*
X115557142Y-103471428D02*
X115214285Y-103814285D01*
X113128571Y-101442857D02*
X113214285Y-101471428D01*
X113357142Y-101471428D01*
X113414285Y-101442857D01*
X113442857Y-101414285D01*
X113471428Y-101357142D01*
X113471428Y-101300000D01*
X113442857Y-101242857D01*
X113414285Y-101214285D01*
X113357142Y-101185714D01*
X113242857Y-101157142D01*
X113185714Y-101128571D01*
X113157142Y-101100000D01*
X113128571Y-101042857D01*
X113128571Y-100985714D01*
X113157142Y-100928571D01*
X113185714Y-100900000D01*
X113242857Y-100871428D01*
X113385714Y-100871428D01*
X113471428Y-100900000D01*
X113671428Y-100871428D02*
X113814285Y-101471428D01*
X113928571Y-101042857D01*
X114042857Y-101471428D01*
X114185714Y-100871428D01*
X114414285Y-101471428D02*
X114414285Y-100871428D01*
X114557142Y-100871428D01*
X114642857Y-100900000D01*
X114700000Y-100957142D01*
X114728571Y-101014285D01*
X114757142Y-101128571D01*
X114757142Y-101214285D01*
X114728571Y-101328571D01*
X114700000Y-101385714D01*
X114642857Y-101442857D01*
X114557142Y-101471428D01*
X114414285Y-101471428D01*
X115014285Y-101471428D02*
X115014285Y-100871428D01*
X115414285Y-100871428D02*
X115528571Y-100871428D01*
X115585714Y-100900000D01*
X115642857Y-100957142D01*
X115671428Y-101071428D01*
X115671428Y-101271428D01*
X115642857Y-101385714D01*
X115585714Y-101442857D01*
X115528571Y-101471428D01*
X115414285Y-101471428D01*
X115357142Y-101442857D01*
X115300000Y-101385714D01*
X115271428Y-101271428D01*
X115271428Y-101071428D01*
X115300000Y-100957142D01*
X115357142Y-100900000D01*
X115414285Y-100871428D01*
X114342857Y-98300000D02*
X114285714Y-98271428D01*
X114200000Y-98271428D01*
X114114285Y-98300000D01*
X114057142Y-98357142D01*
X114028571Y-98414285D01*
X114000000Y-98528571D01*
X114000000Y-98614285D01*
X114028571Y-98728571D01*
X114057142Y-98785714D01*
X114114285Y-98842857D01*
X114200000Y-98871428D01*
X114257142Y-98871428D01*
X114342857Y-98842857D01*
X114371428Y-98814285D01*
X114371428Y-98614285D01*
X114257142Y-98614285D01*
X114628571Y-98871428D02*
X114628571Y-98271428D01*
X114971428Y-98871428D01*
X114971428Y-98271428D01*
X115257142Y-98871428D02*
X115257142Y-98271428D01*
X115400000Y-98271428D01*
X115485714Y-98300000D01*
X115542857Y-98357142D01*
X115571428Y-98414285D01*
X115600000Y-98528571D01*
X115600000Y-98614285D01*
X115571428Y-98728571D01*
X115542857Y-98785714D01*
X115485714Y-98842857D01*
X115400000Y-98871428D01*
X115257142Y-98871428D01*
X113200000Y-96342857D02*
X113657142Y-96342857D01*
X113428571Y-96571428D02*
X113428571Y-96114285D01*
X113885714Y-95971428D02*
X114257142Y-95971428D01*
X114057142Y-96200000D01*
X114142857Y-96200000D01*
X114200000Y-96228571D01*
X114228571Y-96257142D01*
X114257142Y-96314285D01*
X114257142Y-96457142D01*
X114228571Y-96514285D01*
X114200000Y-96542857D01*
X114142857Y-96571428D01*
X113971428Y-96571428D01*
X113914285Y-96542857D01*
X113885714Y-96514285D01*
X114542857Y-96542857D02*
X114542857Y-96571428D01*
X114514285Y-96628571D01*
X114485714Y-96657142D01*
X114742857Y-95971428D02*
X115114285Y-95971428D01*
X114914285Y-96200000D01*
X115000000Y-96200000D01*
X115057142Y-96228571D01*
X115085714Y-96257142D01*
X115114285Y-96314285D01*
X115114285Y-96457142D01*
X115085714Y-96514285D01*
X115057142Y-96542857D01*
X115000000Y-96571428D01*
X114828571Y-96571428D01*
X114771428Y-96542857D01*
X114742857Y-96514285D01*
X115285714Y-95971428D02*
X115485714Y-96571428D01*
X115685714Y-95971428D01*
X117485714Y-89000000D02*
X117485714Y-88161904D01*
X117942857Y-88580952D02*
X117028571Y-88580952D01*
X116742857Y-87742857D02*
X116742857Y-87061904D01*
X117200000Y-87428571D01*
X117200000Y-87271428D01*
X117257142Y-87166666D01*
X117314285Y-87114285D01*
X117428571Y-87061904D01*
X117714285Y-87061904D01*
X117828571Y-87114285D01*
X117885714Y-87166666D01*
X117942857Y-87271428D01*
X117942857Y-87585714D01*
X117885714Y-87690476D01*
X117828571Y-87742857D01*
X117885714Y-86538095D02*
X117942857Y-86538095D01*
X118057142Y-86590476D01*
X118114285Y-86642857D01*
X116742857Y-86171428D02*
X116742857Y-85490476D01*
X117200000Y-85857142D01*
X117200000Y-85700000D01*
X117257142Y-85595238D01*
X117314285Y-85542857D01*
X117428571Y-85490476D01*
X117714285Y-85490476D01*
X117828571Y-85542857D01*
X117885714Y-85595238D01*
X117942857Y-85700000D01*
X117942857Y-86014285D01*
X117885714Y-86119047D01*
X117828571Y-86171428D01*
X116742857Y-85176190D02*
X117942857Y-84809523D01*
X116742857Y-84442857D01*
D11*
X58150000Y-111350000D02*
X57950000Y-111350000D01*
X58200000Y-111250000D02*
X58050000Y-111900000D01*
X57900000Y-111250000D02*
X58050000Y-111850000D01*
X58200000Y-111250000D02*
X57900000Y-111250000D01*
X58050000Y-112150000D02*
X58050000Y-112150000D01*
X58050000Y-111300000D02*
X58050000Y-111850000D01*
X59250000Y-112400000D02*
X56850000Y-112400000D01*
X58050000Y-110800000D02*
X56850000Y-112400000D01*
X58050000Y-110800000D02*
X59250000Y-112400000D01*
D10*
X125928571Y-63035714D02*
X125976190Y-62892857D01*
X126023809Y-62845238D01*
X126119047Y-62797619D01*
X126261904Y-62797619D01*
X126357142Y-62845238D01*
X126404761Y-62892857D01*
X126452380Y-62988095D01*
X126452380Y-63369047D01*
X125452380Y-63369047D01*
X125452380Y-63035714D01*
X125500000Y-62940476D01*
X125547619Y-62892857D01*
X125642857Y-62845238D01*
X125738095Y-62845238D01*
X125833333Y-62892857D01*
X125880952Y-62940476D01*
X125928571Y-63035714D01*
X125928571Y-63369047D01*
X126452380Y-61892857D02*
X126452380Y-62369047D01*
X125452380Y-62369047D01*
X126452380Y-61559523D02*
X125452380Y-61559523D01*
X125452380Y-61321428D01*
X125500000Y-61178571D01*
X125595238Y-61083333D01*
X125690476Y-61035714D01*
X125880952Y-60988095D01*
X126023809Y-60988095D01*
X126214285Y-61035714D01*
X126309523Y-61083333D01*
X126404761Y-61178571D01*
X126452380Y-61321428D01*
X126452380Y-61559523D01*
X126357142Y-59988095D02*
X126404761Y-60035714D01*
X126452380Y-60178571D01*
X126452380Y-60273809D01*
X126404761Y-60416666D01*
X126309523Y-60511904D01*
X126214285Y-60559523D01*
X126023809Y-60607142D01*
X125880952Y-60607142D01*
X125690476Y-60559523D01*
X125595238Y-60511904D01*
X125500000Y-60416666D01*
X125452380Y-60273809D01*
X125452380Y-60178571D01*
X125500000Y-60035714D01*
X125547619Y-59988095D01*
X126547619Y-59797619D02*
X126547619Y-59035714D01*
X126452380Y-58369047D02*
X125452380Y-58369047D01*
X126404761Y-58369047D02*
X126452380Y-58464285D01*
X126452380Y-58654761D01*
X126404761Y-58750000D01*
X126357142Y-58797619D01*
X126261904Y-58845238D01*
X125976190Y-58845238D01*
X125880952Y-58797619D01*
X125833333Y-58750000D01*
X125785714Y-58654761D01*
X125785714Y-58464285D01*
X125833333Y-58369047D01*
X126452380Y-57892857D02*
X125785714Y-57892857D01*
X125976190Y-57892857D02*
X125880952Y-57845238D01*
X125833333Y-57797619D01*
X125785714Y-57702380D01*
X125785714Y-57607142D01*
X126452380Y-57273809D02*
X125785714Y-57273809D01*
X125452380Y-57273809D02*
X125500000Y-57321428D01*
X125547619Y-57273809D01*
X125500000Y-57226190D01*
X125452380Y-57273809D01*
X125547619Y-57273809D01*
X125785714Y-56892857D02*
X126452380Y-56654761D01*
X125785714Y-56416666D01*
X126404761Y-55654761D02*
X126452380Y-55750000D01*
X126452380Y-55940476D01*
X126404761Y-56035714D01*
X126309523Y-56083333D01*
X125928571Y-56083333D01*
X125833333Y-56035714D01*
X125785714Y-55940476D01*
X125785714Y-55750000D01*
X125833333Y-55654761D01*
X125928571Y-55607142D01*
X126023809Y-55607142D01*
X126119047Y-56083333D01*
X126452380Y-55178571D02*
X125785714Y-55178571D01*
X125976190Y-55178571D02*
X125880952Y-55130952D01*
X125833333Y-55083333D01*
X125785714Y-54988095D01*
X125785714Y-54892857D01*
X125785714Y-53892857D02*
X126452380Y-53654761D01*
X125785714Y-53416666D01*
X125452380Y-52845238D02*
X125452380Y-52750000D01*
X125500000Y-52654761D01*
X125547619Y-52607142D01*
X125642857Y-52559523D01*
X125833333Y-52511904D01*
X126071428Y-52511904D01*
X126261904Y-52559523D01*
X126357142Y-52607142D01*
X126404761Y-52654761D01*
X126452380Y-52750000D01*
X126452380Y-52845238D01*
X126404761Y-52940476D01*
X126357142Y-52988095D01*
X126261904Y-53035714D01*
X126071428Y-53083333D01*
X125833333Y-53083333D01*
X125642857Y-53035714D01*
X125547619Y-52988095D01*
X125500000Y-52940476D01*
X125452380Y-52845238D01*
X126357142Y-52083333D02*
X126404761Y-52035714D01*
X126452380Y-52083333D01*
X126404761Y-52130952D01*
X126357142Y-52083333D01*
X126452380Y-52083333D01*
X126452380Y-51083333D02*
X126452380Y-51654761D01*
X126452380Y-51369047D02*
X125452380Y-51369047D01*
X125595238Y-51464285D01*
X125690476Y-51559523D01*
X125738095Y-51654761D01*
X54038095Y-92300000D02*
X53942857Y-92252380D01*
X53800000Y-92252380D01*
X53657142Y-92300000D01*
X53561904Y-92395238D01*
X53514285Y-92490476D01*
X53466666Y-92680952D01*
X53466666Y-92823809D01*
X53514285Y-93014285D01*
X53561904Y-93109523D01*
X53657142Y-93204761D01*
X53800000Y-93252380D01*
X53895238Y-93252380D01*
X54038095Y-93204761D01*
X54085714Y-93157142D01*
X54085714Y-92823809D01*
X53895238Y-92823809D01*
X54514285Y-93252380D02*
X54514285Y-92252380D01*
X55085714Y-93252380D01*
X55085714Y-92252380D01*
X55561904Y-93252380D02*
X55561904Y-92252380D01*
X55800000Y-92252380D01*
X55942857Y-92300000D01*
X56038095Y-92395238D01*
X56085714Y-92490476D01*
X56133333Y-92680952D01*
X56133333Y-92823809D01*
X56085714Y-93014285D01*
X56038095Y-93109523D01*
X55942857Y-93204761D01*
X55800000Y-93252380D01*
X55561904Y-93252380D01*
X52838095Y-111921428D02*
X53600000Y-111921428D01*
X53219047Y-112302380D02*
X53219047Y-111540476D01*
X54028571Y-111397619D02*
X54076190Y-111350000D01*
X54171428Y-111302380D01*
X54409523Y-111302380D01*
X54504761Y-111350000D01*
X54552380Y-111397619D01*
X54600000Y-111492857D01*
X54600000Y-111588095D01*
X54552380Y-111730952D01*
X53980952Y-112302380D01*
X54600000Y-112302380D01*
X55457142Y-111635714D02*
X55457142Y-112302380D01*
X55219047Y-111254761D02*
X54980952Y-111969047D01*
X55600000Y-111969047D01*
X55838095Y-111302380D02*
X56171428Y-112302380D01*
X56504761Y-111302380D01*
X90928571Y-113802380D02*
X91119047Y-113802380D01*
X91214285Y-113850000D01*
X91309523Y-113945238D01*
X91357142Y-114135714D01*
X91357142Y-114469047D01*
X91309523Y-114659523D01*
X91214285Y-114754761D01*
X91119047Y-114802380D01*
X90928571Y-114802380D01*
X90833333Y-114754761D01*
X90738095Y-114659523D01*
X90690476Y-114469047D01*
X90690476Y-114135714D01*
X90738095Y-113945238D01*
X90833333Y-113850000D01*
X90928571Y-113802380D01*
X91785714Y-113802380D02*
X91785714Y-114611904D01*
X91833333Y-114707142D01*
X91880952Y-114754761D01*
X91976190Y-114802380D01*
X92166666Y-114802380D01*
X92261904Y-114754761D01*
X92309523Y-114707142D01*
X92357142Y-114611904D01*
X92357142Y-113802380D01*
X92690476Y-113802380D02*
X93261904Y-113802380D01*
X92976190Y-114802380D02*
X92976190Y-113802380D01*
X93500000Y-113802380D02*
X93738095Y-114802380D01*
X93928571Y-114088095D01*
X94119047Y-114802380D01*
X94357142Y-113802380D01*
X79771428Y-113852380D02*
X79961904Y-113852380D01*
X80057142Y-113900000D01*
X80152380Y-113995238D01*
X80200000Y-114185714D01*
X80200000Y-114519047D01*
X80152380Y-114709523D01*
X80057142Y-114804761D01*
X79961904Y-114852380D01*
X79771428Y-114852380D01*
X79676190Y-114804761D01*
X79580952Y-114709523D01*
X79533333Y-114519047D01*
X79533333Y-114185714D01*
X79580952Y-113995238D01*
X79676190Y-113900000D01*
X79771428Y-113852380D01*
X80628571Y-113852380D02*
X80628571Y-114661904D01*
X80676190Y-114757142D01*
X80723809Y-114804761D01*
X80819047Y-114852380D01*
X81009523Y-114852380D01*
X81104761Y-114804761D01*
X81152380Y-114757142D01*
X81200000Y-114661904D01*
X81200000Y-113852380D01*
X81533333Y-113852380D02*
X82104761Y-113852380D01*
X81819047Y-114852380D02*
X81819047Y-113852380D01*
X82295238Y-113852380D02*
X82628571Y-114852380D01*
X82961904Y-113852380D01*
X69376190Y-113952380D02*
X69566666Y-113952380D01*
X69661904Y-114000000D01*
X69757142Y-114095238D01*
X69804761Y-114285714D01*
X69804761Y-114619047D01*
X69757142Y-114809523D01*
X69661904Y-114904761D01*
X69566666Y-114952380D01*
X69376190Y-114952380D01*
X69280952Y-114904761D01*
X69185714Y-114809523D01*
X69138095Y-114619047D01*
X69138095Y-114285714D01*
X69185714Y-114095238D01*
X69280952Y-114000000D01*
X69376190Y-113952380D01*
X70233333Y-113952380D02*
X70233333Y-114761904D01*
X70280952Y-114857142D01*
X70328571Y-114904761D01*
X70423809Y-114952380D01*
X70614285Y-114952380D01*
X70709523Y-114904761D01*
X70757142Y-114857142D01*
X70804761Y-114761904D01*
X70804761Y-113952380D01*
X71138095Y-113952380D02*
X71709523Y-113952380D01*
X71423809Y-114952380D02*
X71423809Y-113952380D01*
X72042857Y-113952380D02*
X72042857Y-114761904D01*
X72090476Y-114857142D01*
X72138095Y-114904761D01*
X72233333Y-114952380D01*
X72423809Y-114952380D01*
X72519047Y-114904761D01*
X72566666Y-114857142D01*
X72614285Y-114761904D01*
X72614285Y-113952380D01*
X110004761Y-99161904D02*
X110052380Y-99019047D01*
X110052380Y-98780952D01*
X110004761Y-98685714D01*
X109957142Y-98638095D01*
X109861904Y-98590476D01*
X109766666Y-98590476D01*
X109671428Y-98638095D01*
X109623809Y-98685714D01*
X109576190Y-98780952D01*
X109528571Y-98971428D01*
X109480952Y-99066666D01*
X109433333Y-99114285D01*
X109338095Y-99161904D01*
X109242857Y-99161904D01*
X109147619Y-99114285D01*
X109100000Y-99066666D01*
X109052380Y-98971428D01*
X109052380Y-98733333D01*
X109100000Y-98590476D01*
X110004761Y-98209523D02*
X110052380Y-98066666D01*
X110052380Y-97828571D01*
X110004761Y-97733333D01*
X109957142Y-97685714D01*
X109861904Y-97638095D01*
X109766666Y-97638095D01*
X109671428Y-97685714D01*
X109623809Y-97733333D01*
X109576190Y-97828571D01*
X109528571Y-98019047D01*
X109480952Y-98114285D01*
X109433333Y-98161904D01*
X109338095Y-98209523D01*
X109242857Y-98209523D01*
X109147619Y-98161904D01*
X109100000Y-98114285D01*
X109052380Y-98019047D01*
X109052380Y-97780952D01*
X109100000Y-97638095D01*
X107652380Y-100771428D02*
X106652380Y-100771428D01*
X107366666Y-100438095D01*
X106652380Y-100104761D01*
X107652380Y-100104761D01*
X107652380Y-99628571D02*
X106652380Y-99628571D01*
X107604761Y-99200000D02*
X107652380Y-99057142D01*
X107652380Y-98819047D01*
X107604761Y-98723809D01*
X107557142Y-98676190D01*
X107461904Y-98628571D01*
X107366666Y-98628571D01*
X107271428Y-98676190D01*
X107223809Y-98723809D01*
X107176190Y-98819047D01*
X107128571Y-99009523D01*
X107080952Y-99104761D01*
X107033333Y-99152380D01*
X106938095Y-99200000D01*
X106842857Y-99200000D01*
X106747619Y-99152380D01*
X106700000Y-99104761D01*
X106652380Y-99009523D01*
X106652380Y-98771428D01*
X106700000Y-98628571D01*
X106652380Y-98009523D02*
X106652380Y-97819047D01*
X106700000Y-97723809D01*
X106795238Y-97628571D01*
X106985714Y-97580952D01*
X107319047Y-97580952D01*
X107509523Y-97628571D01*
X107604761Y-97723809D01*
X107652380Y-97819047D01*
X107652380Y-98009523D01*
X107604761Y-98104761D01*
X107509523Y-98200000D01*
X107319047Y-98247619D01*
X106985714Y-98247619D01*
X106795238Y-98200000D01*
X106700000Y-98104761D01*
X106652380Y-98009523D01*
X105052380Y-100771428D02*
X104052380Y-100771428D01*
X104766666Y-100438095D01*
X104052380Y-100104761D01*
X105052380Y-100104761D01*
X104052380Y-99438095D02*
X104052380Y-99247619D01*
X104100000Y-99152380D01*
X104195238Y-99057142D01*
X104385714Y-99009523D01*
X104719047Y-99009523D01*
X104909523Y-99057142D01*
X105004761Y-99152380D01*
X105052380Y-99247619D01*
X105052380Y-99438095D01*
X105004761Y-99533333D01*
X104909523Y-99628571D01*
X104719047Y-99676190D01*
X104385714Y-99676190D01*
X104195238Y-99628571D01*
X104100000Y-99533333D01*
X104052380Y-99438095D01*
X105004761Y-98628571D02*
X105052380Y-98485714D01*
X105052380Y-98247619D01*
X105004761Y-98152380D01*
X104957142Y-98104761D01*
X104861904Y-98057142D01*
X104766666Y-98057142D01*
X104671428Y-98104761D01*
X104623809Y-98152380D01*
X104576190Y-98247619D01*
X104528571Y-98438095D01*
X104480952Y-98533333D01*
X104433333Y-98580952D01*
X104338095Y-98628571D01*
X104242857Y-98628571D01*
X104147619Y-98580952D01*
X104100000Y-98533333D01*
X104052380Y-98438095D01*
X104052380Y-98200000D01*
X104100000Y-98057142D01*
X105052380Y-97628571D02*
X104052380Y-97628571D01*
X102404761Y-100185714D02*
X102452380Y-100042857D01*
X102452380Y-99804761D01*
X102404761Y-99709523D01*
X102357142Y-99661904D01*
X102261904Y-99614285D01*
X102166666Y-99614285D01*
X102071428Y-99661904D01*
X102023809Y-99709523D01*
X101976190Y-99804761D01*
X101928571Y-99995238D01*
X101880952Y-100090476D01*
X101833333Y-100138095D01*
X101738095Y-100185714D01*
X101642857Y-100185714D01*
X101547619Y-100138095D01*
X101500000Y-100090476D01*
X101452380Y-99995238D01*
X101452380Y-99757142D01*
X101500000Y-99614285D01*
X102357142Y-98614285D02*
X102404761Y-98661904D01*
X102452380Y-98804761D01*
X102452380Y-98900000D01*
X102404761Y-99042857D01*
X102309523Y-99138095D01*
X102214285Y-99185714D01*
X102023809Y-99233333D01*
X101880952Y-99233333D01*
X101690476Y-99185714D01*
X101595238Y-99138095D01*
X101500000Y-99042857D01*
X101452380Y-98900000D01*
X101452380Y-98804761D01*
X101500000Y-98661904D01*
X101547619Y-98614285D01*
X102452380Y-98185714D02*
X101452380Y-98185714D01*
X102452380Y-97614285D02*
X101880952Y-98042857D01*
X101452380Y-97614285D02*
X102023809Y-98185714D01*
X108988095Y-91250000D02*
X108892857Y-91202380D01*
X108750000Y-91202380D01*
X108607142Y-91250000D01*
X108511904Y-91345238D01*
X108464285Y-91440476D01*
X108416666Y-91630952D01*
X108416666Y-91773809D01*
X108464285Y-91964285D01*
X108511904Y-92059523D01*
X108607142Y-92154761D01*
X108750000Y-92202380D01*
X108845238Y-92202380D01*
X108988095Y-92154761D01*
X109035714Y-92107142D01*
X109035714Y-91773809D01*
X108845238Y-91773809D01*
X109464285Y-92202380D02*
X109464285Y-91202380D01*
X110035714Y-92202380D01*
X110035714Y-91202380D01*
X110511904Y-92202380D02*
X110511904Y-91202380D01*
X110750000Y-91202380D01*
X110892857Y-91250000D01*
X110988095Y-91345238D01*
X111035714Y-91440476D01*
X111083333Y-91630952D01*
X111083333Y-91773809D01*
X111035714Y-91964285D01*
X110988095Y-92059523D01*
X110892857Y-92154761D01*
X110750000Y-92202380D01*
X110511904Y-92202380D01*
X103654761Y-92107142D02*
X103607142Y-92154761D01*
X103464285Y-92202380D01*
X103369047Y-92202380D01*
X103226190Y-92154761D01*
X103130952Y-92059523D01*
X103083333Y-91964285D01*
X103035714Y-91773809D01*
X103035714Y-91630952D01*
X103083333Y-91440476D01*
X103130952Y-91345238D01*
X103226190Y-91250000D01*
X103369047Y-91202380D01*
X103464285Y-91202380D01*
X103607142Y-91250000D01*
X103654761Y-91297619D01*
X104559523Y-92202380D02*
X104083333Y-92202380D01*
X104083333Y-91202380D01*
X104892857Y-92202380D02*
X104892857Y-91202380D01*
X105464285Y-92202380D02*
X105035714Y-91630952D01*
X105464285Y-91202380D02*
X104892857Y-91773809D01*
X106476190Y-92202380D02*
X106476190Y-91202380D01*
X107142857Y-91202380D02*
X107333333Y-91202380D01*
X107428571Y-91250000D01*
X107523809Y-91345238D01*
X107571428Y-91535714D01*
X107571428Y-91869047D01*
X107523809Y-92059523D01*
X107428571Y-92154761D01*
X107333333Y-92202380D01*
X107142857Y-92202380D01*
X107047619Y-92154761D01*
X106952380Y-92059523D01*
X106904761Y-91869047D01*
X106904761Y-91535714D01*
X106952380Y-91345238D01*
X107047619Y-91250000D01*
X107142857Y-91202380D01*
X98000000Y-91821428D02*
X98761904Y-91821428D01*
X98380952Y-92202380D02*
X98380952Y-91440476D01*
X99142857Y-91202380D02*
X99761904Y-91202380D01*
X99428571Y-91583333D01*
X99571428Y-91583333D01*
X99666666Y-91630952D01*
X99714285Y-91678571D01*
X99761904Y-91773809D01*
X99761904Y-92011904D01*
X99714285Y-92107142D01*
X99666666Y-92154761D01*
X99571428Y-92202380D01*
X99285714Y-92202380D01*
X99190476Y-92154761D01*
X99142857Y-92107142D01*
X100190476Y-92107142D02*
X100238095Y-92154761D01*
X100190476Y-92202380D01*
X100142857Y-92154761D01*
X100190476Y-92107142D01*
X100190476Y-92202380D01*
X100571428Y-91202380D02*
X101190476Y-91202380D01*
X100857142Y-91583333D01*
X101000000Y-91583333D01*
X101095238Y-91630952D01*
X101142857Y-91678571D01*
X101190476Y-91773809D01*
X101190476Y-92011904D01*
X101142857Y-92107142D01*
X101095238Y-92154761D01*
X101000000Y-92202380D01*
X100714285Y-92202380D01*
X100619047Y-92154761D01*
X100571428Y-92107142D01*
X101476190Y-91202380D02*
X101809523Y-92202380D01*
X102142857Y-91202380D01*
X125595238Y-89078571D02*
X125738095Y-89126190D01*
X125785714Y-89173809D01*
X125833333Y-89269047D01*
X125833333Y-89411904D01*
X125785714Y-89507142D01*
X125738095Y-89554761D01*
X125642857Y-89602380D01*
X125261904Y-89602380D01*
X125261904Y-88602380D01*
X125595238Y-88602380D01*
X125690476Y-88650000D01*
X125738095Y-88697619D01*
X125785714Y-88792857D01*
X125785714Y-88888095D01*
X125738095Y-88983333D01*
X125690476Y-89030952D01*
X125595238Y-89078571D01*
X125261904Y-89078571D01*
X126785714Y-89602380D02*
X126214285Y-89602380D01*
X126500000Y-89602380D02*
X126500000Y-88602380D01*
X126404761Y-88745238D01*
X126309523Y-88840476D01*
X126214285Y-88888095D01*
X125595238Y-83828571D02*
X125738095Y-83876190D01*
X125785714Y-83923809D01*
X125833333Y-84019047D01*
X125833333Y-84161904D01*
X125785714Y-84257142D01*
X125738095Y-84304761D01*
X125642857Y-84352380D01*
X125261904Y-84352380D01*
X125261904Y-83352380D01*
X125595238Y-83352380D01*
X125690476Y-83400000D01*
X125738095Y-83447619D01*
X125785714Y-83542857D01*
X125785714Y-83638095D01*
X125738095Y-83733333D01*
X125690476Y-83780952D01*
X125595238Y-83828571D01*
X125261904Y-83828571D01*
X126452380Y-83352380D02*
X126547619Y-83352380D01*
X126642857Y-83400000D01*
X126690476Y-83447619D01*
X126738095Y-83542857D01*
X126785714Y-83733333D01*
X126785714Y-83971428D01*
X126738095Y-84161904D01*
X126690476Y-84257142D01*
X126642857Y-84304761D01*
X126547619Y-84352380D01*
X126452380Y-84352380D01*
X126357142Y-84304761D01*
X126309523Y-84257142D01*
X126261904Y-84161904D01*
X126214285Y-83971428D01*
X126214285Y-83733333D01*
X126261904Y-83542857D01*
X126309523Y-83447619D01*
X126357142Y-83400000D01*
X126452380Y-83352380D01*
X120809523Y-72654761D02*
X120952380Y-72702380D01*
X121190476Y-72702380D01*
X121285714Y-72654761D01*
X121333333Y-72607142D01*
X121380952Y-72511904D01*
X121380952Y-72416666D01*
X121333333Y-72321428D01*
X121285714Y-72273809D01*
X121190476Y-72226190D01*
X121000000Y-72178571D01*
X120904761Y-72130952D01*
X120857142Y-72083333D01*
X120809523Y-71988095D01*
X120809523Y-71892857D01*
X120857142Y-71797619D01*
X120904761Y-71750000D01*
X121000000Y-71702380D01*
X121238095Y-71702380D01*
X121380952Y-71750000D01*
X122380952Y-72607142D02*
X122333333Y-72654761D01*
X122190476Y-72702380D01*
X122095238Y-72702380D01*
X121952380Y-72654761D01*
X121857142Y-72559523D01*
X121809523Y-72464285D01*
X121761904Y-72273809D01*
X121761904Y-72130952D01*
X121809523Y-71940476D01*
X121857142Y-71845238D01*
X121952380Y-71750000D01*
X122095238Y-71702380D01*
X122190476Y-71702380D01*
X122333333Y-71750000D01*
X122380952Y-71797619D01*
X123285714Y-72702380D02*
X122809523Y-72702380D01*
X122809523Y-71702380D01*
X120785714Y-69904761D02*
X120928571Y-69952380D01*
X121166666Y-69952380D01*
X121261904Y-69904761D01*
X121309523Y-69857142D01*
X121357142Y-69761904D01*
X121357142Y-69666666D01*
X121309523Y-69571428D01*
X121261904Y-69523809D01*
X121166666Y-69476190D01*
X120976190Y-69428571D01*
X120880952Y-69380952D01*
X120833333Y-69333333D01*
X120785714Y-69238095D01*
X120785714Y-69142857D01*
X120833333Y-69047619D01*
X120880952Y-69000000D01*
X120976190Y-68952380D01*
X121214285Y-68952380D01*
X121357142Y-69000000D01*
X121785714Y-69952380D02*
X121785714Y-68952380D01*
X122023809Y-68952380D01*
X122166666Y-69000000D01*
X122261904Y-69095238D01*
X122309523Y-69190476D01*
X122357142Y-69380952D01*
X122357142Y-69523809D01*
X122309523Y-69714285D01*
X122261904Y-69809523D01*
X122166666Y-69904761D01*
X122023809Y-69952380D01*
X121785714Y-69952380D01*
X122738095Y-69666666D02*
X123214285Y-69666666D01*
X122642857Y-69952380D02*
X122976190Y-68952380D01*
X123309523Y-69952380D01*
X73111904Y-45173809D02*
X72311904Y-45173809D01*
X72692857Y-45173809D02*
X72692857Y-44716666D01*
X73111904Y-44716666D02*
X72311904Y-44716666D01*
X72883333Y-44373809D02*
X72883333Y-43992857D01*
X73111904Y-44450000D02*
X72311904Y-44183333D01*
X73111904Y-43916666D01*
X73111904Y-43269047D02*
X73111904Y-43650000D01*
X72311904Y-43650000D01*
X73111904Y-42621428D02*
X73111904Y-43002380D01*
X72311904Y-43002380D01*
X73035714Y-41288095D02*
X73073809Y-41326190D01*
X73111904Y-41440476D01*
X73111904Y-41516666D01*
X73073809Y-41630952D01*
X72997619Y-41707142D01*
X72921428Y-41745238D01*
X72769047Y-41783333D01*
X72654761Y-41783333D01*
X72502380Y-41745238D01*
X72426190Y-41707142D01*
X72350000Y-41630952D01*
X72311904Y-41516666D01*
X72311904Y-41440476D01*
X72350000Y-41326190D01*
X72388095Y-41288095D01*
X70611904Y-45173809D02*
X69811904Y-45173809D01*
X70192857Y-45173809D02*
X70192857Y-44716666D01*
X70611904Y-44716666D02*
X69811904Y-44716666D01*
X70383333Y-44373809D02*
X70383333Y-43992857D01*
X70611904Y-44450000D02*
X69811904Y-44183333D01*
X70611904Y-43916666D01*
X70611904Y-43269047D02*
X70611904Y-43650000D01*
X69811904Y-43650000D01*
X70611904Y-42621428D02*
X70611904Y-43002380D01*
X69811904Y-43002380D01*
X70192857Y-41478571D02*
X70230952Y-41364285D01*
X70269047Y-41326190D01*
X70345238Y-41288095D01*
X70459523Y-41288095D01*
X70535714Y-41326190D01*
X70573809Y-41364285D01*
X70611904Y-41440476D01*
X70611904Y-41745238D01*
X69811904Y-41745238D01*
X69811904Y-41478571D01*
X69850000Y-41402380D01*
X69888095Y-41364285D01*
X69964285Y-41326190D01*
X70040476Y-41326190D01*
X70116666Y-41364285D01*
X70154761Y-41402380D01*
X70192857Y-41478571D01*
X70192857Y-41745238D01*
X67861904Y-45116666D02*
X67061904Y-45116666D01*
X67442857Y-45116666D02*
X67442857Y-44659523D01*
X67861904Y-44659523D02*
X67061904Y-44659523D01*
X67633333Y-44316666D02*
X67633333Y-43935714D01*
X67861904Y-44392857D02*
X67061904Y-44126190D01*
X67861904Y-43859523D01*
X67861904Y-43211904D02*
X67861904Y-43592857D01*
X67061904Y-43592857D01*
X67861904Y-42564285D02*
X67861904Y-42945238D01*
X67061904Y-42945238D01*
X67633333Y-41726190D02*
X67633333Y-41345238D01*
X67861904Y-41802380D02*
X67061904Y-41535714D01*
X67861904Y-41269047D01*
X64600000Y-44609523D02*
X64561904Y-44685714D01*
X64561904Y-44800000D01*
X64600000Y-44914285D01*
X64676190Y-44990476D01*
X64752380Y-45028571D01*
X64904761Y-45066666D01*
X65019047Y-45066666D01*
X65171428Y-45028571D01*
X65247619Y-44990476D01*
X65323809Y-44914285D01*
X65361904Y-44800000D01*
X65361904Y-44723809D01*
X65323809Y-44609523D01*
X65285714Y-44571428D01*
X65019047Y-44571428D01*
X65019047Y-44723809D01*
X65361904Y-44228571D02*
X64561904Y-44228571D01*
X65361904Y-43771428D01*
X64561904Y-43771428D01*
X65361904Y-43390476D02*
X64561904Y-43390476D01*
X64561904Y-43200000D01*
X64600000Y-43085714D01*
X64676190Y-43009523D01*
X64752380Y-42971428D01*
X64904761Y-42933333D01*
X65019047Y-42933333D01*
X65171428Y-42971428D01*
X65247619Y-43009523D01*
X65323809Y-43085714D01*
X65361904Y-43200000D01*
X65361904Y-43390476D01*
X62557142Y-45100000D02*
X62557142Y-44490476D01*
X62861904Y-44795238D02*
X62252380Y-44795238D01*
X62061904Y-44185714D02*
X62061904Y-43690476D01*
X62366666Y-43957142D01*
X62366666Y-43842857D01*
X62404761Y-43766666D01*
X62442857Y-43728571D01*
X62519047Y-43690476D01*
X62709523Y-43690476D01*
X62785714Y-43728571D01*
X62823809Y-43766666D01*
X62861904Y-43842857D01*
X62861904Y-44071428D01*
X62823809Y-44147619D01*
X62785714Y-44185714D01*
X62785714Y-43347619D02*
X62823809Y-43309523D01*
X62861904Y-43347619D01*
X62823809Y-43385714D01*
X62785714Y-43347619D01*
X62861904Y-43347619D01*
X62061904Y-43042857D02*
X62061904Y-42547619D01*
X62366666Y-42814285D01*
X62366666Y-42700000D01*
X62404761Y-42623809D01*
X62442857Y-42585714D01*
X62519047Y-42547619D01*
X62709523Y-42547619D01*
X62785714Y-42585714D01*
X62823809Y-42623809D01*
X62861904Y-42700000D01*
X62861904Y-42928571D01*
X62823809Y-43004761D01*
X62785714Y-43042857D01*
X62061904Y-42319047D02*
X62861904Y-42052380D01*
X62061904Y-41785714D01*
D11*
X84500000Y-102812500D02*
X84500000Y-92812500D01*
X90500000Y-102812500D02*
X84500000Y-102812500D01*
X90500000Y-92812500D02*
X90500000Y-102812500D01*
X84500000Y-92812500D02*
X90500000Y-92812500D01*
X73500000Y-102862500D02*
X73500000Y-92862500D01*
X79500000Y-102862500D02*
X73500000Y-102862500D01*
X79500000Y-92862500D02*
X79500000Y-102862500D01*
X73500000Y-92862500D02*
X79500000Y-92862500D01*
X63350000Y-102862500D02*
X63350000Y-92862500D01*
X69350000Y-102862500D02*
X63350000Y-102862500D01*
X69350000Y-92862500D02*
X69350000Y-102862500D01*
X63350000Y-92862500D02*
X69350000Y-92862500D01*
X60600000Y-94380000D02*
X48126000Y-94380000D01*
D12*
G36*
X48126000Y-102508000D02*
G01*
X49650000Y-103778000D01*
X49650000Y-107715000D01*
X48126000Y-109112000D01*
X48126000Y-102508000D01*
G37*
X48126000Y-102508000D02*
X49650000Y-103778000D01*
X49650000Y-107715000D01*
X48126000Y-109112000D01*
X48126000Y-102508000D01*
D11*
X48126000Y-94380000D02*
X48100000Y-109620000D01*
X48100000Y-109620000D02*
X60600000Y-109620000D01*
X60600000Y-109620000D02*
X60600000Y-94380000D01*
D12*
G36*
X48126000Y-95015000D02*
G01*
X49650000Y-96221500D01*
X49650000Y-100158500D01*
X48126000Y-101619000D01*
X48126000Y-95015000D01*
G37*
X48126000Y-95015000D02*
X49650000Y-96221500D01*
X49650000Y-100158500D01*
X48126000Y-101619000D01*
X48126000Y-95015000D01*
D11*
X91980000Y-119800000D02*
X69180000Y-119800000D01*
D12*
G36*
X84898000Y-131874000D02*
G01*
X86168000Y-130250000D01*
X90105000Y-130250000D01*
X91502000Y-131874000D01*
X84898000Y-131874000D01*
G37*
X84898000Y-131874000D02*
X86168000Y-130250000D01*
X90105000Y-130250000D01*
X91502000Y-131874000D01*
X84898000Y-131874000D01*
G36*
X77405000Y-131874000D02*
G01*
X78675000Y-130250000D01*
X82612000Y-130250000D01*
X84009000Y-131874000D01*
X77405000Y-131874000D01*
G37*
X77405000Y-131874000D02*
X78675000Y-130250000D01*
X82612000Y-130250000D01*
X84009000Y-131874000D01*
X77405000Y-131874000D01*
G36*
X69912000Y-131874000D02*
G01*
X71182000Y-130250000D01*
X75119000Y-130250000D01*
X76516000Y-131874000D01*
X69912000Y-131874000D01*
G37*
X69912000Y-131874000D02*
X71182000Y-130250000D01*
X75119000Y-130250000D01*
X76516000Y-131874000D01*
X69912000Y-131874000D01*
D11*
X92010000Y-119400000D02*
X69150000Y-119400000D01*
X92010000Y-131900000D02*
X92010000Y-119400000D01*
X69150000Y-131900000D02*
X92010000Y-131900000D01*
X69150000Y-119400000D02*
X69150000Y-131874000D01*
D13*
X75862600Y-62825400D02*
G75*
G03X75862600Y-62825400I-125000J0D01*
G01*
D11*
X89113000Y-108491000D02*
X89913000Y-108491000D01*
X89113000Y-108011000D02*
X89113000Y-108491000D01*
X86083000Y-108011000D02*
X89113000Y-108011000D01*
X86083000Y-108491000D02*
X86083000Y-108011000D01*
X85313000Y-108491000D02*
X86083000Y-108491000D01*
X89913000Y-105316000D02*
X89913000Y-108491000D01*
X85313000Y-105291000D02*
X85313000Y-108491000D01*
X84819000Y-105291000D02*
X85313000Y-105291000D01*
X90407000Y-105316000D02*
X89913000Y-105316000D01*
X90407000Y-104411000D02*
X90407000Y-105316000D01*
X84819000Y-104386000D02*
X84819000Y-105291000D01*
X84819000Y-104386000D02*
X85313000Y-104386000D01*
X89913000Y-104411000D02*
X90407000Y-104411000D01*
X89913000Y-103961000D02*
X89913000Y-104386000D01*
X85313000Y-103961000D02*
X85313000Y-104386000D01*
X89893000Y-103961000D02*
X85333000Y-103961000D01*
X89063000Y-116131000D02*
X89863000Y-116131000D01*
X89063000Y-115651000D02*
X89063000Y-116131000D01*
X86033000Y-115651000D02*
X89063000Y-115651000D01*
X86033000Y-116131000D02*
X86033000Y-115651000D01*
X85263000Y-116131000D02*
X86033000Y-116131000D01*
X89863000Y-112956000D02*
X89863000Y-116131000D01*
X85263000Y-112931000D02*
X85263000Y-116131000D01*
X84769000Y-112931000D02*
X85263000Y-112931000D01*
X90357000Y-112956000D02*
X89863000Y-112956000D01*
X90357000Y-112051000D02*
X90357000Y-112956000D01*
X84769000Y-112026000D02*
X84769000Y-112931000D01*
X84769000Y-112026000D02*
X85263000Y-112026000D01*
X89863000Y-112051000D02*
X90357000Y-112051000D01*
X89863000Y-111601000D02*
X89863000Y-112026000D01*
X85263000Y-111601000D02*
X85263000Y-112026000D01*
X89843000Y-111601000D02*
X85283000Y-111601000D01*
X77963000Y-108591000D02*
X78763000Y-108591000D01*
X77963000Y-108111000D02*
X77963000Y-108591000D01*
X74933000Y-108111000D02*
X77963000Y-108111000D01*
X74933000Y-108591000D02*
X74933000Y-108111000D01*
X74163000Y-108591000D02*
X74933000Y-108591000D01*
X78763000Y-105416000D02*
X78763000Y-108591000D01*
X74163000Y-105391000D02*
X74163000Y-108591000D01*
X73669000Y-105391000D02*
X74163000Y-105391000D01*
X79257000Y-105416000D02*
X78763000Y-105416000D01*
X79257000Y-104511000D02*
X79257000Y-105416000D01*
X73669000Y-104486000D02*
X73669000Y-105391000D01*
X73669000Y-104486000D02*
X74163000Y-104486000D01*
X78763000Y-104511000D02*
X79257000Y-104511000D01*
X78763000Y-104061000D02*
X78763000Y-104486000D01*
X74163000Y-104061000D02*
X74163000Y-104486000D01*
X78743000Y-104061000D02*
X74183000Y-104061000D01*
X77988000Y-116116000D02*
X78788000Y-116116000D01*
X77988000Y-115636000D02*
X77988000Y-116116000D01*
X74958000Y-115636000D02*
X77988000Y-115636000D01*
X74958000Y-116116000D02*
X74958000Y-115636000D01*
X74188000Y-116116000D02*
X74958000Y-116116000D01*
X78788000Y-112941000D02*
X78788000Y-116116000D01*
X74188000Y-112916000D02*
X74188000Y-116116000D01*
X73694000Y-112916000D02*
X74188000Y-112916000D01*
X79282000Y-112941000D02*
X78788000Y-112941000D01*
X79282000Y-112036000D02*
X79282000Y-112941000D01*
X73694000Y-112011000D02*
X73694000Y-112916000D01*
X73694000Y-112011000D02*
X74188000Y-112011000D01*
X78788000Y-112036000D02*
X79282000Y-112036000D01*
X78788000Y-111586000D02*
X78788000Y-112011000D01*
X74188000Y-111586000D02*
X74188000Y-112011000D01*
X78768000Y-111586000D02*
X74208000Y-111586000D01*
X68063000Y-108591000D02*
X68863000Y-108591000D01*
X68063000Y-108111000D02*
X68063000Y-108591000D01*
X65033000Y-108111000D02*
X68063000Y-108111000D01*
X65033000Y-108591000D02*
X65033000Y-108111000D01*
X64263000Y-108591000D02*
X65033000Y-108591000D01*
X68863000Y-105416000D02*
X68863000Y-108591000D01*
X64263000Y-105391000D02*
X64263000Y-108591000D01*
X63769000Y-105391000D02*
X64263000Y-105391000D01*
X69357000Y-105416000D02*
X68863000Y-105416000D01*
X69357000Y-104511000D02*
X69357000Y-105416000D01*
X63769000Y-104486000D02*
X63769000Y-105391000D01*
X63769000Y-104486000D02*
X64263000Y-104486000D01*
X68863000Y-104511000D02*
X69357000Y-104511000D01*
X68863000Y-104061000D02*
X68863000Y-104486000D01*
X64263000Y-104061000D02*
X64263000Y-104486000D01*
X68843000Y-104061000D02*
X64283000Y-104061000D01*
X68063000Y-116131000D02*
X68863000Y-116131000D01*
X68063000Y-115651000D02*
X68063000Y-116131000D01*
X65033000Y-115651000D02*
X68063000Y-115651000D01*
X65033000Y-116131000D02*
X65033000Y-115651000D01*
X64263000Y-116131000D02*
X65033000Y-116131000D01*
X68863000Y-112956000D02*
X68863000Y-116131000D01*
X64263000Y-112931000D02*
X64263000Y-116131000D01*
X63769000Y-112931000D02*
X64263000Y-112931000D01*
X69357000Y-112956000D02*
X68863000Y-112956000D01*
X69357000Y-112051000D02*
X69357000Y-112956000D01*
X63769000Y-112026000D02*
X63769000Y-112931000D01*
X63769000Y-112026000D02*
X64263000Y-112026000D01*
X68863000Y-112051000D02*
X69357000Y-112051000D01*
X68863000Y-111601000D02*
X68863000Y-112026000D01*
X64263000Y-111601000D02*
X64263000Y-112026000D01*
X68843000Y-111601000D02*
X64283000Y-111601000D01*
X118469500Y-54917500D02*
X102494500Y-54917500D01*
X118469500Y-60017500D02*
X118469500Y-54917500D01*
X102494500Y-60017500D02*
X118469500Y-60017500D01*
X100670000Y-96730000D02*
X100670000Y-95400000D01*
X102000000Y-96730000D02*
X100670000Y-96730000D01*
X103270000Y-96730000D02*
X103270000Y-94070000D01*
X103270000Y-94070000D02*
X110950000Y-94070000D01*
X103270000Y-96730000D02*
X110950000Y-96730000D01*
X110950000Y-96730000D02*
X110950000Y-94070000D01*
X93225000Y-110300000D02*
G75*
G03X93225000Y-110300000I-700000J0D01*
G01*
X82200000Y-110350000D02*
G75*
G03X82200000Y-110350000I-700000J0D01*
G01*
X71375000Y-110375000D02*
G75*
G03X71375000Y-110375000I-700000J0D01*
G01*
X72350000Y-54600000D02*
X72350000Y-50700000D01*
X74350000Y-54600000D02*
X74350000Y-50700000D01*
X72350000Y-54600000D02*
X74350000Y-54600000D01*
X61600000Y-55700000D02*
X63450000Y-55700000D01*
X61600000Y-56900000D02*
X63450000Y-56900000D01*
X63450000Y-56900000D02*
X63450000Y-55700000D01*
X98151767Y-61212000D02*
X97809233Y-61212000D01*
X98151767Y-62232000D02*
X97809233Y-62232000D01*
X117453733Y-62260000D02*
X117796267Y-62260000D01*
X117453733Y-61240000D02*
X117796267Y-61240000D01*
X108730000Y-44770000D02*
X108730000Y-44800000D01*
X108730000Y-51230000D02*
X108730000Y-51200000D01*
X102270000Y-51230000D02*
X102270000Y-51200000D01*
X102270000Y-44800000D02*
X102270000Y-44770000D01*
X108730000Y-46700000D02*
X108730000Y-49300000D01*
X102270000Y-44770000D02*
X108730000Y-44770000D01*
X102270000Y-46700000D02*
X102270000Y-49300000D01*
X102270000Y-51230000D02*
X108730000Y-51230000D01*
X80460000Y-53840000D02*
X79260000Y-53840000D01*
X75940000Y-53840000D02*
X77140000Y-53840000D01*
X75940000Y-57295563D02*
X75940000Y-53840000D01*
X80460000Y-57295563D02*
X80460000Y-53840000D01*
X79395563Y-58360000D02*
X79260000Y-58360000D01*
X77004437Y-58360000D02*
X77140000Y-58360000D01*
X77004437Y-58360000D02*
X75940000Y-57295563D01*
X79395563Y-58360000D02*
X80460000Y-57295563D01*
X76640000Y-59100000D02*
X76640000Y-58600000D01*
X76390000Y-58850000D02*
X76890000Y-58850000D01*
X96765000Y-66503733D02*
X96765000Y-66846267D01*
X97785000Y-66503733D02*
X97785000Y-66846267D01*
X101492233Y-62037500D02*
X101834767Y-62037500D01*
X101492233Y-63057500D02*
X101834767Y-63057500D01*
X117840000Y-66721267D02*
X117840000Y-66378733D01*
X118860000Y-66721267D02*
X118860000Y-66378733D01*
X99960000Y-82346267D02*
X99960000Y-82003733D01*
X98940000Y-82346267D02*
X98940000Y-82003733D01*
X81260000Y-64221267D02*
X81260000Y-63878733D01*
X80240000Y-64221267D02*
X80240000Y-63878733D01*
X82971267Y-70590000D02*
X82628733Y-70590000D01*
X82971267Y-71610000D02*
X82628733Y-71610000D01*
X62260000Y-66071267D02*
X62260000Y-65728733D01*
X61240000Y-66071267D02*
X61240000Y-65728733D01*
X61996267Y-72940000D02*
X61653733Y-72940000D01*
X61996267Y-73960000D02*
X61653733Y-73960000D01*
X74610000Y-56921267D02*
X74610000Y-56578733D01*
X73590000Y-56921267D02*
X73590000Y-56578733D01*
X110721267Y-63060000D02*
X110378733Y-63060000D01*
X110721267Y-62040000D02*
X110378733Y-62040000D01*
X105928733Y-62040000D02*
X106271267Y-62040000D01*
X105928733Y-63060000D02*
X106271267Y-63060000D01*
X114821267Y-82940000D02*
X114478733Y-82940000D01*
X114821267Y-83960000D02*
X114478733Y-83960000D01*
X69121267Y-73210000D02*
X68778733Y-73210000D01*
X69121267Y-72190000D02*
X68778733Y-72190000D01*
X79110000Y-61478733D02*
X79110000Y-61821267D01*
X78090000Y-61478733D02*
X78090000Y-61821267D01*
X59821267Y-59060000D02*
X59478733Y-59060000D01*
X59821267Y-58040000D02*
X59478733Y-58040000D01*
X82210000Y-56471267D02*
X82210000Y-56128733D01*
X81190000Y-56471267D02*
X81190000Y-56128733D01*
X62750000Y-52790000D02*
X60065000Y-52790000D01*
X60065000Y-52790000D02*
X60065000Y-54710000D01*
X60065000Y-54710000D02*
X62750000Y-54710000D01*
X76150000Y-75100000D02*
X74450000Y-75100000D01*
X74450000Y-75100000D02*
X74450000Y-78250000D01*
X76150000Y-75100000D02*
X76150000Y-78250000D01*
X79800000Y-75200000D02*
X79800000Y-78350000D01*
X78100000Y-75200000D02*
X78100000Y-78350000D01*
X79800000Y-75200000D02*
X78100000Y-75200000D01*
X71200000Y-75000000D02*
X71200000Y-78150000D01*
X69500000Y-75000000D02*
X69500000Y-78150000D01*
X71200000Y-75000000D02*
X69500000Y-75000000D01*
X74150000Y-75100000D02*
X72450000Y-75100000D01*
X72450000Y-75100000D02*
X72450000Y-78250000D01*
X74150000Y-75100000D02*
X74150000Y-78250000D01*
X62900000Y-78950000D02*
X61200000Y-78950000D01*
X61200000Y-78950000D02*
X61200000Y-82100000D01*
X62900000Y-78950000D02*
X62900000Y-82100000D01*
X69200000Y-75000000D02*
X69200000Y-78150000D01*
X67500000Y-75000000D02*
X67500000Y-78150000D01*
X69200000Y-75000000D02*
X67500000Y-75000000D01*
X74040000Y-48580000D02*
X74040000Y-45920000D01*
X63820000Y-48580000D02*
X74040000Y-48580000D01*
X63820000Y-45920000D02*
X74040000Y-45920000D01*
X63820000Y-48580000D02*
X63820000Y-45920000D01*
X62550000Y-48580000D02*
X61220000Y-48580000D01*
X61220000Y-48580000D02*
X61220000Y-47250000D01*
X110940000Y-86170000D02*
X110940000Y-88830000D01*
X100660000Y-86170000D02*
X100660000Y-88830000D01*
X110940000Y-88830000D02*
X107830000Y-88830000D01*
X110370000Y-86170000D02*
X110370000Y-84650000D01*
X110940000Y-86170000D02*
X110370000Y-86170000D01*
X101230000Y-88830000D02*
X100660000Y-88830000D01*
X106310000Y-88830000D02*
X102750000Y-88830000D01*
X108850000Y-86170000D02*
X105290000Y-86170000D01*
X103770000Y-86170000D02*
X100660000Y-86170000D01*
X123600000Y-105140000D02*
X118400000Y-105140000D01*
X123600000Y-94860000D02*
X118400000Y-94860000D01*
X125040000Y-104570000D02*
X123600000Y-104570000D01*
X123600000Y-105140000D02*
X123600000Y-104570000D01*
X118400000Y-105140000D02*
X118400000Y-104570000D01*
X123600000Y-95430000D02*
X123600000Y-94860000D01*
X118400000Y-95430000D02*
X118400000Y-94860000D01*
X123600000Y-103050000D02*
X123600000Y-102030000D01*
X118400000Y-103050000D02*
X118400000Y-102030000D01*
X123600000Y-100510000D02*
X123600000Y-99490000D01*
X118400000Y-100510000D02*
X118400000Y-99490000D01*
X123600000Y-97970000D02*
X123600000Y-96950000D01*
X118400000Y-97970000D02*
X118400000Y-96950000D01*
X107015000Y-130560000D02*
X107015000Y-128610000D01*
X107015000Y-126390000D02*
X107015000Y-123160000D01*
X107735000Y-121240000D02*
X108815000Y-121240000D01*
X113035000Y-121240000D02*
X114115000Y-121240000D01*
X114835000Y-126390000D02*
X114835000Y-123160000D01*
X114835000Y-130560000D02*
X114835000Y-128610000D01*
X108815000Y-121240000D02*
X108815000Y-120810000D01*
X114835000Y-130560000D02*
X107015000Y-130560000D01*
X126930000Y-68380000D02*
X124270000Y-68380000D01*
X126930000Y-70980000D02*
X126930000Y-68380000D01*
X124270000Y-70980000D02*
X124270000Y-68380000D01*
X126930000Y-70980000D02*
X124270000Y-70980000D01*
X126930000Y-72250000D02*
X126930000Y-73580000D01*
X126930000Y-73580000D02*
X125600000Y-73580000D01*
X71760000Y-51847936D02*
X71760000Y-53052064D01*
X69040000Y-51847936D02*
X69040000Y-53052064D01*
X126160000Y-77321267D02*
X126160000Y-76978733D01*
X125140000Y-77321267D02*
X125140000Y-76978733D01*
X61821267Y-60810000D02*
X61478733Y-60810000D01*
X61821267Y-59790000D02*
X61478733Y-59790000D01*
X59921267Y-61440000D02*
X59578733Y-61440000D01*
X59921267Y-62460000D02*
X59578733Y-62460000D01*
X70540000Y-56921267D02*
X70540000Y-56578733D01*
X71560000Y-56921267D02*
X71560000Y-56578733D01*
X70010000Y-56921267D02*
X70010000Y-56578733D01*
X68990000Y-56921267D02*
X68990000Y-56578733D01*
X67390000Y-56921267D02*
X67390000Y-56578733D01*
X68410000Y-56921267D02*
X68410000Y-56578733D01*
X61478733Y-51340000D02*
X61821267Y-51340000D01*
X61478733Y-52360000D02*
X61821267Y-52360000D01*
X57978733Y-69690000D02*
X58321267Y-69690000D01*
X57978733Y-70710000D02*
X58321267Y-70710000D01*
X75760000Y-81171267D02*
X75760000Y-80828733D01*
X74740000Y-81171267D02*
X74740000Y-80828733D01*
X76640000Y-76871267D02*
X76640000Y-76528733D01*
X77660000Y-76871267D02*
X77660000Y-76528733D01*
X79460000Y-81271267D02*
X79460000Y-80928733D01*
X78440000Y-81271267D02*
X78440000Y-80928733D01*
X80440000Y-79471267D02*
X80440000Y-79128733D01*
X81460000Y-79471267D02*
X81460000Y-79128733D01*
X61971267Y-71040000D02*
X61628733Y-71040000D01*
X61971267Y-72060000D02*
X61628733Y-72060000D01*
X87921267Y-75660000D02*
X87578733Y-75660000D01*
X87921267Y-74640000D02*
X87578733Y-74640000D01*
X86790000Y-63878733D02*
X86790000Y-64221267D01*
X87810000Y-63878733D02*
X87810000Y-64221267D01*
X57771267Y-66340000D02*
X57428733Y-66340000D01*
X57771267Y-67360000D02*
X57428733Y-67360000D01*
X65021267Y-69710000D02*
X64678733Y-69710000D01*
X65021267Y-68690000D02*
X64678733Y-68690000D01*
X57978733Y-72460000D02*
X58321267Y-72460000D01*
X57978733Y-71440000D02*
X58321267Y-71440000D01*
X87810000Y-60378733D02*
X87810000Y-60721267D01*
X86790000Y-60378733D02*
X86790000Y-60721267D01*
X59640000Y-65728733D02*
X59640000Y-66071267D01*
X60660000Y-65728733D02*
X60660000Y-66071267D01*
X68340000Y-81221267D02*
X68340000Y-80878733D01*
X69360000Y-81221267D02*
X69360000Y-80878733D01*
X70910000Y-81221267D02*
X70910000Y-80878733D01*
X69890000Y-81221267D02*
X69890000Y-80878733D01*
X74010000Y-81221267D02*
X74010000Y-80878733D01*
X72990000Y-81221267D02*
X72990000Y-80878733D01*
X71440000Y-81221267D02*
X71440000Y-80878733D01*
X72460000Y-81221267D02*
X72460000Y-80878733D01*
X87921267Y-76290000D02*
X87578733Y-76290000D01*
X87921267Y-77310000D02*
X87578733Y-77310000D01*
X84378733Y-67490000D02*
X84721267Y-67490000D01*
X84378733Y-68510000D02*
X84721267Y-68510000D01*
X91160000Y-69071267D02*
X91160000Y-68728733D01*
X90140000Y-69071267D02*
X90140000Y-68728733D01*
X87921267Y-74010000D02*
X87578733Y-74010000D01*
X87921267Y-72990000D02*
X87578733Y-72990000D01*
X82628733Y-69040000D02*
X82971267Y-69040000D01*
X82628733Y-70060000D02*
X82971267Y-70060000D01*
X61178733Y-83640000D02*
X61521267Y-83640000D01*
X61178733Y-84660000D02*
X61521267Y-84660000D01*
X59690000Y-80721267D02*
X59690000Y-80378733D01*
X60710000Y-80721267D02*
X60710000Y-80378733D01*
X66790000Y-81221267D02*
X66790000Y-80878733D01*
X67810000Y-81221267D02*
X67810000Y-80878733D01*
X67010000Y-76971267D02*
X67010000Y-76628733D01*
X65990000Y-76971267D02*
X65990000Y-76628733D01*
X86160000Y-63878733D02*
X86160000Y-64221267D01*
X85140000Y-63878733D02*
X85140000Y-64221267D01*
X87828733Y-68510000D02*
X88171267Y-68510000D01*
X87828733Y-67490000D02*
X88171267Y-67490000D01*
X83540000Y-64221267D02*
X83540000Y-63878733D01*
X84560000Y-64221267D02*
X84560000Y-63878733D01*
X90021267Y-64440000D02*
X89678733Y-64440000D01*
X90021267Y-65460000D02*
X89678733Y-65460000D01*
X81890000Y-63878733D02*
X81890000Y-64221267D01*
X82910000Y-63878733D02*
X82910000Y-64221267D01*
X108565767Y-54167500D02*
X108223233Y-54167500D01*
X108565767Y-53147500D02*
X108223233Y-53147500D01*
X108435000Y-111196267D02*
X108435000Y-110853733D01*
X107415000Y-111196267D02*
X107415000Y-110853733D01*
X113265000Y-111271267D02*
X113265000Y-110928733D01*
X114285000Y-111271267D02*
X114285000Y-110928733D01*
X112248767Y-53147500D02*
X111906233Y-53147500D01*
X112248767Y-54167500D02*
X111906233Y-54167500D01*
X109365000Y-110878733D02*
X109365000Y-111221267D01*
X110385000Y-110878733D02*
X110385000Y-111221267D01*
X112285000Y-110928733D02*
X112285000Y-111271267D01*
X111265000Y-110928733D02*
X111265000Y-111271267D01*
X78970000Y-51230000D02*
X85430000Y-51230000D01*
X78970000Y-46700000D02*
X78970000Y-49300000D01*
X78970000Y-44770000D02*
X85430000Y-44770000D01*
X85430000Y-46700000D02*
X85430000Y-49300000D01*
X78970000Y-44800000D02*
X78970000Y-44770000D01*
X78970000Y-51230000D02*
X78970000Y-51200000D01*
X85430000Y-51230000D02*
X85430000Y-51200000D01*
X85430000Y-44770000D02*
X85430000Y-44800000D01*
X56950000Y-60450000D02*
G75*
G03X56950000Y-60450000I-1200000J0D01*
G01*
X56950000Y-64150000D02*
G75*
G03X56950000Y-64150000I-1200000J0D01*
G01*
X87800000Y-70550000D02*
G75*
G03X87800000Y-70550000I-1200000J0D01*
G01*
X96950000Y-57750000D02*
G75*
G03X96950000Y-57750000I-1200000J0D01*
G01*
X100940000Y-79510000D02*
X100940000Y-80210000D01*
X100940000Y-80210000D02*
X101640000Y-80210000D01*
X100940000Y-66690000D02*
X100940000Y-65990000D01*
X100940000Y-65990000D02*
X101640000Y-65990000D01*
X115160000Y-79510000D02*
X115160000Y-80210000D01*
X115160000Y-80210000D02*
X114460000Y-80210000D01*
X115160000Y-66690000D02*
X115160000Y-65990000D01*
X115160000Y-65990000D02*
X114460000Y-65990000D01*
X114460000Y-65990000D02*
X114460000Y-64625000D01*
X123900000Y-83900000D02*
X123900000Y-89100000D01*
X118700000Y-83900000D02*
X118700000Y-89100000D01*
X123330000Y-82460000D02*
X123330000Y-83900000D01*
X123900000Y-83900000D02*
X123330000Y-83900000D01*
X123900000Y-89100000D02*
X123330000Y-89100000D01*
X119270000Y-83900000D02*
X118700000Y-83900000D01*
X119270000Y-89100000D02*
X118700000Y-89100000D01*
X121810000Y-83900000D02*
X120790000Y-83900000D01*
X121810000Y-89100000D02*
X120790000Y-89100000D01*
D10*
X84352380Y-98455357D02*
X83876190Y-98788690D01*
X84352380Y-99026785D02*
X83352380Y-99026785D01*
X83352380Y-98645833D01*
X83400000Y-98550595D01*
X83447619Y-98502976D01*
X83542857Y-98455357D01*
X83685714Y-98455357D01*
X83780952Y-98502976D01*
X83828571Y-98550595D01*
X83876190Y-98645833D01*
X83876190Y-99026785D01*
X83352380Y-97550595D02*
X83352380Y-98026785D01*
X83828571Y-98074404D01*
X83780952Y-98026785D01*
X83733333Y-97931547D01*
X83733333Y-97693452D01*
X83780952Y-97598214D01*
X83828571Y-97550595D01*
X83923809Y-97502976D01*
X84161904Y-97502976D01*
X84257142Y-97550595D01*
X84304761Y-97598214D01*
X84352380Y-97693452D01*
X84352380Y-97931547D01*
X84304761Y-98026785D01*
X84257142Y-98074404D01*
X83447619Y-97122023D02*
X83400000Y-97074404D01*
X83352380Y-96979166D01*
X83352380Y-96741071D01*
X83400000Y-96645833D01*
X83447619Y-96598214D01*
X83542857Y-96550595D01*
X83638095Y-96550595D01*
X83780952Y-96598214D01*
X84352380Y-97169642D01*
X84352380Y-96550595D01*
X73352380Y-98505357D02*
X72876190Y-98838690D01*
X73352380Y-99076785D02*
X72352380Y-99076785D01*
X72352380Y-98695833D01*
X72400000Y-98600595D01*
X72447619Y-98552976D01*
X72542857Y-98505357D01*
X72685714Y-98505357D01*
X72780952Y-98552976D01*
X72828571Y-98600595D01*
X72876190Y-98695833D01*
X72876190Y-99076785D01*
X72685714Y-97648214D02*
X73352380Y-97648214D01*
X72304761Y-97886309D02*
X73019047Y-98124404D01*
X73019047Y-97505357D01*
X72447619Y-97172023D02*
X72400000Y-97124404D01*
X72352380Y-97029166D01*
X72352380Y-96791071D01*
X72400000Y-96695833D01*
X72447619Y-96648214D01*
X72542857Y-96600595D01*
X72638095Y-96600595D01*
X72780952Y-96648214D01*
X73352380Y-97219642D01*
X73352380Y-96600595D01*
X63202380Y-98505357D02*
X62726190Y-98838690D01*
X63202380Y-99076785D02*
X62202380Y-99076785D01*
X62202380Y-98695833D01*
X62250000Y-98600595D01*
X62297619Y-98552976D01*
X62392857Y-98505357D01*
X62535714Y-98505357D01*
X62630952Y-98552976D01*
X62678571Y-98600595D01*
X62726190Y-98695833D01*
X62726190Y-99076785D01*
X62202380Y-98172023D02*
X62202380Y-97552976D01*
X62583333Y-97886309D01*
X62583333Y-97743452D01*
X62630952Y-97648214D01*
X62678571Y-97600595D01*
X62773809Y-97552976D01*
X63011904Y-97552976D01*
X63107142Y-97600595D01*
X63154761Y-97648214D01*
X63202380Y-97743452D01*
X63202380Y-98029166D01*
X63154761Y-98124404D01*
X63107142Y-98172023D01*
X62202380Y-96695833D02*
X62202380Y-96886309D01*
X62250000Y-96981547D01*
X62297619Y-97029166D01*
X62440476Y-97124404D01*
X62630952Y-97172023D01*
X63011904Y-97172023D01*
X63107142Y-97124404D01*
X63154761Y-97076785D01*
X63202380Y-96981547D01*
X63202380Y-96791071D01*
X63154761Y-96695833D01*
X63107142Y-96648214D01*
X63011904Y-96600595D01*
X62773809Y-96600595D01*
X62678571Y-96648214D01*
X62630952Y-96695833D01*
X62583333Y-96791071D01*
X62583333Y-96981547D01*
X62630952Y-97076785D01*
X62678571Y-97124404D01*
X62773809Y-97172023D01*
X57852380Y-93133333D02*
X58566666Y-93133333D01*
X58709523Y-93180952D01*
X58804761Y-93276190D01*
X58852380Y-93419047D01*
X58852380Y-93514285D01*
X57947619Y-92704761D02*
X57900000Y-92657142D01*
X57852380Y-92561904D01*
X57852380Y-92323809D01*
X57900000Y-92228571D01*
X57947619Y-92180952D01*
X58042857Y-92133333D01*
X58138095Y-92133333D01*
X58280952Y-92180952D01*
X58852380Y-92752380D01*
X58852380Y-92133333D01*
X67016666Y-123302380D02*
X67016666Y-124016666D01*
X66969047Y-124159523D01*
X66873809Y-124254761D01*
X66730952Y-124302380D01*
X66635714Y-124302380D01*
X67540476Y-124302380D02*
X67730952Y-124302380D01*
X67826190Y-124254761D01*
X67873809Y-124207142D01*
X67969047Y-124064285D01*
X68016666Y-123873809D01*
X68016666Y-123492857D01*
X67969047Y-123397619D01*
X67921428Y-123350000D01*
X67826190Y-123302380D01*
X67635714Y-123302380D01*
X67540476Y-123350000D01*
X67492857Y-123397619D01*
X67445238Y-123492857D01*
X67445238Y-123730952D01*
X67492857Y-123826190D01*
X67540476Y-123873809D01*
X67635714Y-123921428D01*
X67826190Y-123921428D01*
X67921428Y-123873809D01*
X67969047Y-123826190D01*
X68016666Y-123730952D01*
X65241609Y-63215780D02*
X65241609Y-62215780D01*
X66289228Y-63120542D02*
X66241609Y-63168161D01*
X66098752Y-63215780D01*
X66003514Y-63215780D01*
X65860657Y-63168161D01*
X65765419Y-63072923D01*
X65717800Y-62977685D01*
X65670180Y-62787209D01*
X65670180Y-62644352D01*
X65717800Y-62453876D01*
X65765419Y-62358638D01*
X65860657Y-62263400D01*
X66003514Y-62215780D01*
X66098752Y-62215780D01*
X66241609Y-62263400D01*
X66289228Y-62311019D01*
X67241609Y-63215780D02*
X66670180Y-63215780D01*
X66955895Y-63215780D02*
X66955895Y-62215780D01*
X66860657Y-62358638D01*
X66765419Y-62453876D01*
X66670180Y-62501495D01*
X91854761Y-106572619D02*
X91759523Y-106525000D01*
X91664285Y-106429761D01*
X91521428Y-106286904D01*
X91426190Y-106239285D01*
X91330952Y-106239285D01*
X91378571Y-106477380D02*
X91283333Y-106429761D01*
X91188095Y-106334523D01*
X91140476Y-106144047D01*
X91140476Y-105810714D01*
X91188095Y-105620238D01*
X91283333Y-105525000D01*
X91378571Y-105477380D01*
X91569047Y-105477380D01*
X91664285Y-105525000D01*
X91759523Y-105620238D01*
X91807142Y-105810714D01*
X91807142Y-106144047D01*
X91759523Y-106334523D01*
X91664285Y-106429761D01*
X91569047Y-106477380D01*
X91378571Y-106477380D01*
X92664285Y-105477380D02*
X92473809Y-105477380D01*
X92378571Y-105525000D01*
X92330952Y-105572619D01*
X92235714Y-105715476D01*
X92188095Y-105905952D01*
X92188095Y-106286904D01*
X92235714Y-106382142D01*
X92283333Y-106429761D01*
X92378571Y-106477380D01*
X92569047Y-106477380D01*
X92664285Y-106429761D01*
X92711904Y-106382142D01*
X92759523Y-106286904D01*
X92759523Y-106048809D01*
X92711904Y-105953571D01*
X92664285Y-105905952D01*
X92569047Y-105858333D01*
X92378571Y-105858333D01*
X92283333Y-105905952D01*
X92235714Y-105953571D01*
X92188095Y-106048809D01*
X91879761Y-113497619D02*
X91784523Y-113450000D01*
X91689285Y-113354761D01*
X91546428Y-113211904D01*
X91451190Y-113164285D01*
X91355952Y-113164285D01*
X91403571Y-113402380D02*
X91308333Y-113354761D01*
X91213095Y-113259523D01*
X91165476Y-113069047D01*
X91165476Y-112735714D01*
X91213095Y-112545238D01*
X91308333Y-112450000D01*
X91403571Y-112402380D01*
X91594047Y-112402380D01*
X91689285Y-112450000D01*
X91784523Y-112545238D01*
X91832142Y-112735714D01*
X91832142Y-113069047D01*
X91784523Y-113259523D01*
X91689285Y-113354761D01*
X91594047Y-113402380D01*
X91403571Y-113402380D01*
X92736904Y-112402380D02*
X92260714Y-112402380D01*
X92213095Y-112878571D01*
X92260714Y-112830952D01*
X92355952Y-112783333D01*
X92594047Y-112783333D01*
X92689285Y-112830952D01*
X92736904Y-112878571D01*
X92784523Y-112973809D01*
X92784523Y-113211904D01*
X92736904Y-113307142D01*
X92689285Y-113354761D01*
X92594047Y-113402380D01*
X92355952Y-113402380D01*
X92260714Y-113354761D01*
X92213095Y-113307142D01*
X81104761Y-106597619D02*
X81009523Y-106550000D01*
X80914285Y-106454761D01*
X80771428Y-106311904D01*
X80676190Y-106264285D01*
X80580952Y-106264285D01*
X80628571Y-106502380D02*
X80533333Y-106454761D01*
X80438095Y-106359523D01*
X80390476Y-106169047D01*
X80390476Y-105835714D01*
X80438095Y-105645238D01*
X80533333Y-105550000D01*
X80628571Y-105502380D01*
X80819047Y-105502380D01*
X80914285Y-105550000D01*
X81009523Y-105645238D01*
X81057142Y-105835714D01*
X81057142Y-106169047D01*
X81009523Y-106359523D01*
X80914285Y-106454761D01*
X80819047Y-106502380D01*
X80628571Y-106502380D01*
X81914285Y-105835714D02*
X81914285Y-106502380D01*
X81676190Y-105454761D02*
X81438095Y-106169047D01*
X82057142Y-106169047D01*
X80729761Y-113422619D02*
X80634523Y-113375000D01*
X80539285Y-113279761D01*
X80396428Y-113136904D01*
X80301190Y-113089285D01*
X80205952Y-113089285D01*
X80253571Y-113327380D02*
X80158333Y-113279761D01*
X80063095Y-113184523D01*
X80015476Y-112994047D01*
X80015476Y-112660714D01*
X80063095Y-112470238D01*
X80158333Y-112375000D01*
X80253571Y-112327380D01*
X80444047Y-112327380D01*
X80539285Y-112375000D01*
X80634523Y-112470238D01*
X80682142Y-112660714D01*
X80682142Y-112994047D01*
X80634523Y-113184523D01*
X80539285Y-113279761D01*
X80444047Y-113327380D01*
X80253571Y-113327380D01*
X81015476Y-112327380D02*
X81634523Y-112327380D01*
X81301190Y-112708333D01*
X81444047Y-112708333D01*
X81539285Y-112755952D01*
X81586904Y-112803571D01*
X81634523Y-112898809D01*
X81634523Y-113136904D01*
X81586904Y-113232142D01*
X81539285Y-113279761D01*
X81444047Y-113327380D01*
X81158333Y-113327380D01*
X81063095Y-113279761D01*
X81015476Y-113232142D01*
X70854761Y-106647619D02*
X70759523Y-106600000D01*
X70664285Y-106504761D01*
X70521428Y-106361904D01*
X70426190Y-106314285D01*
X70330952Y-106314285D01*
X70378571Y-106552380D02*
X70283333Y-106504761D01*
X70188095Y-106409523D01*
X70140476Y-106219047D01*
X70140476Y-105885714D01*
X70188095Y-105695238D01*
X70283333Y-105600000D01*
X70378571Y-105552380D01*
X70569047Y-105552380D01*
X70664285Y-105600000D01*
X70759523Y-105695238D01*
X70807142Y-105885714D01*
X70807142Y-106219047D01*
X70759523Y-106409523D01*
X70664285Y-106504761D01*
X70569047Y-106552380D01*
X70378571Y-106552380D01*
X71188095Y-105647619D02*
X71235714Y-105600000D01*
X71330952Y-105552380D01*
X71569047Y-105552380D01*
X71664285Y-105600000D01*
X71711904Y-105647619D01*
X71759523Y-105742857D01*
X71759523Y-105838095D01*
X71711904Y-105980952D01*
X71140476Y-106552380D01*
X71759523Y-106552380D01*
X70854761Y-113587619D02*
X70759523Y-113540000D01*
X70664285Y-113444761D01*
X70521428Y-113301904D01*
X70426190Y-113254285D01*
X70330952Y-113254285D01*
X70378571Y-113492380D02*
X70283333Y-113444761D01*
X70188095Y-113349523D01*
X70140476Y-113159047D01*
X70140476Y-112825714D01*
X70188095Y-112635238D01*
X70283333Y-112540000D01*
X70378571Y-112492380D01*
X70569047Y-112492380D01*
X70664285Y-112540000D01*
X70759523Y-112635238D01*
X70807142Y-112825714D01*
X70807142Y-113159047D01*
X70759523Y-113349523D01*
X70664285Y-113444761D01*
X70569047Y-113492380D01*
X70378571Y-113492380D01*
X71759523Y-113492380D02*
X71188095Y-113492380D01*
X71473809Y-113492380D02*
X71473809Y-112492380D01*
X71378571Y-112635238D01*
X71283333Y-112730476D01*
X71188095Y-112778095D01*
X101918309Y-53943690D02*
X101918309Y-54419880D01*
X101584976Y-53419880D02*
X101918309Y-53943690D01*
X102251642Y-53419880D01*
X103108785Y-54419880D02*
X102537357Y-54419880D01*
X102823071Y-54419880D02*
X102823071Y-53419880D01*
X102727833Y-53562738D01*
X102632595Y-53657976D01*
X102537357Y-53705595D01*
X98216666Y-95502380D02*
X98216666Y-96216666D01*
X98169047Y-96359523D01*
X98073809Y-96454761D01*
X97930952Y-96502380D01*
X97835714Y-96502380D01*
X99169047Y-95502380D02*
X98692857Y-95502380D01*
X98645238Y-95978571D01*
X98692857Y-95930952D01*
X98788095Y-95883333D01*
X99026190Y-95883333D01*
X99121428Y-95930952D01*
X99169047Y-95978571D01*
X99216666Y-96073809D01*
X99216666Y-96311904D01*
X99169047Y-96407142D01*
X99121428Y-96454761D01*
X99026190Y-96502380D01*
X98788095Y-96502380D01*
X98692857Y-96454761D01*
X98645238Y-96407142D01*
X91263095Y-108304380D02*
X91834523Y-108304380D01*
X91548809Y-109304380D02*
X91548809Y-108304380D01*
X92167857Y-109304380D02*
X92167857Y-108304380D01*
X92548809Y-108304380D01*
X92644047Y-108352000D01*
X92691666Y-108399619D01*
X92739285Y-108494857D01*
X92739285Y-108637714D01*
X92691666Y-108732952D01*
X92644047Y-108780571D01*
X92548809Y-108828190D01*
X92167857Y-108828190D01*
X93596428Y-108304380D02*
X93405952Y-108304380D01*
X93310714Y-108352000D01*
X93263095Y-108399619D01*
X93167857Y-108542476D01*
X93120238Y-108732952D01*
X93120238Y-109113904D01*
X93167857Y-109209142D01*
X93215476Y-109256761D01*
X93310714Y-109304380D01*
X93501190Y-109304380D01*
X93596428Y-109256761D01*
X93644047Y-109209142D01*
X93691666Y-109113904D01*
X93691666Y-108875809D01*
X93644047Y-108780571D01*
X93596428Y-108732952D01*
X93501190Y-108685333D01*
X93310714Y-108685333D01*
X93215476Y-108732952D01*
X93167857Y-108780571D01*
X93120238Y-108875809D01*
X80238095Y-108354380D02*
X80809523Y-108354380D01*
X80523809Y-109354380D02*
X80523809Y-108354380D01*
X81142857Y-109354380D02*
X81142857Y-108354380D01*
X81523809Y-108354380D01*
X81619047Y-108402000D01*
X81666666Y-108449619D01*
X81714285Y-108544857D01*
X81714285Y-108687714D01*
X81666666Y-108782952D01*
X81619047Y-108830571D01*
X81523809Y-108878190D01*
X81142857Y-108878190D01*
X82571428Y-108687714D02*
X82571428Y-109354380D01*
X82333333Y-108306761D02*
X82095238Y-109021047D01*
X82714285Y-109021047D01*
X69413095Y-108379380D02*
X69984523Y-108379380D01*
X69698809Y-109379380D02*
X69698809Y-108379380D01*
X70317857Y-109379380D02*
X70317857Y-108379380D01*
X70698809Y-108379380D01*
X70794047Y-108427000D01*
X70841666Y-108474619D01*
X70889285Y-108569857D01*
X70889285Y-108712714D01*
X70841666Y-108807952D01*
X70794047Y-108855571D01*
X70698809Y-108903190D01*
X70317857Y-108903190D01*
X71270238Y-108474619D02*
X71317857Y-108427000D01*
X71413095Y-108379380D01*
X71651190Y-108379380D01*
X71746428Y-108427000D01*
X71794047Y-108474619D01*
X71841666Y-108569857D01*
X71841666Y-108665095D01*
X71794047Y-108807952D01*
X71222619Y-109379380D01*
X71841666Y-109379380D01*
X71802380Y-53088095D02*
X70802380Y-53088095D01*
X70802380Y-52850000D01*
X70850000Y-52707142D01*
X70945238Y-52611904D01*
X71040476Y-52564285D01*
X71230952Y-52516666D01*
X71373809Y-52516666D01*
X71564285Y-52564285D01*
X71659523Y-52611904D01*
X71754761Y-52707142D01*
X71802380Y-52850000D01*
X71802380Y-53088095D01*
X70897619Y-52135714D02*
X70850000Y-52088095D01*
X70802380Y-51992857D01*
X70802380Y-51754761D01*
X70850000Y-51659523D01*
X70897619Y-51611904D01*
X70992857Y-51564285D01*
X71088095Y-51564285D01*
X71230952Y-51611904D01*
X71802380Y-52183333D01*
X71802380Y-51564285D01*
X61561904Y-58052380D02*
X61561904Y-57052380D01*
X61800000Y-57052380D01*
X61942857Y-57100000D01*
X62038095Y-57195238D01*
X62085714Y-57290476D01*
X62133333Y-57480952D01*
X62133333Y-57623809D01*
X62085714Y-57814285D01*
X62038095Y-57909523D01*
X61942857Y-58004761D01*
X61800000Y-58052380D01*
X61561904Y-58052380D01*
X62466666Y-57052380D02*
X63085714Y-57052380D01*
X62752380Y-57433333D01*
X62895238Y-57433333D01*
X62990476Y-57480952D01*
X63038095Y-57528571D01*
X63085714Y-57623809D01*
X63085714Y-57861904D01*
X63038095Y-57957142D01*
X62990476Y-58004761D01*
X62895238Y-58052380D01*
X62609523Y-58052380D01*
X62514285Y-58004761D01*
X62466666Y-57957142D01*
X95019833Y-61952142D02*
X94972214Y-61999761D01*
X94829357Y-62047380D01*
X94734119Y-62047380D01*
X94591261Y-61999761D01*
X94496023Y-61904523D01*
X94448404Y-61809285D01*
X94400785Y-61618809D01*
X94400785Y-61475952D01*
X94448404Y-61285476D01*
X94496023Y-61190238D01*
X94591261Y-61095000D01*
X94734119Y-61047380D01*
X94829357Y-61047380D01*
X94972214Y-61095000D01*
X95019833Y-61142619D01*
X95400785Y-61142619D02*
X95448404Y-61095000D01*
X95543642Y-61047380D01*
X95781738Y-61047380D01*
X95876976Y-61095000D01*
X95924595Y-61142619D01*
X95972214Y-61237857D01*
X95972214Y-61333095D01*
X95924595Y-61475952D01*
X95353166Y-62047380D01*
X95972214Y-62047380D01*
X120333333Y-62107142D02*
X120285714Y-62154761D01*
X120142857Y-62202380D01*
X120047619Y-62202380D01*
X119904761Y-62154761D01*
X119809523Y-62059523D01*
X119761904Y-61964285D01*
X119714285Y-61773809D01*
X119714285Y-61630952D01*
X119761904Y-61440476D01*
X119809523Y-61345238D01*
X119904761Y-61250000D01*
X120047619Y-61202380D01*
X120142857Y-61202380D01*
X120285714Y-61250000D01*
X120333333Y-61297619D01*
X121285714Y-62202380D02*
X120714285Y-62202380D01*
X121000000Y-62202380D02*
X121000000Y-61202380D01*
X120904761Y-61345238D01*
X120809523Y-61440476D01*
X120714285Y-61488095D01*
X81157142Y-53357142D02*
X81109523Y-53404761D01*
X80966666Y-53452380D01*
X80871428Y-53452380D01*
X80728571Y-53404761D01*
X80633333Y-53309523D01*
X80585714Y-53214285D01*
X80538095Y-53023809D01*
X80538095Y-52880952D01*
X80585714Y-52690476D01*
X80633333Y-52595238D01*
X80728571Y-52500000D01*
X80871428Y-52452380D01*
X80966666Y-52452380D01*
X81109523Y-52500000D01*
X81157142Y-52547619D01*
X82109523Y-53452380D02*
X81538095Y-53452380D01*
X81823809Y-53452380D02*
X81823809Y-52452380D01*
X81728571Y-52595238D01*
X81633333Y-52690476D01*
X81538095Y-52738095D01*
X83014285Y-52452380D02*
X82538095Y-52452380D01*
X82490476Y-52928571D01*
X82538095Y-52880952D01*
X82633333Y-52833333D01*
X82871428Y-52833333D01*
X82966666Y-52880952D01*
X83014285Y-52928571D01*
X83061904Y-53023809D01*
X83061904Y-53261904D01*
X83014285Y-53357142D01*
X82966666Y-53404761D01*
X82871428Y-53452380D01*
X82633333Y-53452380D01*
X82538095Y-53404761D01*
X82490476Y-53357142D01*
X99062142Y-67317857D02*
X99109761Y-67365476D01*
X99157380Y-67508333D01*
X99157380Y-67603571D01*
X99109761Y-67746428D01*
X99014523Y-67841666D01*
X98919285Y-67889285D01*
X98728809Y-67936904D01*
X98585952Y-67936904D01*
X98395476Y-67889285D01*
X98300238Y-67841666D01*
X98205000Y-67746428D01*
X98157380Y-67603571D01*
X98157380Y-67508333D01*
X98205000Y-67365476D01*
X98252619Y-67317857D01*
X99157380Y-66365476D02*
X99157380Y-66936904D01*
X99157380Y-66651190D02*
X98157380Y-66651190D01*
X98300238Y-66746428D01*
X98395476Y-66841666D01*
X98443095Y-66936904D01*
X98157380Y-65746428D02*
X98157380Y-65651190D01*
X98205000Y-65555952D01*
X98252619Y-65508333D01*
X98347857Y-65460714D01*
X98538333Y-65413095D01*
X98776428Y-65413095D01*
X98966904Y-65460714D01*
X99062142Y-65508333D01*
X99109761Y-65555952D01*
X99157380Y-65651190D01*
X99157380Y-65746428D01*
X99109761Y-65841666D01*
X99062142Y-65889285D01*
X98966904Y-65936904D01*
X98776428Y-65984523D01*
X98538333Y-65984523D01*
X98347857Y-65936904D01*
X98252619Y-65889285D01*
X98205000Y-65841666D01*
X98157380Y-65746428D01*
X101496833Y-61571142D02*
X101449214Y-61618761D01*
X101306357Y-61666380D01*
X101211119Y-61666380D01*
X101068261Y-61618761D01*
X100973023Y-61523523D01*
X100925404Y-61428285D01*
X100877785Y-61237809D01*
X100877785Y-61094952D01*
X100925404Y-60904476D01*
X100973023Y-60809238D01*
X101068261Y-60714000D01*
X101211119Y-60666380D01*
X101306357Y-60666380D01*
X101449214Y-60714000D01*
X101496833Y-60761619D01*
X101973023Y-61666380D02*
X102163500Y-61666380D01*
X102258738Y-61618761D01*
X102306357Y-61571142D01*
X102401595Y-61428285D01*
X102449214Y-61237809D01*
X102449214Y-60856857D01*
X102401595Y-60761619D01*
X102353976Y-60714000D01*
X102258738Y-60666380D01*
X102068261Y-60666380D01*
X101973023Y-60714000D01*
X101925404Y-60761619D01*
X101877785Y-60856857D01*
X101877785Y-61094952D01*
X101925404Y-61190190D01*
X101973023Y-61237809D01*
X102068261Y-61285428D01*
X102258738Y-61285428D01*
X102353976Y-61237809D01*
X102401595Y-61190190D01*
X102449214Y-61094952D01*
X120583333Y-66857142D02*
X120535714Y-66904761D01*
X120392857Y-66952380D01*
X120297619Y-66952380D01*
X120154761Y-66904761D01*
X120059523Y-66809523D01*
X120011904Y-66714285D01*
X119964285Y-66523809D01*
X119964285Y-66380952D01*
X120011904Y-66190476D01*
X120059523Y-66095238D01*
X120154761Y-66000000D01*
X120297619Y-65952380D01*
X120392857Y-65952380D01*
X120535714Y-66000000D01*
X120583333Y-66047619D01*
X121154761Y-66380952D02*
X121059523Y-66333333D01*
X121011904Y-66285714D01*
X120964285Y-66190476D01*
X120964285Y-66142857D01*
X121011904Y-66047619D01*
X121059523Y-66000000D01*
X121154761Y-65952380D01*
X121345238Y-65952380D01*
X121440476Y-66000000D01*
X121488095Y-66047619D01*
X121535714Y-66142857D01*
X121535714Y-66190476D01*
X121488095Y-66285714D01*
X121440476Y-66333333D01*
X121345238Y-66380952D01*
X121154761Y-66380952D01*
X121059523Y-66428571D01*
X121011904Y-66476190D01*
X120964285Y-66571428D01*
X120964285Y-66761904D01*
X121011904Y-66857142D01*
X121059523Y-66904761D01*
X121154761Y-66952380D01*
X121345238Y-66952380D01*
X121440476Y-66904761D01*
X121488095Y-66857142D01*
X121535714Y-66761904D01*
X121535714Y-66571428D01*
X121488095Y-66476190D01*
X121440476Y-66428571D01*
X121345238Y-66380952D01*
X96583333Y-82532142D02*
X96535714Y-82579761D01*
X96392857Y-82627380D01*
X96297619Y-82627380D01*
X96154761Y-82579761D01*
X96059523Y-82484523D01*
X96011904Y-82389285D01*
X95964285Y-82198809D01*
X95964285Y-82055952D01*
X96011904Y-81865476D01*
X96059523Y-81770238D01*
X96154761Y-81675000D01*
X96297619Y-81627380D01*
X96392857Y-81627380D01*
X96535714Y-81675000D01*
X96583333Y-81722619D01*
X96916666Y-81627380D02*
X97583333Y-81627380D01*
X97154761Y-82627380D01*
X81107142Y-60892857D02*
X81154761Y-60940476D01*
X81202380Y-61083333D01*
X81202380Y-61178571D01*
X81154761Y-61321428D01*
X81059523Y-61416666D01*
X80964285Y-61464285D01*
X80773809Y-61511904D01*
X80630952Y-61511904D01*
X80440476Y-61464285D01*
X80345238Y-61416666D01*
X80250000Y-61321428D01*
X80202380Y-61178571D01*
X80202380Y-61083333D01*
X80250000Y-60940476D01*
X80297619Y-60892857D01*
X80202380Y-60559523D02*
X80202380Y-59940476D01*
X80583333Y-60273809D01*
X80583333Y-60130952D01*
X80630952Y-60035714D01*
X80678571Y-59988095D01*
X80773809Y-59940476D01*
X81011904Y-59940476D01*
X81107142Y-59988095D01*
X81154761Y-60035714D01*
X81202380Y-60130952D01*
X81202380Y-60416666D01*
X81154761Y-60511904D01*
X81107142Y-60559523D01*
X80202380Y-59035714D02*
X80202380Y-59511904D01*
X80678571Y-59559523D01*
X80630952Y-59511904D01*
X80583333Y-59416666D01*
X80583333Y-59178571D01*
X80630952Y-59083333D01*
X80678571Y-59035714D01*
X80773809Y-58988095D01*
X81011904Y-58988095D01*
X81107142Y-59035714D01*
X81154761Y-59083333D01*
X81202380Y-59178571D01*
X81202380Y-59416666D01*
X81154761Y-59511904D01*
X81107142Y-59559523D01*
X79107142Y-71357142D02*
X79059523Y-71404761D01*
X78916666Y-71452380D01*
X78821428Y-71452380D01*
X78678571Y-71404761D01*
X78583333Y-71309523D01*
X78535714Y-71214285D01*
X78488095Y-71023809D01*
X78488095Y-70880952D01*
X78535714Y-70690476D01*
X78583333Y-70595238D01*
X78678571Y-70500000D01*
X78821428Y-70452380D01*
X78916666Y-70452380D01*
X79059523Y-70500000D01*
X79107142Y-70547619D01*
X79440476Y-70452380D02*
X80059523Y-70452380D01*
X79726190Y-70833333D01*
X79869047Y-70833333D01*
X79964285Y-70880952D01*
X80011904Y-70928571D01*
X80059523Y-71023809D01*
X80059523Y-71261904D01*
X80011904Y-71357142D01*
X79964285Y-71404761D01*
X79869047Y-71452380D01*
X79583333Y-71452380D01*
X79488095Y-71404761D01*
X79440476Y-71357142D01*
X80392857Y-70452380D02*
X81011904Y-70452380D01*
X80678571Y-70833333D01*
X80821428Y-70833333D01*
X80916666Y-70880952D01*
X80964285Y-70928571D01*
X81011904Y-71023809D01*
X81011904Y-71261904D01*
X80964285Y-71357142D01*
X80916666Y-71404761D01*
X80821428Y-71452380D01*
X80535714Y-71452380D01*
X80440476Y-71404761D01*
X80392857Y-71357142D01*
X63357142Y-65357142D02*
X63309523Y-65404761D01*
X63166666Y-65452380D01*
X63071428Y-65452380D01*
X62928571Y-65404761D01*
X62833333Y-65309523D01*
X62785714Y-65214285D01*
X62738095Y-65023809D01*
X62738095Y-64880952D01*
X62785714Y-64690476D01*
X62833333Y-64595238D01*
X62928571Y-64500000D01*
X63071428Y-64452380D01*
X63166666Y-64452380D01*
X63309523Y-64500000D01*
X63357142Y-64547619D01*
X63690476Y-64452380D02*
X64309523Y-64452380D01*
X63976190Y-64833333D01*
X64119047Y-64833333D01*
X64214285Y-64880952D01*
X64261904Y-64928571D01*
X64309523Y-65023809D01*
X64309523Y-65261904D01*
X64261904Y-65357142D01*
X64214285Y-65404761D01*
X64119047Y-65452380D01*
X63833333Y-65452380D01*
X63738095Y-65404761D01*
X63690476Y-65357142D01*
X64928571Y-64452380D02*
X65023809Y-64452380D01*
X65119047Y-64500000D01*
X65166666Y-64547619D01*
X65214285Y-64642857D01*
X65261904Y-64833333D01*
X65261904Y-65071428D01*
X65214285Y-65261904D01*
X65166666Y-65357142D01*
X65119047Y-65404761D01*
X65023809Y-65452380D01*
X64928571Y-65452380D01*
X64833333Y-65404761D01*
X64785714Y-65357142D01*
X64738095Y-65261904D01*
X64690476Y-65071428D01*
X64690476Y-64833333D01*
X64738095Y-64642857D01*
X64785714Y-64547619D01*
X64833333Y-64500000D01*
X64928571Y-64452380D01*
X57857142Y-73857142D02*
X57809523Y-73904761D01*
X57666666Y-73952380D01*
X57571428Y-73952380D01*
X57428571Y-73904761D01*
X57333333Y-73809523D01*
X57285714Y-73714285D01*
X57238095Y-73523809D01*
X57238095Y-73380952D01*
X57285714Y-73190476D01*
X57333333Y-73095238D01*
X57428571Y-73000000D01*
X57571428Y-72952380D01*
X57666666Y-72952380D01*
X57809523Y-73000000D01*
X57857142Y-73047619D01*
X58238095Y-73047619D02*
X58285714Y-73000000D01*
X58380952Y-72952380D01*
X58619047Y-72952380D01*
X58714285Y-73000000D01*
X58761904Y-73047619D01*
X58809523Y-73142857D01*
X58809523Y-73238095D01*
X58761904Y-73380952D01*
X58190476Y-73952380D01*
X58809523Y-73952380D01*
X59285714Y-73952380D02*
X59476190Y-73952380D01*
X59571428Y-73904761D01*
X59619047Y-73857142D01*
X59714285Y-73714285D01*
X59761904Y-73523809D01*
X59761904Y-73142857D01*
X59714285Y-73047619D01*
X59666666Y-73000000D01*
X59571428Y-72952380D01*
X59380952Y-72952380D01*
X59285714Y-73000000D01*
X59238095Y-73047619D01*
X59190476Y-73142857D01*
X59190476Y-73380952D01*
X59238095Y-73476190D01*
X59285714Y-73523809D01*
X59380952Y-73571428D01*
X59571428Y-73571428D01*
X59666666Y-73523809D01*
X59714285Y-73476190D01*
X59761904Y-73380952D01*
X74357142Y-61042857D02*
X74404761Y-61090476D01*
X74452380Y-61233333D01*
X74452380Y-61328571D01*
X74404761Y-61471428D01*
X74309523Y-61566666D01*
X74214285Y-61614285D01*
X74023809Y-61661904D01*
X73880952Y-61661904D01*
X73690476Y-61614285D01*
X73595238Y-61566666D01*
X73500000Y-61471428D01*
X73452380Y-61328571D01*
X73452380Y-61233333D01*
X73500000Y-61090476D01*
X73547619Y-61042857D01*
X73547619Y-60661904D02*
X73500000Y-60614285D01*
X73452380Y-60519047D01*
X73452380Y-60280952D01*
X73500000Y-60185714D01*
X73547619Y-60138095D01*
X73642857Y-60090476D01*
X73738095Y-60090476D01*
X73880952Y-60138095D01*
X74452380Y-60709523D01*
X74452380Y-60090476D01*
X73880952Y-59519047D02*
X73833333Y-59614285D01*
X73785714Y-59661904D01*
X73690476Y-59709523D01*
X73642857Y-59709523D01*
X73547619Y-59661904D01*
X73500000Y-59614285D01*
X73452380Y-59519047D01*
X73452380Y-59328571D01*
X73500000Y-59233333D01*
X73547619Y-59185714D01*
X73642857Y-59138095D01*
X73690476Y-59138095D01*
X73785714Y-59185714D01*
X73833333Y-59233333D01*
X73880952Y-59328571D01*
X73880952Y-59519047D01*
X73928571Y-59614285D01*
X73976190Y-59661904D01*
X74071428Y-59709523D01*
X74261904Y-59709523D01*
X74357142Y-59661904D01*
X74404761Y-59614285D01*
X74452380Y-59519047D01*
X74452380Y-59328571D01*
X74404761Y-59233333D01*
X74357142Y-59185714D01*
X74261904Y-59138095D01*
X74071428Y-59138095D01*
X73976190Y-59185714D01*
X73928571Y-59233333D01*
X73880952Y-59328571D01*
X113583333Y-62857142D02*
X113535714Y-62904761D01*
X113392857Y-62952380D01*
X113297619Y-62952380D01*
X113154761Y-62904761D01*
X113059523Y-62809523D01*
X113011904Y-62714285D01*
X112964285Y-62523809D01*
X112964285Y-62380952D01*
X113011904Y-62190476D01*
X113059523Y-62095238D01*
X113154761Y-62000000D01*
X113297619Y-61952380D01*
X113392857Y-61952380D01*
X113535714Y-62000000D01*
X113583333Y-62047619D01*
X114440476Y-61952380D02*
X114250000Y-61952380D01*
X114154761Y-62000000D01*
X114107142Y-62047619D01*
X114011904Y-62190476D01*
X113964285Y-62380952D01*
X113964285Y-62761904D01*
X114011904Y-62857142D01*
X114059523Y-62904761D01*
X114154761Y-62952380D01*
X114345238Y-62952380D01*
X114440476Y-62904761D01*
X114488095Y-62857142D01*
X114535714Y-62761904D01*
X114535714Y-62523809D01*
X114488095Y-62428571D01*
X114440476Y-62380952D01*
X114345238Y-62333333D01*
X114154761Y-62333333D01*
X114059523Y-62380952D01*
X114011904Y-62428571D01*
X113964285Y-62523809D01*
X106005333Y-61571142D02*
X105957714Y-61618761D01*
X105814857Y-61666380D01*
X105719619Y-61666380D01*
X105576761Y-61618761D01*
X105481523Y-61523523D01*
X105433904Y-61428285D01*
X105386285Y-61237809D01*
X105386285Y-61094952D01*
X105433904Y-60904476D01*
X105481523Y-60809238D01*
X105576761Y-60714000D01*
X105719619Y-60666380D01*
X105814857Y-60666380D01*
X105957714Y-60714000D01*
X106005333Y-60761619D01*
X106910095Y-60666380D02*
X106433904Y-60666380D01*
X106386285Y-61142571D01*
X106433904Y-61094952D01*
X106529142Y-61047333D01*
X106767238Y-61047333D01*
X106862476Y-61094952D01*
X106910095Y-61142571D01*
X106957714Y-61237809D01*
X106957714Y-61475904D01*
X106910095Y-61571142D01*
X106862476Y-61618761D01*
X106767238Y-61666380D01*
X106529142Y-61666380D01*
X106433904Y-61618761D01*
X106386285Y-61571142D01*
X114483333Y-85237142D02*
X114435714Y-85284761D01*
X114292857Y-85332380D01*
X114197619Y-85332380D01*
X114054761Y-85284761D01*
X113959523Y-85189523D01*
X113911904Y-85094285D01*
X113864285Y-84903809D01*
X113864285Y-84760952D01*
X113911904Y-84570476D01*
X113959523Y-84475238D01*
X114054761Y-84380000D01*
X114197619Y-84332380D01*
X114292857Y-84332380D01*
X114435714Y-84380000D01*
X114483333Y-84427619D01*
X115340476Y-84665714D02*
X115340476Y-85332380D01*
X115102380Y-84284761D02*
X114864285Y-84999047D01*
X115483333Y-84999047D01*
X64857142Y-73107142D02*
X64809523Y-73154761D01*
X64666666Y-73202380D01*
X64571428Y-73202380D01*
X64428571Y-73154761D01*
X64333333Y-73059523D01*
X64285714Y-72964285D01*
X64238095Y-72773809D01*
X64238095Y-72630952D01*
X64285714Y-72440476D01*
X64333333Y-72345238D01*
X64428571Y-72250000D01*
X64571428Y-72202380D01*
X64666666Y-72202380D01*
X64809523Y-72250000D01*
X64857142Y-72297619D01*
X65238095Y-72297619D02*
X65285714Y-72250000D01*
X65380952Y-72202380D01*
X65619047Y-72202380D01*
X65714285Y-72250000D01*
X65761904Y-72297619D01*
X65809523Y-72392857D01*
X65809523Y-72488095D01*
X65761904Y-72630952D01*
X65190476Y-73202380D01*
X65809523Y-73202380D01*
X66666666Y-72202380D02*
X66476190Y-72202380D01*
X66380952Y-72250000D01*
X66333333Y-72297619D01*
X66238095Y-72440476D01*
X66190476Y-72630952D01*
X66190476Y-73011904D01*
X66238095Y-73107142D01*
X66285714Y-73154761D01*
X66380952Y-73202380D01*
X66571428Y-73202380D01*
X66666666Y-73154761D01*
X66714285Y-73107142D01*
X66761904Y-73011904D01*
X66761904Y-72773809D01*
X66714285Y-72678571D01*
X66666666Y-72630952D01*
X66571428Y-72583333D01*
X66380952Y-72583333D01*
X66285714Y-72630952D01*
X66238095Y-72678571D01*
X66190476Y-72773809D01*
X75957142Y-60957142D02*
X75909523Y-61004761D01*
X75766666Y-61052380D01*
X75671428Y-61052380D01*
X75528571Y-61004761D01*
X75433333Y-60909523D01*
X75385714Y-60814285D01*
X75338095Y-60623809D01*
X75338095Y-60480952D01*
X75385714Y-60290476D01*
X75433333Y-60195238D01*
X75528571Y-60100000D01*
X75671428Y-60052380D01*
X75766666Y-60052380D01*
X75909523Y-60100000D01*
X75957142Y-60147619D01*
X76338095Y-60147619D02*
X76385714Y-60100000D01*
X76480952Y-60052380D01*
X76719047Y-60052380D01*
X76814285Y-60100000D01*
X76861904Y-60147619D01*
X76909523Y-60242857D01*
X76909523Y-60338095D01*
X76861904Y-60480952D01*
X76290476Y-61052380D01*
X76909523Y-61052380D01*
X77861904Y-61052380D02*
X77290476Y-61052380D01*
X77576190Y-61052380D02*
X77576190Y-60052380D01*
X77480952Y-60195238D01*
X77385714Y-60290476D01*
X77290476Y-60338095D01*
X56107142Y-58607142D02*
X56059523Y-58654761D01*
X55916666Y-58702380D01*
X55821428Y-58702380D01*
X55678571Y-58654761D01*
X55583333Y-58559523D01*
X55535714Y-58464285D01*
X55488095Y-58273809D01*
X55488095Y-58130952D01*
X55535714Y-57940476D01*
X55583333Y-57845238D01*
X55678571Y-57750000D01*
X55821428Y-57702380D01*
X55916666Y-57702380D01*
X56059523Y-57750000D01*
X56107142Y-57797619D01*
X57059523Y-58702380D02*
X56488095Y-58702380D01*
X56773809Y-58702380D02*
X56773809Y-57702380D01*
X56678571Y-57845238D01*
X56583333Y-57940476D01*
X56488095Y-57988095D01*
X57535714Y-58702380D02*
X57726190Y-58702380D01*
X57821428Y-58654761D01*
X57869047Y-58607142D01*
X57964285Y-58464285D01*
X58011904Y-58273809D01*
X58011904Y-57892857D01*
X57964285Y-57797619D01*
X57916666Y-57750000D01*
X57821428Y-57702380D01*
X57630952Y-57702380D01*
X57535714Y-57750000D01*
X57488095Y-57797619D01*
X57440476Y-57892857D01*
X57440476Y-58130952D01*
X57488095Y-58226190D01*
X57535714Y-58273809D01*
X57630952Y-58321428D01*
X57821428Y-58321428D01*
X57916666Y-58273809D01*
X57964285Y-58226190D01*
X58011904Y-58130952D01*
X83757142Y-56842857D02*
X83804761Y-56890476D01*
X83852380Y-57033333D01*
X83852380Y-57128571D01*
X83804761Y-57271428D01*
X83709523Y-57366666D01*
X83614285Y-57414285D01*
X83423809Y-57461904D01*
X83280952Y-57461904D01*
X83090476Y-57414285D01*
X82995238Y-57366666D01*
X82900000Y-57271428D01*
X82852380Y-57128571D01*
X82852380Y-57033333D01*
X82900000Y-56890476D01*
X82947619Y-56842857D01*
X83852380Y-55890476D02*
X83852380Y-56461904D01*
X83852380Y-56176190D02*
X82852380Y-56176190D01*
X82995238Y-56271428D01*
X83090476Y-56366666D01*
X83138095Y-56461904D01*
X83280952Y-55319047D02*
X83233333Y-55414285D01*
X83185714Y-55461904D01*
X83090476Y-55509523D01*
X83042857Y-55509523D01*
X82947619Y-55461904D01*
X82900000Y-55414285D01*
X82852380Y-55319047D01*
X82852380Y-55128571D01*
X82900000Y-55033333D01*
X82947619Y-54985714D01*
X83042857Y-54938095D01*
X83090476Y-54938095D01*
X83185714Y-54985714D01*
X83233333Y-55033333D01*
X83280952Y-55128571D01*
X83280952Y-55319047D01*
X83328571Y-55414285D01*
X83376190Y-55461904D01*
X83471428Y-55509523D01*
X83661904Y-55509523D01*
X83757142Y-55461904D01*
X83804761Y-55414285D01*
X83852380Y-55319047D01*
X83852380Y-55128571D01*
X83804761Y-55033333D01*
X83757142Y-54985714D01*
X83661904Y-54938095D01*
X83471428Y-54938095D01*
X83376190Y-54985714D01*
X83328571Y-55033333D01*
X83280952Y-55128571D01*
X56761904Y-54202380D02*
X56761904Y-53202380D01*
X57000000Y-53202380D01*
X57142857Y-53250000D01*
X57238095Y-53345238D01*
X57285714Y-53440476D01*
X57333333Y-53630952D01*
X57333333Y-53773809D01*
X57285714Y-53964285D01*
X57238095Y-54059523D01*
X57142857Y-54154761D01*
X57000000Y-54202380D01*
X56761904Y-54202380D01*
X58190476Y-53535714D02*
X58190476Y-54202380D01*
X57952380Y-53154761D02*
X57714285Y-53869047D01*
X58333333Y-53869047D01*
X75952380Y-74738095D02*
X74952380Y-74738095D01*
X74952380Y-74500000D01*
X75000000Y-74357142D01*
X75095238Y-74261904D01*
X75190476Y-74214285D01*
X75380952Y-74166666D01*
X75523809Y-74166666D01*
X75714285Y-74214285D01*
X75809523Y-74261904D01*
X75904761Y-74357142D01*
X75952380Y-74500000D01*
X75952380Y-74738095D01*
X74952380Y-73261904D02*
X74952380Y-73738095D01*
X75428571Y-73785714D01*
X75380952Y-73738095D01*
X75333333Y-73642857D01*
X75333333Y-73404761D01*
X75380952Y-73309523D01*
X75428571Y-73261904D01*
X75523809Y-73214285D01*
X75761904Y-73214285D01*
X75857142Y-73261904D01*
X75904761Y-73309523D01*
X75952380Y-73404761D01*
X75952380Y-73642857D01*
X75904761Y-73738095D01*
X75857142Y-73785714D01*
X79452380Y-74488095D02*
X78452380Y-74488095D01*
X78452380Y-74250000D01*
X78500000Y-74107142D01*
X78595238Y-74011904D01*
X78690476Y-73964285D01*
X78880952Y-73916666D01*
X79023809Y-73916666D01*
X79214285Y-73964285D01*
X79309523Y-74011904D01*
X79404761Y-74107142D01*
X79452380Y-74250000D01*
X79452380Y-74488095D01*
X78452380Y-73059523D02*
X78452380Y-73250000D01*
X78500000Y-73345238D01*
X78547619Y-73392857D01*
X78690476Y-73488095D01*
X78880952Y-73535714D01*
X79261904Y-73535714D01*
X79357142Y-73488095D01*
X79404761Y-73440476D01*
X79452380Y-73345238D01*
X79452380Y-73154761D01*
X79404761Y-73059523D01*
X79357142Y-73011904D01*
X79261904Y-72964285D01*
X79023809Y-72964285D01*
X78928571Y-73011904D01*
X78880952Y-73059523D01*
X78833333Y-73154761D01*
X78833333Y-73345238D01*
X78880952Y-73440476D01*
X78928571Y-73488095D01*
X79023809Y-73535714D01*
X69511904Y-74702380D02*
X69511904Y-73702380D01*
X69750000Y-73702380D01*
X69892857Y-73750000D01*
X69988095Y-73845238D01*
X70035714Y-73940476D01*
X70083333Y-74130952D01*
X70083333Y-74273809D01*
X70035714Y-74464285D01*
X69988095Y-74559523D01*
X69892857Y-74654761D01*
X69750000Y-74702380D01*
X69511904Y-74702380D01*
X70416666Y-73702380D02*
X71083333Y-73702380D01*
X70654761Y-74702380D01*
X73702380Y-74738095D02*
X72702380Y-74738095D01*
X72702380Y-74500000D01*
X72750000Y-74357142D01*
X72845238Y-74261904D01*
X72940476Y-74214285D01*
X73130952Y-74166666D01*
X73273809Y-74166666D01*
X73464285Y-74214285D01*
X73559523Y-74261904D01*
X73654761Y-74357142D01*
X73702380Y-74500000D01*
X73702380Y-74738095D01*
X73130952Y-73595238D02*
X73083333Y-73690476D01*
X73035714Y-73738095D01*
X72940476Y-73785714D01*
X72892857Y-73785714D01*
X72797619Y-73738095D01*
X72750000Y-73690476D01*
X72702380Y-73595238D01*
X72702380Y-73404761D01*
X72750000Y-73309523D01*
X72797619Y-73261904D01*
X72892857Y-73214285D01*
X72940476Y-73214285D01*
X73035714Y-73261904D01*
X73083333Y-73309523D01*
X73130952Y-73404761D01*
X73130952Y-73595238D01*
X73178571Y-73690476D01*
X73226190Y-73738095D01*
X73321428Y-73785714D01*
X73511904Y-73785714D01*
X73607142Y-73738095D01*
X73654761Y-73690476D01*
X73702380Y-73595238D01*
X73702380Y-73404761D01*
X73654761Y-73309523D01*
X73607142Y-73261904D01*
X73511904Y-73214285D01*
X73321428Y-73214285D01*
X73226190Y-73261904D01*
X73178571Y-73309523D01*
X73130952Y-73404761D01*
X62452380Y-78488095D02*
X61452380Y-78488095D01*
X61452380Y-78250000D01*
X61500000Y-78107142D01*
X61595238Y-78011904D01*
X61690476Y-77964285D01*
X61880952Y-77916666D01*
X62023809Y-77916666D01*
X62214285Y-77964285D01*
X62309523Y-78011904D01*
X62404761Y-78107142D01*
X62452380Y-78250000D01*
X62452380Y-78488095D01*
X62452380Y-77440476D02*
X62452380Y-77250000D01*
X62404761Y-77154761D01*
X62357142Y-77107142D01*
X62214285Y-77011904D01*
X62023809Y-76964285D01*
X61642857Y-76964285D01*
X61547619Y-77011904D01*
X61500000Y-77059523D01*
X61452380Y-77154761D01*
X61452380Y-77345238D01*
X61500000Y-77440476D01*
X61547619Y-77488095D01*
X61642857Y-77535714D01*
X61880952Y-77535714D01*
X61976190Y-77488095D01*
X62023809Y-77440476D01*
X62071428Y-77345238D01*
X62071428Y-77154761D01*
X62023809Y-77059523D01*
X61976190Y-77011904D01*
X61880952Y-76964285D01*
X67035714Y-74702380D02*
X67035714Y-73702380D01*
X67273809Y-73702380D01*
X67416666Y-73750000D01*
X67511904Y-73845238D01*
X67559523Y-73940476D01*
X67607142Y-74130952D01*
X67607142Y-74273809D01*
X67559523Y-74464285D01*
X67511904Y-74559523D01*
X67416666Y-74654761D01*
X67273809Y-74702380D01*
X67035714Y-74702380D01*
X68559523Y-74702380D02*
X67988095Y-74702380D01*
X68273809Y-74702380D02*
X68273809Y-73702380D01*
X68178571Y-73845238D01*
X68083333Y-73940476D01*
X67988095Y-73988095D01*
X69178571Y-73702380D02*
X69273809Y-73702380D01*
X69369047Y-73750000D01*
X69416666Y-73797619D01*
X69464285Y-73892857D01*
X69511904Y-74083333D01*
X69511904Y-74321428D01*
X69464285Y-74511904D01*
X69416666Y-74607142D01*
X69369047Y-74654761D01*
X69273809Y-74702380D01*
X69178571Y-74702380D01*
X69083333Y-74654761D01*
X69035714Y-74607142D01*
X68988095Y-74511904D01*
X68940476Y-74321428D01*
X68940476Y-74083333D01*
X68988095Y-73892857D01*
X69035714Y-73797619D01*
X69083333Y-73750000D01*
X69178571Y-73702380D01*
X59166666Y-46702380D02*
X59166666Y-47416666D01*
X59119047Y-47559523D01*
X59023809Y-47654761D01*
X58880952Y-47702380D01*
X58785714Y-47702380D01*
X59547619Y-46702380D02*
X60214285Y-46702380D01*
X59785714Y-47702380D01*
X112166666Y-87952380D02*
X112166666Y-88666666D01*
X112119047Y-88809523D01*
X112023809Y-88904761D01*
X111880952Y-88952380D01*
X111785714Y-88952380D01*
X112785714Y-88380952D02*
X112690476Y-88333333D01*
X112642857Y-88285714D01*
X112595238Y-88190476D01*
X112595238Y-88142857D01*
X112642857Y-88047619D01*
X112690476Y-88000000D01*
X112785714Y-87952380D01*
X112976190Y-87952380D01*
X113071428Y-88000000D01*
X113119047Y-88047619D01*
X113166666Y-88142857D01*
X113166666Y-88190476D01*
X113119047Y-88285714D01*
X113071428Y-88333333D01*
X112976190Y-88380952D01*
X112785714Y-88380952D01*
X112690476Y-88428571D01*
X112642857Y-88476190D01*
X112595238Y-88571428D01*
X112595238Y-88761904D01*
X112642857Y-88857142D01*
X112690476Y-88904761D01*
X112785714Y-88952380D01*
X112976190Y-88952380D01*
X113071428Y-88904761D01*
X113119047Y-88857142D01*
X113166666Y-88761904D01*
X113166666Y-88571428D01*
X113119047Y-88476190D01*
X113071428Y-88428571D01*
X112976190Y-88380952D01*
X120666666Y-105592380D02*
X120666666Y-106306666D01*
X120619047Y-106449523D01*
X120523809Y-106544761D01*
X120380952Y-106592380D01*
X120285714Y-106592380D01*
X121047619Y-105592380D02*
X121666666Y-105592380D01*
X121333333Y-105973333D01*
X121476190Y-105973333D01*
X121571428Y-106020952D01*
X121619047Y-106068571D01*
X121666666Y-106163809D01*
X121666666Y-106401904D01*
X121619047Y-106497142D01*
X121571428Y-106544761D01*
X121476190Y-106592380D01*
X121190476Y-106592380D01*
X121095238Y-106544761D01*
X121047619Y-106497142D01*
X102916666Y-118452380D02*
X102916666Y-119166666D01*
X102869047Y-119309523D01*
X102773809Y-119404761D01*
X102630952Y-119452380D01*
X102535714Y-119452380D01*
X103821428Y-118785714D02*
X103821428Y-119452380D01*
X103583333Y-118404761D02*
X103345238Y-119119047D01*
X103964285Y-119119047D01*
X125266666Y-66452380D02*
X125266666Y-67166666D01*
X125219047Y-67309523D01*
X125123809Y-67404761D01*
X124980952Y-67452380D01*
X124885714Y-67452380D01*
X126171428Y-66452380D02*
X125980952Y-66452380D01*
X125885714Y-66500000D01*
X125838095Y-66547619D01*
X125742857Y-66690476D01*
X125695238Y-66880952D01*
X125695238Y-67261904D01*
X125742857Y-67357142D01*
X125790476Y-67404761D01*
X125885714Y-67452380D01*
X126076190Y-67452380D01*
X126171428Y-67404761D01*
X126219047Y-67357142D01*
X126266666Y-67261904D01*
X126266666Y-67023809D01*
X126219047Y-66928571D01*
X126171428Y-66880952D01*
X126076190Y-66833333D01*
X125885714Y-66833333D01*
X125790476Y-66880952D01*
X125742857Y-66928571D01*
X125695238Y-67023809D01*
X67333333Y-52702380D02*
X66857142Y-52702380D01*
X66857142Y-51702380D01*
X68190476Y-52702380D02*
X67619047Y-52702380D01*
X67904761Y-52702380D02*
X67904761Y-51702380D01*
X67809523Y-51845238D01*
X67714285Y-51940476D01*
X67619047Y-51988095D01*
X122857142Y-76952380D02*
X122523809Y-76476190D01*
X122285714Y-76952380D02*
X122285714Y-75952380D01*
X122666666Y-75952380D01*
X122761904Y-76000000D01*
X122809523Y-76047619D01*
X122857142Y-76142857D01*
X122857142Y-76285714D01*
X122809523Y-76380952D01*
X122761904Y-76428571D01*
X122666666Y-76476190D01*
X122285714Y-76476190D01*
X123809523Y-76952380D02*
X123238095Y-76952380D01*
X123523809Y-76952380D02*
X123523809Y-75952380D01*
X123428571Y-76095238D01*
X123333333Y-76190476D01*
X123238095Y-76238095D01*
X124190476Y-76047619D02*
X124238095Y-76000000D01*
X124333333Y-75952380D01*
X124571428Y-75952380D01*
X124666666Y-76000000D01*
X124714285Y-76047619D01*
X124761904Y-76142857D01*
X124761904Y-76238095D01*
X124714285Y-76380952D01*
X124142857Y-76952380D01*
X124761904Y-76952380D01*
X61857142Y-59202380D02*
X61523809Y-58726190D01*
X61285714Y-59202380D02*
X61285714Y-58202380D01*
X61666666Y-58202380D01*
X61761904Y-58250000D01*
X61809523Y-58297619D01*
X61857142Y-58392857D01*
X61857142Y-58535714D01*
X61809523Y-58630952D01*
X61761904Y-58678571D01*
X61666666Y-58726190D01*
X61285714Y-58726190D01*
X62809523Y-59202380D02*
X62238095Y-59202380D01*
X62523809Y-59202380D02*
X62523809Y-58202380D01*
X62428571Y-58345238D01*
X62333333Y-58440476D01*
X62238095Y-58488095D01*
X63142857Y-58202380D02*
X63761904Y-58202380D01*
X63428571Y-58583333D01*
X63571428Y-58583333D01*
X63666666Y-58630952D01*
X63714285Y-58678571D01*
X63761904Y-58773809D01*
X63761904Y-59011904D01*
X63714285Y-59107142D01*
X63666666Y-59154761D01*
X63571428Y-59202380D01*
X63285714Y-59202380D01*
X63190476Y-59154761D01*
X63142857Y-59107142D01*
X62357142Y-62452380D02*
X62023809Y-61976190D01*
X61785714Y-62452380D02*
X61785714Y-61452380D01*
X62166666Y-61452380D01*
X62261904Y-61500000D01*
X62309523Y-61547619D01*
X62357142Y-61642857D01*
X62357142Y-61785714D01*
X62309523Y-61880952D01*
X62261904Y-61928571D01*
X62166666Y-61976190D01*
X61785714Y-61976190D01*
X63309523Y-62452380D02*
X62738095Y-62452380D01*
X63023809Y-62452380D02*
X63023809Y-61452380D01*
X62928571Y-61595238D01*
X62833333Y-61690476D01*
X62738095Y-61738095D01*
X64166666Y-61785714D02*
X64166666Y-62452380D01*
X63928571Y-61404761D02*
X63690476Y-62119047D01*
X64309523Y-62119047D01*
X71452380Y-61142857D02*
X70976190Y-61476190D01*
X71452380Y-61714285D02*
X70452380Y-61714285D01*
X70452380Y-61333333D01*
X70500000Y-61238095D01*
X70547619Y-61190476D01*
X70642857Y-61142857D01*
X70785714Y-61142857D01*
X70880952Y-61190476D01*
X70928571Y-61238095D01*
X70976190Y-61333333D01*
X70976190Y-61714285D01*
X71452380Y-60190476D02*
X71452380Y-60761904D01*
X71452380Y-60476190D02*
X70452380Y-60476190D01*
X70595238Y-60571428D01*
X70690476Y-60666666D01*
X70738095Y-60761904D01*
X70452380Y-59333333D02*
X70452380Y-59523809D01*
X70500000Y-59619047D01*
X70547619Y-59666666D01*
X70690476Y-59761904D01*
X70880952Y-59809523D01*
X71261904Y-59809523D01*
X71357142Y-59761904D01*
X71404761Y-59714285D01*
X71452380Y-59619047D01*
X71452380Y-59428571D01*
X71404761Y-59333333D01*
X71357142Y-59285714D01*
X71261904Y-59238095D01*
X71023809Y-59238095D01*
X70928571Y-59285714D01*
X70880952Y-59333333D01*
X70833333Y-59428571D01*
X70833333Y-59619047D01*
X70880952Y-59714285D01*
X70928571Y-59761904D01*
X71023809Y-59809523D01*
X69702380Y-61142857D02*
X69226190Y-61476190D01*
X69702380Y-61714285D02*
X68702380Y-61714285D01*
X68702380Y-61333333D01*
X68750000Y-61238095D01*
X68797619Y-61190476D01*
X68892857Y-61142857D01*
X69035714Y-61142857D01*
X69130952Y-61190476D01*
X69178571Y-61238095D01*
X69226190Y-61333333D01*
X69226190Y-61714285D01*
X69702380Y-60190476D02*
X69702380Y-60761904D01*
X69702380Y-60476190D02*
X68702380Y-60476190D01*
X68845238Y-60571428D01*
X68940476Y-60666666D01*
X68988095Y-60761904D01*
X69130952Y-59619047D02*
X69083333Y-59714285D01*
X69035714Y-59761904D01*
X68940476Y-59809523D01*
X68892857Y-59809523D01*
X68797619Y-59761904D01*
X68750000Y-59714285D01*
X68702380Y-59619047D01*
X68702380Y-59428571D01*
X68750000Y-59333333D01*
X68797619Y-59285714D01*
X68892857Y-59238095D01*
X68940476Y-59238095D01*
X69035714Y-59285714D01*
X69083333Y-59333333D01*
X69130952Y-59428571D01*
X69130952Y-59619047D01*
X69178571Y-59714285D01*
X69226190Y-59761904D01*
X69321428Y-59809523D01*
X69511904Y-59809523D01*
X69607142Y-59761904D01*
X69654761Y-59714285D01*
X69702380Y-59619047D01*
X69702380Y-59428571D01*
X69654761Y-59333333D01*
X69607142Y-59285714D01*
X69511904Y-59238095D01*
X69321428Y-59238095D01*
X69226190Y-59285714D01*
X69178571Y-59333333D01*
X69130952Y-59428571D01*
X68202380Y-60642857D02*
X67726190Y-60976190D01*
X68202380Y-61214285D02*
X67202380Y-61214285D01*
X67202380Y-60833333D01*
X67250000Y-60738095D01*
X67297619Y-60690476D01*
X67392857Y-60642857D01*
X67535714Y-60642857D01*
X67630952Y-60690476D01*
X67678571Y-60738095D01*
X67726190Y-60833333D01*
X67726190Y-61214285D01*
X67297619Y-60261904D02*
X67250000Y-60214285D01*
X67202380Y-60119047D01*
X67202380Y-59880952D01*
X67250000Y-59785714D01*
X67297619Y-59738095D01*
X67392857Y-59690476D01*
X67488095Y-59690476D01*
X67630952Y-59738095D01*
X68202380Y-60309523D01*
X68202380Y-59690476D01*
X67202380Y-59071428D02*
X67202380Y-58976190D01*
X67250000Y-58880952D01*
X67297619Y-58833333D01*
X67392857Y-58785714D01*
X67583333Y-58738095D01*
X67821428Y-58738095D01*
X68011904Y-58785714D01*
X68107142Y-58833333D01*
X68154761Y-58880952D01*
X68202380Y-58976190D01*
X68202380Y-59071428D01*
X68154761Y-59166666D01*
X68107142Y-59214285D01*
X68011904Y-59261904D01*
X67821428Y-59309523D01*
X67583333Y-59309523D01*
X67392857Y-59261904D01*
X67297619Y-59214285D01*
X67250000Y-59166666D01*
X67202380Y-59071428D01*
X57357142Y-52202380D02*
X57023809Y-51726190D01*
X56785714Y-52202380D02*
X56785714Y-51202380D01*
X57166666Y-51202380D01*
X57261904Y-51250000D01*
X57309523Y-51297619D01*
X57357142Y-51392857D01*
X57357142Y-51535714D01*
X57309523Y-51630952D01*
X57261904Y-51678571D01*
X57166666Y-51726190D01*
X56785714Y-51726190D01*
X57738095Y-51297619D02*
X57785714Y-51250000D01*
X57880952Y-51202380D01*
X58119047Y-51202380D01*
X58214285Y-51250000D01*
X58261904Y-51297619D01*
X58309523Y-51392857D01*
X58309523Y-51488095D01*
X58261904Y-51630952D01*
X57690476Y-52202380D01*
X58309523Y-52202380D01*
X58642857Y-51202380D02*
X59261904Y-51202380D01*
X58928571Y-51583333D01*
X59071428Y-51583333D01*
X59166666Y-51630952D01*
X59214285Y-51678571D01*
X59261904Y-51773809D01*
X59261904Y-52011904D01*
X59214285Y-52107142D01*
X59166666Y-52154761D01*
X59071428Y-52202380D01*
X58785714Y-52202380D01*
X58690476Y-52154761D01*
X58642857Y-52107142D01*
X53857142Y-70952380D02*
X53523809Y-70476190D01*
X53285714Y-70952380D02*
X53285714Y-69952380D01*
X53666666Y-69952380D01*
X53761904Y-70000000D01*
X53809523Y-70047619D01*
X53857142Y-70142857D01*
X53857142Y-70285714D01*
X53809523Y-70380952D01*
X53761904Y-70428571D01*
X53666666Y-70476190D01*
X53285714Y-70476190D01*
X54238095Y-70047619D02*
X54285714Y-70000000D01*
X54380952Y-69952380D01*
X54619047Y-69952380D01*
X54714285Y-70000000D01*
X54761904Y-70047619D01*
X54809523Y-70142857D01*
X54809523Y-70238095D01*
X54761904Y-70380952D01*
X54190476Y-70952380D01*
X54809523Y-70952380D01*
X55666666Y-70285714D02*
X55666666Y-70952380D01*
X55428571Y-69904761D02*
X55190476Y-70619047D01*
X55809523Y-70619047D01*
X75702380Y-84892857D02*
X75226190Y-85226190D01*
X75702380Y-85464285D02*
X74702380Y-85464285D01*
X74702380Y-85083333D01*
X74750000Y-84988095D01*
X74797619Y-84940476D01*
X74892857Y-84892857D01*
X75035714Y-84892857D01*
X75130952Y-84940476D01*
X75178571Y-84988095D01*
X75226190Y-85083333D01*
X75226190Y-85464285D01*
X74797619Y-84511904D02*
X74750000Y-84464285D01*
X74702380Y-84369047D01*
X74702380Y-84130952D01*
X74750000Y-84035714D01*
X74797619Y-83988095D01*
X74892857Y-83940476D01*
X74988095Y-83940476D01*
X75130952Y-83988095D01*
X75702380Y-84559523D01*
X75702380Y-83940476D01*
X74702380Y-83035714D02*
X74702380Y-83511904D01*
X75178571Y-83559523D01*
X75130952Y-83511904D01*
X75083333Y-83416666D01*
X75083333Y-83178571D01*
X75130952Y-83083333D01*
X75178571Y-83035714D01*
X75273809Y-82988095D01*
X75511904Y-82988095D01*
X75607142Y-83035714D01*
X75654761Y-83083333D01*
X75702380Y-83178571D01*
X75702380Y-83416666D01*
X75654761Y-83511904D01*
X75607142Y-83559523D01*
X77702380Y-74142857D02*
X77226190Y-74476190D01*
X77702380Y-74714285D02*
X76702380Y-74714285D01*
X76702380Y-74333333D01*
X76750000Y-74238095D01*
X76797619Y-74190476D01*
X76892857Y-74142857D01*
X77035714Y-74142857D01*
X77130952Y-74190476D01*
X77178571Y-74238095D01*
X77226190Y-74333333D01*
X77226190Y-74714285D01*
X76797619Y-73761904D02*
X76750000Y-73714285D01*
X76702380Y-73619047D01*
X76702380Y-73380952D01*
X76750000Y-73285714D01*
X76797619Y-73238095D01*
X76892857Y-73190476D01*
X76988095Y-73190476D01*
X77130952Y-73238095D01*
X77702380Y-73809523D01*
X77702380Y-73190476D01*
X76702380Y-72333333D02*
X76702380Y-72523809D01*
X76750000Y-72619047D01*
X76797619Y-72666666D01*
X76940476Y-72761904D01*
X77130952Y-72809523D01*
X77511904Y-72809523D01*
X77607142Y-72761904D01*
X77654761Y-72714285D01*
X77702380Y-72619047D01*
X77702380Y-72428571D01*
X77654761Y-72333333D01*
X77607142Y-72285714D01*
X77511904Y-72238095D01*
X77273809Y-72238095D01*
X77178571Y-72285714D01*
X77130952Y-72333333D01*
X77083333Y-72428571D01*
X77083333Y-72619047D01*
X77130952Y-72714285D01*
X77178571Y-72761904D01*
X77273809Y-72809523D01*
X78357142Y-84202380D02*
X78023809Y-83726190D01*
X77785714Y-84202380D02*
X77785714Y-83202380D01*
X78166666Y-83202380D01*
X78261904Y-83250000D01*
X78309523Y-83297619D01*
X78357142Y-83392857D01*
X78357142Y-83535714D01*
X78309523Y-83630952D01*
X78261904Y-83678571D01*
X78166666Y-83726190D01*
X77785714Y-83726190D01*
X78738095Y-83297619D02*
X78785714Y-83250000D01*
X78880952Y-83202380D01*
X79119047Y-83202380D01*
X79214285Y-83250000D01*
X79261904Y-83297619D01*
X79309523Y-83392857D01*
X79309523Y-83488095D01*
X79261904Y-83630952D01*
X78690476Y-84202380D01*
X79309523Y-84202380D01*
X79642857Y-83202380D02*
X80309523Y-83202380D01*
X79880952Y-84202380D01*
X81452380Y-76642857D02*
X80976190Y-76976190D01*
X81452380Y-77214285D02*
X80452380Y-77214285D01*
X80452380Y-76833333D01*
X80500000Y-76738095D01*
X80547619Y-76690476D01*
X80642857Y-76642857D01*
X80785714Y-76642857D01*
X80880952Y-76690476D01*
X80928571Y-76738095D01*
X80976190Y-76833333D01*
X80976190Y-77214285D01*
X80547619Y-76261904D02*
X80500000Y-76214285D01*
X80452380Y-76119047D01*
X80452380Y-75880952D01*
X80500000Y-75785714D01*
X80547619Y-75738095D01*
X80642857Y-75690476D01*
X80738095Y-75690476D01*
X80880952Y-75738095D01*
X81452380Y-76309523D01*
X81452380Y-75690476D01*
X80880952Y-75119047D02*
X80833333Y-75214285D01*
X80785714Y-75261904D01*
X80690476Y-75309523D01*
X80642857Y-75309523D01*
X80547619Y-75261904D01*
X80500000Y-75214285D01*
X80452380Y-75119047D01*
X80452380Y-74928571D01*
X80500000Y-74833333D01*
X80547619Y-74785714D01*
X80642857Y-74738095D01*
X80690476Y-74738095D01*
X80785714Y-74785714D01*
X80833333Y-74833333D01*
X80880952Y-74928571D01*
X80880952Y-75119047D01*
X80928571Y-75214285D01*
X80976190Y-75261904D01*
X81071428Y-75309523D01*
X81261904Y-75309523D01*
X81357142Y-75261904D01*
X81404761Y-75214285D01*
X81452380Y-75119047D01*
X81452380Y-74928571D01*
X81404761Y-74833333D01*
X81357142Y-74785714D01*
X81261904Y-74738095D01*
X81071428Y-74738095D01*
X80976190Y-74785714D01*
X80928571Y-74833333D01*
X80880952Y-74928571D01*
X60957142Y-70502380D02*
X60623809Y-70026190D01*
X60385714Y-70502380D02*
X60385714Y-69502380D01*
X60766666Y-69502380D01*
X60861904Y-69550000D01*
X60909523Y-69597619D01*
X60957142Y-69692857D01*
X60957142Y-69835714D01*
X60909523Y-69930952D01*
X60861904Y-69978571D01*
X60766666Y-70026190D01*
X60385714Y-70026190D01*
X61338095Y-69597619D02*
X61385714Y-69550000D01*
X61480952Y-69502380D01*
X61719047Y-69502380D01*
X61814285Y-69550000D01*
X61861904Y-69597619D01*
X61909523Y-69692857D01*
X61909523Y-69788095D01*
X61861904Y-69930952D01*
X61290476Y-70502380D01*
X61909523Y-70502380D01*
X62385714Y-70502380D02*
X62576190Y-70502380D01*
X62671428Y-70454761D01*
X62719047Y-70407142D01*
X62814285Y-70264285D01*
X62861904Y-70073809D01*
X62861904Y-69692857D01*
X62814285Y-69597619D01*
X62766666Y-69550000D01*
X62671428Y-69502380D01*
X62480952Y-69502380D01*
X62385714Y-69550000D01*
X62338095Y-69597619D01*
X62290476Y-69692857D01*
X62290476Y-69930952D01*
X62338095Y-70026190D01*
X62385714Y-70073809D01*
X62480952Y-70121428D01*
X62671428Y-70121428D01*
X62766666Y-70073809D01*
X62814285Y-70026190D01*
X62861904Y-69930952D01*
X83857142Y-75702380D02*
X83523809Y-75226190D01*
X83285714Y-75702380D02*
X83285714Y-74702380D01*
X83666666Y-74702380D01*
X83761904Y-74750000D01*
X83809523Y-74797619D01*
X83857142Y-74892857D01*
X83857142Y-75035714D01*
X83809523Y-75130952D01*
X83761904Y-75178571D01*
X83666666Y-75226190D01*
X83285714Y-75226190D01*
X84190476Y-74702380D02*
X84809523Y-74702380D01*
X84476190Y-75083333D01*
X84619047Y-75083333D01*
X84714285Y-75130952D01*
X84761904Y-75178571D01*
X84809523Y-75273809D01*
X84809523Y-75511904D01*
X84761904Y-75607142D01*
X84714285Y-75654761D01*
X84619047Y-75702380D01*
X84333333Y-75702380D01*
X84238095Y-75654761D01*
X84190476Y-75607142D01*
X85428571Y-74702380D02*
X85523809Y-74702380D01*
X85619047Y-74750000D01*
X85666666Y-74797619D01*
X85714285Y-74892857D01*
X85761904Y-75083333D01*
X85761904Y-75321428D01*
X85714285Y-75511904D01*
X85666666Y-75607142D01*
X85619047Y-75654761D01*
X85523809Y-75702380D01*
X85428571Y-75702380D01*
X85333333Y-75654761D01*
X85285714Y-75607142D01*
X85238095Y-75511904D01*
X85190476Y-75321428D01*
X85190476Y-75083333D01*
X85238095Y-74892857D01*
X85285714Y-74797619D01*
X85333333Y-74750000D01*
X85428571Y-74702380D01*
X89107142Y-63702380D02*
X88773809Y-63226190D01*
X88535714Y-63702380D02*
X88535714Y-62702380D01*
X88916666Y-62702380D01*
X89011904Y-62750000D01*
X89059523Y-62797619D01*
X89107142Y-62892857D01*
X89107142Y-63035714D01*
X89059523Y-63130952D01*
X89011904Y-63178571D01*
X88916666Y-63226190D01*
X88535714Y-63226190D01*
X89440476Y-62702380D02*
X90059523Y-62702380D01*
X89726190Y-63083333D01*
X89869047Y-63083333D01*
X89964285Y-63130952D01*
X90011904Y-63178571D01*
X90059523Y-63273809D01*
X90059523Y-63511904D01*
X90011904Y-63607142D01*
X89964285Y-63654761D01*
X89869047Y-63702380D01*
X89583333Y-63702380D01*
X89488095Y-63654761D01*
X89440476Y-63607142D01*
X91011904Y-63702380D02*
X90440476Y-63702380D01*
X90726190Y-63702380D02*
X90726190Y-62702380D01*
X90630952Y-62845238D01*
X90535714Y-62940476D01*
X90440476Y-62988095D01*
X53357142Y-67202380D02*
X53023809Y-66726190D01*
X52785714Y-67202380D02*
X52785714Y-66202380D01*
X53166666Y-66202380D01*
X53261904Y-66250000D01*
X53309523Y-66297619D01*
X53357142Y-66392857D01*
X53357142Y-66535714D01*
X53309523Y-66630952D01*
X53261904Y-66678571D01*
X53166666Y-66726190D01*
X52785714Y-66726190D01*
X53690476Y-66202380D02*
X54309523Y-66202380D01*
X53976190Y-66583333D01*
X54119047Y-66583333D01*
X54214285Y-66630952D01*
X54261904Y-66678571D01*
X54309523Y-66773809D01*
X54309523Y-67011904D01*
X54261904Y-67107142D01*
X54214285Y-67154761D01*
X54119047Y-67202380D01*
X53833333Y-67202380D01*
X53738095Y-67154761D01*
X53690476Y-67107142D01*
X54690476Y-66297619D02*
X54738095Y-66250000D01*
X54833333Y-66202380D01*
X55071428Y-66202380D01*
X55166666Y-66250000D01*
X55214285Y-66297619D01*
X55261904Y-66392857D01*
X55261904Y-66488095D01*
X55214285Y-66630952D01*
X54642857Y-67202380D01*
X55261904Y-67202380D01*
X65157142Y-68002380D02*
X64823809Y-67526190D01*
X64585714Y-68002380D02*
X64585714Y-67002380D01*
X64966666Y-67002380D01*
X65061904Y-67050000D01*
X65109523Y-67097619D01*
X65157142Y-67192857D01*
X65157142Y-67335714D01*
X65109523Y-67430952D01*
X65061904Y-67478571D01*
X64966666Y-67526190D01*
X64585714Y-67526190D01*
X65490476Y-67002380D02*
X66109523Y-67002380D01*
X65776190Y-67383333D01*
X65919047Y-67383333D01*
X66014285Y-67430952D01*
X66061904Y-67478571D01*
X66109523Y-67573809D01*
X66109523Y-67811904D01*
X66061904Y-67907142D01*
X66014285Y-67954761D01*
X65919047Y-68002380D01*
X65633333Y-68002380D01*
X65538095Y-67954761D01*
X65490476Y-67907142D01*
X66442857Y-67002380D02*
X67061904Y-67002380D01*
X66728571Y-67383333D01*
X66871428Y-67383333D01*
X66966666Y-67430952D01*
X67014285Y-67478571D01*
X67061904Y-67573809D01*
X67061904Y-67811904D01*
X67014285Y-67907142D01*
X66966666Y-67954761D01*
X66871428Y-68002380D01*
X66585714Y-68002380D01*
X66490476Y-67954761D01*
X66442857Y-67907142D01*
X53857142Y-72452380D02*
X53523809Y-71976190D01*
X53285714Y-72452380D02*
X53285714Y-71452380D01*
X53666666Y-71452380D01*
X53761904Y-71500000D01*
X53809523Y-71547619D01*
X53857142Y-71642857D01*
X53857142Y-71785714D01*
X53809523Y-71880952D01*
X53761904Y-71928571D01*
X53666666Y-71976190D01*
X53285714Y-71976190D01*
X54190476Y-71452380D02*
X54809523Y-71452380D01*
X54476190Y-71833333D01*
X54619047Y-71833333D01*
X54714285Y-71880952D01*
X54761904Y-71928571D01*
X54809523Y-72023809D01*
X54809523Y-72261904D01*
X54761904Y-72357142D01*
X54714285Y-72404761D01*
X54619047Y-72452380D01*
X54333333Y-72452380D01*
X54238095Y-72404761D01*
X54190476Y-72357142D01*
X55666666Y-71785714D02*
X55666666Y-72452380D01*
X55428571Y-71404761D02*
X55190476Y-72119047D01*
X55809523Y-72119047D01*
X87702380Y-57892857D02*
X87226190Y-58226190D01*
X87702380Y-58464285D02*
X86702380Y-58464285D01*
X86702380Y-58083333D01*
X86750000Y-57988095D01*
X86797619Y-57940476D01*
X86892857Y-57892857D01*
X87035714Y-57892857D01*
X87130952Y-57940476D01*
X87178571Y-57988095D01*
X87226190Y-58083333D01*
X87226190Y-58464285D01*
X86702380Y-57559523D02*
X86702380Y-56940476D01*
X87083333Y-57273809D01*
X87083333Y-57130952D01*
X87130952Y-57035714D01*
X87178571Y-56988095D01*
X87273809Y-56940476D01*
X87511904Y-56940476D01*
X87607142Y-56988095D01*
X87654761Y-57035714D01*
X87702380Y-57130952D01*
X87702380Y-57416666D01*
X87654761Y-57511904D01*
X87607142Y-57559523D01*
X86702380Y-56035714D02*
X86702380Y-56511904D01*
X87178571Y-56559523D01*
X87130952Y-56511904D01*
X87083333Y-56416666D01*
X87083333Y-56178571D01*
X87130952Y-56083333D01*
X87178571Y-56035714D01*
X87273809Y-55988095D01*
X87511904Y-55988095D01*
X87607142Y-56035714D01*
X87654761Y-56083333D01*
X87702380Y-56178571D01*
X87702380Y-56416666D01*
X87654761Y-56511904D01*
X87607142Y-56559523D01*
X58857142Y-63952380D02*
X58523809Y-63476190D01*
X58285714Y-63952380D02*
X58285714Y-62952380D01*
X58666666Y-62952380D01*
X58761904Y-63000000D01*
X58809523Y-63047619D01*
X58857142Y-63142857D01*
X58857142Y-63285714D01*
X58809523Y-63380952D01*
X58761904Y-63428571D01*
X58666666Y-63476190D01*
X58285714Y-63476190D01*
X59190476Y-62952380D02*
X59809523Y-62952380D01*
X59476190Y-63333333D01*
X59619047Y-63333333D01*
X59714285Y-63380952D01*
X59761904Y-63428571D01*
X59809523Y-63523809D01*
X59809523Y-63761904D01*
X59761904Y-63857142D01*
X59714285Y-63904761D01*
X59619047Y-63952380D01*
X59333333Y-63952380D01*
X59238095Y-63904761D01*
X59190476Y-63857142D01*
X60142857Y-62952380D02*
X60809523Y-62952380D01*
X60380952Y-63952380D01*
X69452380Y-84892857D02*
X68976190Y-85226190D01*
X69452380Y-85464285D02*
X68452380Y-85464285D01*
X68452380Y-85083333D01*
X68500000Y-84988095D01*
X68547619Y-84940476D01*
X68642857Y-84892857D01*
X68785714Y-84892857D01*
X68880952Y-84940476D01*
X68928571Y-84988095D01*
X68976190Y-85083333D01*
X68976190Y-85464285D01*
X68452380Y-84559523D02*
X68452380Y-83940476D01*
X68833333Y-84273809D01*
X68833333Y-84130952D01*
X68880952Y-84035714D01*
X68928571Y-83988095D01*
X69023809Y-83940476D01*
X69261904Y-83940476D01*
X69357142Y-83988095D01*
X69404761Y-84035714D01*
X69452380Y-84130952D01*
X69452380Y-84416666D01*
X69404761Y-84511904D01*
X69357142Y-84559523D01*
X68880952Y-83369047D02*
X68833333Y-83464285D01*
X68785714Y-83511904D01*
X68690476Y-83559523D01*
X68642857Y-83559523D01*
X68547619Y-83511904D01*
X68500000Y-83464285D01*
X68452380Y-83369047D01*
X68452380Y-83178571D01*
X68500000Y-83083333D01*
X68547619Y-83035714D01*
X68642857Y-82988095D01*
X68690476Y-82988095D01*
X68785714Y-83035714D01*
X68833333Y-83083333D01*
X68880952Y-83178571D01*
X68880952Y-83369047D01*
X68928571Y-83464285D01*
X68976190Y-83511904D01*
X69071428Y-83559523D01*
X69261904Y-83559523D01*
X69357142Y-83511904D01*
X69404761Y-83464285D01*
X69452380Y-83369047D01*
X69452380Y-83178571D01*
X69404761Y-83083333D01*
X69357142Y-83035714D01*
X69261904Y-82988095D01*
X69071428Y-82988095D01*
X68976190Y-83035714D01*
X68928571Y-83083333D01*
X68880952Y-83178571D01*
X70952380Y-84892857D02*
X70476190Y-85226190D01*
X70952380Y-85464285D02*
X69952380Y-85464285D01*
X69952380Y-85083333D01*
X70000000Y-84988095D01*
X70047619Y-84940476D01*
X70142857Y-84892857D01*
X70285714Y-84892857D01*
X70380952Y-84940476D01*
X70428571Y-84988095D01*
X70476190Y-85083333D01*
X70476190Y-85464285D01*
X69952380Y-84559523D02*
X69952380Y-83940476D01*
X70333333Y-84273809D01*
X70333333Y-84130952D01*
X70380952Y-84035714D01*
X70428571Y-83988095D01*
X70523809Y-83940476D01*
X70761904Y-83940476D01*
X70857142Y-83988095D01*
X70904761Y-84035714D01*
X70952380Y-84130952D01*
X70952380Y-84416666D01*
X70904761Y-84511904D01*
X70857142Y-84559523D01*
X70952380Y-83464285D02*
X70952380Y-83273809D01*
X70904761Y-83178571D01*
X70857142Y-83130952D01*
X70714285Y-83035714D01*
X70523809Y-82988095D01*
X70142857Y-82988095D01*
X70047619Y-83035714D01*
X70000000Y-83083333D01*
X69952380Y-83178571D01*
X69952380Y-83369047D01*
X70000000Y-83464285D01*
X70047619Y-83511904D01*
X70142857Y-83559523D01*
X70380952Y-83559523D01*
X70476190Y-83511904D01*
X70523809Y-83464285D01*
X70571428Y-83369047D01*
X70571428Y-83178571D01*
X70523809Y-83083333D01*
X70476190Y-83035714D01*
X70380952Y-82988095D01*
X74202380Y-84892857D02*
X73726190Y-85226190D01*
X74202380Y-85464285D02*
X73202380Y-85464285D01*
X73202380Y-85083333D01*
X73250000Y-84988095D01*
X73297619Y-84940476D01*
X73392857Y-84892857D01*
X73535714Y-84892857D01*
X73630952Y-84940476D01*
X73678571Y-84988095D01*
X73726190Y-85083333D01*
X73726190Y-85464285D01*
X73535714Y-84035714D02*
X74202380Y-84035714D01*
X73154761Y-84273809D02*
X73869047Y-84511904D01*
X73869047Y-83892857D01*
X73202380Y-83321428D02*
X73202380Y-83226190D01*
X73250000Y-83130952D01*
X73297619Y-83083333D01*
X73392857Y-83035714D01*
X73583333Y-82988095D01*
X73821428Y-82988095D01*
X74011904Y-83035714D01*
X74107142Y-83083333D01*
X74154761Y-83130952D01*
X74202380Y-83226190D01*
X74202380Y-83321428D01*
X74154761Y-83416666D01*
X74107142Y-83464285D01*
X74011904Y-83511904D01*
X73821428Y-83559523D01*
X73583333Y-83559523D01*
X73392857Y-83511904D01*
X73297619Y-83464285D01*
X73250000Y-83416666D01*
X73202380Y-83321428D01*
X72452380Y-84892857D02*
X71976190Y-85226190D01*
X72452380Y-85464285D02*
X71452380Y-85464285D01*
X71452380Y-85083333D01*
X71500000Y-84988095D01*
X71547619Y-84940476D01*
X71642857Y-84892857D01*
X71785714Y-84892857D01*
X71880952Y-84940476D01*
X71928571Y-84988095D01*
X71976190Y-85083333D01*
X71976190Y-85464285D01*
X71785714Y-84035714D02*
X72452380Y-84035714D01*
X71404761Y-84273809D02*
X72119047Y-84511904D01*
X72119047Y-83892857D01*
X72452380Y-82988095D02*
X72452380Y-83559523D01*
X72452380Y-83273809D02*
X71452380Y-83273809D01*
X71595238Y-83369047D01*
X71690476Y-83464285D01*
X71738095Y-83559523D01*
X83857142Y-77202380D02*
X83523809Y-76726190D01*
X83285714Y-77202380D02*
X83285714Y-76202380D01*
X83666666Y-76202380D01*
X83761904Y-76250000D01*
X83809523Y-76297619D01*
X83857142Y-76392857D01*
X83857142Y-76535714D01*
X83809523Y-76630952D01*
X83761904Y-76678571D01*
X83666666Y-76726190D01*
X83285714Y-76726190D01*
X84714285Y-76535714D02*
X84714285Y-77202380D01*
X84476190Y-76154761D02*
X84238095Y-76869047D01*
X84857142Y-76869047D01*
X85142857Y-76202380D02*
X85761904Y-76202380D01*
X85428571Y-76583333D01*
X85571428Y-76583333D01*
X85666666Y-76630952D01*
X85714285Y-76678571D01*
X85761904Y-76773809D01*
X85761904Y-77011904D01*
X85714285Y-77107142D01*
X85666666Y-77154761D01*
X85571428Y-77202380D01*
X85285714Y-77202380D01*
X85190476Y-77154761D01*
X85142857Y-77107142D01*
X83857142Y-66952380D02*
X83523809Y-66476190D01*
X83285714Y-66952380D02*
X83285714Y-65952380D01*
X83666666Y-65952380D01*
X83761904Y-66000000D01*
X83809523Y-66047619D01*
X83857142Y-66142857D01*
X83857142Y-66285714D01*
X83809523Y-66380952D01*
X83761904Y-66428571D01*
X83666666Y-66476190D01*
X83285714Y-66476190D01*
X84714285Y-66285714D02*
X84714285Y-66952380D01*
X84476190Y-65904761D02*
X84238095Y-66619047D01*
X84857142Y-66619047D01*
X85666666Y-66285714D02*
X85666666Y-66952380D01*
X85428571Y-65904761D02*
X85190476Y-66619047D01*
X85809523Y-66619047D01*
X92607142Y-69352380D02*
X92273809Y-68876190D01*
X92035714Y-69352380D02*
X92035714Y-68352380D01*
X92416666Y-68352380D01*
X92511904Y-68400000D01*
X92559523Y-68447619D01*
X92607142Y-68542857D01*
X92607142Y-68685714D01*
X92559523Y-68780952D01*
X92511904Y-68828571D01*
X92416666Y-68876190D01*
X92035714Y-68876190D01*
X93464285Y-68685714D02*
X93464285Y-69352380D01*
X93226190Y-68304761D02*
X92988095Y-69019047D01*
X93607142Y-69019047D01*
X94464285Y-68352380D02*
X93988095Y-68352380D01*
X93940476Y-68828571D01*
X93988095Y-68780952D01*
X94083333Y-68733333D01*
X94321428Y-68733333D01*
X94416666Y-68780952D01*
X94464285Y-68828571D01*
X94511904Y-68923809D01*
X94511904Y-69161904D01*
X94464285Y-69257142D01*
X94416666Y-69304761D01*
X94321428Y-69352380D01*
X94083333Y-69352380D01*
X93988095Y-69304761D01*
X93940476Y-69257142D01*
X83857142Y-73952380D02*
X83523809Y-73476190D01*
X83285714Y-73952380D02*
X83285714Y-72952380D01*
X83666666Y-72952380D01*
X83761904Y-73000000D01*
X83809523Y-73047619D01*
X83857142Y-73142857D01*
X83857142Y-73285714D01*
X83809523Y-73380952D01*
X83761904Y-73428571D01*
X83666666Y-73476190D01*
X83285714Y-73476190D01*
X84714285Y-73285714D02*
X84714285Y-73952380D01*
X84476190Y-72904761D02*
X84238095Y-73619047D01*
X84857142Y-73619047D01*
X85666666Y-72952380D02*
X85476190Y-72952380D01*
X85380952Y-73000000D01*
X85333333Y-73047619D01*
X85238095Y-73190476D01*
X85190476Y-73380952D01*
X85190476Y-73761904D01*
X85238095Y-73857142D01*
X85285714Y-73904761D01*
X85380952Y-73952380D01*
X85571428Y-73952380D01*
X85666666Y-73904761D01*
X85714285Y-73857142D01*
X85761904Y-73761904D01*
X85761904Y-73523809D01*
X85714285Y-73428571D01*
X85666666Y-73380952D01*
X85571428Y-73333333D01*
X85380952Y-73333333D01*
X85285714Y-73380952D01*
X85238095Y-73428571D01*
X85190476Y-73523809D01*
X79107142Y-70202380D02*
X78773809Y-69726190D01*
X78535714Y-70202380D02*
X78535714Y-69202380D01*
X78916666Y-69202380D01*
X79011904Y-69250000D01*
X79059523Y-69297619D01*
X79107142Y-69392857D01*
X79107142Y-69535714D01*
X79059523Y-69630952D01*
X79011904Y-69678571D01*
X78916666Y-69726190D01*
X78535714Y-69726190D01*
X79964285Y-69535714D02*
X79964285Y-70202380D01*
X79726190Y-69154761D02*
X79488095Y-69869047D01*
X80107142Y-69869047D01*
X80392857Y-69202380D02*
X81059523Y-69202380D01*
X80630952Y-70202380D01*
X57357142Y-84702380D02*
X57023809Y-84226190D01*
X56785714Y-84702380D02*
X56785714Y-83702380D01*
X57166666Y-83702380D01*
X57261904Y-83750000D01*
X57309523Y-83797619D01*
X57357142Y-83892857D01*
X57357142Y-84035714D01*
X57309523Y-84130952D01*
X57261904Y-84178571D01*
X57166666Y-84226190D01*
X56785714Y-84226190D01*
X58214285Y-84035714D02*
X58214285Y-84702380D01*
X57976190Y-83654761D02*
X57738095Y-84369047D01*
X58357142Y-84369047D01*
X58880952Y-84130952D02*
X58785714Y-84083333D01*
X58738095Y-84035714D01*
X58690476Y-83940476D01*
X58690476Y-83892857D01*
X58738095Y-83797619D01*
X58785714Y-83750000D01*
X58880952Y-83702380D01*
X59071428Y-83702380D01*
X59166666Y-83750000D01*
X59214285Y-83797619D01*
X59261904Y-83892857D01*
X59261904Y-83940476D01*
X59214285Y-84035714D01*
X59166666Y-84083333D01*
X59071428Y-84130952D01*
X58880952Y-84130952D01*
X58785714Y-84178571D01*
X58738095Y-84226190D01*
X58690476Y-84321428D01*
X58690476Y-84511904D01*
X58738095Y-84607142D01*
X58785714Y-84654761D01*
X58880952Y-84702380D01*
X59071428Y-84702380D01*
X59166666Y-84654761D01*
X59214285Y-84607142D01*
X59261904Y-84511904D01*
X59261904Y-84321428D01*
X59214285Y-84226190D01*
X59166666Y-84178571D01*
X59071428Y-84130952D01*
X60702380Y-77892857D02*
X60226190Y-78226190D01*
X60702380Y-78464285D02*
X59702380Y-78464285D01*
X59702380Y-78083333D01*
X59750000Y-77988095D01*
X59797619Y-77940476D01*
X59892857Y-77892857D01*
X60035714Y-77892857D01*
X60130952Y-77940476D01*
X60178571Y-77988095D01*
X60226190Y-78083333D01*
X60226190Y-78464285D01*
X60035714Y-77035714D02*
X60702380Y-77035714D01*
X59654761Y-77273809D02*
X60369047Y-77511904D01*
X60369047Y-76892857D01*
X60702380Y-76464285D02*
X60702380Y-76273809D01*
X60654761Y-76178571D01*
X60607142Y-76130952D01*
X60464285Y-76035714D01*
X60273809Y-75988095D01*
X59892857Y-75988095D01*
X59797619Y-76035714D01*
X59750000Y-76083333D01*
X59702380Y-76178571D01*
X59702380Y-76369047D01*
X59750000Y-76464285D01*
X59797619Y-76511904D01*
X59892857Y-76559523D01*
X60130952Y-76559523D01*
X60226190Y-76511904D01*
X60273809Y-76464285D01*
X60321428Y-76369047D01*
X60321428Y-76178571D01*
X60273809Y-76083333D01*
X60226190Y-76035714D01*
X60130952Y-75988095D01*
X67952380Y-84892857D02*
X67476190Y-85226190D01*
X67952380Y-85464285D02*
X66952380Y-85464285D01*
X66952380Y-85083333D01*
X67000000Y-84988095D01*
X67047619Y-84940476D01*
X67142857Y-84892857D01*
X67285714Y-84892857D01*
X67380952Y-84940476D01*
X67428571Y-84988095D01*
X67476190Y-85083333D01*
X67476190Y-85464285D01*
X66952380Y-83988095D02*
X66952380Y-84464285D01*
X67428571Y-84511904D01*
X67380952Y-84464285D01*
X67333333Y-84369047D01*
X67333333Y-84130952D01*
X67380952Y-84035714D01*
X67428571Y-83988095D01*
X67523809Y-83940476D01*
X67761904Y-83940476D01*
X67857142Y-83988095D01*
X67904761Y-84035714D01*
X67952380Y-84130952D01*
X67952380Y-84369047D01*
X67904761Y-84464285D01*
X67857142Y-84511904D01*
X66952380Y-83321428D02*
X66952380Y-83226190D01*
X67000000Y-83130952D01*
X67047619Y-83083333D01*
X67142857Y-83035714D01*
X67333333Y-82988095D01*
X67571428Y-82988095D01*
X67761904Y-83035714D01*
X67857142Y-83083333D01*
X67904761Y-83130952D01*
X67952380Y-83226190D01*
X67952380Y-83321428D01*
X67904761Y-83416666D01*
X67857142Y-83464285D01*
X67761904Y-83511904D01*
X67571428Y-83559523D01*
X67333333Y-83559523D01*
X67142857Y-83511904D01*
X67047619Y-83464285D01*
X67000000Y-83416666D01*
X66952380Y-83321428D01*
X64857142Y-74702380D02*
X64523809Y-74226190D01*
X64285714Y-74702380D02*
X64285714Y-73702380D01*
X64666666Y-73702380D01*
X64761904Y-73750000D01*
X64809523Y-73797619D01*
X64857142Y-73892857D01*
X64857142Y-74035714D01*
X64809523Y-74130952D01*
X64761904Y-74178571D01*
X64666666Y-74226190D01*
X64285714Y-74226190D01*
X65761904Y-73702380D02*
X65285714Y-73702380D01*
X65238095Y-74178571D01*
X65285714Y-74130952D01*
X65380952Y-74083333D01*
X65619047Y-74083333D01*
X65714285Y-74130952D01*
X65761904Y-74178571D01*
X65809523Y-74273809D01*
X65809523Y-74511904D01*
X65761904Y-74607142D01*
X65714285Y-74654761D01*
X65619047Y-74702380D01*
X65380952Y-74702380D01*
X65285714Y-74654761D01*
X65238095Y-74607142D01*
X66761904Y-74702380D02*
X66190476Y-74702380D01*
X66476190Y-74702380D02*
X66476190Y-73702380D01*
X66380952Y-73845238D01*
X66285714Y-73940476D01*
X66190476Y-73988095D01*
X86202380Y-60892857D02*
X85726190Y-61226190D01*
X86202380Y-61464285D02*
X85202380Y-61464285D01*
X85202380Y-61083333D01*
X85250000Y-60988095D01*
X85297619Y-60940476D01*
X85392857Y-60892857D01*
X85535714Y-60892857D01*
X85630952Y-60940476D01*
X85678571Y-60988095D01*
X85726190Y-61083333D01*
X85726190Y-61464285D01*
X85202380Y-59988095D02*
X85202380Y-60464285D01*
X85678571Y-60511904D01*
X85630952Y-60464285D01*
X85583333Y-60369047D01*
X85583333Y-60130952D01*
X85630952Y-60035714D01*
X85678571Y-59988095D01*
X85773809Y-59940476D01*
X86011904Y-59940476D01*
X86107142Y-59988095D01*
X86154761Y-60035714D01*
X86202380Y-60130952D01*
X86202380Y-60369047D01*
X86154761Y-60464285D01*
X86107142Y-60511904D01*
X85202380Y-59607142D02*
X85202380Y-58988095D01*
X85583333Y-59321428D01*
X85583333Y-59178571D01*
X85630952Y-59083333D01*
X85678571Y-59035714D01*
X85773809Y-58988095D01*
X86011904Y-58988095D01*
X86107142Y-59035714D01*
X86154761Y-59083333D01*
X86202380Y-59178571D01*
X86202380Y-59464285D01*
X86154761Y-59559523D01*
X86107142Y-59607142D01*
X87357142Y-66952380D02*
X87023809Y-66476190D01*
X86785714Y-66952380D02*
X86785714Y-65952380D01*
X87166666Y-65952380D01*
X87261904Y-66000000D01*
X87309523Y-66047619D01*
X87357142Y-66142857D01*
X87357142Y-66285714D01*
X87309523Y-66380952D01*
X87261904Y-66428571D01*
X87166666Y-66476190D01*
X86785714Y-66476190D01*
X88261904Y-65952380D02*
X87785714Y-65952380D01*
X87738095Y-66428571D01*
X87785714Y-66380952D01*
X87880952Y-66333333D01*
X88119047Y-66333333D01*
X88214285Y-66380952D01*
X88261904Y-66428571D01*
X88309523Y-66523809D01*
X88309523Y-66761904D01*
X88261904Y-66857142D01*
X88214285Y-66904761D01*
X88119047Y-66952380D01*
X87880952Y-66952380D01*
X87785714Y-66904761D01*
X87738095Y-66857142D01*
X89166666Y-66285714D02*
X89166666Y-66952380D01*
X88928571Y-65904761D02*
X88690476Y-66619047D01*
X89309523Y-66619047D01*
X84452380Y-60892857D02*
X83976190Y-61226190D01*
X84452380Y-61464285D02*
X83452380Y-61464285D01*
X83452380Y-61083333D01*
X83500000Y-60988095D01*
X83547619Y-60940476D01*
X83642857Y-60892857D01*
X83785714Y-60892857D01*
X83880952Y-60940476D01*
X83928571Y-60988095D01*
X83976190Y-61083333D01*
X83976190Y-61464285D01*
X83452380Y-59988095D02*
X83452380Y-60464285D01*
X83928571Y-60511904D01*
X83880952Y-60464285D01*
X83833333Y-60369047D01*
X83833333Y-60130952D01*
X83880952Y-60035714D01*
X83928571Y-59988095D01*
X84023809Y-59940476D01*
X84261904Y-59940476D01*
X84357142Y-59988095D01*
X84404761Y-60035714D01*
X84452380Y-60130952D01*
X84452380Y-60369047D01*
X84404761Y-60464285D01*
X84357142Y-60511904D01*
X83452380Y-59035714D02*
X83452380Y-59511904D01*
X83928571Y-59559523D01*
X83880952Y-59511904D01*
X83833333Y-59416666D01*
X83833333Y-59178571D01*
X83880952Y-59083333D01*
X83928571Y-59035714D01*
X84023809Y-58988095D01*
X84261904Y-58988095D01*
X84357142Y-59035714D01*
X84404761Y-59083333D01*
X84452380Y-59178571D01*
X84452380Y-59416666D01*
X84404761Y-59511904D01*
X84357142Y-59559523D01*
X92607142Y-65452380D02*
X92273809Y-64976190D01*
X92035714Y-65452380D02*
X92035714Y-64452380D01*
X92416666Y-64452380D01*
X92511904Y-64500000D01*
X92559523Y-64547619D01*
X92607142Y-64642857D01*
X92607142Y-64785714D01*
X92559523Y-64880952D01*
X92511904Y-64928571D01*
X92416666Y-64976190D01*
X92035714Y-64976190D01*
X93511904Y-64452380D02*
X93035714Y-64452380D01*
X92988095Y-64928571D01*
X93035714Y-64880952D01*
X93130952Y-64833333D01*
X93369047Y-64833333D01*
X93464285Y-64880952D01*
X93511904Y-64928571D01*
X93559523Y-65023809D01*
X93559523Y-65261904D01*
X93511904Y-65357142D01*
X93464285Y-65404761D01*
X93369047Y-65452380D01*
X93130952Y-65452380D01*
X93035714Y-65404761D01*
X92988095Y-65357142D01*
X94416666Y-64452380D02*
X94226190Y-64452380D01*
X94130952Y-64500000D01*
X94083333Y-64547619D01*
X93988095Y-64690476D01*
X93940476Y-64880952D01*
X93940476Y-65261904D01*
X93988095Y-65357142D01*
X94035714Y-65404761D01*
X94130952Y-65452380D01*
X94321428Y-65452380D01*
X94416666Y-65404761D01*
X94464285Y-65357142D01*
X94511904Y-65261904D01*
X94511904Y-65023809D01*
X94464285Y-64928571D01*
X94416666Y-64880952D01*
X94321428Y-64833333D01*
X94130952Y-64833333D01*
X94035714Y-64880952D01*
X93988095Y-64928571D01*
X93940476Y-65023809D01*
X82952380Y-60892857D02*
X82476190Y-61226190D01*
X82952380Y-61464285D02*
X81952380Y-61464285D01*
X81952380Y-61083333D01*
X82000000Y-60988095D01*
X82047619Y-60940476D01*
X82142857Y-60892857D01*
X82285714Y-60892857D01*
X82380952Y-60940476D01*
X82428571Y-60988095D01*
X82476190Y-61083333D01*
X82476190Y-61464285D01*
X81952380Y-59988095D02*
X81952380Y-60464285D01*
X82428571Y-60511904D01*
X82380952Y-60464285D01*
X82333333Y-60369047D01*
X82333333Y-60130952D01*
X82380952Y-60035714D01*
X82428571Y-59988095D01*
X82523809Y-59940476D01*
X82761904Y-59940476D01*
X82857142Y-59988095D01*
X82904761Y-60035714D01*
X82952380Y-60130952D01*
X82952380Y-60369047D01*
X82904761Y-60464285D01*
X82857142Y-60511904D01*
X81952380Y-59607142D02*
X81952380Y-58940476D01*
X82952380Y-59369047D01*
X108227833Y-52559880D02*
X107894500Y-52083690D01*
X107656404Y-52559880D02*
X107656404Y-51559880D01*
X108037357Y-51559880D01*
X108132595Y-51607500D01*
X108180214Y-51655119D01*
X108227833Y-51750357D01*
X108227833Y-51893214D01*
X108180214Y-51988452D01*
X108132595Y-52036071D01*
X108037357Y-52083690D01*
X107656404Y-52083690D01*
X108561166Y-51559880D02*
X109180214Y-51559880D01*
X108846880Y-51940833D01*
X108989738Y-51940833D01*
X109084976Y-51988452D01*
X109132595Y-52036071D01*
X109180214Y-52131309D01*
X109180214Y-52369404D01*
X109132595Y-52464642D01*
X109084976Y-52512261D01*
X108989738Y-52559880D01*
X108704023Y-52559880D01*
X108608785Y-52512261D01*
X108561166Y-52464642D01*
X108452380Y-107666666D02*
X107976190Y-108000000D01*
X108452380Y-108238095D02*
X107452380Y-108238095D01*
X107452380Y-107857142D01*
X107500000Y-107761904D01*
X107547619Y-107714285D01*
X107642857Y-107666666D01*
X107785714Y-107666666D01*
X107880952Y-107714285D01*
X107928571Y-107761904D01*
X107976190Y-107857142D01*
X107976190Y-108238095D01*
X107785714Y-106809523D02*
X108452380Y-106809523D01*
X107404761Y-107047619D02*
X108119047Y-107285714D01*
X108119047Y-106666666D01*
X114202380Y-107666666D02*
X113726190Y-108000000D01*
X114202380Y-108238095D02*
X113202380Y-108238095D01*
X113202380Y-107857142D01*
X113250000Y-107761904D01*
X113297619Y-107714285D01*
X113392857Y-107666666D01*
X113535714Y-107666666D01*
X113630952Y-107714285D01*
X113678571Y-107761904D01*
X113726190Y-107857142D01*
X113726190Y-108238095D01*
X113202380Y-106809523D02*
X113202380Y-107000000D01*
X113250000Y-107095238D01*
X113297619Y-107142857D01*
X113440476Y-107238095D01*
X113630952Y-107285714D01*
X114011904Y-107285714D01*
X114107142Y-107238095D01*
X114154761Y-107190476D01*
X114202380Y-107095238D01*
X114202380Y-106904761D01*
X114154761Y-106809523D01*
X114107142Y-106761904D01*
X114011904Y-106714285D01*
X113773809Y-106714285D01*
X113678571Y-106761904D01*
X113630952Y-106809523D01*
X113583333Y-106904761D01*
X113583333Y-107095238D01*
X113630952Y-107190476D01*
X113678571Y-107238095D01*
X113773809Y-107285714D01*
X115149333Y-53982880D02*
X114816000Y-53506690D01*
X114577904Y-53982880D02*
X114577904Y-52982880D01*
X114958857Y-52982880D01*
X115054095Y-53030500D01*
X115101714Y-53078119D01*
X115149333Y-53173357D01*
X115149333Y-53316214D01*
X115101714Y-53411452D01*
X115054095Y-53459071D01*
X114958857Y-53506690D01*
X114577904Y-53506690D01*
X115482666Y-52982880D02*
X116149333Y-52982880D01*
X115720761Y-53982880D01*
X110452380Y-107666666D02*
X109976190Y-108000000D01*
X110452380Y-108238095D02*
X109452380Y-108238095D01*
X109452380Y-107857142D01*
X109500000Y-107761904D01*
X109547619Y-107714285D01*
X109642857Y-107666666D01*
X109785714Y-107666666D01*
X109880952Y-107714285D01*
X109928571Y-107761904D01*
X109976190Y-107857142D01*
X109976190Y-108238095D01*
X109880952Y-107095238D02*
X109833333Y-107190476D01*
X109785714Y-107238095D01*
X109690476Y-107285714D01*
X109642857Y-107285714D01*
X109547619Y-107238095D01*
X109500000Y-107190476D01*
X109452380Y-107095238D01*
X109452380Y-106904761D01*
X109500000Y-106809523D01*
X109547619Y-106761904D01*
X109642857Y-106714285D01*
X109690476Y-106714285D01*
X109785714Y-106761904D01*
X109833333Y-106809523D01*
X109880952Y-106904761D01*
X109880952Y-107095238D01*
X109928571Y-107190476D01*
X109976190Y-107238095D01*
X110071428Y-107285714D01*
X110261904Y-107285714D01*
X110357142Y-107238095D01*
X110404761Y-107190476D01*
X110452380Y-107095238D01*
X110452380Y-106904761D01*
X110404761Y-106809523D01*
X110357142Y-106761904D01*
X110261904Y-106714285D01*
X110071428Y-106714285D01*
X109976190Y-106761904D01*
X109928571Y-106809523D01*
X109880952Y-106904761D01*
X112202380Y-107166666D02*
X111726190Y-107500000D01*
X112202380Y-107738095D02*
X111202380Y-107738095D01*
X111202380Y-107357142D01*
X111250000Y-107261904D01*
X111297619Y-107214285D01*
X111392857Y-107166666D01*
X111535714Y-107166666D01*
X111630952Y-107214285D01*
X111678571Y-107261904D01*
X111726190Y-107357142D01*
X111726190Y-107738095D01*
X112202380Y-106690476D02*
X112202380Y-106500000D01*
X112154761Y-106404761D01*
X112107142Y-106357142D01*
X111964285Y-106261904D01*
X111773809Y-106214285D01*
X111392857Y-106214285D01*
X111297619Y-106261904D01*
X111250000Y-106309523D01*
X111202380Y-106404761D01*
X111202380Y-106595238D01*
X111250000Y-106690476D01*
X111297619Y-106738095D01*
X111392857Y-106785714D01*
X111630952Y-106785714D01*
X111726190Y-106738095D01*
X111773809Y-106690476D01*
X111821428Y-106595238D01*
X111821428Y-106404761D01*
X111773809Y-106309523D01*
X111726190Y-106261904D01*
X111630952Y-106214285D01*
X51488095Y-59952380D02*
X52059523Y-59952380D01*
X51773809Y-60952380D02*
X51773809Y-59952380D01*
X52392857Y-60952380D02*
X52392857Y-59952380D01*
X52773809Y-59952380D01*
X52869047Y-60000000D01*
X52916666Y-60047619D01*
X52964285Y-60142857D01*
X52964285Y-60285714D01*
X52916666Y-60380952D01*
X52869047Y-60428571D01*
X52773809Y-60476190D01*
X52392857Y-60476190D01*
X53916666Y-60952380D02*
X53345238Y-60952380D01*
X53630952Y-60952380D02*
X53630952Y-59952380D01*
X53535714Y-60095238D01*
X53440476Y-60190476D01*
X53345238Y-60238095D01*
X51488095Y-63452380D02*
X52059523Y-63452380D01*
X51773809Y-64452380D02*
X51773809Y-63452380D01*
X52392857Y-64452380D02*
X52392857Y-63452380D01*
X52773809Y-63452380D01*
X52869047Y-63500000D01*
X52916666Y-63547619D01*
X52964285Y-63642857D01*
X52964285Y-63785714D01*
X52916666Y-63880952D01*
X52869047Y-63928571D01*
X52773809Y-63976190D01*
X52392857Y-63976190D01*
X53297619Y-63452380D02*
X53916666Y-63452380D01*
X53583333Y-63833333D01*
X53726190Y-63833333D01*
X53821428Y-63880952D01*
X53869047Y-63928571D01*
X53916666Y-64023809D01*
X53916666Y-64261904D01*
X53869047Y-64357142D01*
X53821428Y-64404761D01*
X53726190Y-64452380D01*
X53440476Y-64452380D01*
X53345238Y-64404761D01*
X53297619Y-64357142D01*
X87988095Y-71452380D02*
X88559523Y-71452380D01*
X88273809Y-72452380D02*
X88273809Y-71452380D01*
X88892857Y-72452380D02*
X88892857Y-71452380D01*
X89273809Y-71452380D01*
X89369047Y-71500000D01*
X89416666Y-71547619D01*
X89464285Y-71642857D01*
X89464285Y-71785714D01*
X89416666Y-71880952D01*
X89369047Y-71928571D01*
X89273809Y-71976190D01*
X88892857Y-71976190D01*
X90369047Y-71452380D02*
X89892857Y-71452380D01*
X89845238Y-71928571D01*
X89892857Y-71880952D01*
X89988095Y-71833333D01*
X90226190Y-71833333D01*
X90321428Y-71880952D01*
X90369047Y-71928571D01*
X90416666Y-72023809D01*
X90416666Y-72261904D01*
X90369047Y-72357142D01*
X90321428Y-72404761D01*
X90226190Y-72452380D01*
X89988095Y-72452380D01*
X89892857Y-72404761D01*
X89845238Y-72357142D01*
X94488095Y-55204380D02*
X95059523Y-55204380D01*
X94773809Y-56204380D02*
X94773809Y-55204380D01*
X95392857Y-56204380D02*
X95392857Y-55204380D01*
X95773809Y-55204380D01*
X95869047Y-55252000D01*
X95916666Y-55299619D01*
X95964285Y-55394857D01*
X95964285Y-55537714D01*
X95916666Y-55632952D01*
X95869047Y-55680571D01*
X95773809Y-55728190D01*
X95392857Y-55728190D01*
X96297619Y-55204380D02*
X96964285Y-55204380D01*
X96535714Y-56204380D01*
X107488095Y-73702380D02*
X107488095Y-74511904D01*
X107535714Y-74607142D01*
X107583333Y-74654761D01*
X107678571Y-74702380D01*
X107869047Y-74702380D01*
X107964285Y-74654761D01*
X108011904Y-74607142D01*
X108059523Y-74511904D01*
X108059523Y-73702380D01*
X109059523Y-74702380D02*
X108488095Y-74702380D01*
X108773809Y-74702380D02*
X108773809Y-73702380D01*
X108678571Y-73845238D01*
X108583333Y-73940476D01*
X108488095Y-73988095D01*
X124352380Y-86833333D02*
X125066666Y-86833333D01*
X125209523Y-86880952D01*
X125304761Y-86976190D01*
X125352380Y-87119047D01*
X125352380Y-87214285D01*
X125352380Y-85833333D02*
X125352380Y-86404761D01*
X125352380Y-86119047D02*
X124352380Y-86119047D01*
X124495238Y-86214285D01*
X124590476Y-86309523D01*
X124638095Y-86404761D01*
M02*
