M48
; DRILL file {KiCad (5.1.2)-2} date 08/09/2019 17:56:53
; FORMAT={-:-/ absolute / inch / decimal}
; #@! TF.CreationDate,2019-09-08T17:56:53+02:00
; #@! TF.GenerationSoftware,Kicad,Pcbnew,(5.1.2)-2
; #@! TF.FileFunction,Plated,1,2,PTH
FMAT,2
INCH
T1C0.0118
T2C0.0197
T3C0.0394
T4C0.0512
T5C0.0591
T6C0.1181
%
G90
G05
T1
X2.3031Y-3.6043
X2.3328Y-3.6156
X2.3809Y-3.3632
X2.5335Y-3.628
X2.5531Y-3.5945
X2.5531Y-3.6614
X2.561Y-4.4646
X2.561Y-4.5315
X2.5689Y-2.8169
X2.5728Y-3.628
X2.579Y-2.5984
X2.5807Y-4.4311
X2.5807Y-4.498
X2.5925Y-3.5945
X2.6004Y-4.4646
X2.6004Y-4.5315
X2.6122Y-3.628
X2.6201Y-4.4311
X2.6201Y-4.498
X2.628Y-2.5807
X2.6319Y-3.5945
X2.6375Y-2.538
X2.6398Y-4.4646
X2.6398Y-4.5315
X2.6496Y-3.3366
X2.6516Y-3.628
X2.6594Y-4.4311
X2.6594Y-4.498
X2.6634Y-2.578
X2.6713Y-3.5945
X2.6713Y-3.6614
X2.6732Y-2.3583
X2.6791Y-4.4646
X2.6791Y-4.5315
X2.6909Y-3.628
X2.7362Y-2.3346
X2.7402Y-3.39
X2.753Y-3.5344
X2.7579Y-2.5364
X2.7598Y-2.7087
X2.7746Y-2.3356
X2.8423Y-3.3484
X2.8878Y-2.874
X2.8878Y-2.8976
X2.9193Y-2.3268
X2.935Y-2.6358
X2.935Y-3.628
X2.9537Y-4.4606
X2.9547Y-3.5945
X2.9547Y-3.6614
X2.9547Y-4.5276
X2.9567Y-2.9114
X2.9626Y-3.4919
X2.9734Y-4.4272
X2.9744Y-3.628
X2.9744Y-4.4941
X2.9862Y-2.8583
X2.9902Y-3.4961
X2.9931Y-4.4606
X2.9941Y-3.5945
X2.9941Y-4.5276
X3.0128Y-4.4272
X3.0138Y-3.628
X3.0138Y-4.4941
X3.0325Y-4.4606
X3.0335Y-3.5945
X3.0335Y-4.5276
X3.0522Y-4.4272
X3.0531Y-2.6122
X3.0531Y-3.628
X3.0531Y-4.4941
X3.0719Y-4.4606
X3.0728Y-3.5945
X3.0728Y-3.6614
X3.0728Y-4.5276
X3.0787Y-2.7717
X3.0795Y-2.7384
X3.0846Y-2.7116
X3.0925Y-2.5138
X3.0925Y-3.628
X3.1634Y-2.6811
X3.2103Y-3.6204
X3.2313Y-3.5937
X3.2441Y-2.4469
X3.25Y-2.6024
X3.2579Y-2.126
X3.3661Y-3.624
X3.376Y-2.6122
X3.3858Y-3.5906
X3.3858Y-3.6575
X3.3898Y-4.4606
X3.3898Y-4.5276
X3.4055Y-3.624
X3.4094Y-4.4272
X3.4094Y-4.4941
X3.4252Y-3.5906
X3.4291Y-4.4606
X3.4291Y-4.5276
X3.4449Y-3.624
X3.4488Y-4.4272
X3.4488Y-4.4941
X3.4646Y-3.5906
X3.4685Y-4.4606
X3.4685Y-4.5276
X3.4843Y-3.624
X3.4882Y-4.4272
X3.4882Y-4.4941
X3.5039Y-3.5906
X3.5039Y-3.6575
X3.5079Y-4.4606
X3.5079Y-4.5276
X3.5236Y-3.624
X3.5433Y-2.9587
X3.7165Y-2.3543
X3.8199Y-3.5443
X3.8425Y-3.4734
X3.9252Y-3.3287
X4.0118Y-3.0955
X4.0443Y-2.8583
X4.0768Y-2.6398
X4.124Y-3.5138
X4.1673Y-2.6575
X4.2352Y-2.6545
X4.2933Y-2.6417
X4.3661Y-3.122
X4.391Y-3.3568
X4.4045Y-3.4026
X4.4154Y-3.3482
X4.4429Y-3.122
X4.4498Y-2.0581
X4.4646Y-2.6791
X4.4695Y-2.7549
X4.5512Y-3.6388
X4.7382Y-3.1191
X4.7598Y-3.0659
X4.7795Y-3.1201
X4.811Y-4.2362
X4.8425Y-4.2677
X4.8583Y-3.0719
X4.9902Y-3.189
X5.0207Y-2.5679
X2.1428Y-3.8669
X2.1428Y-4.1669
X2.1628Y-3.8169
X2.1628Y-3.9119
X2.1628Y-4.1169
X2.1628Y-4.2119
X2.2028Y-3.8069
X2.2028Y-3.9269
X2.2028Y-4.1069
X2.2028Y-4.2269
X2.2478Y-3.8219
X2.2478Y-3.9119
X2.2478Y-4.1219
X2.2478Y-4.2119
X2.2678Y-3.8669
X2.2678Y-4.1669
X2.8136Y-4.8839
X2.8236Y-4.9239
X2.8286Y-4.8389
X2.8736Y-4.8239
X2.8736Y-4.9439
X2.9186Y-4.8389
X2.9186Y-4.9239
X2.9336Y-4.8839
X3.1136Y-4.8839
X3.1236Y-4.9239
X3.1286Y-4.8389
X3.1736Y-4.8189
X3.1736Y-4.9439
X3.2186Y-4.8389
X3.2186Y-4.9239
X3.2336Y-4.8839
X3.4136Y-4.8839
X3.4236Y-4.9239
X3.4286Y-4.8389
X3.4736Y-4.8189
X3.4736Y-4.9439
X3.5186Y-4.8389
X3.5186Y-4.9239
X3.5336Y-4.8839
T2
X2.5177Y-2.2815
X2.5177Y-2.6614
X2.5472Y-2.3917
X2.7835Y-2.3661
X2.8346Y-2.3957
X3.0374Y-2.4289
X3.0908Y-2.6813
X3.2643Y-2.3686
X3.2958Y-2.4211
X3.4218Y-2.6097
X3.4843Y-2.3917
X3.5669Y-2.6299
X3.6772Y-3.7146
X3.7165Y-4.0571
X3.7573Y-2.6299
X4.4466Y-2.793
X4.4567Y-2.8425
X4.5315Y-3.4144
X4.8583Y-4.2992
T3
X2.1781Y-3.5354
X2.3701Y-3.4567
X3.5Y-2.75
X3.5886Y-2.8386
X3.7219Y-2.964
X4.9449Y-2.7445
X4.9449Y-2.8445
X2.4626Y-1.8602
X2.5626Y-1.8602
X2.6626Y-1.8602
X2.7626Y-1.8602
X2.8626Y-1.8602
X4.0157Y-3.7559
X4.1157Y-3.7559
X4.2157Y-3.7559
X4.3157Y-3.7559
T4
X2.1043Y-4.1157
X2.1047Y-3.9157
X2.9756Y-4.9769
X3.1724Y-4.9769
X3.3693Y-4.9769
T5
X2.2028Y-3.8669
X2.2028Y-4.1669
X2.8736Y-4.8839
X3.1736Y-4.8839
X3.4736Y-4.8839
T6
X2.1654Y-1.7717
X2.1654Y-4.9213
X4.9213Y-1.7717
X4.9213Y-4.9213
T0
M30
