G04 #@! TF.GenerationSoftware,KiCad,Pcbnew,(5.1.2)-2*
G04 #@! TF.CreationDate,2019-09-08T17:56:47+02:00*
G04 #@! TF.ProjectId,BLDC_driver_v1,424c4443-5f64-4726-9976-65725f76312e,rev?*
G04 #@! TF.SameCoordinates,Original*
G04 #@! TF.FileFunction,Soldermask,Bot*
G04 #@! TF.FilePolarity,Negative*
%FSLAX46Y46*%
G04 Gerber Fmt 4.6, Leading zero omitted, Abs format (unit mm)*
G04 Created by KiCad (PCBNEW (5.1.2)-2) date 2019-09-08 17:56:47*
%MOMM*%
%LPD*%
G04 APERTURE LIST*
%ADD10C,1.800000*%
%ADD11C,0.100000*%
G04 APERTURE END LIST*
D10*
X127263846Y-45000000D02*
G75*
G03X127263846Y-45000000I-2263846J0D01*
G01*
X57263846Y-45000000D02*
G75*
G03X57263846Y-45000000I-2263846J0D01*
G01*
X57263846Y-125000000D02*
G75*
G03X57263846Y-125000000I-2263846J0D01*
G01*
X127263846Y-125000000D02*
G75*
G03X127263846Y-125000000I-2263846J0D01*
G01*
D11*
G36*
X89650000Y-115475000D02*
G01*
X85550000Y-115475000D01*
X85550000Y-111875000D01*
X89650000Y-111875000D01*
X89650000Y-115475000D01*
G37*
X89650000Y-115475000D02*
X85550000Y-115475000D01*
X85550000Y-111875000D01*
X89650000Y-111875000D01*
X89650000Y-115475000D01*
G36*
X68600000Y-115600000D02*
G01*
X64500000Y-115600000D01*
X64500000Y-112000000D01*
X68600000Y-112000000D01*
X68600000Y-115600000D01*
G37*
X68600000Y-115600000D02*
X64500000Y-115600000D01*
X64500000Y-112000000D01*
X68600000Y-112000000D01*
X68600000Y-115600000D01*
G36*
X78550000Y-115525000D02*
G01*
X74450000Y-115525000D01*
X74450000Y-111925000D01*
X78550000Y-111925000D01*
X78550000Y-115525000D01*
G37*
X78550000Y-115525000D02*
X74450000Y-115525000D01*
X74450000Y-111925000D01*
X78550000Y-111925000D01*
X78550000Y-115525000D01*
G36*
X69121200Y-91299800D02*
G01*
X69121200Y-92549800D01*
X68021200Y-93649800D01*
X64771200Y-93649800D01*
X63671200Y-92549800D01*
X63671200Y-91299800D01*
X64421200Y-90549800D01*
X68271200Y-90549800D01*
X69121200Y-91299800D01*
G37*
X69121200Y-91299800D02*
X69121200Y-92549800D01*
X68021200Y-93649800D01*
X64771200Y-93649800D01*
X63671200Y-92549800D01*
X63671200Y-91299800D01*
X64421200Y-90549800D01*
X68271200Y-90549800D01*
X69121200Y-91299800D01*
G36*
X79255800Y-91299800D02*
G01*
X79255800Y-92549800D01*
X78155800Y-93649800D01*
X74905800Y-93649800D01*
X73805800Y-92549800D01*
X73805800Y-91299800D01*
X74555800Y-90549800D01*
X78405800Y-90549800D01*
X79255800Y-91299800D01*
G37*
X79255800Y-91299800D02*
X79255800Y-92549800D01*
X78155800Y-93649800D01*
X74905800Y-93649800D01*
X73805800Y-92549800D01*
X73805800Y-91299800D01*
X74555800Y-90549800D01*
X78405800Y-90549800D01*
X79255800Y-91299800D01*
G36*
X90354400Y-91376000D02*
G01*
X90354400Y-92626000D01*
X89254400Y-93726000D01*
X86004400Y-93726000D01*
X84904400Y-92626000D01*
X84904400Y-91376000D01*
X85654400Y-90626000D01*
X89504400Y-90626000D01*
X90354400Y-91376000D01*
G37*
X90354400Y-91376000D02*
X90354400Y-92626000D01*
X89254400Y-93726000D01*
X86004400Y-93726000D01*
X84904400Y-92626000D01*
X84904400Y-91376000D01*
X85654400Y-90626000D01*
X89504400Y-90626000D01*
X90354400Y-91376000D01*
G36*
X88973807Y-121597995D02*
G01*
X89437878Y-121790220D01*
X89855530Y-122069286D01*
X90210714Y-122424470D01*
X90489780Y-122842122D01*
X90682005Y-123306193D01*
X90780000Y-123798847D01*
X90780000Y-124301153D01*
X90682005Y-124793807D01*
X90489780Y-125257878D01*
X90210714Y-125675530D01*
X89855530Y-126030714D01*
X89437878Y-126309780D01*
X88973807Y-126502005D01*
X88481153Y-126600000D01*
X87978847Y-126600000D01*
X87486193Y-126502005D01*
X87164562Y-126368781D01*
X87159876Y-126367359D01*
X87154999Y-126366879D01*
X87150122Y-126367359D01*
X87145432Y-126368782D01*
X87141110Y-126371092D01*
X87137322Y-126374201D01*
X87134213Y-126377989D01*
X87131903Y-126382311D01*
X87130480Y-126387001D01*
X87130000Y-126391878D01*
X87130000Y-126565662D01*
X87070435Y-126865118D01*
X86953592Y-127147200D01*
X86783964Y-127401068D01*
X86568068Y-127616964D01*
X86314200Y-127786592D01*
X86032118Y-127903435D01*
X85732662Y-127963000D01*
X85427338Y-127963000D01*
X85127882Y-127903435D01*
X84845800Y-127786592D01*
X84591932Y-127616964D01*
X84376036Y-127401068D01*
X84206408Y-127147200D01*
X84089565Y-126865118D01*
X84030000Y-126565662D01*
X84030000Y-126260338D01*
X84089565Y-125960882D01*
X84206408Y-125678800D01*
X84376036Y-125424932D01*
X84591932Y-125209036D01*
X84845800Y-125039408D01*
X85127882Y-124922565D01*
X85427338Y-124863000D01*
X85732662Y-124863000D01*
X85767434Y-124869916D01*
X85772306Y-124870396D01*
X85777183Y-124869916D01*
X85781873Y-124868493D01*
X85786195Y-124866183D01*
X85789983Y-124863074D01*
X85793092Y-124859286D01*
X85795402Y-124854964D01*
X85796825Y-124850274D01*
X85797305Y-124845397D01*
X85796825Y-124840520D01*
X85795402Y-124835830D01*
X85792338Y-124828434D01*
X85777995Y-124793807D01*
X85680000Y-124301153D01*
X85680000Y-123798847D01*
X85777995Y-123306193D01*
X85970220Y-122842122D01*
X86249286Y-122424470D01*
X86604470Y-122069286D01*
X87022122Y-121790220D01*
X87486193Y-121597995D01*
X87978847Y-121500000D01*
X88481153Y-121500000D01*
X88973807Y-121597995D01*
X88973807Y-121597995D01*
G37*
G36*
X81353807Y-121597995D02*
G01*
X81817878Y-121790220D01*
X82235530Y-122069286D01*
X82590714Y-122424470D01*
X82869780Y-122842122D01*
X83062005Y-123306193D01*
X83160000Y-123798847D01*
X83160000Y-124301153D01*
X83062005Y-124793807D01*
X82869780Y-125257878D01*
X82590714Y-125675530D01*
X82235530Y-126030714D01*
X82115949Y-126110615D01*
X82112164Y-126113722D01*
X82109055Y-126117510D01*
X82106745Y-126121832D01*
X82105322Y-126126522D01*
X82104842Y-126131399D01*
X82105321Y-126136269D01*
X82130000Y-126260338D01*
X82130000Y-126565662D01*
X82070435Y-126865118D01*
X81953592Y-127147200D01*
X81783964Y-127401068D01*
X81568068Y-127616964D01*
X81314200Y-127786592D01*
X81032118Y-127903435D01*
X80732662Y-127963000D01*
X80427338Y-127963000D01*
X80127882Y-127903435D01*
X79845800Y-127786592D01*
X79591932Y-127616964D01*
X79376036Y-127401068D01*
X79206408Y-127147200D01*
X79089565Y-126865118D01*
X79030000Y-126565662D01*
X79030000Y-126260338D01*
X79061718Y-126100880D01*
X79062197Y-126096012D01*
X79061717Y-126091135D01*
X79060294Y-126086445D01*
X79057984Y-126082123D01*
X79054875Y-126078335D01*
X79051087Y-126075226D01*
X78984469Y-126030713D01*
X78629287Y-125675531D01*
X78461842Y-125424932D01*
X78350220Y-125257878D01*
X78157995Y-124793807D01*
X78060000Y-124301153D01*
X78060000Y-123798847D01*
X78157995Y-123306193D01*
X78350220Y-122842122D01*
X78629286Y-122424470D01*
X78984470Y-122069286D01*
X79402122Y-121790220D01*
X79866193Y-121597995D01*
X80358847Y-121500000D01*
X80861153Y-121500000D01*
X81353807Y-121597995D01*
X81353807Y-121597995D01*
G37*
G36*
X73733807Y-121597995D02*
G01*
X74197878Y-121790220D01*
X74615530Y-122069286D01*
X74970714Y-122424470D01*
X75249780Y-122842122D01*
X75442005Y-123306193D01*
X75540000Y-123798847D01*
X75540000Y-124301153D01*
X75442005Y-124793807D01*
X75427907Y-124827843D01*
X75427662Y-124828434D01*
X75426239Y-124833124D01*
X75425759Y-124838001D01*
X75426239Y-124842878D01*
X75427662Y-124847568D01*
X75429972Y-124851890D01*
X75433081Y-124855678D01*
X75436869Y-124858787D01*
X75441191Y-124861097D01*
X75445881Y-124862520D01*
X75450758Y-124863000D01*
X75732662Y-124863000D01*
X76032118Y-124922565D01*
X76314200Y-125039408D01*
X76568068Y-125209036D01*
X76783964Y-125424932D01*
X76953592Y-125678800D01*
X77070435Y-125960882D01*
X77130000Y-126260338D01*
X77130000Y-126565662D01*
X77070435Y-126865118D01*
X76953592Y-127147200D01*
X76783964Y-127401068D01*
X76568068Y-127616964D01*
X76314200Y-127786592D01*
X76032118Y-127903435D01*
X75732662Y-127963000D01*
X75427338Y-127963000D01*
X75127882Y-127903435D01*
X74845800Y-127786592D01*
X74591932Y-127616964D01*
X74376036Y-127401068D01*
X74206408Y-127147200D01*
X74089565Y-126865118D01*
X74030000Y-126565662D01*
X74030000Y-126416731D01*
X74029520Y-126411854D01*
X74028097Y-126407164D01*
X74025787Y-126402842D01*
X74022678Y-126399054D01*
X74018890Y-126395945D01*
X74014568Y-126393635D01*
X74009878Y-126392212D01*
X74005001Y-126391732D01*
X74000124Y-126392212D01*
X73995436Y-126393634D01*
X73733807Y-126502005D01*
X73241153Y-126600000D01*
X72738847Y-126600000D01*
X72246193Y-126502005D01*
X71782122Y-126309780D01*
X71364470Y-126030714D01*
X71009286Y-125675530D01*
X70730220Y-125257878D01*
X70537995Y-124793807D01*
X70440000Y-124301153D01*
X70440000Y-123798847D01*
X70537995Y-123306193D01*
X70730220Y-122842122D01*
X71009286Y-122424470D01*
X71364470Y-122069286D01*
X71782122Y-121790220D01*
X72246193Y-121597995D01*
X72738847Y-121500000D01*
X73241153Y-121500000D01*
X73733807Y-121597995D01*
X73733807Y-121597995D01*
G37*
G36*
X113285429Y-124121136D02*
G01*
X113335476Y-124141867D01*
X113385522Y-124162596D01*
X113385523Y-124162597D01*
X113475604Y-124222787D01*
X113552213Y-124299396D01*
X113553387Y-124301153D01*
X113612404Y-124389478D01*
X113633133Y-124439524D01*
X113653864Y-124489571D01*
X113675000Y-124595830D01*
X113675000Y-124704170D01*
X113653864Y-124810429D01*
X113638480Y-124847568D01*
X113612404Y-124910522D01*
X113552212Y-125000605D01*
X113475605Y-125077212D01*
X113385522Y-125137404D01*
X113335476Y-125158134D01*
X113285429Y-125178864D01*
X113179170Y-125200000D01*
X113070830Y-125200000D01*
X112964571Y-125178864D01*
X112914524Y-125158134D01*
X112864478Y-125137404D01*
X112774395Y-125077212D01*
X112697788Y-125000605D01*
X112637596Y-124910522D01*
X112611520Y-124847568D01*
X112596136Y-124810429D01*
X112575000Y-124704170D01*
X112575000Y-124595830D01*
X112596136Y-124489571D01*
X112616867Y-124439524D01*
X112637596Y-124389478D01*
X112696613Y-124301153D01*
X112697787Y-124299396D01*
X112774396Y-124222787D01*
X112864477Y-124162597D01*
X112864478Y-124162596D01*
X112914524Y-124141867D01*
X112964571Y-124121136D01*
X113070830Y-124100000D01*
X113179170Y-124100000D01*
X113285429Y-124121136D01*
X113285429Y-124121136D01*
G37*
G36*
X108885429Y-124121136D02*
G01*
X108935476Y-124141867D01*
X108985522Y-124162596D01*
X108985523Y-124162597D01*
X109075604Y-124222787D01*
X109152213Y-124299396D01*
X109153387Y-124301153D01*
X109212404Y-124389478D01*
X109233133Y-124439524D01*
X109253864Y-124489571D01*
X109275000Y-124595830D01*
X109275000Y-124704170D01*
X109253864Y-124810429D01*
X109238480Y-124847568D01*
X109212404Y-124910522D01*
X109152212Y-125000605D01*
X109075605Y-125077212D01*
X108985522Y-125137404D01*
X108935476Y-125158134D01*
X108885429Y-125178864D01*
X108779170Y-125200000D01*
X108670830Y-125200000D01*
X108564571Y-125178864D01*
X108514524Y-125158134D01*
X108464478Y-125137404D01*
X108374395Y-125077212D01*
X108297788Y-125000605D01*
X108237596Y-124910522D01*
X108211520Y-124847568D01*
X108196136Y-124810429D01*
X108175000Y-124704170D01*
X108175000Y-124595830D01*
X108196136Y-124489571D01*
X108216867Y-124439524D01*
X108237596Y-124389478D01*
X108296613Y-124301153D01*
X108297787Y-124299396D01*
X108374396Y-124222787D01*
X108464477Y-124162597D01*
X108464478Y-124162596D01*
X108514524Y-124141867D01*
X108564571Y-124121136D01*
X108670830Y-124100000D01*
X108779170Y-124100000D01*
X108885429Y-124121136D01*
X108885429Y-124121136D01*
G37*
G36*
X53902118Y-103049565D02*
G01*
X54184200Y-103166408D01*
X54438068Y-103336036D01*
X54653964Y-103551932D01*
X54680356Y-103591430D01*
X54683462Y-103595215D01*
X54687250Y-103598324D01*
X54691572Y-103600634D01*
X54696262Y-103602057D01*
X54701139Y-103602537D01*
X54706016Y-103602057D01*
X54710706Y-103600634D01*
X54715025Y-103598326D01*
X54742122Y-103580220D01*
X55206193Y-103387995D01*
X55698847Y-103290000D01*
X56201153Y-103290000D01*
X56693807Y-103387995D01*
X57157878Y-103580220D01*
X57575530Y-103859286D01*
X57930714Y-104214470D01*
X58209780Y-104632122D01*
X58402005Y-105096193D01*
X58500000Y-105588847D01*
X58500000Y-106091153D01*
X58402005Y-106583807D01*
X58209780Y-107047878D01*
X57930714Y-107465530D01*
X57575530Y-107820714D01*
X57157878Y-108099780D01*
X56693807Y-108292005D01*
X56201153Y-108390000D01*
X55698847Y-108390000D01*
X55206193Y-108292005D01*
X54742122Y-108099780D01*
X54324470Y-107820714D01*
X53969286Y-107465530D01*
X53690220Y-107047878D01*
X53497995Y-106583807D01*
X53403772Y-106110114D01*
X53402351Y-106105432D01*
X53400041Y-106101110D01*
X53396932Y-106097322D01*
X53393144Y-106094213D01*
X53388822Y-106091903D01*
X53384132Y-106090480D01*
X53379255Y-106090000D01*
X53297338Y-106090000D01*
X52997882Y-106030435D01*
X52715800Y-105913592D01*
X52461932Y-105743964D01*
X52246036Y-105528068D01*
X52076408Y-105274200D01*
X51959565Y-104992118D01*
X51900000Y-104692662D01*
X51900000Y-104387338D01*
X51959565Y-104087882D01*
X52076408Y-103805800D01*
X52246036Y-103551932D01*
X52461932Y-103336036D01*
X52715800Y-103166408D01*
X52997882Y-103049565D01*
X53297338Y-102990000D01*
X53602662Y-102990000D01*
X53902118Y-103049565D01*
X53902118Y-103049565D01*
G37*
G36*
X82576798Y-104154731D02*
G01*
X82621802Y-104168383D01*
X82663271Y-104190548D01*
X82699621Y-104220379D01*
X82729452Y-104256729D01*
X82751617Y-104298198D01*
X82765269Y-104343202D01*
X82770000Y-104391232D01*
X82770000Y-108008768D01*
X82765269Y-108056798D01*
X82751617Y-108101802D01*
X82729452Y-108143271D01*
X82699621Y-108179621D01*
X82663271Y-108209452D01*
X82621802Y-108231617D01*
X82576798Y-108245269D01*
X82528768Y-108250000D01*
X80411232Y-108250000D01*
X80363202Y-108245269D01*
X80318198Y-108231617D01*
X80276729Y-108209452D01*
X80240379Y-108179621D01*
X80210548Y-108143271D01*
X80188383Y-108101802D01*
X80174731Y-108056798D01*
X80170000Y-108008768D01*
X80170000Y-104391232D01*
X80174731Y-104343202D01*
X80188383Y-104298198D01*
X80210548Y-104256729D01*
X80240379Y-104220379D01*
X80276729Y-104190548D01*
X80318198Y-104168383D01*
X80363202Y-104154731D01*
X80411232Y-104150000D01*
X82528768Y-104150000D01*
X82576798Y-104154731D01*
X82576798Y-104154731D01*
G37*
G36*
X69581798Y-104029731D02*
G01*
X69626802Y-104043383D01*
X69668271Y-104065548D01*
X69704621Y-104095379D01*
X69734452Y-104131729D01*
X69756617Y-104173198D01*
X69770269Y-104218202D01*
X69775000Y-104266232D01*
X69775000Y-107883768D01*
X69770269Y-107931798D01*
X69756617Y-107976802D01*
X69734452Y-108018271D01*
X69704621Y-108054621D01*
X69668271Y-108084452D01*
X69626802Y-108106617D01*
X69581798Y-108120269D01*
X69533768Y-108125000D01*
X67416232Y-108125000D01*
X67368202Y-108120269D01*
X67323198Y-108106617D01*
X67281729Y-108084452D01*
X67245379Y-108054621D01*
X67215548Y-108018271D01*
X67193383Y-107976802D01*
X67179731Y-107931798D01*
X67175000Y-107883768D01*
X67175000Y-104266232D01*
X67179731Y-104218202D01*
X67193383Y-104173198D01*
X67215548Y-104131729D01*
X67245379Y-104095379D01*
X67281729Y-104065548D01*
X67323198Y-104043383D01*
X67368202Y-104029731D01*
X67416232Y-104025000D01*
X69533768Y-104025000D01*
X69581798Y-104029731D01*
X69581798Y-104029731D01*
G37*
G36*
X90053749Y-102509923D02*
G01*
X90100626Y-102524143D01*
X90143824Y-102547233D01*
X90181691Y-102578309D01*
X90212767Y-102616176D01*
X90235857Y-102659374D01*
X90250077Y-102706251D01*
X90255000Y-102756232D01*
X90255000Y-103403768D01*
X90250077Y-103453749D01*
X90235857Y-103500626D01*
X90212767Y-103543824D01*
X90181691Y-103581691D01*
X90143824Y-103612767D01*
X90100626Y-103635857D01*
X90053749Y-103650077D01*
X90003768Y-103655000D01*
X89456232Y-103655000D01*
X89406251Y-103650077D01*
X89359374Y-103635857D01*
X89316176Y-103612767D01*
X89278309Y-103581691D01*
X89247233Y-103543824D01*
X89224143Y-103500626D01*
X89209923Y-103453749D01*
X89205000Y-103403768D01*
X89205000Y-102756232D01*
X89209923Y-102706251D01*
X89224143Y-102659374D01*
X89247233Y-102616176D01*
X89278309Y-102578309D01*
X89316176Y-102547233D01*
X89359374Y-102524143D01*
X89406251Y-102509923D01*
X89456232Y-102505000D01*
X90003768Y-102505000D01*
X90053749Y-102509923D01*
X90053749Y-102509923D01*
G37*
G36*
X75423749Y-102504923D02*
G01*
X75470626Y-102519143D01*
X75513824Y-102542233D01*
X75551691Y-102573309D01*
X75582767Y-102611176D01*
X75605857Y-102654374D01*
X75620077Y-102701251D01*
X75625000Y-102751232D01*
X75625000Y-103398768D01*
X75620077Y-103448749D01*
X75605857Y-103495626D01*
X75582767Y-103538824D01*
X75551691Y-103576691D01*
X75513824Y-103607767D01*
X75470626Y-103630857D01*
X75423749Y-103645077D01*
X75373768Y-103650000D01*
X74826232Y-103650000D01*
X74776251Y-103645077D01*
X74729374Y-103630857D01*
X74686176Y-103607767D01*
X74648309Y-103576691D01*
X74617233Y-103538824D01*
X74594143Y-103495626D01*
X74579923Y-103448749D01*
X74575000Y-103398768D01*
X74575000Y-102751232D01*
X74579923Y-102701251D01*
X74594143Y-102654374D01*
X74617233Y-102611176D01*
X74648309Y-102573309D01*
X74686176Y-102542233D01*
X74729374Y-102519143D01*
X74776251Y-102504923D01*
X74826232Y-102500000D01*
X75373768Y-102500000D01*
X75423749Y-102504923D01*
X75423749Y-102504923D01*
G37*
G36*
X98023749Y-102479923D02*
G01*
X98070626Y-102494143D01*
X98113824Y-102517233D01*
X98151691Y-102548309D01*
X98182767Y-102586176D01*
X98205857Y-102629374D01*
X98220077Y-102676251D01*
X98225000Y-102726232D01*
X98225000Y-103373768D01*
X98220077Y-103423749D01*
X98205857Y-103470626D01*
X98182767Y-103513824D01*
X98151691Y-103551691D01*
X98113824Y-103582767D01*
X98070626Y-103605857D01*
X98023749Y-103620077D01*
X97973768Y-103625000D01*
X97426232Y-103625000D01*
X97376251Y-103620077D01*
X97329374Y-103605857D01*
X97286176Y-103582767D01*
X97248309Y-103551691D01*
X97217233Y-103513824D01*
X97194143Y-103470626D01*
X97179923Y-103423749D01*
X97175000Y-103373768D01*
X97175000Y-102726232D01*
X97179923Y-102676251D01*
X97194143Y-102629374D01*
X97217233Y-102586176D01*
X97248309Y-102548309D01*
X97286176Y-102517233D01*
X97329374Y-102494143D01*
X97376251Y-102479923D01*
X97426232Y-102475000D01*
X97973768Y-102475000D01*
X98023749Y-102479923D01*
X98023749Y-102479923D01*
G37*
G36*
X62098749Y-102429923D02*
G01*
X62145626Y-102444143D01*
X62188824Y-102467233D01*
X62226691Y-102498309D01*
X62257767Y-102536176D01*
X62280857Y-102579374D01*
X62295077Y-102626251D01*
X62300000Y-102676232D01*
X62300000Y-103323768D01*
X62295077Y-103373749D01*
X62280857Y-103420626D01*
X62257767Y-103463824D01*
X62226691Y-103501691D01*
X62188824Y-103532767D01*
X62145626Y-103555857D01*
X62098749Y-103570077D01*
X62048768Y-103575000D01*
X61501232Y-103575000D01*
X61451251Y-103570077D01*
X61404374Y-103555857D01*
X61361176Y-103532767D01*
X61323309Y-103501691D01*
X61292233Y-103463824D01*
X61269143Y-103420626D01*
X61254923Y-103373749D01*
X61250000Y-103323768D01*
X61250000Y-102676232D01*
X61254923Y-102626251D01*
X61269143Y-102579374D01*
X61292233Y-102536176D01*
X61323309Y-102498309D01*
X61361176Y-102467233D01*
X61404374Y-102444143D01*
X61451251Y-102429923D01*
X61501232Y-102425000D01*
X62048768Y-102425000D01*
X62098749Y-102429923D01*
X62098749Y-102429923D01*
G37*
G36*
X90053749Y-100759923D02*
G01*
X90100626Y-100774143D01*
X90143824Y-100797233D01*
X90181691Y-100828309D01*
X90212767Y-100866176D01*
X90235857Y-100909374D01*
X90250077Y-100956251D01*
X90255000Y-101006232D01*
X90255000Y-101653768D01*
X90250077Y-101703749D01*
X90235857Y-101750626D01*
X90212767Y-101793824D01*
X90181691Y-101831691D01*
X90143824Y-101862767D01*
X90100626Y-101885857D01*
X90053749Y-101900077D01*
X90003768Y-101905000D01*
X89456232Y-101905000D01*
X89406251Y-101900077D01*
X89359374Y-101885857D01*
X89316176Y-101862767D01*
X89278309Y-101831691D01*
X89247233Y-101793824D01*
X89224143Y-101750626D01*
X89209923Y-101703749D01*
X89205000Y-101653768D01*
X89205000Y-101006232D01*
X89209923Y-100956251D01*
X89224143Y-100909374D01*
X89247233Y-100866176D01*
X89278309Y-100828309D01*
X89316176Y-100797233D01*
X89359374Y-100774143D01*
X89406251Y-100759923D01*
X89456232Y-100755000D01*
X90003768Y-100755000D01*
X90053749Y-100759923D01*
X90053749Y-100759923D01*
G37*
G36*
X75423749Y-100754923D02*
G01*
X75470626Y-100769143D01*
X75513824Y-100792233D01*
X75551691Y-100823309D01*
X75582767Y-100861176D01*
X75605857Y-100904374D01*
X75620077Y-100951251D01*
X75625000Y-101001232D01*
X75625000Y-101648768D01*
X75620077Y-101698749D01*
X75605857Y-101745626D01*
X75582767Y-101788824D01*
X75551691Y-101826691D01*
X75513824Y-101857767D01*
X75470626Y-101880857D01*
X75423749Y-101895077D01*
X75373768Y-101900000D01*
X74826232Y-101900000D01*
X74776251Y-101895077D01*
X74729374Y-101880857D01*
X74686176Y-101857767D01*
X74648309Y-101826691D01*
X74617233Y-101788824D01*
X74594143Y-101745626D01*
X74579923Y-101698749D01*
X74575000Y-101648768D01*
X74575000Y-101001232D01*
X74579923Y-100951251D01*
X74594143Y-100904374D01*
X74617233Y-100861176D01*
X74648309Y-100823309D01*
X74686176Y-100792233D01*
X74729374Y-100769143D01*
X74776251Y-100754923D01*
X74826232Y-100750000D01*
X75373768Y-100750000D01*
X75423749Y-100754923D01*
X75423749Y-100754923D01*
G37*
G36*
X98023749Y-100729923D02*
G01*
X98070626Y-100744143D01*
X98113824Y-100767233D01*
X98151691Y-100798309D01*
X98182767Y-100836176D01*
X98205857Y-100879374D01*
X98220077Y-100926251D01*
X98225000Y-100976232D01*
X98225000Y-101623768D01*
X98220077Y-101673749D01*
X98205857Y-101720626D01*
X98182767Y-101763824D01*
X98151691Y-101801691D01*
X98113824Y-101832767D01*
X98070626Y-101855857D01*
X98023749Y-101870077D01*
X97973768Y-101875000D01*
X97426232Y-101875000D01*
X97376251Y-101870077D01*
X97329374Y-101855857D01*
X97286176Y-101832767D01*
X97248309Y-101801691D01*
X97217233Y-101763824D01*
X97194143Y-101720626D01*
X97179923Y-101673749D01*
X97175000Y-101623768D01*
X97175000Y-100976232D01*
X97179923Y-100926251D01*
X97194143Y-100879374D01*
X97217233Y-100836176D01*
X97248309Y-100798309D01*
X97286176Y-100767233D01*
X97329374Y-100744143D01*
X97376251Y-100729923D01*
X97426232Y-100725000D01*
X97973768Y-100725000D01*
X98023749Y-100729923D01*
X98023749Y-100729923D01*
G37*
G36*
X62098749Y-100679923D02*
G01*
X62145626Y-100694143D01*
X62188824Y-100717233D01*
X62226691Y-100748309D01*
X62257767Y-100786176D01*
X62280857Y-100829374D01*
X62295077Y-100876251D01*
X62300000Y-100926232D01*
X62300000Y-101573768D01*
X62295077Y-101623749D01*
X62280857Y-101670626D01*
X62257767Y-101713824D01*
X62226691Y-101751691D01*
X62188824Y-101782767D01*
X62145626Y-101805857D01*
X62098749Y-101820077D01*
X62048768Y-101825000D01*
X61501232Y-101825000D01*
X61451251Y-101820077D01*
X61404374Y-101805857D01*
X61361176Y-101782767D01*
X61323309Y-101751691D01*
X61292233Y-101713824D01*
X61269143Y-101670626D01*
X61254923Y-101623749D01*
X61250000Y-101573768D01*
X61250000Y-100926232D01*
X61254923Y-100876251D01*
X61269143Y-100829374D01*
X61292233Y-100786176D01*
X61323309Y-100748309D01*
X61361176Y-100717233D01*
X61404374Y-100694143D01*
X61451251Y-100679923D01*
X61501232Y-100675000D01*
X62048768Y-100675000D01*
X62098749Y-100679923D01*
X62098749Y-100679923D01*
G37*
G36*
X56693807Y-95767995D02*
G01*
X57157878Y-95960220D01*
X57575530Y-96239286D01*
X57930714Y-96594470D01*
X58209780Y-97012122D01*
X58402005Y-97476193D01*
X58500000Y-97968847D01*
X58500000Y-98471153D01*
X58402005Y-98963807D01*
X58209780Y-99427878D01*
X57930714Y-99845530D01*
X57575530Y-100200714D01*
X57157878Y-100479780D01*
X56693807Y-100672005D01*
X56201153Y-100770000D01*
X55698847Y-100770000D01*
X55206193Y-100672005D01*
X54742122Y-100479780D01*
X54693316Y-100447169D01*
X54688996Y-100444860D01*
X54684306Y-100443437D01*
X54679429Y-100442957D01*
X54674552Y-100443437D01*
X54669862Y-100444860D01*
X54665540Y-100447170D01*
X54661758Y-100450274D01*
X54448068Y-100663964D01*
X54194200Y-100833592D01*
X53912118Y-100950435D01*
X53612662Y-101010000D01*
X53307338Y-101010000D01*
X53007882Y-100950435D01*
X52725800Y-100833592D01*
X52471932Y-100663964D01*
X52256036Y-100448068D01*
X52086408Y-100194200D01*
X51969565Y-99912118D01*
X51910000Y-99612662D01*
X51910000Y-99307338D01*
X51969565Y-99007882D01*
X52086408Y-98725800D01*
X52256036Y-98471932D01*
X52471932Y-98256036D01*
X52725800Y-98086408D01*
X53007882Y-97969565D01*
X53307338Y-97910000D01*
X53391189Y-97910000D01*
X53396066Y-97909520D01*
X53400756Y-97908097D01*
X53405078Y-97905787D01*
X53408866Y-97902678D01*
X53411975Y-97898890D01*
X53414285Y-97894568D01*
X53415708Y-97889878D01*
X53497995Y-97476193D01*
X53690220Y-97012122D01*
X53969286Y-96594470D01*
X54324470Y-96239286D01*
X54742122Y-95960220D01*
X55206193Y-95767995D01*
X55698847Y-95670000D01*
X56201153Y-95670000D01*
X56693807Y-95767995D01*
X56693807Y-95767995D01*
G37*
G36*
X82576798Y-96154731D02*
G01*
X82621802Y-96168383D01*
X82663271Y-96190548D01*
X82699621Y-96220379D01*
X82729452Y-96256729D01*
X82751617Y-96298198D01*
X82765269Y-96343202D01*
X82770000Y-96391232D01*
X82770000Y-100008768D01*
X82765269Y-100056798D01*
X82751617Y-100101802D01*
X82729452Y-100143271D01*
X82699621Y-100179621D01*
X82663271Y-100209452D01*
X82621802Y-100231617D01*
X82576798Y-100245269D01*
X82528768Y-100250000D01*
X80411232Y-100250000D01*
X80363202Y-100245269D01*
X80318198Y-100231617D01*
X80276729Y-100209452D01*
X80240379Y-100179621D01*
X80210548Y-100143271D01*
X80188383Y-100101802D01*
X80174731Y-100056798D01*
X80170000Y-100008768D01*
X80170000Y-96391232D01*
X80174731Y-96343202D01*
X80188383Y-96298198D01*
X80210548Y-96256729D01*
X80240379Y-96220379D01*
X80276729Y-96190548D01*
X80318198Y-96168383D01*
X80363202Y-96154731D01*
X80411232Y-96150000D01*
X82528768Y-96150000D01*
X82576798Y-96154731D01*
X82576798Y-96154731D01*
G37*
G36*
X69581798Y-96029731D02*
G01*
X69626802Y-96043383D01*
X69668271Y-96065548D01*
X69704621Y-96095379D01*
X69734452Y-96131729D01*
X69756617Y-96173198D01*
X69770269Y-96218202D01*
X69775000Y-96266232D01*
X69775000Y-99883768D01*
X69770269Y-99931798D01*
X69756617Y-99976802D01*
X69734452Y-100018271D01*
X69704621Y-100054621D01*
X69668271Y-100084452D01*
X69626802Y-100106617D01*
X69581798Y-100120269D01*
X69533768Y-100125000D01*
X67416232Y-100125000D01*
X67368202Y-100120269D01*
X67323198Y-100106617D01*
X67281729Y-100084452D01*
X67245379Y-100054621D01*
X67215548Y-100018271D01*
X67193383Y-99976802D01*
X67179731Y-99931798D01*
X67175000Y-99883768D01*
X67175000Y-96266232D01*
X67179731Y-96218202D01*
X67193383Y-96173198D01*
X67215548Y-96131729D01*
X67245379Y-96095379D01*
X67281729Y-96065548D01*
X67323198Y-96043383D01*
X67368202Y-96029731D01*
X67416232Y-96025000D01*
X69533768Y-96025000D01*
X69581798Y-96029731D01*
X69581798Y-96029731D01*
G37*
G36*
X107256431Y-94513023D02*
G01*
X107402216Y-94557247D01*
X107426085Y-94564487D01*
X107537046Y-94623798D01*
X107582432Y-94648057D01*
X107582434Y-94648058D01*
X107582433Y-94648058D01*
X107719475Y-94760525D01*
X107831942Y-94897567D01*
X107915513Y-95053915D01*
X107915514Y-95053919D01*
X107966977Y-95223569D01*
X107984354Y-95400000D01*
X107966977Y-95576431D01*
X107938593Y-95670000D01*
X107915513Y-95746085D01*
X107856202Y-95857046D01*
X107831943Y-95902432D01*
X107719475Y-96039475D01*
X107582432Y-96151943D01*
X107537046Y-96176202D01*
X107426085Y-96235513D01*
X107413643Y-96239287D01*
X107256431Y-96286977D01*
X107124207Y-96300000D01*
X107035793Y-96300000D01*
X106903569Y-96286977D01*
X106746357Y-96239287D01*
X106733915Y-96235513D01*
X106622954Y-96176202D01*
X106577568Y-96151943D01*
X106440525Y-96039475D01*
X106328057Y-95902432D01*
X106303798Y-95857046D01*
X106244487Y-95746085D01*
X106221407Y-95670000D01*
X106193023Y-95576431D01*
X106175646Y-95400000D01*
X106193023Y-95223569D01*
X106244486Y-95053919D01*
X106244487Y-95053915D01*
X106328058Y-94897567D01*
X106440525Y-94760525D01*
X106577567Y-94648058D01*
X106577566Y-94648058D01*
X106577568Y-94648057D01*
X106622954Y-94623798D01*
X106733915Y-94564487D01*
X106757784Y-94557247D01*
X106903569Y-94513023D01*
X107035793Y-94500000D01*
X107124207Y-94500000D01*
X107256431Y-94513023D01*
X107256431Y-94513023D01*
G37*
G36*
X109796431Y-94513023D02*
G01*
X109942216Y-94557247D01*
X109966085Y-94564487D01*
X110077046Y-94623798D01*
X110122432Y-94648057D01*
X110122434Y-94648058D01*
X110122433Y-94648058D01*
X110259475Y-94760525D01*
X110371942Y-94897567D01*
X110455513Y-95053915D01*
X110455514Y-95053919D01*
X110506977Y-95223569D01*
X110524354Y-95400000D01*
X110506977Y-95576431D01*
X110478593Y-95670000D01*
X110455513Y-95746085D01*
X110396202Y-95857046D01*
X110371943Y-95902432D01*
X110259475Y-96039475D01*
X110122432Y-96151943D01*
X110077046Y-96176202D01*
X109966085Y-96235513D01*
X109953643Y-96239287D01*
X109796431Y-96286977D01*
X109664207Y-96300000D01*
X109575793Y-96300000D01*
X109443569Y-96286977D01*
X109286357Y-96239287D01*
X109273915Y-96235513D01*
X109162954Y-96176202D01*
X109117568Y-96151943D01*
X108980525Y-96039475D01*
X108868057Y-95902432D01*
X108843798Y-95857046D01*
X108784487Y-95746085D01*
X108761407Y-95670000D01*
X108733023Y-95576431D01*
X108715646Y-95400000D01*
X108733023Y-95223569D01*
X108784486Y-95053919D01*
X108784487Y-95053915D01*
X108868058Y-94897567D01*
X108980525Y-94760525D01*
X109117567Y-94648058D01*
X109117566Y-94648058D01*
X109117568Y-94648057D01*
X109162954Y-94623798D01*
X109273915Y-94564487D01*
X109297784Y-94557247D01*
X109443569Y-94513023D01*
X109575793Y-94500000D01*
X109664207Y-94500000D01*
X109796431Y-94513023D01*
X109796431Y-94513023D01*
G37*
G36*
X102900000Y-96300000D02*
G01*
X101100000Y-96300000D01*
X101100000Y-94500000D01*
X102900000Y-94500000D01*
X102900000Y-96300000D01*
X102900000Y-96300000D01*
G37*
G36*
X104716431Y-94513023D02*
G01*
X104862216Y-94557247D01*
X104886085Y-94564487D01*
X104997046Y-94623798D01*
X105042432Y-94648057D01*
X105042434Y-94648058D01*
X105042433Y-94648058D01*
X105179475Y-94760525D01*
X105291942Y-94897567D01*
X105375513Y-95053915D01*
X105375514Y-95053919D01*
X105426977Y-95223569D01*
X105444354Y-95400000D01*
X105426977Y-95576431D01*
X105398593Y-95670000D01*
X105375513Y-95746085D01*
X105316202Y-95857046D01*
X105291943Y-95902432D01*
X105179475Y-96039475D01*
X105042432Y-96151943D01*
X104997046Y-96176202D01*
X104886085Y-96235513D01*
X104873643Y-96239287D01*
X104716431Y-96286977D01*
X104584207Y-96300000D01*
X104495793Y-96300000D01*
X104363569Y-96286977D01*
X104206357Y-96239287D01*
X104193915Y-96235513D01*
X104082954Y-96176202D01*
X104037568Y-96151943D01*
X103900525Y-96039475D01*
X103788057Y-95902432D01*
X103763798Y-95857046D01*
X103704487Y-95746085D01*
X103681407Y-95670000D01*
X103653023Y-95576431D01*
X103635646Y-95400000D01*
X103653023Y-95223569D01*
X103704486Y-95053919D01*
X103704487Y-95053915D01*
X103788058Y-94897567D01*
X103900525Y-94760525D01*
X104037567Y-94648058D01*
X104037566Y-94648058D01*
X104037568Y-94648057D01*
X104082954Y-94623798D01*
X104193915Y-94564487D01*
X104217784Y-94557247D01*
X104363569Y-94513023D01*
X104495793Y-94500000D01*
X104584207Y-94500000D01*
X104716431Y-94513023D01*
X104716431Y-94513023D01*
G37*
G36*
X105373749Y-77654923D02*
G01*
X105420626Y-77669143D01*
X105463824Y-77692233D01*
X105501691Y-77723309D01*
X105532767Y-77761176D01*
X105555857Y-77804374D01*
X105570077Y-77851251D01*
X105575000Y-77901232D01*
X105575000Y-78448768D01*
X105570077Y-78498749D01*
X105555857Y-78545626D01*
X105532767Y-78588824D01*
X105501691Y-78626691D01*
X105463824Y-78657767D01*
X105420626Y-78680857D01*
X105373749Y-78695077D01*
X105323768Y-78700000D01*
X104676232Y-78700000D01*
X104626251Y-78695077D01*
X104579374Y-78680857D01*
X104536176Y-78657767D01*
X104498309Y-78626691D01*
X104467233Y-78588824D01*
X104444143Y-78545626D01*
X104429923Y-78498749D01*
X104425000Y-78448768D01*
X104425000Y-77901232D01*
X104429923Y-77851251D01*
X104444143Y-77804374D01*
X104467233Y-77761176D01*
X104498309Y-77723309D01*
X104536176Y-77692233D01*
X104579374Y-77669143D01*
X104626251Y-77654923D01*
X104676232Y-77650000D01*
X105323768Y-77650000D01*
X105373749Y-77654923D01*
X105373749Y-77654923D01*
G37*
G36*
X103623749Y-77654923D02*
G01*
X103670626Y-77669143D01*
X103713824Y-77692233D01*
X103751691Y-77723309D01*
X103782767Y-77761176D01*
X103805857Y-77804374D01*
X103820077Y-77851251D01*
X103825000Y-77901232D01*
X103825000Y-78448768D01*
X103820077Y-78498749D01*
X103805857Y-78545626D01*
X103782767Y-78588824D01*
X103751691Y-78626691D01*
X103713824Y-78657767D01*
X103670626Y-78680857D01*
X103623749Y-78695077D01*
X103573768Y-78700000D01*
X102926232Y-78700000D01*
X102876251Y-78695077D01*
X102829374Y-78680857D01*
X102786176Y-78657767D01*
X102748309Y-78626691D01*
X102717233Y-78588824D01*
X102694143Y-78545626D01*
X102679923Y-78498749D01*
X102675000Y-78448768D01*
X102675000Y-77901232D01*
X102679923Y-77851251D01*
X102694143Y-77804374D01*
X102717233Y-77761176D01*
X102748309Y-77723309D01*
X102786176Y-77692233D01*
X102829374Y-77669143D01*
X102876251Y-77654923D01*
X102926232Y-77650000D01*
X103573768Y-77650000D01*
X103623749Y-77654923D01*
X103623749Y-77654923D01*
G37*
G36*
X113248749Y-77579923D02*
G01*
X113295626Y-77594143D01*
X113338824Y-77617233D01*
X113376691Y-77648309D01*
X113407767Y-77686176D01*
X113430857Y-77729374D01*
X113445077Y-77776251D01*
X113450000Y-77826232D01*
X113450000Y-78373768D01*
X113445077Y-78423749D01*
X113430857Y-78470626D01*
X113407767Y-78513824D01*
X113376691Y-78551691D01*
X113338824Y-78582767D01*
X113295626Y-78605857D01*
X113248749Y-78620077D01*
X113198768Y-78625000D01*
X112551232Y-78625000D01*
X112501251Y-78620077D01*
X112454374Y-78605857D01*
X112411176Y-78582767D01*
X112373309Y-78551691D01*
X112342233Y-78513824D01*
X112319143Y-78470626D01*
X112304923Y-78423749D01*
X112300000Y-78373768D01*
X112300000Y-77826232D01*
X112304923Y-77776251D01*
X112319143Y-77729374D01*
X112342233Y-77686176D01*
X112373309Y-77648309D01*
X112411176Y-77617233D01*
X112454374Y-77594143D01*
X112501251Y-77579923D01*
X112551232Y-77575000D01*
X113198768Y-77575000D01*
X113248749Y-77579923D01*
X113248749Y-77579923D01*
G37*
G36*
X111498749Y-77579923D02*
G01*
X111545626Y-77594143D01*
X111588824Y-77617233D01*
X111626691Y-77648309D01*
X111657767Y-77686176D01*
X111680857Y-77729374D01*
X111695077Y-77776251D01*
X111700000Y-77826232D01*
X111700000Y-78373768D01*
X111695077Y-78423749D01*
X111680857Y-78470626D01*
X111657767Y-78513824D01*
X111626691Y-78551691D01*
X111588824Y-78582767D01*
X111545626Y-78605857D01*
X111498749Y-78620077D01*
X111448768Y-78625000D01*
X110801232Y-78625000D01*
X110751251Y-78620077D01*
X110704374Y-78605857D01*
X110661176Y-78582767D01*
X110623309Y-78551691D01*
X110592233Y-78513824D01*
X110569143Y-78470626D01*
X110554923Y-78423749D01*
X110550000Y-78373768D01*
X110550000Y-77826232D01*
X110554923Y-77776251D01*
X110569143Y-77729374D01*
X110592233Y-77686176D01*
X110623309Y-77648309D01*
X110661176Y-77617233D01*
X110704374Y-77594143D01*
X110751251Y-77579923D01*
X110801232Y-77575000D01*
X111448768Y-77575000D01*
X111498749Y-77579923D01*
X111498749Y-77579923D01*
G37*
G36*
X106573749Y-75454923D02*
G01*
X106620626Y-75469143D01*
X106663824Y-75492233D01*
X106701691Y-75523309D01*
X106732767Y-75561176D01*
X106755857Y-75604374D01*
X106770077Y-75651251D01*
X106775000Y-75701232D01*
X106775000Y-76348768D01*
X106770077Y-76398749D01*
X106755857Y-76445626D01*
X106732767Y-76488824D01*
X106701691Y-76526691D01*
X106663824Y-76557767D01*
X106620626Y-76580857D01*
X106573749Y-76595077D01*
X106523768Y-76600000D01*
X105976232Y-76600000D01*
X105926251Y-76595077D01*
X105879374Y-76580857D01*
X105836176Y-76557767D01*
X105798309Y-76526691D01*
X105767233Y-76488824D01*
X105744143Y-76445626D01*
X105729923Y-76398749D01*
X105725000Y-76348768D01*
X105725000Y-75701232D01*
X105729923Y-75651251D01*
X105744143Y-75604374D01*
X105767233Y-75561176D01*
X105798309Y-75523309D01*
X105836176Y-75492233D01*
X105879374Y-75469143D01*
X105926251Y-75454923D01*
X105976232Y-75450000D01*
X106523768Y-75450000D01*
X106573749Y-75454923D01*
X106573749Y-75454923D01*
G37*
G36*
X106573749Y-73704923D02*
G01*
X106620626Y-73719143D01*
X106663824Y-73742233D01*
X106701691Y-73773309D01*
X106732767Y-73811176D01*
X106755857Y-73854374D01*
X106770077Y-73901251D01*
X106775000Y-73951232D01*
X106775000Y-74598768D01*
X106770077Y-74648749D01*
X106755857Y-74695626D01*
X106732767Y-74738824D01*
X106701691Y-74776691D01*
X106663824Y-74807767D01*
X106620626Y-74830857D01*
X106573749Y-74845077D01*
X106523768Y-74850000D01*
X105976232Y-74850000D01*
X105926251Y-74845077D01*
X105879374Y-74830857D01*
X105836176Y-74807767D01*
X105798309Y-74776691D01*
X105767233Y-74738824D01*
X105744143Y-74695626D01*
X105729923Y-74648749D01*
X105725000Y-74598768D01*
X105725000Y-73951232D01*
X105729923Y-73901251D01*
X105744143Y-73854374D01*
X105767233Y-73811176D01*
X105798309Y-73773309D01*
X105836176Y-73742233D01*
X105879374Y-73719143D01*
X105926251Y-73704923D01*
X105976232Y-73700000D01*
X106523768Y-73700000D01*
X106573749Y-73704923D01*
X106573749Y-73704923D01*
G37*
G36*
X126500000Y-73150000D02*
G01*
X124700000Y-73150000D01*
X124700000Y-71350000D01*
X126500000Y-71350000D01*
X126500000Y-73150000D01*
X126500000Y-73150000D01*
G37*
G36*
X70648749Y-70679923D02*
G01*
X70695626Y-70694143D01*
X70738824Y-70717233D01*
X70776691Y-70748309D01*
X70807767Y-70786176D01*
X70830857Y-70829374D01*
X70845077Y-70876251D01*
X70850000Y-70926232D01*
X70850000Y-71473768D01*
X70845077Y-71523749D01*
X70830857Y-71570626D01*
X70807767Y-71613824D01*
X70776691Y-71651691D01*
X70738824Y-71682767D01*
X70695626Y-71705857D01*
X70648749Y-71720077D01*
X70598768Y-71725000D01*
X69951232Y-71725000D01*
X69901251Y-71720077D01*
X69854374Y-71705857D01*
X69811176Y-71682767D01*
X69773309Y-71651691D01*
X69742233Y-71613824D01*
X69719143Y-71570626D01*
X69704923Y-71523749D01*
X69700000Y-71473768D01*
X69700000Y-70926232D01*
X69704923Y-70876251D01*
X69719143Y-70829374D01*
X69742233Y-70786176D01*
X69773309Y-70748309D01*
X69811176Y-70717233D01*
X69854374Y-70694143D01*
X69901251Y-70679923D01*
X69951232Y-70675000D01*
X70598768Y-70675000D01*
X70648749Y-70679923D01*
X70648749Y-70679923D01*
G37*
G36*
X72398749Y-70679923D02*
G01*
X72445626Y-70694143D01*
X72488824Y-70717233D01*
X72526691Y-70748309D01*
X72557767Y-70786176D01*
X72580857Y-70829374D01*
X72595077Y-70876251D01*
X72600000Y-70926232D01*
X72600000Y-71473768D01*
X72595077Y-71523749D01*
X72580857Y-71570626D01*
X72557767Y-71613824D01*
X72526691Y-71651691D01*
X72488824Y-71682767D01*
X72445626Y-71705857D01*
X72398749Y-71720077D01*
X72348768Y-71725000D01*
X71701232Y-71725000D01*
X71651251Y-71720077D01*
X71604374Y-71705857D01*
X71561176Y-71682767D01*
X71523309Y-71651691D01*
X71492233Y-71613824D01*
X71469143Y-71570626D01*
X71454923Y-71523749D01*
X71450000Y-71473768D01*
X71450000Y-70926232D01*
X71454923Y-70876251D01*
X71469143Y-70829374D01*
X71492233Y-70786176D01*
X71523309Y-70748309D01*
X71561176Y-70717233D01*
X71604374Y-70694143D01*
X71651251Y-70679923D01*
X71701232Y-70675000D01*
X72348768Y-70675000D01*
X72398749Y-70679923D01*
X72398749Y-70679923D01*
G37*
G36*
X75798749Y-70679923D02*
G01*
X75845626Y-70694143D01*
X75888824Y-70717233D01*
X75926691Y-70748309D01*
X75957767Y-70786176D01*
X75980857Y-70829374D01*
X75995077Y-70876251D01*
X76000000Y-70926232D01*
X76000000Y-71473768D01*
X75995077Y-71523749D01*
X75980857Y-71570626D01*
X75957767Y-71613824D01*
X75926691Y-71651691D01*
X75888824Y-71682767D01*
X75845626Y-71705857D01*
X75798749Y-71720077D01*
X75748768Y-71725000D01*
X75101232Y-71725000D01*
X75051251Y-71720077D01*
X75004374Y-71705857D01*
X74961176Y-71682767D01*
X74923309Y-71651691D01*
X74892233Y-71613824D01*
X74869143Y-71570626D01*
X74854923Y-71523749D01*
X74850000Y-71473768D01*
X74850000Y-70926232D01*
X74854923Y-70876251D01*
X74869143Y-70829374D01*
X74892233Y-70786176D01*
X74923309Y-70748309D01*
X74961176Y-70717233D01*
X75004374Y-70694143D01*
X75051251Y-70679923D01*
X75101232Y-70675000D01*
X75748768Y-70675000D01*
X75798749Y-70679923D01*
X75798749Y-70679923D01*
G37*
G36*
X74048749Y-70679923D02*
G01*
X74095626Y-70694143D01*
X74138824Y-70717233D01*
X74176691Y-70748309D01*
X74207767Y-70786176D01*
X74230857Y-70829374D01*
X74245077Y-70876251D01*
X74250000Y-70926232D01*
X74250000Y-71473768D01*
X74245077Y-71523749D01*
X74230857Y-71570626D01*
X74207767Y-71613824D01*
X74176691Y-71651691D01*
X74138824Y-71682767D01*
X74095626Y-71705857D01*
X74048749Y-71720077D01*
X73998768Y-71725000D01*
X73351232Y-71725000D01*
X73301251Y-71720077D01*
X73254374Y-71705857D01*
X73211176Y-71682767D01*
X73173309Y-71651691D01*
X73142233Y-71613824D01*
X73119143Y-71570626D01*
X73104923Y-71523749D01*
X73100000Y-71473768D01*
X73100000Y-70926232D01*
X73104923Y-70876251D01*
X73119143Y-70829374D01*
X73142233Y-70786176D01*
X73173309Y-70748309D01*
X73211176Y-70717233D01*
X73254374Y-70694143D01*
X73301251Y-70679923D01*
X73351232Y-70675000D01*
X73998768Y-70675000D01*
X74048749Y-70679923D01*
X74048749Y-70679923D01*
G37*
G36*
X106223749Y-69854923D02*
G01*
X106270626Y-69869143D01*
X106313824Y-69892233D01*
X106351691Y-69923309D01*
X106382767Y-69961176D01*
X106405857Y-70004374D01*
X106420077Y-70051251D01*
X106425000Y-70101232D01*
X106425000Y-70648768D01*
X106420077Y-70698749D01*
X106405857Y-70745626D01*
X106382767Y-70788824D01*
X106351691Y-70826691D01*
X106313824Y-70857767D01*
X106270626Y-70880857D01*
X106223749Y-70895077D01*
X106173768Y-70900000D01*
X105526232Y-70900000D01*
X105476251Y-70895077D01*
X105429374Y-70880857D01*
X105386176Y-70857767D01*
X105348309Y-70826691D01*
X105317233Y-70788824D01*
X105294143Y-70745626D01*
X105279923Y-70698749D01*
X105275000Y-70648768D01*
X105275000Y-70101232D01*
X105279923Y-70051251D01*
X105294143Y-70004374D01*
X105317233Y-69961176D01*
X105348309Y-69923309D01*
X105386176Y-69892233D01*
X105429374Y-69869143D01*
X105476251Y-69854923D01*
X105526232Y-69850000D01*
X106173768Y-69850000D01*
X106223749Y-69854923D01*
X106223749Y-69854923D01*
G37*
G36*
X107973749Y-69854923D02*
G01*
X108020626Y-69869143D01*
X108063824Y-69892233D01*
X108101691Y-69923309D01*
X108132767Y-69961176D01*
X108155857Y-70004374D01*
X108170077Y-70051251D01*
X108175000Y-70101232D01*
X108175000Y-70648768D01*
X108170077Y-70698749D01*
X108155857Y-70745626D01*
X108132767Y-70788824D01*
X108101691Y-70826691D01*
X108063824Y-70857767D01*
X108020626Y-70880857D01*
X107973749Y-70895077D01*
X107923768Y-70900000D01*
X107276232Y-70900000D01*
X107226251Y-70895077D01*
X107179374Y-70880857D01*
X107136176Y-70857767D01*
X107098309Y-70826691D01*
X107067233Y-70788824D01*
X107044143Y-70745626D01*
X107029923Y-70698749D01*
X107025000Y-70648768D01*
X107025000Y-70101232D01*
X107029923Y-70051251D01*
X107044143Y-70004374D01*
X107067233Y-69961176D01*
X107098309Y-69923309D01*
X107136176Y-69892233D01*
X107179374Y-69869143D01*
X107226251Y-69854923D01*
X107276232Y-69850000D01*
X107923768Y-69850000D01*
X107973749Y-69854923D01*
X107973749Y-69854923D01*
G37*
G36*
X125776431Y-68823023D02*
G01*
X125922216Y-68867247D01*
X125946085Y-68874487D01*
X126057046Y-68933798D01*
X126102432Y-68958057D01*
X126239475Y-69070525D01*
X126351943Y-69207568D01*
X126361919Y-69226232D01*
X126435513Y-69363915D01*
X126435514Y-69363919D01*
X126486977Y-69533569D01*
X126504354Y-69710000D01*
X126486977Y-69886431D01*
X126451199Y-70004374D01*
X126435513Y-70056085D01*
X126405358Y-70112500D01*
X126351943Y-70212432D01*
X126239475Y-70349475D01*
X126102432Y-70461943D01*
X126057046Y-70486202D01*
X125946085Y-70545513D01*
X125922216Y-70552753D01*
X125776431Y-70596977D01*
X125644207Y-70610000D01*
X125555793Y-70610000D01*
X125423569Y-70596977D01*
X125277784Y-70552753D01*
X125253915Y-70545513D01*
X125142954Y-70486202D01*
X125097568Y-70461943D01*
X124960525Y-70349475D01*
X124848057Y-70212432D01*
X124794642Y-70112500D01*
X124764487Y-70056085D01*
X124748801Y-70004374D01*
X124713023Y-69886431D01*
X124695646Y-69710000D01*
X124713023Y-69533569D01*
X124764486Y-69363919D01*
X124764487Y-69363915D01*
X124838081Y-69226232D01*
X124848057Y-69207568D01*
X124960525Y-69070525D01*
X125097568Y-68958057D01*
X125142954Y-68933798D01*
X125253915Y-68874487D01*
X125277784Y-68867247D01*
X125423569Y-68823023D01*
X125555793Y-68810000D01*
X125644207Y-68810000D01*
X125776431Y-68823023D01*
X125776431Y-68823023D01*
G37*
G36*
X110873749Y-68979923D02*
G01*
X110920626Y-68994143D01*
X110963824Y-69017233D01*
X111001691Y-69048309D01*
X111032767Y-69086176D01*
X111055857Y-69129374D01*
X111070077Y-69176251D01*
X111075000Y-69226232D01*
X111075000Y-69773768D01*
X111070077Y-69823749D01*
X111055857Y-69870626D01*
X111032767Y-69913824D01*
X111001691Y-69951691D01*
X110963824Y-69982767D01*
X110920626Y-70005857D01*
X110873749Y-70020077D01*
X110823768Y-70025000D01*
X110176232Y-70025000D01*
X110126251Y-70020077D01*
X110079374Y-70005857D01*
X110036176Y-69982767D01*
X109998309Y-69951691D01*
X109967233Y-69913824D01*
X109944143Y-69870626D01*
X109929923Y-69823749D01*
X109925000Y-69773768D01*
X109925000Y-69226232D01*
X109929923Y-69176251D01*
X109944143Y-69129374D01*
X109967233Y-69086176D01*
X109998309Y-69048309D01*
X110036176Y-69017233D01*
X110079374Y-68994143D01*
X110126251Y-68979923D01*
X110176232Y-68975000D01*
X110823768Y-68975000D01*
X110873749Y-68979923D01*
X110873749Y-68979923D01*
G37*
G36*
X112623749Y-68979923D02*
G01*
X112670626Y-68994143D01*
X112713824Y-69017233D01*
X112751691Y-69048309D01*
X112782767Y-69086176D01*
X112805857Y-69129374D01*
X112820077Y-69176251D01*
X112825000Y-69226232D01*
X112825000Y-69773768D01*
X112820077Y-69823749D01*
X112805857Y-69870626D01*
X112782767Y-69913824D01*
X112751691Y-69951691D01*
X112713824Y-69982767D01*
X112670626Y-70005857D01*
X112623749Y-70020077D01*
X112573768Y-70025000D01*
X111926232Y-70025000D01*
X111876251Y-70020077D01*
X111829374Y-70005857D01*
X111786176Y-69982767D01*
X111748309Y-69951691D01*
X111717233Y-69913824D01*
X111694143Y-69870626D01*
X111679923Y-69823749D01*
X111675000Y-69773768D01*
X111675000Y-69226232D01*
X111679923Y-69176251D01*
X111694143Y-69129374D01*
X111717233Y-69086176D01*
X111748309Y-69048309D01*
X111786176Y-69017233D01*
X111829374Y-68994143D01*
X111876251Y-68979923D01*
X111926232Y-68975000D01*
X112573768Y-68975000D01*
X112623749Y-68979923D01*
X112623749Y-68979923D01*
G37*
G36*
X106198749Y-68179923D02*
G01*
X106245626Y-68194143D01*
X106288824Y-68217233D01*
X106326691Y-68248309D01*
X106357767Y-68286176D01*
X106380857Y-68329374D01*
X106395077Y-68376251D01*
X106400000Y-68426232D01*
X106400000Y-68973768D01*
X106395077Y-69023749D01*
X106380857Y-69070626D01*
X106357767Y-69113824D01*
X106326691Y-69151691D01*
X106288824Y-69182767D01*
X106245626Y-69205857D01*
X106198749Y-69220077D01*
X106148768Y-69225000D01*
X105501232Y-69225000D01*
X105451251Y-69220077D01*
X105404374Y-69205857D01*
X105361176Y-69182767D01*
X105323309Y-69151691D01*
X105292233Y-69113824D01*
X105269143Y-69070626D01*
X105254923Y-69023749D01*
X105250000Y-68973768D01*
X105250000Y-68426232D01*
X105254923Y-68376251D01*
X105269143Y-68329374D01*
X105292233Y-68286176D01*
X105323309Y-68248309D01*
X105361176Y-68217233D01*
X105404374Y-68194143D01*
X105451251Y-68179923D01*
X105501232Y-68175000D01*
X106148768Y-68175000D01*
X106198749Y-68179923D01*
X106198749Y-68179923D01*
G37*
G36*
X107948749Y-68179923D02*
G01*
X107995626Y-68194143D01*
X108038824Y-68217233D01*
X108076691Y-68248309D01*
X108107767Y-68286176D01*
X108130857Y-68329374D01*
X108145077Y-68376251D01*
X108150000Y-68426232D01*
X108150000Y-68973768D01*
X108145077Y-69023749D01*
X108130857Y-69070626D01*
X108107767Y-69113824D01*
X108076691Y-69151691D01*
X108038824Y-69182767D01*
X107995626Y-69205857D01*
X107948749Y-69220077D01*
X107898768Y-69225000D01*
X107251232Y-69225000D01*
X107201251Y-69220077D01*
X107154374Y-69205857D01*
X107111176Y-69182767D01*
X107073309Y-69151691D01*
X107042233Y-69113824D01*
X107019143Y-69070626D01*
X107004923Y-69023749D01*
X107000000Y-68973768D01*
X107000000Y-68426232D01*
X107004923Y-68376251D01*
X107019143Y-68329374D01*
X107042233Y-68286176D01*
X107073309Y-68248309D01*
X107111176Y-68217233D01*
X107154374Y-68194143D01*
X107201251Y-68179923D01*
X107251232Y-68175000D01*
X107898768Y-68175000D01*
X107948749Y-68179923D01*
X107948749Y-68179923D01*
G37*
G36*
X112623749Y-67379923D02*
G01*
X112670626Y-67394143D01*
X112713824Y-67417233D01*
X112751691Y-67448309D01*
X112782767Y-67486176D01*
X112805857Y-67529374D01*
X112820077Y-67576251D01*
X112825000Y-67626232D01*
X112825000Y-68173768D01*
X112820077Y-68223749D01*
X112805857Y-68270626D01*
X112782767Y-68313824D01*
X112751691Y-68351691D01*
X112713824Y-68382767D01*
X112670626Y-68405857D01*
X112623749Y-68420077D01*
X112573768Y-68425000D01*
X111926232Y-68425000D01*
X111876251Y-68420077D01*
X111829374Y-68405857D01*
X111786176Y-68382767D01*
X111748309Y-68351691D01*
X111717233Y-68313824D01*
X111694143Y-68270626D01*
X111679923Y-68223749D01*
X111675000Y-68173768D01*
X111675000Y-67626232D01*
X111679923Y-67576251D01*
X111694143Y-67529374D01*
X111717233Y-67486176D01*
X111748309Y-67448309D01*
X111786176Y-67417233D01*
X111829374Y-67394143D01*
X111876251Y-67379923D01*
X111926232Y-67375000D01*
X112573768Y-67375000D01*
X112623749Y-67379923D01*
X112623749Y-67379923D01*
G37*
G36*
X110873749Y-67379923D02*
G01*
X110920626Y-67394143D01*
X110963824Y-67417233D01*
X111001691Y-67448309D01*
X111032767Y-67486176D01*
X111055857Y-67529374D01*
X111070077Y-67576251D01*
X111075000Y-67626232D01*
X111075000Y-68173768D01*
X111070077Y-68223749D01*
X111055857Y-68270626D01*
X111032767Y-68313824D01*
X111001691Y-68351691D01*
X110963824Y-68382767D01*
X110920626Y-68405857D01*
X110873749Y-68420077D01*
X110823768Y-68425000D01*
X110176232Y-68425000D01*
X110126251Y-68420077D01*
X110079374Y-68405857D01*
X110036176Y-68382767D01*
X109998309Y-68351691D01*
X109967233Y-68313824D01*
X109944143Y-68270626D01*
X109929923Y-68223749D01*
X109925000Y-68173768D01*
X109925000Y-67626232D01*
X109929923Y-67576251D01*
X109944143Y-67529374D01*
X109967233Y-67486176D01*
X109998309Y-67448309D01*
X110036176Y-67417233D01*
X110079374Y-67394143D01*
X110126251Y-67379923D01*
X110176232Y-67375000D01*
X110823768Y-67375000D01*
X110873749Y-67379923D01*
X110873749Y-67379923D01*
G37*
G36*
X71748749Y-63829923D02*
G01*
X71795626Y-63844143D01*
X71838824Y-63867233D01*
X71876691Y-63898309D01*
X71907767Y-63936176D01*
X71930857Y-63979374D01*
X71945077Y-64026251D01*
X71950000Y-64076232D01*
X71950000Y-64623768D01*
X71945077Y-64673749D01*
X71930857Y-64720626D01*
X71907767Y-64763824D01*
X71876691Y-64801691D01*
X71838824Y-64832767D01*
X71795626Y-64855857D01*
X71748749Y-64870077D01*
X71698768Y-64875000D01*
X71051232Y-64875000D01*
X71001251Y-64870077D01*
X70954374Y-64855857D01*
X70911176Y-64832767D01*
X70873309Y-64801691D01*
X70842233Y-64763824D01*
X70819143Y-64720626D01*
X70804923Y-64673749D01*
X70800000Y-64623768D01*
X70800000Y-64076232D01*
X70804923Y-64026251D01*
X70819143Y-63979374D01*
X70842233Y-63936176D01*
X70873309Y-63898309D01*
X70911176Y-63867233D01*
X70954374Y-63844143D01*
X71001251Y-63829923D01*
X71051232Y-63825000D01*
X71698768Y-63825000D01*
X71748749Y-63829923D01*
X71748749Y-63829923D01*
G37*
G36*
X73498749Y-63829923D02*
G01*
X73545626Y-63844143D01*
X73588824Y-63867233D01*
X73626691Y-63898309D01*
X73657767Y-63936176D01*
X73680857Y-63979374D01*
X73695077Y-64026251D01*
X73700000Y-64076232D01*
X73700000Y-64623768D01*
X73695077Y-64673749D01*
X73680857Y-64720626D01*
X73657767Y-64763824D01*
X73626691Y-64801691D01*
X73588824Y-64832767D01*
X73545626Y-64855857D01*
X73498749Y-64870077D01*
X73448768Y-64875000D01*
X72801232Y-64875000D01*
X72751251Y-64870077D01*
X72704374Y-64855857D01*
X72661176Y-64832767D01*
X72623309Y-64801691D01*
X72592233Y-64763824D01*
X72569143Y-64720626D01*
X72554923Y-64673749D01*
X72550000Y-64623768D01*
X72550000Y-64076232D01*
X72554923Y-64026251D01*
X72569143Y-63979374D01*
X72592233Y-63936176D01*
X72623309Y-63898309D01*
X72661176Y-63867233D01*
X72704374Y-63844143D01*
X72751251Y-63829923D01*
X72801232Y-63825000D01*
X73448768Y-63825000D01*
X73498749Y-63829923D01*
X73498749Y-63829923D01*
G37*
G36*
X68500006Y-61604893D02*
G01*
X68546593Y-61619024D01*
X68589520Y-61641970D01*
X68627149Y-61672851D01*
X68658030Y-61710480D01*
X68680976Y-61753407D01*
X68695107Y-61799994D01*
X68700000Y-61849670D01*
X68700000Y-63050330D01*
X68695107Y-63100006D01*
X68680976Y-63146593D01*
X68658030Y-63189520D01*
X68627149Y-63227149D01*
X68589520Y-63258030D01*
X68546593Y-63280976D01*
X68500006Y-63295107D01*
X68450330Y-63300000D01*
X65349670Y-63300000D01*
X65299994Y-63295107D01*
X65253407Y-63280976D01*
X65210480Y-63258030D01*
X65172851Y-63227149D01*
X65141970Y-63189520D01*
X65119024Y-63146593D01*
X65104893Y-63100006D01*
X65100000Y-63050330D01*
X65100000Y-61849670D01*
X65104893Y-61799994D01*
X65119024Y-61753407D01*
X65141970Y-61710480D01*
X65172851Y-61672851D01*
X65210480Y-61641970D01*
X65253407Y-61619024D01*
X65299994Y-61604893D01*
X65349670Y-61600000D01*
X68450330Y-61600000D01*
X68500006Y-61604893D01*
X68500006Y-61604893D01*
G37*
G36*
X62900006Y-61604893D02*
G01*
X62946593Y-61619024D01*
X62989520Y-61641970D01*
X63027149Y-61672851D01*
X63058030Y-61710480D01*
X63080976Y-61753407D01*
X63095107Y-61799994D01*
X63100000Y-61849670D01*
X63100000Y-63050330D01*
X63095107Y-63100006D01*
X63080976Y-63146593D01*
X63058030Y-63189520D01*
X63027149Y-63227149D01*
X62989520Y-63258030D01*
X62946593Y-63280976D01*
X62900006Y-63295107D01*
X62850330Y-63300000D01*
X59749670Y-63300000D01*
X59699994Y-63295107D01*
X59653407Y-63280976D01*
X59610480Y-63258030D01*
X59572851Y-63227149D01*
X59541970Y-63189520D01*
X59519024Y-63146593D01*
X59504893Y-63100006D01*
X59500000Y-63050330D01*
X59500000Y-61849670D01*
X59504893Y-61799994D01*
X59519024Y-61753407D01*
X59541970Y-61710480D01*
X59572851Y-61672851D01*
X59610480Y-61641970D01*
X59653407Y-61619024D01*
X59699994Y-61604893D01*
X59749670Y-61600000D01*
X62850330Y-61600000D01*
X62900006Y-61604893D01*
X62900006Y-61604893D01*
G37*
G36*
X73492625Y-61605069D02*
G01*
X73540929Y-61619722D01*
X73585447Y-61643517D01*
X73624463Y-61675537D01*
X73656483Y-61714553D01*
X73680278Y-61759071D01*
X73694931Y-61807375D01*
X73700000Y-61858840D01*
X73700000Y-62841160D01*
X73694931Y-62892625D01*
X73680278Y-62940929D01*
X73656483Y-62985447D01*
X73624463Y-63024463D01*
X73585447Y-63056483D01*
X73540929Y-63080278D01*
X73492625Y-63094931D01*
X73441160Y-63100000D01*
X72708840Y-63100000D01*
X72657375Y-63094931D01*
X72609071Y-63080278D01*
X72564553Y-63056483D01*
X72525537Y-63024463D01*
X72493517Y-62985447D01*
X72469722Y-62940929D01*
X72455069Y-62892625D01*
X72450000Y-62841160D01*
X72450000Y-61858840D01*
X72455069Y-61807375D01*
X72469722Y-61759071D01*
X72493517Y-61714553D01*
X72525537Y-61675537D01*
X72564553Y-61643517D01*
X72609071Y-61619722D01*
X72657375Y-61605069D01*
X72708840Y-61600000D01*
X73441160Y-61600000D01*
X73492625Y-61605069D01*
X73492625Y-61605069D01*
G37*
G36*
X71442625Y-61605069D02*
G01*
X71490929Y-61619722D01*
X71535447Y-61643517D01*
X71574463Y-61675537D01*
X71606483Y-61714553D01*
X71630278Y-61759071D01*
X71644931Y-61807375D01*
X71650000Y-61858840D01*
X71650000Y-62841160D01*
X71644931Y-62892625D01*
X71630278Y-62940929D01*
X71606483Y-62985447D01*
X71574463Y-63024463D01*
X71535447Y-63056483D01*
X71490929Y-63080278D01*
X71442625Y-63094931D01*
X71391160Y-63100000D01*
X70658840Y-63100000D01*
X70607375Y-63094931D01*
X70559071Y-63080278D01*
X70514553Y-63056483D01*
X70475537Y-63024463D01*
X70443517Y-62985447D01*
X70419722Y-62940929D01*
X70405069Y-62892625D01*
X70400000Y-62841160D01*
X70400000Y-61858840D01*
X70405069Y-61807375D01*
X70419722Y-61759071D01*
X70443517Y-61714553D01*
X70475537Y-61675537D01*
X70514553Y-61643517D01*
X70559071Y-61619722D01*
X70607375Y-61605069D01*
X70658840Y-61600000D01*
X71391160Y-61600000D01*
X71442625Y-61605069D01*
X71442625Y-61605069D01*
G37*
G36*
X76073749Y-60654923D02*
G01*
X76120626Y-60669143D01*
X76163824Y-60692233D01*
X76201691Y-60723309D01*
X76232767Y-60761176D01*
X76255857Y-60804374D01*
X76270077Y-60851251D01*
X76275000Y-60901232D01*
X76275000Y-61548768D01*
X76270077Y-61598749D01*
X76255857Y-61645626D01*
X76232767Y-61688824D01*
X76201691Y-61726691D01*
X76163824Y-61757767D01*
X76120626Y-61780857D01*
X76073749Y-61795077D01*
X76023768Y-61800000D01*
X75476232Y-61800000D01*
X75426251Y-61795077D01*
X75379374Y-61780857D01*
X75336176Y-61757767D01*
X75298309Y-61726691D01*
X75267233Y-61688824D01*
X75244143Y-61645626D01*
X75229923Y-61598749D01*
X75225000Y-61548768D01*
X75225000Y-60901232D01*
X75229923Y-60851251D01*
X75244143Y-60804374D01*
X75267233Y-60761176D01*
X75298309Y-60723309D01*
X75336176Y-60692233D01*
X75379374Y-60669143D01*
X75426251Y-60654923D01*
X75476232Y-60650000D01*
X76023768Y-60650000D01*
X76073749Y-60654923D01*
X76073749Y-60654923D01*
G37*
G36*
X76073749Y-58904923D02*
G01*
X76120626Y-58919143D01*
X76163824Y-58942233D01*
X76201691Y-58973309D01*
X76232767Y-59011176D01*
X76255857Y-59054374D01*
X76270077Y-59101251D01*
X76275000Y-59151232D01*
X76275000Y-59798768D01*
X76270077Y-59848749D01*
X76255857Y-59895626D01*
X76232767Y-59938824D01*
X76201691Y-59976691D01*
X76163824Y-60007767D01*
X76120626Y-60030857D01*
X76073749Y-60045077D01*
X76023768Y-60050000D01*
X75476232Y-60050000D01*
X75426251Y-60045077D01*
X75379374Y-60030857D01*
X75336176Y-60007767D01*
X75298309Y-59976691D01*
X75267233Y-59938824D01*
X75244143Y-59895626D01*
X75229923Y-59848749D01*
X75225000Y-59798768D01*
X75225000Y-59151232D01*
X75229923Y-59101251D01*
X75244143Y-59054374D01*
X75267233Y-59011176D01*
X75298309Y-58973309D01*
X75336176Y-58942233D01*
X75379374Y-58919143D01*
X75426251Y-58904923D01*
X75476232Y-58900000D01*
X76023768Y-58900000D01*
X76073749Y-58904923D01*
X76073749Y-58904923D01*
G37*
G36*
X76073749Y-57154923D02*
G01*
X76120626Y-57169143D01*
X76163824Y-57192233D01*
X76201691Y-57223309D01*
X76232767Y-57261176D01*
X76255857Y-57304374D01*
X76270077Y-57351251D01*
X76275000Y-57401232D01*
X76275000Y-58048768D01*
X76270077Y-58098749D01*
X76255857Y-58145626D01*
X76232767Y-58188824D01*
X76201691Y-58226691D01*
X76163824Y-58257767D01*
X76120626Y-58280857D01*
X76073749Y-58295077D01*
X76023768Y-58300000D01*
X75476232Y-58300000D01*
X75426251Y-58295077D01*
X75379374Y-58280857D01*
X75336176Y-58257767D01*
X75298309Y-58226691D01*
X75267233Y-58188824D01*
X75244143Y-58145626D01*
X75229923Y-58098749D01*
X75225000Y-58048768D01*
X75225000Y-57401232D01*
X75229923Y-57351251D01*
X75244143Y-57304374D01*
X75267233Y-57261176D01*
X75298309Y-57223309D01*
X75336176Y-57192233D01*
X75379374Y-57169143D01*
X75426251Y-57154923D01*
X75476232Y-57150000D01*
X76023768Y-57150000D01*
X76073749Y-57154923D01*
X76073749Y-57154923D01*
G37*
G36*
X68223749Y-57054923D02*
G01*
X68270626Y-57069143D01*
X68313824Y-57092233D01*
X68351691Y-57123309D01*
X68382767Y-57161176D01*
X68405857Y-57204374D01*
X68420077Y-57251251D01*
X68425000Y-57301232D01*
X68425000Y-57948768D01*
X68420077Y-57998749D01*
X68405857Y-58045626D01*
X68382767Y-58088824D01*
X68351691Y-58126691D01*
X68313824Y-58157767D01*
X68270626Y-58180857D01*
X68223749Y-58195077D01*
X68173768Y-58200000D01*
X67626232Y-58200000D01*
X67576251Y-58195077D01*
X67529374Y-58180857D01*
X67486176Y-58157767D01*
X67448309Y-58126691D01*
X67417233Y-58088824D01*
X67394143Y-58045626D01*
X67379923Y-57998749D01*
X67375000Y-57948768D01*
X67375000Y-57301232D01*
X67379923Y-57251251D01*
X67394143Y-57204374D01*
X67417233Y-57161176D01*
X67448309Y-57123309D01*
X67486176Y-57092233D01*
X67529374Y-57069143D01*
X67576251Y-57054923D01*
X67626232Y-57050000D01*
X68173768Y-57050000D01*
X68223749Y-57054923D01*
X68223749Y-57054923D01*
G37*
G36*
X69823749Y-57054923D02*
G01*
X69870626Y-57069143D01*
X69913824Y-57092233D01*
X69951691Y-57123309D01*
X69982767Y-57161176D01*
X70005857Y-57204374D01*
X70020077Y-57251251D01*
X70025000Y-57301232D01*
X70025000Y-57948768D01*
X70020077Y-57998749D01*
X70005857Y-58045626D01*
X69982767Y-58088824D01*
X69951691Y-58126691D01*
X69913824Y-58157767D01*
X69870626Y-58180857D01*
X69823749Y-58195077D01*
X69773768Y-58200000D01*
X69226232Y-58200000D01*
X69176251Y-58195077D01*
X69129374Y-58180857D01*
X69086176Y-58157767D01*
X69048309Y-58126691D01*
X69017233Y-58088824D01*
X68994143Y-58045626D01*
X68979923Y-57998749D01*
X68975000Y-57948768D01*
X68975000Y-57301232D01*
X68979923Y-57251251D01*
X68994143Y-57204374D01*
X69017233Y-57161176D01*
X69048309Y-57123309D01*
X69086176Y-57092233D01*
X69129374Y-57069143D01*
X69176251Y-57054923D01*
X69226232Y-57050000D01*
X69773768Y-57050000D01*
X69823749Y-57054923D01*
X69823749Y-57054923D01*
G37*
G36*
X71423749Y-57054923D02*
G01*
X71470626Y-57069143D01*
X71513824Y-57092233D01*
X71551691Y-57123309D01*
X71582767Y-57161176D01*
X71605857Y-57204374D01*
X71620077Y-57251251D01*
X71625000Y-57301232D01*
X71625000Y-57948768D01*
X71620077Y-57998749D01*
X71605857Y-58045626D01*
X71582767Y-58088824D01*
X71551691Y-58126691D01*
X71513824Y-58157767D01*
X71470626Y-58180857D01*
X71423749Y-58195077D01*
X71373768Y-58200000D01*
X70826232Y-58200000D01*
X70776251Y-58195077D01*
X70729374Y-58180857D01*
X70686176Y-58157767D01*
X70648309Y-58126691D01*
X70617233Y-58088824D01*
X70594143Y-58045626D01*
X70579923Y-57998749D01*
X70575000Y-57948768D01*
X70575000Y-57301232D01*
X70579923Y-57251251D01*
X70594143Y-57204374D01*
X70617233Y-57161176D01*
X70648309Y-57123309D01*
X70686176Y-57092233D01*
X70729374Y-57069143D01*
X70776251Y-57054923D01*
X70826232Y-57050000D01*
X71373768Y-57050000D01*
X71423749Y-57054923D01*
X71423749Y-57054923D01*
G37*
G36*
X66673749Y-57054923D02*
G01*
X66720626Y-57069143D01*
X66763824Y-57092233D01*
X66801691Y-57123309D01*
X66832767Y-57161176D01*
X66855857Y-57204374D01*
X66870077Y-57251251D01*
X66875000Y-57301232D01*
X66875000Y-57948768D01*
X66870077Y-57998749D01*
X66855857Y-58045626D01*
X66832767Y-58088824D01*
X66801691Y-58126691D01*
X66763824Y-58157767D01*
X66720626Y-58180857D01*
X66673749Y-58195077D01*
X66623768Y-58200000D01*
X66076232Y-58200000D01*
X66026251Y-58195077D01*
X65979374Y-58180857D01*
X65936176Y-58157767D01*
X65898309Y-58126691D01*
X65867233Y-58088824D01*
X65844143Y-58045626D01*
X65829923Y-57998749D01*
X65825000Y-57948768D01*
X65825000Y-57301232D01*
X65829923Y-57251251D01*
X65844143Y-57204374D01*
X65867233Y-57161176D01*
X65898309Y-57123309D01*
X65936176Y-57092233D01*
X65979374Y-57069143D01*
X66026251Y-57054923D01*
X66076232Y-57050000D01*
X66623768Y-57050000D01*
X66673749Y-57054923D01*
X66673749Y-57054923D01*
G37*
G36*
X72973749Y-57029923D02*
G01*
X73020626Y-57044143D01*
X73063824Y-57067233D01*
X73101691Y-57098309D01*
X73132767Y-57136176D01*
X73155857Y-57179374D01*
X73170077Y-57226251D01*
X73175000Y-57276232D01*
X73175000Y-57923768D01*
X73170077Y-57973749D01*
X73155857Y-58020626D01*
X73132767Y-58063824D01*
X73101691Y-58101691D01*
X73063824Y-58132767D01*
X73020626Y-58155857D01*
X72973749Y-58170077D01*
X72923768Y-58175000D01*
X72376232Y-58175000D01*
X72326251Y-58170077D01*
X72279374Y-58155857D01*
X72236176Y-58132767D01*
X72198309Y-58101691D01*
X72167233Y-58063824D01*
X72144143Y-58020626D01*
X72129923Y-57973749D01*
X72125000Y-57923768D01*
X72125000Y-57276232D01*
X72129923Y-57226251D01*
X72144143Y-57179374D01*
X72167233Y-57136176D01*
X72198309Y-57098309D01*
X72236176Y-57067233D01*
X72279374Y-57044143D01*
X72326251Y-57029923D01*
X72376232Y-57025000D01*
X72923768Y-57025000D01*
X72973749Y-57029923D01*
X72973749Y-57029923D01*
G37*
G36*
X74573749Y-57004923D02*
G01*
X74620626Y-57019143D01*
X74663824Y-57042233D01*
X74701691Y-57073309D01*
X74732767Y-57111176D01*
X74755857Y-57154374D01*
X74770077Y-57201251D01*
X74775000Y-57251232D01*
X74775000Y-57898768D01*
X74770077Y-57948749D01*
X74755857Y-57995626D01*
X74732767Y-58038824D01*
X74701691Y-58076691D01*
X74663824Y-58107767D01*
X74620626Y-58130857D01*
X74573749Y-58145077D01*
X74523768Y-58150000D01*
X73976232Y-58150000D01*
X73926251Y-58145077D01*
X73879374Y-58130857D01*
X73836176Y-58107767D01*
X73798309Y-58076691D01*
X73767233Y-58038824D01*
X73744143Y-57995626D01*
X73729923Y-57948749D01*
X73725000Y-57898768D01*
X73725000Y-57251232D01*
X73729923Y-57201251D01*
X73744143Y-57154374D01*
X73767233Y-57111176D01*
X73798309Y-57073309D01*
X73836176Y-57042233D01*
X73879374Y-57019143D01*
X73926251Y-57004923D01*
X73976232Y-57000000D01*
X74523768Y-57000000D01*
X74573749Y-57004923D01*
X74573749Y-57004923D01*
G37*
G36*
X76073749Y-55404923D02*
G01*
X76120626Y-55419143D01*
X76163824Y-55442233D01*
X76201691Y-55473309D01*
X76232767Y-55511176D01*
X76255857Y-55554374D01*
X76270077Y-55601251D01*
X76275000Y-55651232D01*
X76275000Y-56298768D01*
X76270077Y-56348749D01*
X76255857Y-56395626D01*
X76232767Y-56438824D01*
X76201691Y-56476691D01*
X76163824Y-56507767D01*
X76120626Y-56530857D01*
X76073749Y-56545077D01*
X76023768Y-56550000D01*
X75476232Y-56550000D01*
X75426251Y-56545077D01*
X75379374Y-56530857D01*
X75336176Y-56507767D01*
X75298309Y-56476691D01*
X75267233Y-56438824D01*
X75244143Y-56395626D01*
X75229923Y-56348749D01*
X75225000Y-56298768D01*
X75225000Y-55651232D01*
X75229923Y-55601251D01*
X75244143Y-55554374D01*
X75267233Y-55511176D01*
X75298309Y-55473309D01*
X75336176Y-55442233D01*
X75379374Y-55419143D01*
X75426251Y-55404923D01*
X75476232Y-55400000D01*
X76023768Y-55400000D01*
X76073749Y-55404923D01*
X76073749Y-55404923D01*
G37*
G36*
X69823749Y-55304923D02*
G01*
X69870626Y-55319143D01*
X69913824Y-55342233D01*
X69951691Y-55373309D01*
X69982767Y-55411176D01*
X70005857Y-55454374D01*
X70020077Y-55501251D01*
X70025000Y-55551232D01*
X70025000Y-56198768D01*
X70020077Y-56248749D01*
X70005857Y-56295626D01*
X69982767Y-56338824D01*
X69951691Y-56376691D01*
X69913824Y-56407767D01*
X69870626Y-56430857D01*
X69823749Y-56445077D01*
X69773768Y-56450000D01*
X69226232Y-56450000D01*
X69176251Y-56445077D01*
X69129374Y-56430857D01*
X69086176Y-56407767D01*
X69048309Y-56376691D01*
X69017233Y-56338824D01*
X68994143Y-56295626D01*
X68979923Y-56248749D01*
X68975000Y-56198768D01*
X68975000Y-55551232D01*
X68979923Y-55501251D01*
X68994143Y-55454374D01*
X69017233Y-55411176D01*
X69048309Y-55373309D01*
X69086176Y-55342233D01*
X69129374Y-55319143D01*
X69176251Y-55304923D01*
X69226232Y-55300000D01*
X69773768Y-55300000D01*
X69823749Y-55304923D01*
X69823749Y-55304923D01*
G37*
G36*
X68223749Y-55304923D02*
G01*
X68270626Y-55319143D01*
X68313824Y-55342233D01*
X68351691Y-55373309D01*
X68382767Y-55411176D01*
X68405857Y-55454374D01*
X68420077Y-55501251D01*
X68425000Y-55551232D01*
X68425000Y-56198768D01*
X68420077Y-56248749D01*
X68405857Y-56295626D01*
X68382767Y-56338824D01*
X68351691Y-56376691D01*
X68313824Y-56407767D01*
X68270626Y-56430857D01*
X68223749Y-56445077D01*
X68173768Y-56450000D01*
X67626232Y-56450000D01*
X67576251Y-56445077D01*
X67529374Y-56430857D01*
X67486176Y-56407767D01*
X67448309Y-56376691D01*
X67417233Y-56338824D01*
X67394143Y-56295626D01*
X67379923Y-56248749D01*
X67375000Y-56198768D01*
X67375000Y-55551232D01*
X67379923Y-55501251D01*
X67394143Y-55454374D01*
X67417233Y-55411176D01*
X67448309Y-55373309D01*
X67486176Y-55342233D01*
X67529374Y-55319143D01*
X67576251Y-55304923D01*
X67626232Y-55300000D01*
X68173768Y-55300000D01*
X68223749Y-55304923D01*
X68223749Y-55304923D01*
G37*
G36*
X71423749Y-55304923D02*
G01*
X71470626Y-55319143D01*
X71513824Y-55342233D01*
X71551691Y-55373309D01*
X71582767Y-55411176D01*
X71605857Y-55454374D01*
X71620077Y-55501251D01*
X71625000Y-55551232D01*
X71625000Y-56198768D01*
X71620077Y-56248749D01*
X71605857Y-56295626D01*
X71582767Y-56338824D01*
X71551691Y-56376691D01*
X71513824Y-56407767D01*
X71470626Y-56430857D01*
X71423749Y-56445077D01*
X71373768Y-56450000D01*
X70826232Y-56450000D01*
X70776251Y-56445077D01*
X70729374Y-56430857D01*
X70686176Y-56407767D01*
X70648309Y-56376691D01*
X70617233Y-56338824D01*
X70594143Y-56295626D01*
X70579923Y-56248749D01*
X70575000Y-56198768D01*
X70575000Y-55551232D01*
X70579923Y-55501251D01*
X70594143Y-55454374D01*
X70617233Y-55411176D01*
X70648309Y-55373309D01*
X70686176Y-55342233D01*
X70729374Y-55319143D01*
X70776251Y-55304923D01*
X70826232Y-55300000D01*
X71373768Y-55300000D01*
X71423749Y-55304923D01*
X71423749Y-55304923D01*
G37*
G36*
X66673749Y-55304923D02*
G01*
X66720626Y-55319143D01*
X66763824Y-55342233D01*
X66801691Y-55373309D01*
X66832767Y-55411176D01*
X66855857Y-55454374D01*
X66870077Y-55501251D01*
X66875000Y-55551232D01*
X66875000Y-56198768D01*
X66870077Y-56248749D01*
X66855857Y-56295626D01*
X66832767Y-56338824D01*
X66801691Y-56376691D01*
X66763824Y-56407767D01*
X66720626Y-56430857D01*
X66673749Y-56445077D01*
X66623768Y-56450000D01*
X66076232Y-56450000D01*
X66026251Y-56445077D01*
X65979374Y-56430857D01*
X65936176Y-56407767D01*
X65898309Y-56376691D01*
X65867233Y-56338824D01*
X65844143Y-56295626D01*
X65829923Y-56248749D01*
X65825000Y-56198768D01*
X65825000Y-55551232D01*
X65829923Y-55501251D01*
X65844143Y-55454374D01*
X65867233Y-55411176D01*
X65898309Y-55373309D01*
X65936176Y-55342233D01*
X65979374Y-55319143D01*
X66026251Y-55304923D01*
X66076232Y-55300000D01*
X66623768Y-55300000D01*
X66673749Y-55304923D01*
X66673749Y-55304923D01*
G37*
G36*
X72973749Y-55279923D02*
G01*
X73020626Y-55294143D01*
X73063824Y-55317233D01*
X73101691Y-55348309D01*
X73132767Y-55386176D01*
X73155857Y-55429374D01*
X73170077Y-55476251D01*
X73175000Y-55526232D01*
X73175000Y-56173768D01*
X73170077Y-56223749D01*
X73155857Y-56270626D01*
X73132767Y-56313824D01*
X73101691Y-56351691D01*
X73063824Y-56382767D01*
X73020626Y-56405857D01*
X72973749Y-56420077D01*
X72923768Y-56425000D01*
X72376232Y-56425000D01*
X72326251Y-56420077D01*
X72279374Y-56405857D01*
X72236176Y-56382767D01*
X72198309Y-56351691D01*
X72167233Y-56313824D01*
X72144143Y-56270626D01*
X72129923Y-56223749D01*
X72125000Y-56173768D01*
X72125000Y-55526232D01*
X72129923Y-55476251D01*
X72144143Y-55429374D01*
X72167233Y-55386176D01*
X72198309Y-55348309D01*
X72236176Y-55317233D01*
X72279374Y-55294143D01*
X72326251Y-55279923D01*
X72376232Y-55275000D01*
X72923768Y-55275000D01*
X72973749Y-55279923D01*
X72973749Y-55279923D01*
G37*
G36*
X74573749Y-55254923D02*
G01*
X74620626Y-55269143D01*
X74663824Y-55292233D01*
X74701691Y-55323309D01*
X74732767Y-55361176D01*
X74755857Y-55404374D01*
X74770077Y-55451251D01*
X74775000Y-55501232D01*
X74775000Y-56148768D01*
X74770077Y-56198749D01*
X74755857Y-56245626D01*
X74732767Y-56288824D01*
X74701691Y-56326691D01*
X74663824Y-56357767D01*
X74620626Y-56380857D01*
X74573749Y-56395077D01*
X74523768Y-56400000D01*
X73976232Y-56400000D01*
X73926251Y-56395077D01*
X73879374Y-56380857D01*
X73836176Y-56357767D01*
X73798309Y-56326691D01*
X73767233Y-56288824D01*
X73744143Y-56245626D01*
X73729923Y-56198749D01*
X73725000Y-56148768D01*
X73725000Y-55501232D01*
X73729923Y-55451251D01*
X73744143Y-55404374D01*
X73767233Y-55361176D01*
X73798309Y-55323309D01*
X73836176Y-55292233D01*
X73879374Y-55269143D01*
X73926251Y-55254923D01*
X73976232Y-55250000D01*
X74523768Y-55250000D01*
X74573749Y-55254923D01*
X74573749Y-55254923D01*
G37*
G36*
X65266431Y-46363023D02*
G01*
X65412216Y-46407247D01*
X65436085Y-46414487D01*
X65547046Y-46473798D01*
X65592432Y-46498057D01*
X65592434Y-46498058D01*
X65592433Y-46498058D01*
X65729475Y-46610525D01*
X65841942Y-46747567D01*
X65925513Y-46903915D01*
X65925514Y-46903919D01*
X65976977Y-47073569D01*
X65994354Y-47250000D01*
X65976977Y-47426431D01*
X65932753Y-47572216D01*
X65925513Y-47596085D01*
X65866202Y-47707046D01*
X65841943Y-47752432D01*
X65729475Y-47889475D01*
X65592432Y-48001943D01*
X65547046Y-48026202D01*
X65436085Y-48085513D01*
X65412216Y-48092753D01*
X65266431Y-48136977D01*
X65134207Y-48150000D01*
X65045793Y-48150000D01*
X64913569Y-48136977D01*
X64767784Y-48092753D01*
X64743915Y-48085513D01*
X64632954Y-48026202D01*
X64587568Y-48001943D01*
X64450525Y-47889475D01*
X64338057Y-47752432D01*
X64313798Y-47707046D01*
X64254487Y-47596085D01*
X64247247Y-47572216D01*
X64203023Y-47426431D01*
X64185646Y-47250000D01*
X64203023Y-47073569D01*
X64254486Y-46903919D01*
X64254487Y-46903915D01*
X64338058Y-46747567D01*
X64450525Y-46610525D01*
X64587567Y-46498058D01*
X64587566Y-46498058D01*
X64587568Y-46498057D01*
X64632954Y-46473798D01*
X64743915Y-46414487D01*
X64767784Y-46407247D01*
X64913569Y-46363023D01*
X65045793Y-46350000D01*
X65134207Y-46350000D01*
X65266431Y-46363023D01*
X65266431Y-46363023D01*
G37*
G36*
X72886431Y-46363023D02*
G01*
X73032216Y-46407247D01*
X73056085Y-46414487D01*
X73167046Y-46473798D01*
X73212432Y-46498057D01*
X73212434Y-46498058D01*
X73212433Y-46498058D01*
X73349475Y-46610525D01*
X73461942Y-46747567D01*
X73545513Y-46903915D01*
X73545514Y-46903919D01*
X73596977Y-47073569D01*
X73614354Y-47250000D01*
X73596977Y-47426431D01*
X73552753Y-47572216D01*
X73545513Y-47596085D01*
X73486202Y-47707046D01*
X73461943Y-47752432D01*
X73349475Y-47889475D01*
X73212432Y-48001943D01*
X73167046Y-48026202D01*
X73056085Y-48085513D01*
X73032216Y-48092753D01*
X72886431Y-48136977D01*
X72754207Y-48150000D01*
X72665793Y-48150000D01*
X72533569Y-48136977D01*
X72387784Y-48092753D01*
X72363915Y-48085513D01*
X72252954Y-48026202D01*
X72207568Y-48001943D01*
X72070525Y-47889475D01*
X71958057Y-47752432D01*
X71933798Y-47707046D01*
X71874487Y-47596085D01*
X71867247Y-47572216D01*
X71823023Y-47426431D01*
X71805646Y-47250000D01*
X71823023Y-47073569D01*
X71874486Y-46903919D01*
X71874487Y-46903915D01*
X71958058Y-46747567D01*
X72070525Y-46610525D01*
X72207567Y-46498058D01*
X72207566Y-46498058D01*
X72207568Y-46498057D01*
X72252954Y-46473798D01*
X72363915Y-46414487D01*
X72387784Y-46407247D01*
X72533569Y-46363023D01*
X72665793Y-46350000D01*
X72754207Y-46350000D01*
X72886431Y-46363023D01*
X72886431Y-46363023D01*
G37*
G36*
X70346431Y-46363023D02*
G01*
X70492216Y-46407247D01*
X70516085Y-46414487D01*
X70627046Y-46473798D01*
X70672432Y-46498057D01*
X70672434Y-46498058D01*
X70672433Y-46498058D01*
X70809475Y-46610525D01*
X70921942Y-46747567D01*
X71005513Y-46903915D01*
X71005514Y-46903919D01*
X71056977Y-47073569D01*
X71074354Y-47250000D01*
X71056977Y-47426431D01*
X71012753Y-47572216D01*
X71005513Y-47596085D01*
X70946202Y-47707046D01*
X70921943Y-47752432D01*
X70809475Y-47889475D01*
X70672432Y-48001943D01*
X70627046Y-48026202D01*
X70516085Y-48085513D01*
X70492216Y-48092753D01*
X70346431Y-48136977D01*
X70214207Y-48150000D01*
X70125793Y-48150000D01*
X69993569Y-48136977D01*
X69847784Y-48092753D01*
X69823915Y-48085513D01*
X69712954Y-48026202D01*
X69667568Y-48001943D01*
X69530525Y-47889475D01*
X69418057Y-47752432D01*
X69393798Y-47707046D01*
X69334487Y-47596085D01*
X69327247Y-47572216D01*
X69283023Y-47426431D01*
X69265646Y-47250000D01*
X69283023Y-47073569D01*
X69334486Y-46903919D01*
X69334487Y-46903915D01*
X69418058Y-46747567D01*
X69530525Y-46610525D01*
X69667567Y-46498058D01*
X69667566Y-46498058D01*
X69667568Y-46498057D01*
X69712954Y-46473798D01*
X69823915Y-46414487D01*
X69847784Y-46407247D01*
X69993569Y-46363023D01*
X70125793Y-46350000D01*
X70214207Y-46350000D01*
X70346431Y-46363023D01*
X70346431Y-46363023D01*
G37*
G36*
X67806431Y-46363023D02*
G01*
X67952216Y-46407247D01*
X67976085Y-46414487D01*
X68087046Y-46473798D01*
X68132432Y-46498057D01*
X68132434Y-46498058D01*
X68132433Y-46498058D01*
X68269475Y-46610525D01*
X68381942Y-46747567D01*
X68465513Y-46903915D01*
X68465514Y-46903919D01*
X68516977Y-47073569D01*
X68534354Y-47250000D01*
X68516977Y-47426431D01*
X68472753Y-47572216D01*
X68465513Y-47596085D01*
X68406202Y-47707046D01*
X68381943Y-47752432D01*
X68269475Y-47889475D01*
X68132432Y-48001943D01*
X68087046Y-48026202D01*
X67976085Y-48085513D01*
X67952216Y-48092753D01*
X67806431Y-48136977D01*
X67674207Y-48150000D01*
X67585793Y-48150000D01*
X67453569Y-48136977D01*
X67307784Y-48092753D01*
X67283915Y-48085513D01*
X67172954Y-48026202D01*
X67127568Y-48001943D01*
X66990525Y-47889475D01*
X66878057Y-47752432D01*
X66853798Y-47707046D01*
X66794487Y-47596085D01*
X66787247Y-47572216D01*
X66743023Y-47426431D01*
X66725646Y-47250000D01*
X66743023Y-47073569D01*
X66794486Y-46903919D01*
X66794487Y-46903915D01*
X66878058Y-46747567D01*
X66990525Y-46610525D01*
X67127567Y-46498058D01*
X67127566Y-46498058D01*
X67127568Y-46498057D01*
X67172954Y-46473798D01*
X67283915Y-46414487D01*
X67307784Y-46407247D01*
X67453569Y-46363023D01*
X67585793Y-46350000D01*
X67674207Y-46350000D01*
X67806431Y-46363023D01*
X67806431Y-46363023D01*
G37*
G36*
X63450000Y-48150000D02*
G01*
X61650000Y-48150000D01*
X61650000Y-46350000D01*
X63450000Y-46350000D01*
X63450000Y-48150000D01*
X63450000Y-48150000D01*
G37*
M02*
