G04 DipTrace 3.0.0.1*
G04 stspin32f0.GBL*
%MOIN*%
G04 #@! TF.FileFunction,Copper,L2,Bot*
G04 #@! TF.Part,Single*
G04 #@! TA.AperFunction,Conductor*
%ADD10C,0.009843*%
%ADD15C,0.012992*%
%ADD16C,0.019685*%
G04 #@! TA.AperFunction,CopperBalancing*
%ADD17C,0.025*%
G04 #@! TA.AperFunction,ComponentPad*
%ADD20C,0.062992*%
%ADD21R,0.062992X0.062992*%
%ADD24R,0.059055X0.059055*%
%ADD25C,0.059055*%
%ADD39R,0.19685X0.19685*%
G04 #@! TA.AperFunction,ViaPad*
%ADD40C,0.04*%
%FSLAX26Y26*%
G04*
G70*
G90*
G75*
G01*
G04 Bottom*
%LPD*%
X1869152Y1479625D2*
D15*
X1864235D1*
X1727249Y1342639D1*
X779896Y1222396D2*
X804172D1*
X805514Y1223739D1*
X1682965Y709568D2*
X1724362D1*
X1751959Y681971D1*
X1898392Y711215D2*
D16*
Y755967D1*
X1852777D1*
X1787824Y820920D1*
X1416269D1*
X1111122Y1790270D2*
D15*
X1121810D1*
X1143672Y1812133D1*
X1098445Y1862303D2*
X1087824D1*
X1074843Y1849322D1*
X1763846Y1515907D2*
D16*
Y1583041D1*
X1556118Y1790769D1*
X1410222D1*
X1417962Y1063163D2*
D15*
X1441249D1*
X1460612Y1043801D1*
X1804194Y1888795D2*
D16*
Y1730804D1*
X1946997Y1588001D1*
X1890772Y1300115D2*
Y1020028D1*
X1842735Y971991D1*
X1579782Y945407D2*
D15*
X1816151D1*
X1842735Y971991D1*
X1932127Y874769D2*
D16*
X1557294D1*
X978012Y1231177D2*
D15*
Y1469572D1*
X974471Y1466031D1*
X1205358Y1715845D2*
X1229634D1*
X1381003Y1564476D1*
X1563992D1*
X1624693Y1625177D1*
X1205358Y1715845D2*
X977184D1*
X868504Y1824525D1*
X795933D1*
X768286Y1796878D1*
Y1629497D1*
X924281Y1473503D1*
X967000D1*
X974471Y1466031D1*
X684018Y690736D2*
X520655D1*
X684018D2*
X762562D1*
X1017031Y945206D1*
X1923245Y1457311D2*
D16*
Y1546417D1*
X1681892Y1787770D1*
X1666663D1*
X1739899Y1059301D2*
D15*
X1828444D1*
X1830972Y1061829D1*
X1912619Y1952580D2*
D16*
X1708831D1*
X1623596Y1867345D1*
X1352723D1*
X1345215Y1874853D1*
X1153198Y1343429D2*
D15*
Y1292920D1*
X1205535Y1240583D1*
X1281430D1*
X1282822Y1239192D1*
X1293891D1*
X1300566Y1232517D1*
Y1106230D1*
X1293038D1*
X1249591Y1062782D1*
Y756462D1*
X1355618Y650434D1*
X1647885D1*
X1765513Y532806D1*
Y510925D1*
X1768938Y507500D1*
X1199769Y1191837D2*
X1116406D1*
X1094201Y1214042D1*
Y1567831D1*
X1084277Y1557907D1*
X1317879Y1467537D2*
D10*
X1189808Y1595608D1*
X903295D1*
X829660Y1669243D1*
X1264415Y1193364D2*
D15*
X1248804D1*
X1211131Y1155690D1*
X745887D1*
X619992Y1029797D1*
X602037Y842639D2*
D10*
X563639Y881037D1*
Y1063974D1*
X680094Y1180429D1*
X1009877D1*
Y1441247D1*
X1038201Y1469572D1*
X1043512Y1415617D2*
Y1196950D1*
X1052055D1*
X1056974Y1201869D1*
X1111066Y921424D2*
X980446Y790803D1*
X1239228Y1136157D2*
Y1105596D1*
X1215379Y1081747D1*
Y674022D1*
X1218576Y670825D1*
X1250593Y1284913D2*
D15*
X1205400Y1330106D1*
Y1430323D1*
X1244894Y1469816D1*
Y1459615D1*
X1312479Y1560815D2*
D10*
Y1576528D1*
X1303077Y1567126D1*
Y1548881D1*
X1229249Y1622709D1*
X976194D1*
X829660Y1769243D1*
X1421306Y2006782D2*
X1377538D1*
X1294942Y1924185D1*
Y1728066D1*
X1424558Y1598450D1*
X1709862Y1845844D2*
Y1872453D1*
X1761180Y1923770D1*
D40*
X1869152Y1479625D3*
X1727249Y1342639D3*
X779896Y1222396D3*
X1682965Y709568D3*
X1898392Y711215D3*
X1416269Y820920D3*
X1111122Y1790270D3*
X1098445Y1862303D3*
X1763846Y1515907D3*
X1410222Y1790769D3*
X1417962Y1063163D3*
X1804194Y1888795D3*
X1946997Y1588001D3*
X1890772Y1300115D3*
X1842735Y971991D3*
X1579782Y945407D3*
X1932127Y874769D3*
X1557294D3*
X978012Y1231177D3*
X974471Y1466031D3*
X1205358Y1715845D3*
X1624693Y1625177D3*
X1205358Y1715845D3*
X684018Y690736D3*
X520655D3*
X1017031Y945206D3*
X684018Y690736D3*
X1923245Y1457311D3*
X1666663Y1787770D3*
X1739899Y1059301D3*
X1830972Y1061829D3*
X1912619Y1952580D3*
X1345215Y1874853D3*
X1153198Y1343429D3*
X1199769Y1191837D3*
X1084277Y1557907D3*
X1317879Y1467537D3*
X1264415Y1193364D3*
X619992Y1029797D3*
X602037Y842639D3*
X1038201Y1469572D3*
X1043512Y1415617D3*
X1056974Y1201869D3*
X1111066Y921424D3*
X980446Y790803D3*
X1239228Y1136157D3*
X1218576Y670825D3*
X1250593Y1284913D3*
X1244894Y1459615D3*
X1312479Y1560815D3*
X1424558Y1598450D3*
X1709862Y1845844D3*
X1761180Y1923770D3*
X1959375Y1861718D3*
X1959127Y1823220D3*
X1996008Y1858980D3*
X2035000Y1859535D3*
X2073201Y1857034D3*
X2073953Y1794522D3*
X1954862Y772089D3*
X1947950Y733604D3*
X1954234Y703759D3*
X2007013Y774133D3*
X2051625Y774602D3*
X2049098Y1210290D3*
X2009213Y1206419D3*
X1980028Y1210142D3*
X1942248Y1207001D3*
X1948610Y1263785D3*
X1329808Y1302459D3*
Y1350840D3*
Y1404404D3*
X2321014Y1646343D3*
X2385092Y1643413D3*
X2444042Y1645135D3*
X2445471Y1590539D3*
X2385530Y1593470D3*
X2325005Y1594752D3*
X2325224Y1534738D3*
X2384249Y1534812D3*
X2441699Y1536240D3*
X2319953Y1103699D3*
X2372444Y1104371D3*
X2427717Y1100243D3*
X2426753Y1048134D3*
X2371861Y1048806D3*
X2319661Y1049098D3*
X2322825Y991424D3*
X2374934Y992388D3*
X2427427Y992096D3*
X2413803Y581499D3*
X2361694Y582552D3*
X2307566Y584664D3*
Y519022D3*
X2355837Y519605D3*
X2413803Y518549D3*
X1347112Y727984D3*
X1395492D3*
X1941066Y1991157D2*
D17*
X2232306D1*
X1959522Y1966289D2*
X2232306D1*
X1960255Y1941420D2*
X2232306D1*
X1944483Y1916551D2*
X2232306D1*
X1904346Y1891682D2*
X2232306D1*
X1904445Y1866814D2*
X2232306D1*
X1904542Y1841945D2*
X2232306D1*
X1904640Y1817076D2*
X2232306D1*
X1904738Y1792207D2*
X2232306D1*
X1904835Y1767339D2*
X2232306D1*
X1904933Y1742470D2*
X2232306D1*
X1905030Y1717601D2*
X2232306D1*
X1905129Y1692732D2*
X2232306D1*
X1920997Y1667864D2*
X2232306D1*
X1945850Y1642995D2*
X2232306D1*
X1984913Y1618126D2*
X2232306D1*
X1995705Y1593257D2*
X2232306D1*
X1991651Y1568388D2*
X2232306D1*
X1963038Y1543520D2*
X2232306D1*
X1962062Y1518651D2*
X2232306D1*
X1962062Y1493782D2*
X2232306D1*
X1970753Y1468913D2*
X2232306D1*
X1970314Y1444045D2*
X2232306D1*
X1952345Y1419176D2*
X2232306D1*
X1906251Y1394307D2*
X2232306D1*
X1906349Y1369438D2*
X2232306D1*
X1906886Y1344570D2*
X2232306D1*
X1935450Y1319701D2*
X2232306D1*
X1939454Y1294832D2*
X2232306D1*
X1929591Y1269963D2*
X2232306D1*
X1929591Y1245094D2*
X2232306D1*
X1929591Y1220226D2*
X2232306D1*
X1929591Y1195357D2*
X2232306D1*
X1929591Y1170488D2*
X2232306D1*
X1929591Y1145619D2*
X2232306D1*
X1929591Y1120751D2*
X2232306D1*
X1929591Y1095882D2*
X2232306D1*
X1929591Y1071013D2*
X2232306D1*
X1929591Y1046144D2*
X2232306D1*
X1929591Y1021276D2*
X2232306D1*
X1920850Y996407D2*
X2232306D1*
X1907911Y971538D2*
X2232306D1*
X1908009Y946669D2*
X2232306D1*
X1908106Y921801D2*
X2232306D1*
X1975490Y896932D2*
X2232306D1*
X1981056Y872063D2*
X2232306D1*
X1972071Y847194D2*
X2232306D1*
X1908497Y822325D2*
X2232306D1*
X1908594Y797457D2*
X2232306D1*
X1908693Y772588D2*
X2232306D1*
X1908741Y747719D2*
X2232306D1*
X1468361Y722850D2*
X2232306D1*
X1468556Y697982D2*
X2232306D1*
X1674318Y673113D2*
X2232306D1*
X1699220Y648244D2*
X2232306D1*
X1724073Y623375D2*
X2232306D1*
X1469190Y598507D2*
X1650665D1*
X1748927D2*
X2232306D1*
X1469337Y573638D2*
X1675567D1*
X1773829D2*
X2232306D1*
X1469483Y548769D2*
X1700421D1*
X1829445D2*
X2232306D1*
X1469678Y523900D2*
X1708429D1*
X1829445D2*
X2232306D1*
X1469825Y499031D2*
X1708429D1*
X1829445D2*
X2232306D1*
X1469972Y474163D2*
X1708429D1*
X1829445D2*
X2232306D1*
X1470167Y449294D2*
X2232306D1*
X1470314Y424425D2*
X2232306D1*
X1779457Y565487D2*
X1826928D1*
Y449510D1*
X1710951D1*
Y540770D1*
X1634223Y617444D1*
X1466585Y617446D1*
X1467867Y415277D1*
X1664909Y418736D1*
X1668651Y417597D1*
X1671857Y415357D1*
X1674214Y412236D1*
X1675491Y408539D1*
X1675549Y404550D1*
X1675430Y403298D1*
X2234814Y406554D1*
X2234650Y2011434D1*
X1901329Y2015858D1*
X1901425Y1997667D1*
X1908972Y1998929D1*
X1916268D1*
X1923474Y1997789D1*
X1930412Y1995534D1*
X1936912Y1992222D1*
X1942814Y1987933D1*
X1947972Y1982774D1*
X1952261Y1976873D1*
X1955573Y1970373D1*
X1957828Y1963434D1*
X1958969Y1956228D1*
Y1948933D1*
X1957828Y1941727D1*
X1955573Y1934789D1*
X1952261Y1928289D1*
X1947972Y1922387D1*
X1942814Y1917228D1*
X1936912Y1912940D1*
X1930412Y1909627D1*
X1923474Y1907373D1*
X1916268Y1906232D1*
X1908972D1*
X1901753Y1907377D1*
X1902640Y1683703D1*
X1952147Y1634238D1*
X1961365Y1632218D1*
X1968105Y1629425D1*
X1974325Y1625614D1*
X1979873Y1620875D1*
X1984612Y1615328D1*
X1988423Y1609108D1*
X1991215Y1602367D1*
X1992917Y1595274D1*
X1993490Y1588001D1*
X1992917Y1580727D1*
X1991215Y1573634D1*
X1988423Y1566894D1*
X1984612Y1560673D1*
X1979873Y1555126D1*
X1974325Y1550387D1*
X1968105Y1546576D1*
X1961365Y1543783D1*
X1959567Y1543277D1*
X1959581Y1486311D1*
X1964671Y1478419D1*
X1967463Y1471678D1*
X1969165Y1464585D1*
X1969738Y1457311D1*
X1969165Y1450038D1*
X1967463Y1442945D1*
X1964671Y1436205D1*
X1960860Y1429984D1*
X1956121Y1424437D1*
X1950573Y1419698D1*
X1944353Y1415887D1*
X1937613Y1413094D1*
X1930520Y1411392D1*
X1923245Y1410819D1*
X1915972Y1411392D1*
X1908879Y1413094D1*
X1903655Y1415189D1*
X1903953Y1344741D1*
X1911879Y1341541D1*
X1918100Y1337730D1*
X1923647Y1332991D1*
X1928386Y1327444D1*
X1932197Y1321223D1*
X1934990Y1314483D1*
X1936692Y1307390D1*
X1937264Y1300115D1*
X1936692Y1292843D1*
X1934990Y1285749D1*
X1932197Y1279009D1*
X1928386Y1272789D1*
X1927088Y1271143D1*
X1926995Y1017176D1*
X1926104Y1011545D1*
X1924341Y1006122D1*
X1921753Y1001042D1*
X1918402Y996429D1*
X1905312Y983182D1*
X1905625Y913007D1*
X1911021Y916194D1*
X1917761Y918987D1*
X1924854Y920689D1*
X1932127Y921261D1*
X1939402Y920689D1*
X1946495Y918987D1*
X1953235Y916194D1*
X1959455Y912383D1*
X1965003Y907644D1*
X1969741Y902097D1*
X1973552Y895877D1*
X1976345Y889136D1*
X1978047Y882043D1*
X1978619Y874769D1*
X1978047Y867496D1*
X1976345Y860403D1*
X1973552Y853663D1*
X1969741Y847442D1*
X1965003Y841895D1*
X1959455Y837156D1*
X1953235Y833345D1*
X1946495Y830552D1*
X1939402Y828850D1*
X1932127Y828277D1*
X1924854Y828850D1*
X1917761Y830552D1*
X1911021Y833345D1*
X1905903Y836420D1*
X1906156Y736031D1*
X1904962Y732307D1*
X1902676Y729134D1*
X1899521Y726823D1*
X1895806Y725601D1*
X1893411Y725445D1*
X1465740Y738862D1*
X1466133Y683436D1*
X1650472Y683322D1*
X1658077Y681808D1*
X1665121Y678562D1*
X1671210Y673761D1*
X1671437Y673516D1*
X1779451Y565520D1*
X2301068Y2000213D2*
X2541185D1*
X2301020Y1975344D2*
X2541185D1*
X2300971Y1950475D2*
X2541185D1*
X2300921Y1925608D2*
X2541185D1*
X2300921Y1900739D2*
X2541185D1*
X2300873Y1875870D2*
X2541185D1*
X2300824Y1851001D2*
X2541185D1*
X2300776Y1826133D2*
X2541185D1*
X2300727Y1801264D2*
X2541185D1*
X2300677Y1776395D2*
X2541185D1*
X2300677Y1751526D2*
X2541185D1*
X2300629Y1726657D2*
X2541185D1*
X2300580Y1701789D2*
X2541185D1*
X2300531Y1676920D2*
X2541185D1*
X2300483Y1652051D2*
X2541185D1*
X2300433Y1627182D2*
X2541185D1*
X2300433Y1602314D2*
X2541185D1*
X2300385Y1577445D2*
X2541185D1*
X2300336Y1552576D2*
X2541185D1*
X2300287Y1527707D2*
X2541185D1*
X2300239Y1502839D2*
X2541185D1*
X2300189Y1477970D2*
X2541185D1*
X2300189Y1453101D2*
X2541185D1*
X2300140Y1428232D2*
X2541185D1*
X2300092Y1403364D2*
X2541185D1*
X2300043Y1378495D2*
X2541185D1*
X2299995Y1353626D2*
X2541185D1*
X2299945Y1328757D2*
X2541185D1*
X2299945Y1303888D2*
X2541185D1*
X2299896Y1279020D2*
X2541185D1*
X2299848Y1254151D2*
X2541185D1*
X2299799Y1229282D2*
X2541185D1*
X2299749Y1204413D2*
X2541185D1*
X2299701Y1179545D2*
X2541185D1*
X2299701Y1154676D2*
X2541185D1*
X2299652Y1129807D2*
X2541185D1*
X2299604Y1104938D2*
X2541185D1*
X2299555Y1080070D2*
X2541185D1*
X2299505Y1055201D2*
X2541185D1*
X2299457Y1030332D2*
X2541185D1*
X2299457Y1005463D2*
X2541185D1*
X2299408Y980594D2*
X2541185D1*
X2299360Y955726D2*
X2541185D1*
X2299311Y930857D2*
X2541185D1*
X2299261Y905988D2*
X2541185D1*
X2299213Y881119D2*
X2541185D1*
X2299213Y856251D2*
X2541185D1*
X2299164Y831382D2*
X2541185D1*
X2299115Y806513D2*
X2541185D1*
X2299067Y781644D2*
X2541185D1*
X2299017Y756776D2*
X2541185D1*
X2298969Y731907D2*
X2541185D1*
X2298969Y707038D2*
X2541185D1*
X2298920Y682169D2*
X2541185D1*
X2298871Y657301D2*
X2541185D1*
X2298823Y632432D2*
X2541185D1*
X2298773Y607563D2*
X2541185D1*
X2298773Y582694D2*
X2541185D1*
X2298724Y557825D2*
X2541185D1*
X2298676Y532957D2*
X2541185D1*
X2298627Y508088D2*
X2541185D1*
X2298579Y483219D2*
X2541185D1*
X2298529Y458350D2*
X2541185D1*
X2298529Y433482D2*
X2541185D1*
X2298604Y2025110D2*
X2295976Y415445D1*
X2543696Y416773D1*
X2543669Y2024534D1*
X2298602Y2025055D1*
X448151Y2000217D2*
X1212585D1*
X448201Y1975348D2*
X1213903D1*
X448249Y1950479D2*
X1215270D1*
X448346Y1925610D2*
X1216638D1*
X448395Y1900741D2*
X1217955D1*
X448445Y1875873D2*
X1219323D1*
X448493Y1851004D2*
X773766D1*
X890681D2*
X1220642D1*
X448542Y1826135D2*
X464580D1*
X581598D2*
X748425D1*
X916022D2*
X1222009D1*
X448591Y1801266D2*
X464587D1*
X581598D2*
X733093D1*
X940875D2*
X1223865D1*
X448639Y1776398D2*
X464499D1*
X581598D2*
X732799D1*
X965778D2*
X1229626D1*
X448689Y1751529D2*
X464505D1*
X581598D2*
X732799D1*
X990631D2*
X1173034D1*
X448786Y1726660D2*
X732799D1*
X448835Y1701791D2*
X732799D1*
X448883Y1676923D2*
X732799D1*
X448933Y1652054D2*
X732799D1*
X448982Y1627185D2*
X732898D1*
X449030Y1602316D2*
X746325D1*
X449079Y1577448D2*
X771227D1*
X449127Y1552579D2*
X624499D1*
X741510D2*
X796081D1*
X894343D2*
X1035583D1*
X1132966D2*
X1185925D1*
X449226Y1527710D2*
X624499D1*
X741510D2*
X820934D1*
X919197D2*
X1046423D1*
X1129694D2*
X1210778D1*
X449274Y1502841D2*
X624499D1*
X741510D2*
X845787D1*
X1129694D2*
X1225281D1*
X1350642D2*
X1372693D1*
X449323Y1477972D2*
X624499D1*
X741510D2*
X870690D1*
X1129694D2*
X1199694D1*
X1365681D2*
X1387975D1*
X449371Y1453104D2*
X638757D1*
X727253D2*
X895543D1*
X1129694D2*
X1179039D1*
X1364558D2*
X1403210D1*
X449421Y1428235D2*
X625866D1*
X740094D2*
X942517D1*
X1129694D2*
X1169909D1*
X1345222D2*
X1649499D1*
X449470Y1403366D2*
X625866D1*
X740143D2*
X942517D1*
X1129694D2*
X1169909D1*
X1240875D2*
X1650037D1*
X449518Y1378497D2*
X638659D1*
X727350D2*
X942517D1*
X1240875D2*
X1650525D1*
X449567Y1353629D2*
X942517D1*
X1240875D2*
X1651013D1*
X449665Y1328760D2*
X942517D1*
X1268562D2*
X1651501D1*
X449714Y1303891D2*
X942517D1*
X1295514D2*
X1652038D1*
X449762Y1279022D2*
X942517D1*
X1299226D2*
X1652526D1*
X449811Y1254154D2*
X935094D1*
X1327937D2*
X1653014D1*
X449861Y1229285D2*
X929039D1*
X1336042D2*
X1653503D1*
X449909Y1204416D2*
X657311D1*
X1336042D2*
X1654039D1*
X449958Y1179547D2*
X632311D1*
X1336042D2*
X1654529D1*
X450007Y1154678D2*
X607458D1*
X1336042D2*
X1655017D1*
X450105Y1129810D2*
X582555D1*
X1336042D2*
X1655505D1*
X450154Y1104941D2*
X557702D1*
X744294D2*
X1191686D1*
X1335993D2*
X1656042D1*
X450202Y1080072D2*
X534167D1*
X719391D2*
X1181482D1*
X1323151D2*
X1656530D1*
X450251Y1055203D2*
X529723D1*
X694538D2*
X1181482D1*
X1291169D2*
X1657018D1*
X450299Y1030335D2*
X529723D1*
X669685D2*
X1181482D1*
X1285066D2*
X1633825D1*
X450349Y1005466D2*
X529723D1*
X662117D2*
X1181482D1*
X1285066D2*
X1578894D1*
X450398Y980597D2*
X529723D1*
X597517D2*
X984362D1*
X1049665D2*
X1181482D1*
X1285066D2*
X1523962D1*
X450446Y955728D2*
X529723D1*
X597517D2*
X969226D1*
X1144929D2*
X1181482D1*
X1285066D2*
X1469030D1*
X450543Y930860D2*
X529723D1*
X597517D2*
X953551D1*
X1159089D2*
X1181482D1*
X1285066D2*
X1414098D1*
X450593Y905991D2*
X529723D1*
X597517D2*
X928698D1*
X1157429D2*
X1181482D1*
X1285066D2*
X1368445D1*
X450642Y881122D2*
X529723D1*
X630622D2*
X903795D1*
X1002058D2*
X1023865D1*
X1136726D2*
X1181482D1*
X1285066D2*
X1368445D1*
X450690Y856253D2*
X541539D1*
X648982D2*
X878942D1*
X977203D2*
X999010D1*
X1092781D2*
X1181482D1*
X1285066D2*
X1368445D1*
X450739Y831385D2*
X554430D1*
X649665D2*
X854089D1*
X1067927D2*
X1181482D1*
X1285066D2*
X1368445D1*
X450787Y806516D2*
X570251D1*
X633795D2*
X829186D1*
X1043073D2*
X1181482D1*
X1285066D2*
X1368445D1*
X450837Y781647D2*
X804333D1*
X902594D2*
X932361D1*
X1028522D2*
X1181482D1*
X1285066D2*
X1368445D1*
X450886Y756778D2*
X779479D1*
X877741D2*
X946277D1*
X1014606D2*
X1181482D1*
X1298395D2*
X1368445D1*
X450983Y731909D2*
X496570D1*
X544734D2*
X659949D1*
X708113D2*
X754577D1*
X852887D2*
X1181482D1*
X1323298D2*
X1453601D1*
X451033Y707041D2*
X474597D1*
X827986D2*
X1181482D1*
X1348151D2*
X1455554D1*
X451081Y682172D2*
X472449D1*
X803131D2*
X1170983D1*
X451130Y657303D2*
X485827D1*
X555475D2*
X649206D1*
X718806D2*
X1171618D1*
X1265534D2*
X1299597D1*
X451178Y632434D2*
X1189879D1*
X1247322D2*
X1324499D1*
X451227Y607566D2*
X1463219D1*
X451277Y582697D2*
X1465123D1*
X559186Y557828D2*
X681482D1*
X798493D2*
X1286510D1*
X1313043D2*
X1341247D1*
X559186Y532959D2*
X681482D1*
X798493D2*
X1250037D1*
X559186Y508091D2*
X681482D1*
X798493D2*
X1241491D1*
X1458307D2*
X1470886D1*
X559186Y483222D2*
X681482D1*
X798493D2*
X1244811D1*
X1458307D2*
X1472790D1*
X559186Y458353D2*
X681482D1*
X798493D2*
X1263269D1*
X1458307D2*
X1474694D1*
X451618Y433484D2*
X1476647D1*
X639479Y1571759D2*
X739018D1*
Y1459719D1*
X717680D1*
X722610Y1455352D1*
X728319Y1448667D1*
X732912Y1441172D1*
X736276Y1433051D1*
X738328Y1424503D1*
X739017Y1415739D1*
X738328Y1406976D1*
X736276Y1398428D1*
X732912Y1390307D1*
X728319Y1382812D1*
X722610Y1376127D1*
X715925Y1370419D1*
X708430Y1365825D1*
X700310Y1362462D1*
X691761Y1360409D1*
X682997Y1359719D1*
X674235Y1360409D1*
X665686Y1362462D1*
X657566Y1365825D1*
X650071Y1370419D1*
X643386Y1376127D1*
X637677Y1382812D1*
X633084Y1390307D1*
X629720Y1398428D1*
X627668Y1406976D1*
X626978Y1415739D1*
X627668Y1424503D1*
X629720Y1433051D1*
X633084Y1441172D1*
X637677Y1448667D1*
X643386Y1455352D1*
X648357Y1459710D1*
X626979Y1459719D1*
Y1571759D1*
X639479D1*
X841295Y1613223D2*
X831238D1*
X937971Y1506466D1*
X951576Y1506492D1*
X960105Y1510248D1*
X967198Y1511950D1*
X974471Y1512524D1*
X981745Y1511950D1*
X988839Y1510248D1*
X995579Y1507455D1*
X1001799Y1503644D1*
X1004453Y1501551D1*
X1010874Y1507185D1*
X1017094Y1510996D1*
X1023835Y1513789D1*
X1030928Y1515491D1*
X1038201Y1516064D1*
X1045475Y1515491D1*
X1052568Y1513789D1*
X1059308Y1510996D1*
X1061238Y1509916D1*
X1061213Y1517509D1*
X1054084Y1522555D1*
X1048925Y1527714D1*
X1044636Y1533615D1*
X1041324Y1540115D1*
X1039070Y1547054D1*
X1037929Y1554260D1*
Y1561555D1*
X1038243Y1564203D1*
X900832Y1564290D1*
X893591Y1565731D1*
X886883Y1568823D1*
X881084Y1573394D1*
X880856Y1573642D1*
X841276Y1613203D1*
X1356257Y558869D2*
X1455797D1*
Y446829D1*
X1343757D1*
Y468168D1*
X1339388Y463238D1*
X1332703Y457529D1*
X1325209Y452936D1*
X1317088Y449572D1*
X1308539Y447520D1*
X1299776Y446829D1*
X1291013Y447520D1*
X1282465Y449572D1*
X1274344Y452936D1*
X1266849Y457529D1*
X1260164Y463238D1*
X1254455Y469923D1*
X1249862Y477417D1*
X1246499Y485538D1*
X1244446Y494087D1*
X1243756Y502849D1*
X1244446Y511613D1*
X1246499Y520161D1*
X1249862Y528282D1*
X1254455Y535777D1*
X1260164Y542462D1*
X1266849Y548171D1*
X1274344Y552764D1*
X1282465Y556127D1*
X1291013Y558180D1*
X1299776Y558870D1*
X1308539Y558180D1*
X1317088Y556127D1*
X1325209Y552764D1*
X1332703Y548171D1*
X1339388Y542462D1*
X1343747Y537491D1*
X1343757Y558869D1*
X1356257D1*
X448786Y562635D2*
X556676D1*
Y450596D1*
X449104D1*
X449220Y419230D1*
X1480514Y415946D1*
X1464942Y617479D1*
X1353030Y617549D1*
X1345425Y619062D1*
X1338382Y622308D1*
X1332293Y627109D1*
X1332066Y627354D1*
X1246770Y712631D1*
X1248770Y706178D1*
X1253929Y701020D1*
X1258218Y695118D1*
X1261530Y688618D1*
X1263785Y681680D1*
X1264925Y674474D1*
Y667178D1*
X1263785Y659972D1*
X1261530Y653034D1*
X1258218Y646534D1*
X1253929Y640633D1*
X1248770Y635474D1*
X1242869Y631185D1*
X1236369Y627873D1*
X1229430Y625618D1*
X1222224Y624478D1*
X1214929D1*
X1207723Y625618D1*
X1200785Y627873D1*
X1194285Y631185D1*
X1188383Y635474D1*
X1183224Y640633D1*
X1178936Y646534D1*
X1175623Y653034D1*
X1173369Y659972D1*
X1172228Y667178D1*
Y674474D1*
X1173369Y681680D1*
X1175623Y688618D1*
X1178936Y695118D1*
X1183988Y701848D1*
X1184063Y1084211D1*
X1185504Y1091453D1*
X1188596Y1098160D1*
X1193167Y1103959D1*
X1193415Y1104188D1*
X1200176Y1110967D1*
X1196276Y1118365D1*
X1194753Y1122710D1*
X759521Y1122702D1*
X666499Y1029648D1*
X665913Y1022522D1*
X664211Y1015429D1*
X661419Y1008689D1*
X657608Y1002469D1*
X652869Y996921D1*
X647322Y992182D1*
X641101Y988371D1*
X634361Y985579D1*
X627268Y983877D1*
X619993Y983304D1*
X612720Y983877D1*
X605627Y985579D1*
X598887Y988371D1*
X595050Y990591D1*
X595054Y894003D1*
X602037Y889131D1*
X609311Y888559D1*
X616404Y886857D1*
X623144Y884064D1*
X629365Y880253D1*
X634912Y875514D1*
X639651Y869967D1*
X643462Y863747D1*
X646255Y857007D1*
X647957Y849913D1*
X648529Y842639D1*
X647957Y835366D1*
X646255Y828273D1*
X643462Y821533D1*
X639651Y815312D1*
X634912Y809765D1*
X629365Y805026D1*
X623144Y801215D1*
X616404Y798423D1*
X609311Y796720D1*
X602037Y796147D1*
X594764Y796720D1*
X587671Y798423D1*
X580930Y801215D1*
X574710Y805026D1*
X569163Y809765D1*
X564424Y815312D1*
X560613Y821533D1*
X557820Y828273D1*
X556118Y835366D1*
X555545Y842639D1*
X555625Y844648D1*
X539753Y860636D1*
X535650Y866776D1*
X533094Y873703D1*
X532226Y881037D1*
X532240Y881374D1*
X532323Y1066438D1*
X533764Y1073680D1*
X536856Y1080387D1*
X541427Y1086186D1*
X541675Y1086415D1*
X659694Y1204315D1*
X665833Y1208419D1*
X672761Y1210974D1*
X680094Y1211843D1*
X680432Y1211829D1*
X935710Y1211843D1*
X932804Y1220323D1*
X931664Y1227529D1*
Y1234824D1*
X932804Y1242030D1*
X935059Y1248969D1*
X938371Y1255469D1*
X942660Y1261370D1*
X945031Y1263936D1*
X945024Y1430054D1*
X939119Y1435837D1*
X935647Y1440517D1*
X921693Y1440617D1*
X914088Y1442130D1*
X907045Y1445377D1*
X900955Y1450177D1*
X900728Y1450423D1*
X743202Y1608073D1*
X738894Y1614521D1*
X736210Y1621797D1*
X735298Y1629497D1*
X735311Y1629832D1*
X735400Y1799467D1*
X736913Y1807072D1*
X740160Y1814115D1*
X744961Y1820205D1*
X745206Y1820432D1*
X774509Y1849610D1*
X780957Y1853919D1*
X788232Y1856602D1*
X795933Y1857514D1*
X796268Y1857501D1*
X871093Y1857412D1*
X878698Y1855899D1*
X885741Y1852652D1*
X891831Y1847852D1*
X892058Y1847606D1*
X990888Y1748795D1*
X1172643Y1748835D1*
X1178031Y1753459D1*
X1184252Y1757270D1*
X1190992Y1760063D1*
X1198085Y1761765D1*
X1205358Y1762337D1*
X1212633Y1761765D1*
X1219726Y1760063D1*
X1226466Y1757270D1*
X1232686Y1753459D1*
X1238631Y1748291D1*
X1225655Y1805348D1*
X1214051Y2019043D1*
X445598Y2024988D1*
X448836Y562664D1*
X696471Y562951D2*
X796010D1*
Y450912D1*
X683971D1*
Y562951D1*
X696471D1*
X479542Y1840314D2*
X579081D1*
Y1728274D1*
X467042D1*
Y1840314D1*
X479542D1*
X1172600Y1748827D2*
X1178031Y1753459D1*
X1184252Y1757270D1*
X1190992Y1760063D1*
X1198085Y1761765D1*
X1205358Y1762337D1*
X1212633Y1761765D1*
X1219726Y1760063D1*
X1226466Y1757270D1*
X1232686Y1753459D1*
X1238631Y1748291D1*
X716778Y657755D2*
X711346Y653122D1*
X705126Y649311D1*
X698386Y646518D1*
X691293Y644816D1*
X684018Y644244D1*
X676745Y644816D1*
X669652Y646518D1*
X662912Y649311D1*
X656692Y653122D1*
X651256Y657747D1*
X553404D1*
X547983Y653122D1*
X541762Y649311D1*
X535022Y646518D1*
X527929Y644816D1*
X520655Y644244D1*
X513382Y644816D1*
X506289Y646518D1*
X499549Y649311D1*
X493328Y653122D1*
X487781Y657861D1*
X483042Y663408D1*
X479231Y669629D1*
X476438Y676369D1*
X474736Y683462D1*
X474163Y690736D1*
X474736Y698009D1*
X476438Y705102D1*
X479231Y711843D1*
X483042Y718063D1*
X487781Y723610D1*
X493328Y728349D1*
X499549Y732160D1*
X506289Y734953D1*
X513382Y736655D1*
X520655Y737228D1*
X527929Y736655D1*
X535022Y734953D1*
X541762Y732160D1*
X547983Y728349D1*
X553415Y723717D1*
X651270Y723724D1*
X656692Y728349D1*
X662912Y732160D1*
X669652Y734953D1*
X676745Y736655D1*
X684018Y737228D1*
X691293Y736655D1*
X698386Y734953D1*
X705126Y732160D1*
X711346Y728349D1*
X716778Y723717D1*
X748912Y723724D1*
X970529Y945356D1*
X971113Y952480D1*
X972815Y959573D1*
X975608Y966314D1*
X979419Y972534D1*
X984157Y978081D1*
X989705Y982820D1*
X995925Y986631D1*
X1002665Y989424D1*
X1009759Y991126D1*
X1017031Y991698D1*
X1024306Y991126D1*
X1031399Y989424D1*
X1038139Y986631D1*
X1044360Y982820D1*
X1049907Y978081D1*
X1054646Y972534D1*
X1058457Y966314D1*
X1061249Y959573D1*
X1062951Y952480D1*
X1063524Y945206D1*
X1062951Y937933D1*
X1061249Y930840D1*
X1058457Y924100D1*
X1054646Y917879D1*
X1049907Y912332D1*
X1044360Y907593D1*
X1038139Y903782D1*
X1031399Y900990D1*
X1024306Y899287D1*
X1017189Y898720D1*
X783986Y665651D1*
X777537Y661343D1*
X770262Y658659D1*
X762560Y657747D1*
X762227Y657760D1*
X716810Y657747D1*
X711346Y653122D1*
X705126Y649311D1*
X698386Y646518D1*
X691293Y644816D1*
X684018Y644244D1*
X676745Y644816D1*
X669652Y646518D1*
X662912Y649311D1*
X656692Y653122D1*
X651260Y657755D1*
X1321668Y1258067D2*
X1327255Y1251907D1*
X1331043Y1245140D1*
X1333148Y1237677D1*
X1333555Y1232517D1*
X1333453Y1103642D1*
X1331940Y1096037D1*
X1328693Y1088993D1*
X1323892Y1082904D1*
X1317803Y1078104D1*
X1310760Y1074857D1*
X1307881Y1074076D1*
X1282564Y1049102D1*
X1282580Y770155D1*
X1369281Y683425D1*
X1459867Y683424D1*
X1454833Y748633D1*
X1380428Y755223D1*
X1376827Y756748D1*
X1373873Y759311D1*
X1371856Y762661D1*
X1370972Y766472D1*
X1371096Y904088D1*
X1372304Y907807D1*
X1374602Y910971D1*
X1377766Y913269D1*
X1659811Y1040975D1*
X1651881Y1435245D1*
X1419933Y1438085D1*
X1416228Y1439337D1*
X1413091Y1441672D1*
X1411375Y1443874D1*
X1353304Y1538571D1*
X1350093Y1533488D1*
X1345354Y1527941D1*
X1339807Y1523202D1*
X1333587Y1519391D1*
X1326846Y1516598D1*
X1319753Y1514896D1*
X1315373Y1514437D1*
X1325154Y1513455D1*
X1332247Y1511753D1*
X1338987Y1508961D1*
X1345207Y1505150D1*
X1350755Y1500411D1*
X1355493Y1494864D1*
X1359304Y1488643D1*
X1362097Y1481903D1*
X1363799Y1474810D1*
X1364371Y1467537D1*
X1363799Y1460262D1*
X1362097Y1453169D1*
X1359304Y1446429D1*
X1355493Y1440209D1*
X1350755Y1434661D1*
X1345207Y1429923D1*
X1338987Y1426112D1*
X1332247Y1423319D1*
X1325154Y1421617D1*
X1317879Y1421045D1*
X1310606Y1421617D1*
X1303513Y1423319D1*
X1296773Y1426112D1*
X1290552Y1429923D1*
X1284472Y1435238D1*
X1280247Y1429423D1*
X1275088Y1424264D1*
X1269186Y1419975D1*
X1262686Y1416663D1*
X1255748Y1414408D1*
X1248542Y1413268D1*
X1241247D1*
X1238371Y1413608D1*
X1238390Y1343751D1*
X1250720Y1331438D1*
X1257866Y1330833D1*
X1264959Y1329131D1*
X1271699Y1326339D1*
X1277920Y1322528D1*
X1283467Y1317789D1*
X1288206Y1312241D1*
X1292017Y1306021D1*
X1294810Y1299281D1*
X1296512Y1292188D1*
X1297085Y1284913D1*
X1296512Y1277640D1*
X1295255Y1272126D1*
X1301593Y1271268D1*
X1308869Y1268584D1*
X1315316Y1264276D1*
X1321668Y1258067D1*
X1127188Y1381921D2*
X1132092Y1384853D1*
X1138832Y1387646D1*
X1145925Y1389348D1*
X1153198Y1389921D1*
X1160472Y1389348D1*
X1167566Y1387646D1*
X1172428Y1385719D1*
X1172514Y1432912D1*
X1174028Y1440517D1*
X1177274Y1447560D1*
X1182075Y1453650D1*
X1182320Y1453877D1*
X1199925Y1471500D1*
X1201941Y1477408D1*
X1205253Y1483908D1*
X1209542Y1489810D1*
X1214701Y1494969D1*
X1220602Y1499257D1*
X1227102Y1502570D1*
X1234041Y1504824D1*
X1235818Y1505177D1*
X1176791Y1564199D1*
X1130386Y1564193D1*
X1130626Y1554260D1*
X1129486Y1547054D1*
X1127177Y1539999D1*
X1127190Y1381942D1*
X1109076Y875008D2*
X1026902Y792833D1*
X1026366Y783530D1*
X1024664Y776437D1*
X1021871Y769697D1*
X1018060Y763476D1*
X1013322Y757929D1*
X1007774Y753190D1*
X1001554Y749379D1*
X994814Y746587D1*
X987720Y744885D1*
X980446Y744311D1*
X973173Y744885D1*
X966080Y746587D1*
X959340Y749379D1*
X953119Y753190D1*
X947572Y757929D1*
X942833Y763476D1*
X939022Y769697D1*
X936230Y776437D1*
X934528Y783530D1*
X933954Y790803D1*
X934528Y798077D1*
X936230Y805171D1*
X939022Y811911D1*
X942833Y818131D1*
X947572Y823678D1*
X953119Y828417D1*
X959340Y832228D1*
X966080Y835021D1*
X973173Y836723D1*
X980446Y837297D1*
X982455Y837217D1*
X1064612Y919394D1*
X1065147Y928697D1*
X1066849Y935790D1*
X1069642Y942530D1*
X1073453Y948751D1*
X1078192Y954298D1*
X1083739Y959037D1*
X1089959Y962848D1*
X1096699Y965640D1*
X1103793Y967343D1*
X1111066Y967916D1*
X1118340Y967343D1*
X1125433Y965640D1*
X1132173Y962848D1*
X1138394Y959037D1*
X1143941Y954298D1*
X1148680Y948751D1*
X1152491Y942530D1*
X1155283Y935790D1*
X1156986Y928697D1*
X1157558Y921424D1*
X1156986Y914150D1*
X1155283Y907056D1*
X1152491Y900316D1*
X1148680Y894096D1*
X1143941Y888549D1*
X1138394Y883810D1*
X1132173Y879999D1*
X1125433Y877206D1*
X1118340Y875504D1*
X1111066Y874932D1*
X1109058Y875010D1*
D20*
X1518938Y507500D3*
D21*
X1768938D3*
D24*
X682997Y1515739D3*
D25*
Y1415739D3*
D24*
X829660Y1669243D3*
D25*
Y1769243D3*
D24*
X1399776Y502849D3*
D25*
X1299776D3*
X1199776D3*
D24*
X500655Y506615D3*
D25*
X600655D3*
D24*
X739990Y506933D3*
D25*
X839990D3*
D24*
X523060Y1784294D3*
D25*
X623060D3*
D24*
X1521306Y2006782D3*
D25*
X1421306D3*
D39*
X2023743Y502112D3*
X2541343Y507676D3*
M02*
