M48
INCH
T01C0.0191
T02C0.0354
T03C0.0394
%
T01
X+019594Y+018617
X+019960Y+018590
X+020350Y+018595
X+020732Y+018570
X+020740Y+017945
X+019591Y+018232
X+019126Y+019526
X+018042Y+018888
X+017612Y+019238
X+017099Y+018458
X+016667Y+017878
X+016247Y+016252
X+017638Y+015159
X+018692Y+014796
X+019232Y+014573
X+019470Y+015880
X+018908Y+013001
X+019486Y+012638
X+019422Y+012070
X+019800Y+012101
X+020092Y+012064
X+020491Y+012103
X+018310Y+010618
X+018427Y+009720
X+019321Y+008748
X+019549Y+007721
X+019480Y+007336
X+019542Y+007038
X+018984Y+007112
X+020070Y+007741
X+020516Y+007746
X+023076Y+005847
X+023617Y+005826
X+024138Y+005815
X+024138Y+005185
X+023558Y+005196
X+023076Y+005190
X+023228Y+009914
X+023749Y+009924
X+024274Y+009921
X+024268Y+010481
X+024277Y+011002
X+023724Y+011044
X+023200Y+011037
X+023197Y+010491
X+023719Y+010488
X+023842Y+015348
X+024417Y+015362
X+024455Y+015905
X+024440Y+016451
X+023851Y+016434
X+023855Y+015935
X+023250Y+015948
X+023210Y+016463
X+023252Y+015347
X+017272Y+013426
X+017399Y+010593
X+015798Y+009454
X+015573Y+008748
X+014163Y+008209
X+013955Y+007280
X+013471Y+007280
X+012186Y+006708
X+009804Y+007908
X+010170Y+009452
X+011111Y+009214
X+012392Y+011362
X+012644Y+011934
X+011998Y+011918
X+012506Y+012849
X+013298Y+013025
X+013298Y+013508
X+013298Y+014044
X+013179Y+014675
X+012449Y+014596
X+013125Y+015608
X+014246Y+015985
X+014102Y+017908
X+013452Y+018749
X+012054Y+017158
X+011111Y+017903
X+010984Y+018623
X+010843Y+015579
X+010382Y+014696
X+010435Y+014156
X+009745Y+014660
X+011532Y+013434
X+010570Y+012019
X+009780Y+012312
X+007799Y+012224
X+006200Y+010298
X+006020Y+008426
X+005207Y+006907
X+006840Y+006907
X+014180Y+010632
X+016830Y+007096
T02
X+006830Y+015157
X+006830Y+014157
X+008297Y+016692
X+008297Y+017692
X+006231Y+017843
X+005231Y+017843
X+014213Y+020068
X+015213Y+020068
X+013998Y+005028
X+012998Y+005028
X+011998Y+005028
X+008400Y+005069
X+007400Y+005069
X+006007Y+005066
X+005007Y+005066
T03
X+015189Y+005075
X+017689Y+005075
T00
M30
