G04 DipTrace 3.0.0.1*
G04 stspin32f0.GTS*
%MOIN*%
G04 #@! TF.FileFunction,Soldermask,Top*
G04 #@! TF.Part,Single*
%ADD47R,0.204882X0.204882*%
%ADD49R,0.126142X0.126142*%
%ADD51O,0.019843X0.041496*%
%ADD53O,0.041496X0.019843*%
%ADD55R,0.134016X0.078898*%
%ADD57R,0.047402X0.051339*%
%ADD59R,0.189134X0.193071*%
%ADD61R,0.053307X0.035591*%
%ADD63R,0.193071X0.189134*%
%ADD65R,0.035591X0.053307*%
%ADD67R,0.114331X0.053307*%
%ADD69C,0.067087*%
%ADD71R,0.067087X0.067087*%
%ADD73R,0.078898X0.071024*%
%ADD75R,0.051339X0.047402*%
%ADD77R,0.071024X0.071024*%
%ADD79C,0.071024*%
%ADD81R,0.067087X0.059213*%
%ADD83R,0.059213X0.067087*%
%FSLAX26Y26*%
G04*
G70*
G90*
G75*
G01*
G04 TopMask*
%LPD*%
D83*
X800076Y1511046D3*
X874879D3*
D81*
X1558913Y1170463D3*
Y1095660D3*
D83*
X1606228Y1349971D3*
X1681031D3*
X1527150Y1497001D3*
X1601953D3*
X805025Y1431672D3*
X879828D3*
X1020445Y1536675D3*
X945642D3*
X953972Y1089406D3*
X879169D3*
D81*
X562297Y1430350D3*
Y1505154D3*
D83*
X974037Y946835D3*
X899234D3*
D79*
X1518938Y507500D3*
D77*
X1768938D3*
D83*
X557198Y1675491D3*
X632001D3*
D75*
X1013825Y1715135D3*
X946896D3*
X1402083Y1710168D3*
X1335154D3*
X1159946Y1059147D3*
X1226875D3*
D83*
X1616715Y885728D3*
X1691518D3*
X656265Y1115089D3*
X731068D3*
X585088Y793559D3*
X510285D3*
X820606Y779794D3*
X745803D3*
X1233841Y647992D3*
X1159038D3*
D73*
X836437Y1290646D3*
Y1180409D3*
D83*
X731328Y1020550D3*
X656525D3*
D81*
X1483672Y714945D3*
Y789748D3*
D71*
X682997Y1515739D3*
D69*
Y1415739D3*
D71*
X829660Y1669243D3*
D69*
Y1769243D3*
D71*
X1399776Y502849D3*
D69*
X1299776D3*
X1199776D3*
D71*
X500655Y506615D3*
D69*
X600655D3*
D71*
X739990Y506933D3*
D69*
X839990D3*
D71*
X523060Y1784294D3*
D69*
X623060D3*
D67*
X956366Y1179312D3*
Y1297423D3*
D65*
X2457824Y1197499D3*
X2407824Y1197479D3*
X2357824D3*
X2307824D3*
D63*
X2382824Y1043139D3*
D61*
X2199151Y1416738D3*
X2199171Y1366738D3*
Y1316738D3*
Y1266738D3*
D59*
X2353510Y1341738D3*
D65*
X2466374Y1740559D3*
X2416374Y1740539D3*
X2366374D3*
X2316374D3*
D63*
X2391374Y1586199D3*
D61*
X2194974Y1979454D3*
X2194993Y1929454D3*
Y1879454D3*
Y1829454D3*
D59*
X2349333Y1904454D3*
D65*
X2429848Y675346D3*
X2379848Y675327D3*
X2329848D3*
X2279848D3*
D63*
X2354848Y520987D3*
D61*
X2184009Y901810D3*
X2184029Y851810D3*
Y801810D3*
Y751810D3*
D59*
X2338369Y826810D3*
D83*
X2059386Y1623547D3*
X2134189D3*
X2114352Y1727573D3*
X2189155D3*
X2003875Y534514D3*
X2078678D3*
X2080042Y615339D3*
X2154845D3*
X599916Y684516D3*
X525113D3*
X822789Y698377D3*
X747986D3*
X527320Y601626D3*
X602123D3*
D57*
X2142675Y1896743D3*
Y1829814D3*
D83*
X751713Y603134D3*
X826516D3*
X1958546Y1091919D3*
X2033349D3*
D57*
X1418640Y639932D3*
Y573003D3*
D83*
X1196386Y1868014D3*
X1271189D3*
X1111122Y1790270D3*
X1185925D3*
X2114828Y1183151D3*
X2189631D3*
X1112618Y1682610D3*
X1187421D3*
D57*
X2124106Y1340429D3*
Y1273500D3*
D55*
X2003486Y1770122D3*
Y1990594D3*
D57*
X2118946Y821251D3*
Y754322D3*
D83*
X944650Y1633017D3*
X1019453D3*
D81*
X1013060Y1850465D3*
Y1775661D3*
D55*
X2003969Y1220786D3*
Y1441259D3*
X2002739Y711215D3*
Y931688D3*
D83*
X1562560Y1823451D3*
X1637364D3*
X1487129Y1741180D3*
X1561932D3*
X1551538Y1659079D3*
X1626341D3*
D81*
X1268614Y1737333D3*
Y1662530D3*
D83*
X1404841Y1795594D3*
X1330038D3*
X1424249Y933010D3*
X1499052D3*
X1417962Y1063163D3*
X1343159D3*
D81*
X1347827Y976953D3*
Y902150D3*
D83*
X1226429Y983904D3*
X1151626D3*
X1257882Y902052D3*
X1183079D3*
D81*
X1846790Y1963598D3*
Y1888795D3*
X1883467Y1423427D3*
Y1348623D3*
X1874165Y891568D3*
Y816765D3*
D83*
X1643390Y794566D3*
X1568587D3*
X650810Y1313340D3*
X725613D3*
X724865Y1212772D3*
X650062D3*
D53*
X1113155Y1481224D3*
Y1461539D3*
Y1441854D3*
Y1422169D3*
Y1402484D3*
Y1382799D3*
Y1363114D3*
Y1343429D3*
Y1323744D3*
Y1304059D3*
Y1284374D3*
Y1264689D3*
D51*
X1140714Y1237130D3*
X1160399D3*
X1180084D3*
X1199769D3*
X1219454D3*
X1239139D3*
X1258824D3*
X1278509D3*
X1298194D3*
X1317879D3*
X1337564D3*
X1357249D3*
D53*
X1384808Y1264689D3*
Y1284374D3*
Y1304059D3*
Y1323744D3*
Y1343429D3*
Y1363114D3*
Y1382799D3*
Y1402484D3*
Y1422169D3*
Y1441854D3*
Y1461539D3*
X1384814Y1481224D3*
D51*
X1357249Y1508783D3*
X1337564D3*
X1317879D3*
X1298194D3*
X1278509D3*
X1258824D3*
X1239139D3*
X1219454D3*
X1199769D3*
X1180084D3*
X1160399D3*
X1140714D3*
D49*
X1248984Y1372957D3*
D71*
X1521306Y2006782D3*
D69*
X1421306D3*
D47*
X2559291Y1899825D3*
X2559860Y821419D3*
X2563297Y1340029D3*
M02*
