G04 DipTrace 3.0.0.1*
G04 stspin32f0.GTL*
%MOIN*%
G04 #@! TF.FileFunction,Copper,L1,Top*
G04 #@! TF.Part,Single*
G04 #@! TA.AperFunction,Conductor*
%ADD10C,0.009843*%
%ADD14C,0.011811*%
%ADD15C,0.012992*%
%ADD16C,0.019685*%
G04 #@! TA.AperFunction,CopperBalancing*
%ADD17C,0.025*%
%ADD18R,0.051181X0.059055*%
%ADD19R,0.059055X0.051181*%
G04 #@! TA.AperFunction,ComponentPad*
%ADD20C,0.062992*%
%ADD21R,0.062992X0.062992*%
%ADD22R,0.043307X0.03937*%
%ADD23R,0.070866X0.062992*%
G04 #@! TA.AperFunction,ComponentPad*
%ADD24R,0.059055X0.059055*%
%ADD25C,0.059055*%
%ADD26R,0.106299X0.045276*%
%ADD28R,0.027559X0.045276*%
%ADD29R,0.185039X0.181102*%
%ADD31R,0.045276X0.027559*%
%ADD32R,0.181102X0.185039*%
%ADD33R,0.03937X0.043307*%
%ADD34R,0.125984X0.070866*%
%ADD36O,0.033465X0.011811*%
%ADD37O,0.011811X0.033465*%
%ADD38R,0.11811X0.11811*%
%ADD39R,0.19685X0.19685*%
G04 #@! TA.AperFunction,ViaPad*
%ADD40C,0.04*%
%FSLAX26Y26*%
G04*
G70*
G90*
G75*
G01*
G04 Top*
%LPD*%
X1384808Y1363114D2*
D14*
X1473178D1*
D15*
X1533713Y1302580D1*
X1660634D1*
X1681031Y1322978D1*
Y1349971D1*
X2353510Y1341738D2*
Y1348832D1*
X2200190Y1502152D1*
X1891680D1*
X1869152Y1479625D1*
X1727249Y1342639D2*
X1688364D1*
X1681031Y1349971D1*
X523060Y1784294D2*
Y1709629D1*
X557198Y1675491D1*
X1113155Y1363114D2*
D10*
X786299D1*
X746341Y1403072D1*
Y1451105D1*
X733360Y1464087D1*
X632042D1*
X614766Y1481362D1*
Y1607853D1*
X557199Y1665420D1*
X538871Y1683748D1*
X557198Y1675491D2*
D15*
X557199Y1665420D1*
X879169Y1089406D2*
Y1137677D1*
X836437Y1180409D1*
X724865Y1212772D2*
Y1222396D1*
X779896D1*
X1691518Y885728D2*
Y718122D1*
X1682965Y709568D1*
X2002739Y711215D2*
D16*
X1898392D1*
X1416269Y820920D2*
X1411087Y826102D1*
X1331605D1*
X1257882Y899825D1*
Y902052D1*
X1278509Y1237130D2*
D14*
Y1260357D1*
D15*
Y1268126D1*
X1303354Y1292971D1*
X1320320D1*
X1329808Y1302459D1*
X1959127Y1823220D2*
D16*
Y1817165D1*
X1806598D1*
X1676490Y1947274D1*
X1127636D1*
X1037730Y1857367D1*
D15*
X1032853D1*
X1025656Y1850171D1*
X1013354D1*
X1013060Y1850465D1*
X1111122Y1790270D2*
D3*
X1487129Y1741180D2*
Y1870152D1*
X1443051Y1914230D1*
X1150371D1*
X1098445Y1862303D1*
X1487129Y1752710D2*
D16*
Y1741180D1*
X1942248Y1207001D2*
X1894088D1*
X1807563Y1293526D1*
Y1327738D1*
X1792357Y1342944D1*
Y1487396D1*
X1763846Y1515907D1*
X1410222Y1790769D2*
D15*
Y1800975D1*
X1404841Y1795594D1*
X1219454Y1508783D2*
D14*
Y1486344D1*
D15*
X1191571Y1458461D1*
X1417962Y1063163D2*
D3*
X1846790Y1888795D2*
D16*
X1804194D1*
X1946997Y1588001D2*
X1895171Y1536175D1*
X1851873D1*
X1823970Y1508272D1*
Y1366156D1*
X1841503Y1348623D1*
X1883467D1*
Y1307420D1*
X1890772Y1300115D1*
X1842735Y971991D2*
X1846189D1*
X1818543Y944345D1*
Y844127D1*
X1845906Y816765D1*
X1874165D1*
X1357249Y1237130D2*
D14*
Y1222917D1*
D15*
X1473486Y1106681D1*
Y1051703D1*
X1579782Y945407D1*
Y922661D1*
X1616715Y885728D1*
Y821240D1*
X1643390Y794566D1*
X1874165Y891568D2*
D16*
X1932127D1*
Y874769D1*
X1557294D2*
X1499052Y933010D1*
X1874165Y891568D2*
D15*
X1962619D1*
X2002739Y931688D1*
X2008509D1*
X2118946Y821251D1*
X2134189Y1623547D2*
X2224542D1*
X2264576Y1663581D1*
Y1695769D1*
X2309346Y1740539D1*
X2316374D1*
X800076Y1511046D2*
Y1436621D1*
X805025Y1431672D1*
D10*
Y1400016D1*
X824934Y1380106D1*
X1076963D1*
X1079656Y1382799D1*
X1113155D1*
X682997Y1515739D2*
D15*
X707635D1*
X723886Y1499488D1*
X778466D1*
X790024Y1511046D1*
X800076D1*
X2189155Y1727573D2*
Y1823615D1*
X2194993Y1829454D1*
X2142675Y1829814D2*
X2194634D1*
X2194993Y1829454D1*
X1140714Y1508783D2*
D14*
X1128312D1*
D15*
X1048336D1*
X1020445Y1536675D1*
X1113155Y1304059D2*
D14*
X1084039D1*
D15*
X1003451Y1223471D1*
Y1184218D1*
X961272D1*
X956366Y1179312D1*
X953972Y1089406D2*
Y1176919D1*
X956366Y1179312D1*
Y1209531D1*
X978012Y1231177D1*
X974471Y1466031D2*
Y1461310D1*
X1002795Y1489634D1*
Y1519025D1*
X1020445Y1536675D1*
X1187421Y1682610D2*
Y1697908D1*
X1205358Y1715845D1*
X1624693Y1625177D2*
Y1657430D1*
X1626341Y1659079D1*
X956366Y1179312D2*
X1007219D1*
X1012875Y1184969D1*
Y1020550D1*
Y959192D1*
X1194975Y777092D1*
X1483672D1*
X1551113D1*
X1568587Y794566D1*
Y777722D1*
X1525457D1*
X1435606Y867572D1*
X1366676D1*
X1342303Y891945D1*
Y896626D1*
X1347827Y902150D1*
X731328Y1020550D2*
X1012875D1*
X974037Y946835D2*
X1006751D1*
X1012875Y952959D1*
Y959192D1*
X747986Y698377D2*
X691659D1*
X684018Y690736D1*
X520655D2*
Y688974D1*
X525113Y684516D1*
X1017031Y945206D2*
X975665D1*
X974037Y946835D1*
X1483672Y789748D2*
Y777092D1*
X1399776Y502849D2*
Y476367D1*
X1427155Y448988D1*
X1533971D1*
X1584236Y499253D1*
Y706668D1*
X1568587Y722318D1*
Y794566D1*
X1384814Y1481224D2*
D14*
X1402794D1*
X1469795Y1548226D1*
X1669398D1*
X1828346Y1707175D1*
X2114352D1*
Y1727573D1*
X1384808Y1422169D2*
X1617697D1*
X1819075Y1623547D1*
X2059386D1*
X1384808Y1461539D2*
X1518612D1*
X1527150Y1470077D1*
Y1497001D1*
X1384808Y1441854D2*
X1546806D1*
X1601953Y1497001D1*
D15*
X1659576D1*
X1825291Y1662717D1*
X2009657D1*
X2024864Y1677923D1*
X2223127D1*
X2237332Y1692127D1*
Y1792453D1*
X2349333Y1904454D1*
X1483672Y714945D2*
Y683505D1*
X1427014Y626848D1*
X1418640D1*
Y639932D1*
X1883467Y1423427D2*
D16*
Y1434762D1*
X1900697D1*
X1923245Y1457311D1*
X1666663Y1787770D2*
X1637364Y1817070D1*
Y1823451D1*
X1883467Y1423427D2*
D15*
X1986136D1*
X2003969Y1441259D1*
X2078678Y534514D2*
X2197618D1*
X2220547Y557444D1*
Y641073D1*
X2260461Y680987D1*
X2274188D1*
X2279848Y675327D1*
X2154845Y615339D2*
Y722626D1*
X2184029Y751810D1*
X2118946Y754322D2*
X2181517D1*
X2184029Y751810D1*
X500655Y506615D2*
Y574961D1*
X527320Y601626D1*
X1384808Y1402484D2*
D14*
X1735803D1*
X1765238Y1373050D1*
Y1264507D1*
X1881266Y1148478D1*
X2117841D1*
Y1180138D1*
X2114828Y1183151D1*
X1384808Y1284374D2*
X1409530D1*
X1504810Y1189094D1*
Y1149764D1*
X1558913Y1095660D1*
D15*
X1703539D1*
X1739899Y1059301D1*
X1830972Y1061829D2*
X1843621D1*
X1913062Y992388D1*
X2172790D1*
X2338369Y826810D1*
X1384808Y1264689D2*
Y1233255D1*
X1507713Y1110350D1*
Y1064735D1*
X1560932Y1011516D1*
X1678472D1*
X1741307Y948681D1*
Y699077D1*
X1912222Y528163D1*
X1997524D1*
X2003875Y534514D1*
X1384808Y1323744D2*
D14*
X1438609D1*
X1512781Y1249572D1*
X1617558D1*
X1781222Y1085908D1*
Y726551D1*
X1896671Y611102D1*
X2075806D1*
X2080042Y615339D1*
X2003486Y1990594D2*
D15*
Y1963598D1*
X1846790D1*
D16*
X1947982D1*
X1951146Y1960434D1*
X1912619D1*
Y1952580D1*
X1345215Y1874853D2*
X1338378Y1868014D1*
X1271189D1*
X944650Y1633017D2*
D10*
Y1712888D1*
X946896Y1715135D1*
X1013060Y1775661D2*
X1004201D1*
X943675Y1715135D1*
X946896D1*
X1180084Y1508783D2*
Y1537650D1*
X1070091Y1647643D1*
Y1728476D1*
X1044297Y1754270D1*
X976231D1*
X997622Y1775661D1*
X1013060D1*
X1199769Y1508783D2*
D14*
Y1563911D1*
X1121958Y1641722D1*
Y1682610D1*
X1112618D1*
X1185925Y1790270D2*
D10*
Y1755636D1*
X1112899Y1682610D1*
X1112618D1*
X1196386Y1868014D2*
D15*
Y1800731D1*
X1185925Y1790270D1*
X1113155Y1343429D2*
D14*
X1136383D1*
D15*
X1153198D1*
X682997Y1415739D2*
D10*
X756680Y1342056D1*
X1029192D1*
X1026542Y1344706D1*
X1111878D1*
X1113155Y1343429D1*
X725613Y1313340D2*
D15*
Y1373123D1*
X682997Y1415739D1*
X562297Y1430350D2*
X668386D1*
X682997Y1415739D1*
X1384808Y1382799D2*
D14*
X1492765D1*
D15*
X1536026Y1339538D1*
X1595795D1*
X1606228Y1349971D1*
X1013825Y1715135D2*
D10*
Y1592992D1*
Y1627390D1*
X1019453Y1633017D1*
X1013825Y1592992D2*
X1053906D1*
X1097185Y1549713D1*
X1084277D1*
X1142972D1*
X1160807Y1531878D1*
Y1509192D1*
X1160399Y1508783D1*
X1199769Y1237130D2*
D14*
Y1213902D1*
D15*
Y1191837D1*
X1084277Y1557907D2*
Y1549713D1*
X1384808Y1343429D2*
D14*
X1455621D1*
X1522717Y1276333D1*
X1673421D1*
X1848734Y1101021D1*
X1949444D1*
X1958546Y1091919D1*
X1317879Y1508783D2*
D10*
Y1467537D1*
X1384808Y1304059D2*
D14*
X1427612D1*
X1560060Y1171610D1*
X1558913Y1170463D1*
X1258824Y1237130D2*
Y1213902D1*
D15*
X1264415D1*
Y1193364D1*
X619992Y1029797D2*
X629239Y1020550D1*
X656525D1*
X650062Y1212772D2*
Y1121293D1*
X656265Y1115089D1*
Y1020810D1*
X656525Y1020550D1*
X650810Y1313340D2*
Y1213520D1*
X650062Y1212772D1*
X2033349Y1091919D2*
X2210209D1*
X2245575Y1127285D1*
Y1179122D1*
X2266310Y1199857D1*
X2305446D1*
X2307824Y1197479D1*
X739990Y506933D2*
Y591411D1*
X751713Y603134D1*
X1113155Y1323744D2*
D10*
X1052534D1*
X1034311Y1305521D1*
X964465D1*
X956366Y1297423D1*
D15*
Y1313811D1*
X856085D1*
Y1310294D1*
X836437Y1290646D1*
X1562560Y1823451D2*
Y1741808D1*
X1561932Y1741180D1*
Y1669472D1*
X1551538Y1659079D1*
X1278509Y1508783D2*
D10*
Y1574728D1*
X1302932Y1599151D1*
X1376895D1*
X1421626Y1643882D1*
X1551538D1*
Y1659079D1*
X585088Y793559D2*
X598581D1*
Y842639D1*
X602037D1*
X1038201Y1469572D2*
X1085604Y1422169D1*
X1113155D1*
X585088Y793559D2*
D15*
Y699344D1*
X599916Y684516D1*
Y603833D1*
X602123Y601626D1*
X1113155Y1402484D2*
D10*
X1056644D1*
X1043512Y1415617D1*
X1056974Y1201869D2*
Y975516D1*
X1111066Y921424D1*
X980446Y790803D2*
X831615D1*
X820606Y779794D1*
D15*
Y700559D1*
X822789Y698377D1*
Y606861D1*
X826516Y603134D1*
X1219454Y1237130D2*
D10*
Y1217887D1*
X1230945Y1206396D1*
Y1144441D1*
X1239228Y1136157D1*
X1218576Y670825D2*
Y663257D1*
X1233841Y647992D1*
X1299776Y502849D2*
D15*
Y582058D1*
X1233841Y647992D1*
X2189631Y1183151D2*
Y1257198D1*
X2199171Y1266738D1*
X2124106Y1273500D2*
X2192408D1*
X2199171Y1266738D1*
X1330038Y1795594D2*
Y1746341D1*
Y1715283D1*
X1335154Y1710168D1*
X1295780D1*
X1268614Y1737333D1*
X1258824Y1508783D2*
D10*
Y1591770D1*
X1281626Y1614571D1*
X1279675D1*
X1281873Y1616769D1*
X1366640D1*
X1442568Y1692697D1*
Y1739454D1*
X1435681Y1746341D1*
X1330038D1*
X1402083Y1710168D2*
D15*
X1393458D1*
Y1690062D1*
X1365927Y1662530D1*
X1268614D1*
X1239139Y1508783D2*
D10*
Y1624021D1*
X1258677Y1643559D1*
Y1652593D1*
X1268614Y1662530D1*
X1180084Y1237130D2*
D14*
Y1260357D1*
D15*
Y1272307D1*
X1192690Y1284913D1*
X1250593D1*
X1244894Y1459615D2*
X1239139D1*
Y1508783D1*
X1298194D2*
D10*
Y1546530D1*
X1312479Y1560815D1*
X1424249Y933010D2*
D15*
X1420127D1*
X1376185Y976953D1*
X1347827D1*
Y1058495D1*
X1343159Y1063163D1*
X1337564Y1237130D2*
D10*
Y1199959D1*
X1345815Y1191709D1*
Y1065819D1*
X1343159Y1063163D1*
X1183079Y902052D2*
D15*
Y940554D1*
X1226429Y983904D1*
X1226875Y1059147D2*
Y984350D1*
X1226429Y983904D1*
X1317879Y1237130D2*
D14*
Y1213902D1*
D15*
Y1113490D1*
X1252762Y1048373D1*
X1237650D1*
X1226875Y1059147D1*
X1151626Y983904D2*
Y1050827D1*
X1159946Y1059147D1*
D14*
Y1098252D1*
X1258281D1*
X1277937Y1117908D1*
Y1152924D1*
X1298194Y1173181D1*
Y1237130D1*
X1159946Y1059147D2*
Y1237130D1*
X1160399D1*
X1424558Y1598450D2*
D10*
X1337564Y1511457D1*
Y1508783D1*
X1357249D2*
X1388684D1*
X1453951Y1574051D1*
X1639538D1*
X1730769Y1665282D1*
Y1824937D1*
X1709862Y1845844D1*
X1761180Y1923770D2*
Y1961783D1*
X1709862Y2013101D1*
X1527625D1*
X1521306Y2006782D1*
D40*
X1869152Y1479625D3*
X1727249Y1342639D3*
X779896Y1222396D3*
X1682965Y709568D3*
X1898392Y711215D3*
X1416269Y820920D3*
X1111122Y1790270D3*
X1098445Y1862303D3*
X1763846Y1515907D3*
X1410222Y1790769D3*
X1417962Y1063163D3*
X1804194Y1888795D3*
X1946997Y1588001D3*
X1890772Y1300115D3*
X1842735Y971991D3*
X1579782Y945407D3*
X1932127Y874769D3*
X1557294D3*
X978012Y1231177D3*
X974471Y1466031D3*
X1205358Y1715845D3*
X1624693Y1625177D3*
X1205358Y1715845D3*
X684018Y690736D3*
X520655D3*
X1017031Y945206D3*
X684018Y690736D3*
X1923245Y1457311D3*
X1666663Y1787770D3*
X1739899Y1059301D3*
X1830972Y1061829D3*
X1912619Y1952580D3*
X1345215Y1874853D3*
X1153198Y1343429D3*
X1199769Y1191837D3*
X1084277Y1557907D3*
X1317879Y1467537D3*
X1264415Y1193364D3*
X619992Y1029797D3*
X602037Y842639D3*
X1038201Y1469572D3*
X1043512Y1415617D3*
X1056974Y1201869D3*
X1111066Y921424D3*
X980446Y790803D3*
X1239228Y1136157D3*
X1218576Y670825D3*
X1250593Y1284913D3*
X1244894Y1459615D3*
X1312479Y1560815D3*
X1424558Y1598450D3*
X1709862Y1845844D3*
X1761180Y1923770D3*
X1959375Y1861718D3*
X1959127Y1823220D3*
X1996008Y1858980D3*
X2035000Y1859535D3*
X2073201Y1857034D3*
X2073953Y1794522D3*
X1954862Y772089D3*
X1947950Y733604D3*
X1954234Y703759D3*
X2007013Y774133D3*
X2051625Y774602D3*
X2049098Y1210290D3*
X2009213Y1206419D3*
X1980028Y1210142D3*
X1942248Y1207001D3*
X1948610Y1263785D3*
X1329808Y1302459D3*
Y1350840D3*
Y1404404D3*
X2321014Y1646343D3*
X2385092Y1643413D3*
X2444042Y1645135D3*
X2445471Y1590539D3*
X2385530Y1593470D3*
X2325005Y1594752D3*
X2325224Y1534738D3*
X2384249Y1534812D3*
X2441699Y1536240D3*
X2319953Y1103699D3*
X2372444Y1104371D3*
X2427717Y1100243D3*
X2426753Y1048134D3*
X2371861Y1048806D3*
X2319661Y1049098D3*
X2322825Y991424D3*
X2374934Y992388D3*
X2427427Y992096D3*
X2413803Y581499D3*
X2361694Y582552D3*
X2307566Y584664D3*
Y519022D3*
X2355837Y519605D3*
X2413803Y518549D3*
X1347112Y727984D3*
X1395492D3*
X1968173Y2002585D2*
D17*
X2207852D1*
X1969882Y1977717D2*
X2207412D1*
X1971592Y1952849D2*
X2206972D1*
X2129844Y1927980D2*
X2206533D1*
X2130088Y1903112D2*
X2206142D1*
X2210759Y2027324D2*
X1964092Y2024807D1*
X1970762Y1928671D1*
X2116906Y1928538D1*
X2120625Y1927329D1*
X2123789Y1925031D1*
X2126087Y1921867D1*
X2127295Y1918148D1*
X2127686Y1891312D1*
X2127780Y1880484D1*
X2208293Y1881307D1*
X2210755Y2027374D1*
X1955413Y1853451D2*
X2077562D1*
X1955022Y1828583D2*
X2077219D1*
X1954583Y1803714D2*
X2076878D1*
X2080367Y1878160D2*
X1953327Y1876571D1*
X1951777Y1784966D1*
X2079093Y1784192D1*
X2080378Y1878177D1*
X1941320Y769836D2*
X2063858D1*
X1940588Y744967D2*
X2063517D1*
X1939854Y720098D2*
X2063176D1*
X1939122Y695230D2*
X2062785D1*
X2066734Y794545D2*
X1939497Y792953D1*
X1936433Y688530D1*
X2065199Y688736D1*
X2066732Y794535D1*
X1934388Y1273764D2*
X2056927D1*
X1933656Y1248895D2*
X2056585D1*
X1932923Y1224026D2*
X2056244D1*
X1932190Y1199159D2*
X2055853D1*
X1939488Y1296980D2*
Y1296541D1*
X1937121Y1296469D1*
X1935980Y1289262D1*
X1933726Y1282324D1*
X1932022Y1278698D1*
X1929501Y1192459D1*
X2058268Y1192665D1*
X2059801Y1298465D1*
X1939499Y1296969D1*
X1973009Y1451622D2*
X2201602D1*
X1975109Y1426753D2*
X2212491D1*
X1977209Y1401885D2*
X2212491D1*
X1979357Y1377016D2*
X2212491D1*
X2136925Y1352147D2*
X2212491D1*
X2137121Y1327278D2*
X2212442D1*
X2134717Y1321646D2*
X2215007Y1322157D1*
X2214999Y1440696D1*
X2186520Y1469171D1*
X1968990Y1469163D1*
X1977483Y1369542D1*
X2123815Y1369391D1*
X2127534Y1368182D1*
X2130698Y1365885D1*
X2132996Y1362720D1*
X2134205Y1359001D1*
X2134596Y1332165D1*
X2134694Y1321667D1*
X1966150Y925175D2*
X2190886D1*
X1965320Y900306D2*
X2193913D1*
X1964490Y875437D2*
X2194109D1*
X2119080Y850570D2*
X2194304D1*
X2119274Y825701D2*
X2194500D1*
X2196306Y922220D2*
X2168478Y950049D1*
X1964454Y950043D1*
X1961223Y853444D1*
X2106106Y853310D1*
X2109825Y852101D1*
X2112990Y849803D1*
X2115287Y846639D1*
X2116496Y842920D1*
X2116887Y816084D1*
X2116980Y805256D1*
X2197154Y806106D1*
X2196259Y922265D1*
X446802Y1792319D2*
X464551D1*
X581567D2*
X776129D1*
X883228D2*
X954546D1*
X446802Y1767450D2*
X464551D1*
X581567D2*
X771148D1*
X888159D2*
X945220D1*
X446753Y1742581D2*
X464551D1*
X581567D2*
X777886D1*
X881421D2*
X896245D1*
X446705Y1717713D2*
X487554D1*
X611793D2*
X771148D1*
X446655Y1692844D2*
X492144D1*
X611793D2*
X771148D1*
X446655Y1667975D2*
X502593D1*
X611793D2*
X771148D1*
X446606Y1643106D2*
X502593D1*
X626441D2*
X771148D1*
X446558Y1618238D2*
X557476D1*
X646900D2*
X771148D1*
X446509Y1593369D2*
X580865D1*
X648657D2*
X890045D1*
X446509Y1568500D2*
X580865D1*
X741529D2*
X965874D1*
X446461Y1543631D2*
X580865D1*
X854663D2*
X965874D1*
X446411Y1518762D2*
X580865D1*
X854663D2*
X965874D1*
X446362Y1493894D2*
X580865D1*
X854663D2*
X934770D1*
X446314Y1469025D2*
X503765D1*
X859594D2*
X925591D1*
X446314Y1444156D2*
X503765D1*
X859594D2*
X930962D1*
X446265Y1419287D2*
X503765D1*
X859594D2*
X994682D1*
X446217Y1394419D2*
X503765D1*
X446167Y1369550D2*
X648785D1*
X446167Y1344681D2*
X596245D1*
X446118Y1319812D2*
X596245D1*
X446070Y1294944D2*
X596245D1*
X446021Y1270075D2*
X596245D1*
X446021Y1245206D2*
X595465D1*
X704663D2*
X772026D1*
X900854D2*
X931206D1*
X445972Y1220337D2*
X595465D1*
X704663D2*
X874224D1*
X445923Y1195469D2*
X595465D1*
X704663D2*
X874224D1*
X445874Y1170600D2*
X595465D1*
X710865D2*
X874224D1*
X445874Y1145731D2*
X601665D1*
X710865D2*
X874224D1*
X445825Y1120862D2*
X601665D1*
X710865D2*
X899370D1*
X445777Y1095993D2*
X601665D1*
X710865D2*
X899370D1*
X445728Y1071125D2*
X596197D1*
X785913D2*
X899370D1*
X445678Y1046256D2*
X574029D1*
X445678Y1021387D2*
X571782D1*
X445630Y996518D2*
X585014D1*
X445581Y971650D2*
X601958D1*
X785913D2*
X919438D1*
X445533Y946781D2*
X919438D1*
X445533Y921912D2*
X919438D1*
X445484Y897043D2*
X919438D1*
X445434Y872175D2*
X563629D1*
X640454D2*
X1050738D1*
X445386Y847306D2*
X530522D1*
X650806D2*
X1075591D1*
X445386Y822437D2*
X530522D1*
X646411D2*
X766021D1*
X875171D2*
X943853D1*
X1017017D2*
X1100493D1*
X445337Y797568D2*
X530522D1*
X639673D2*
X766021D1*
X1028930D2*
X1116655D1*
X445289Y772699D2*
X530522D1*
X639673D2*
X766021D1*
X1025757D2*
X1116558D1*
X445239Y747831D2*
X530522D1*
X639673D2*
X693413D1*
X877369D2*
X960210D1*
X1000709D2*
X1177251D1*
X445239Y722962D2*
X470513D1*
X877369D2*
X1425151D1*
X445190Y698093D2*
X470513D1*
X877369D2*
X1178423D1*
X1288403D2*
X1425151D1*
X445142Y673224D2*
X470513D1*
X877369D2*
X1169634D1*
X1288403D2*
X1369976D1*
X445093Y648356D2*
X470513D1*
X881079D2*
X1175396D1*
X1288403D2*
X1369976D1*
X445093Y623487D2*
X472759D1*
X656714D2*
X697125D1*
X881079D2*
X1179253D1*
X1307495D2*
X1369976D1*
X1472827D2*
X1496197D1*
X445045Y598618D2*
X472759D1*
X656714D2*
X697125D1*
X881079D2*
X1179253D1*
X1330786D2*
X1369976D1*
X1467310D2*
X1511235D1*
X444995Y573749D2*
X465190D1*
X656714D2*
X697125D1*
X881079D2*
X1258941D1*
X1335278D2*
X1526323D1*
X656714Y548881D2*
X681450D1*
X881079D2*
X1264312D1*
X1458277D2*
X1541362D1*
X559155Y524012D2*
X681450D1*
X798510D2*
X1245415D1*
X1458277D2*
X1548735D1*
X559155Y499143D2*
X681450D1*
X798510D2*
X1241362D1*
X1458277D2*
X1534966D1*
X559155Y474274D2*
X681450D1*
X798510D2*
X1249077D1*
X444801Y449406D2*
X1280474D1*
X1319067D2*
X1341265D1*
X760493Y1567066D2*
X852159D1*
Y1487720D1*
X857108Y1487692D1*
Y1411568D1*
X997249Y1411520D1*
X997163Y1419265D1*
X998223Y1426064D1*
X992262Y1423079D1*
X985324Y1420824D1*
X978119Y1419682D1*
X970823D1*
X963618Y1420824D1*
X956680Y1423079D1*
X950178Y1426391D1*
X944277Y1430678D1*
X939118Y1435837D1*
X934831Y1441739D1*
X931518Y1448240D1*
X929264Y1455178D1*
X928122Y1462383D1*
Y1469680D1*
X929264Y1476885D1*
X931518Y1483823D1*
X934831Y1490324D1*
X939118Y1496226D1*
X944277Y1501385D1*
X950178Y1505672D1*
X956680Y1508984D1*
X963618Y1511239D1*
X968374Y1512091D1*
X968362Y1576992D1*
X892567Y1576997D1*
Y1689037D1*
X898768D1*
X898751Y1761312D1*
X945686Y1761604D1*
X948241Y1768531D1*
X952344Y1774671D1*
X954026Y1776490D1*
X957041Y1786077D1*
Y1815912D1*
X862244Y1814829D1*
X869272Y1808854D1*
X874982Y1802171D1*
X879573Y1794675D1*
X882938Y1786554D1*
X884990Y1778007D1*
X885680Y1769243D1*
X884990Y1760479D1*
X882938Y1751932D1*
X879573Y1743811D1*
X874982Y1736315D1*
X869272Y1729631D1*
X864302Y1725273D1*
X885680Y1725262D1*
Y1613223D1*
X773640D1*
Y1725262D1*
X794979D1*
X790049Y1729631D1*
X784339Y1736315D1*
X779747Y1743811D1*
X776382Y1751932D1*
X774331Y1760479D1*
X773640Y1769243D1*
X774331Y1778007D1*
X776382Y1786554D1*
X779747Y1794675D1*
X784339Y1802171D1*
X790049Y1808854D1*
X796071Y1814042D1*
X579060Y1811499D1*
X579080Y1731520D1*
X609281Y1731510D1*
Y1657731D1*
X638654Y1628255D1*
X642756Y1622114D1*
X645312Y1615186D1*
X646180Y1607853D1*
Y1571769D1*
X739017Y1571759D1*
Y1532451D1*
X747993Y1542526D1*
Y1567066D1*
X760493D1*
X901890Y1053551D2*
Y1130211D1*
X876724Y1130182D1*
Y1228442D1*
X929312D1*
X931289Y1230963D1*
X932804Y1242030D1*
X934807Y1248286D1*
X898362Y1248293D1*
Y1232657D1*
X774512D1*
Y1257316D1*
X702159Y1257320D1*
X702144Y1171087D1*
X708348Y1171109D1*
Y1076529D1*
X783411Y1076570D1*
Y1053571D1*
X901885Y1053538D1*
X1382699Y446829D2*
X1343756D1*
Y468167D1*
X1339387Y463238D1*
X1332703Y457528D1*
X1325207Y452936D1*
X1317087Y449571D1*
X1308539Y447520D1*
X1299776Y446829D1*
X1291012Y447520D1*
X1282465Y449571D1*
X1274344Y452936D1*
X1266848Y457528D1*
X1260164Y463238D1*
X1254454Y469921D1*
X1249862Y477417D1*
X1246497Y485538D1*
X1244446Y494085D1*
X1243756Y502849D1*
X1244446Y511613D1*
X1246497Y520160D1*
X1249862Y528281D1*
X1254454Y535777D1*
X1260164Y542461D1*
X1266781Y548117D1*
X1266787Y568425D1*
X1243199Y591972D1*
X1181759D1*
Y642412D1*
X1177151Y649718D1*
X1174360Y656458D1*
X1172656Y663552D1*
X1172084Y670825D1*
X1172656Y678098D1*
X1174360Y685193D1*
X1177151Y691933D1*
X1181766Y699172D1*
X1181759Y704012D1*
X1186007D1*
X1191249Y708438D1*
X1197469Y712251D1*
X1204209Y715042D1*
X1211303Y716745D1*
X1218576Y717318D1*
X1225849Y716745D1*
X1232944Y715042D1*
X1239684Y712251D1*
X1245903Y708438D1*
X1251143Y704012D1*
X1285924D1*
Y642537D1*
X1324860Y603482D1*
X1329168Y597034D1*
X1331852Y589759D1*
X1332764Y582058D1*
Y548122D1*
X1339387Y542461D1*
X1343745Y537491D1*
X1343756Y558869D1*
X1455795D1*
Y481965D1*
X1520270Y481976D1*
X1551214Y512883D1*
X1551248Y536705D1*
X1487999Y641168D1*
X1464841Y618022D1*
X1464818Y591786D1*
X1372463D1*
Y688077D1*
X1427688D1*
X1427652Y740841D1*
X1425690Y744089D1*
X1192387Y744205D1*
X1184781Y745718D1*
X1177739Y748965D1*
X1171648Y753765D1*
X1154835Y770580D1*
X1129635Y770748D1*
X1125916Y771957D1*
X1122752Y774256D1*
X1120454Y777420D1*
X1119245Y781139D1*
X1119211Y806157D1*
X1026119Y899327D1*
Y890815D1*
X921954D1*
Y987543D1*
X783432Y987562D1*
X783411Y964530D1*
X604442D1*
Y985966D1*
X598886Y988371D1*
X592665Y992182D1*
X587118Y996921D1*
X582379Y1002469D1*
X578568Y1008689D1*
X575776Y1015429D1*
X574073Y1022522D1*
X573500Y1029797D1*
X574073Y1037070D1*
X575776Y1044163D1*
X578568Y1050903D1*
X582379Y1057123D1*
X587118Y1062671D1*
X592665Y1067409D1*
X598886Y1071220D1*
X604194Y1073484D1*
X604182Y1156774D1*
X597979Y1156752D1*
Y1268791D1*
X598711D1*
X598727Y1369360D1*
X651608D1*
X646615Y1373142D1*
X640400Y1379357D1*
X635232Y1386469D1*
X631241Y1394301D1*
X630118Y1397348D1*
X618316Y1397325D1*
Y1378268D1*
X506277D1*
Y1482433D1*
X583377D1*
X583353Y1594887D1*
X558752Y1619442D1*
X505115Y1619471D1*
Y1680945D1*
X496373Y1690239D1*
X492583Y1697004D1*
X490478Y1704469D1*
X490072Y1709629D1*
Y1728232D1*
X467041Y1728274D1*
Y1810159D1*
X444346Y1809751D1*
X442294Y440269D1*
X444635Y450596D1*
Y562635D1*
X467634D1*
X467768Y577549D1*
X469281Y585155D1*
X472528Y592197D1*
X473974Y594358D1*
X475238Y608106D1*
Y628467D1*
X473030Y628496D1*
Y740535D1*
X533041D1*
X533005Y849579D1*
X556101D1*
X557820Y857007D1*
X560612Y863747D1*
X564424Y869966D1*
X569161Y875514D1*
X574710Y880252D1*
X580929Y884064D1*
X587669Y886856D1*
X594764Y888559D1*
X602037Y889131D1*
X609310Y888559D1*
X616404Y886856D1*
X623144Y884064D1*
X629364Y880252D1*
X634912Y875514D1*
X639650Y869966D1*
X643462Y863747D1*
X646253Y857007D1*
X647957Y849912D1*
X648529Y842639D1*
X647957Y835366D1*
X646253Y828272D1*
X643462Y821531D1*
X639650Y815312D1*
X637171Y812079D1*
Y740503D1*
X651999Y740535D1*
Y724471D1*
X656692Y728349D1*
X662911Y732161D1*
X669651Y734953D1*
X676745Y736656D1*
X684018Y737228D1*
X691291Y736656D1*
X695902Y735654D1*
X695903Y754396D1*
X768510D1*
X768524Y835814D1*
X872689D1*
Y822190D1*
X946215Y822217D1*
X950252Y826156D1*
X956154Y830444D1*
X962655Y833756D1*
X969593Y836010D1*
X976798Y837152D1*
X984094D1*
X991299Y836010D1*
X998238Y833756D1*
X1004739Y830444D1*
X1010640Y826156D1*
X1015799Y820997D1*
X1020087Y815096D1*
X1023399Y808594D1*
X1025654Y801656D1*
X1026795Y794451D1*
Y787155D1*
X1025654Y779950D1*
X1023399Y773012D1*
X1020087Y766510D1*
X1015799Y760609D1*
X1010640Y755450D1*
X1004739Y751163D1*
X998238Y747850D1*
X991299Y745596D1*
X984094Y744454D1*
X976798D1*
X969593Y745596D1*
X962655Y747850D1*
X956154Y751163D1*
X950252Y755450D1*
X946226Y759383D1*
X872682Y759390D1*
X874871Y754396D1*
Y659133D1*
X878598Y659154D1*
Y547114D1*
X796030D1*
X796009Y450913D1*
X683970D1*
Y562953D1*
X699644D1*
X699630Y642378D1*
X695903Y642357D1*
Y645823D1*
X687667Y644387D1*
X680370D1*
X673165Y645529D1*
X666227Y647783D1*
X659726Y651096D1*
X654217Y655075D1*
X654206Y545606D1*
X556697D1*
X556675Y450596D1*
X444635D1*
X442322Y440315D1*
X1379772Y440571D1*
X1156280Y1458997D2*
X1154845Y1451710D1*
X1156280Y1444396D1*
X1155980Y1436786D1*
X1154845Y1432025D1*
X1156280Y1424711D1*
X1155980Y1417101D1*
X1154845Y1412340D1*
X1156280Y1405026D1*
X1155980Y1397416D1*
X1154845Y1392655D1*
X1155583Y1389865D1*
X1163450Y1388756D1*
X1163437Y1458504D1*
X1198448D1*
X1198818Y1465571D1*
X1192206Y1466454D1*
X1189940Y1467093D1*
X1182626Y1465659D1*
X1175016Y1465958D1*
X1170255Y1467093D1*
X1162941Y1465659D1*
X1156091Y1465867D1*
X1156280Y1458997D1*
X1296854Y1280302D2*
X1303262Y1279955D1*
X1308024Y1278820D1*
X1315337Y1280255D1*
X1322948Y1279955D1*
X1327709Y1278820D1*
X1335022Y1280255D1*
X1341873Y1280046D1*
X1341684Y1286916D1*
X1343118Y1294203D1*
X1341684Y1301517D1*
X1341983Y1309127D1*
X1343118Y1313888D1*
X1341684Y1321202D1*
X1341983Y1328812D1*
X1343118Y1333573D1*
X1341684Y1340887D1*
X1341983Y1348497D1*
X1343118Y1353259D1*
X1341684Y1360572D1*
X1341983Y1368182D1*
X1343118Y1372944D1*
X1341684Y1380257D1*
X1341983Y1387867D1*
X1343118Y1392629D1*
X1341684Y1399942D1*
X1341983Y1407552D1*
X1343118Y1412314D1*
X1341684Y1419627D1*
X1341983Y1427238D1*
X1342105Y1427852D1*
X1334534Y1424164D1*
X1334531Y1287409D1*
X1296983D1*
X1296829Y1280316D1*
X1170757Y1433857D2*
X1203697D1*
X1171490Y1408988D2*
X1339487D1*
X1178178Y1384119D2*
X1338999D1*
X1199419Y1359251D2*
X1338510D1*
X1201323Y1334382D2*
X1338022D1*
X1292534Y1309513D2*
X1337534D1*
X1299566Y1284644D2*
X1337046D1*
X1341807Y1398906D2*
X1341685Y1405025D1*
X1342138Y1416176D1*
X1341584Y1422169D1*
X1342106Y1427850D1*
X1335672Y1424583D1*
X1328734Y1422328D1*
X1321528Y1421188D1*
X1314232D1*
X1307026Y1422328D1*
X1300088Y1424583D1*
X1293588Y1427895D1*
X1287686Y1432184D1*
X1284472Y1435238D1*
X1280247Y1429423D1*
X1275088Y1424264D1*
X1269186Y1419975D1*
X1262686Y1416663D1*
X1255748Y1414408D1*
X1248542Y1413268D1*
X1241247D1*
X1234041Y1414408D1*
X1227102Y1416663D1*
X1220602Y1419975D1*
X1214701Y1424264D1*
X1209542Y1429423D1*
X1205253Y1435324D1*
X1201941Y1441824D1*
X1199686Y1448762D1*
X1198812Y1453717D1*
X1167609Y1457199D1*
X1169643Y1386912D1*
X1177491Y1383070D1*
X1183392Y1378781D1*
X1188551Y1373622D1*
X1192840Y1367720D1*
X1196152Y1361220D1*
X1198407Y1354282D1*
X1199547Y1347076D1*
Y1339781D1*
X1198407Y1332575D1*
X1196152Y1325636D1*
X1192008Y1317891D1*
X1217837Y1317903D1*
X1223265Y1322528D1*
X1229486Y1326339D1*
X1236226Y1329131D1*
X1243319Y1330833D1*
X1250593Y1331406D1*
X1257866Y1330833D1*
X1264959Y1329131D1*
X1271699Y1326339D1*
X1277920Y1322528D1*
X1283467Y1317789D1*
X1288206Y1312241D1*
X1292017Y1306021D1*
X1294810Y1299281D1*
X1296512Y1292188D1*
X1297085Y1284913D1*
X1297012Y1283076D1*
X1339499Y1283341D1*
X1341982Y1408316D1*
X2270654Y1985558D2*
X2644218D1*
X2270068Y1960689D2*
X2644413D1*
X2269482Y1935822D2*
X2644609D1*
X2268896Y1910953D2*
X2644755D1*
X2268310Y1886084D2*
X2644950D1*
X2267724Y1861215D2*
X2645146D1*
X2289745Y1836346D2*
X2645341D1*
X2370605Y1811478D2*
X2645537D1*
X2370214Y1786609D2*
X2645682D1*
X2369774Y1761740D2*
X2645878D1*
X2369335Y1736871D2*
X2646073D1*
X2355824Y1833804D2*
X2359857Y1833130D1*
X2363310Y1831295D1*
X2366028Y1828483D1*
X2367743Y1824967D1*
X2368287Y1821094D1*
X2366818Y1733332D1*
X2648642Y1727514D1*
X2646510Y2010356D1*
X2268636Y2008197D1*
X2264822Y1837173D1*
X2358198Y1833576D1*
X2361871Y1832231D1*
X2364948Y1829818D1*
X2367129Y1826571D1*
X2368199Y1822810D1*
X2368268Y1820671D1*
X2279902Y1406003D2*
X2655126D1*
X2279316Y1381134D2*
X2654882D1*
X2278730Y1356265D2*
X2654688D1*
X2278193Y1331396D2*
X2654492D1*
X2277608Y1306528D2*
X2654248D1*
X2277021Y1281659D2*
X2654052D1*
X2276436Y1256790D2*
X2319336D1*
X2361542D2*
X2653808D1*
X2360713Y1231921D2*
X2653613D1*
X2359932Y1207052D2*
X2653417D1*
X2358252Y1232689D2*
X2356774Y1186864D1*
X2655745Y1189198D1*
X2657828Y1430743D1*
X2277881Y1426409D1*
X2273879Y1254203D1*
X2347449Y1258020D1*
X2351227Y1257013D1*
X2354510Y1254888D1*
X2356978Y1251854D1*
X2358385Y1248205D1*
X2358656Y1245182D1*
X2358252Y1232689D1*
X2259969Y883915D2*
X2648841D1*
X2259969Y859046D2*
X2649085D1*
X2259969Y834177D2*
X2649281D1*
X2259969Y809308D2*
X2649476D1*
X2259969Y784440D2*
X2649720D1*
X2259969Y759571D2*
X2649916D1*
X2332014Y734702D2*
X2650110D1*
X2331526Y709833D2*
X2650306D1*
X2331088Y684965D2*
X2650550D1*
X2651155Y908714D2*
X2257470Y906483D1*
X2257772Y740287D1*
X2319105Y738631D1*
X2322793Y737332D1*
X2325900Y734957D1*
X2328121Y731738D1*
X2329238Y727990D1*
X2328874Y701105D1*
X2328156Y663075D1*
X2653287Y662430D1*
X2651143Y908724D1*
X1736270Y570993D2*
X1820260D1*
X2256022D2*
X2644576D1*
X1736270Y546126D2*
X1845114D1*
X2254020D2*
X2644576D1*
X1736270Y521257D2*
X1870016D1*
X2233512D2*
X2644576D1*
X1736270Y496388D2*
X1900924D1*
X2133268D2*
X2644576D1*
X1736270Y471520D2*
X2644576D1*
X1736270Y446651D2*
X2644576D1*
X2457340Y421782D2*
X2644576D1*
X2055959Y478542D2*
X1951794Y478495D1*
Y495146D1*
X1909634Y495277D1*
X1902029Y496790D1*
X1894986Y500037D1*
X1888896Y504837D1*
X1888669Y505083D1*
X1798056Y595677D1*
X1733743Y595832D1*
X1733832Y425316D1*
X2647151Y420839D1*
X2647070Y593594D1*
X2253566Y594559D1*
X2253434Y554854D1*
X2251921Y547249D1*
X2248675Y540206D1*
X2243874Y534117D1*
X2243629Y533890D1*
X2219045Y509430D1*
X2212596Y505122D1*
X2205322Y502438D1*
X2197619Y501526D1*
X2197286Y501539D1*
X2130774Y501526D1*
X2130762Y478495D1*
X2026597Y478545D1*
X2300123Y1094572D2*
X2613239D1*
X2300857Y1069703D2*
X2613483D1*
X2301589Y1044835D2*
X2613727D1*
X2302273Y1019967D2*
X2613971D1*
X2303005Y995098D2*
X2614215D1*
X2303689Y970230D2*
X2614459D1*
X2615555Y1119441D2*
X2296903D1*
X2301407Y962983D1*
X2617003Y961349D1*
X2615512Y1119408D1*
X2308812Y1635408D2*
X2628252D1*
X2308812Y1610539D2*
X2627568D1*
X2308812Y1585671D2*
X2626933D1*
X2308812Y1560802D2*
X2626298D1*
X2308812Y1535933D2*
X2625614D1*
X2308812Y1511064D2*
X2624980D1*
X2631291Y1655735D2*
X2306320Y1660106D1*
X2306370Y1503005D1*
X2627224Y1501816D1*
X2631276Y1655718D1*
D18*
X800076Y1511046D3*
X874879D3*
D19*
X1558913Y1170463D3*
Y1095660D3*
D18*
X1606228Y1349971D3*
X1681031D3*
X1527150Y1497001D3*
X1601953D3*
X805025Y1431672D3*
X879828D3*
X1020445Y1536675D3*
X945642D3*
X953972Y1089406D3*
X879169D3*
D19*
X562297Y1430350D3*
Y1505154D3*
D18*
X974037Y946835D3*
X899234D3*
D20*
X1518938Y507500D3*
D21*
X1768938D3*
D18*
X557198Y1675491D3*
X632001D3*
D22*
X1013825Y1715135D3*
X946896D3*
X1402083Y1710168D3*
X1335154D3*
X1159946Y1059147D3*
X1226875D3*
D18*
X1616715Y885728D3*
X1691518D3*
X656265Y1115089D3*
X731068D3*
X585088Y793559D3*
X510285D3*
X820606Y779794D3*
X745803D3*
X1233841Y647992D3*
X1159038D3*
D23*
X836437Y1290646D3*
Y1180409D3*
D18*
X731328Y1020550D3*
X656525D3*
D19*
X1483672Y714945D3*
Y789748D3*
D24*
X682997Y1515739D3*
D25*
Y1415739D3*
D24*
X829660Y1669243D3*
D25*
Y1769243D3*
D24*
X1399776Y502849D3*
D25*
X1299776D3*
X1199776D3*
D24*
X500655Y506615D3*
D25*
X600655D3*
D24*
X739990Y506933D3*
D25*
X839990D3*
D24*
X523060Y1784294D3*
D25*
X623060D3*
D26*
X956366Y1179312D3*
Y1297423D3*
D28*
X2457824Y1197499D3*
X2407824Y1197479D3*
X2357824D3*
X2307824D3*
D29*
X2382824Y1043139D3*
D31*
X2199151Y1416738D3*
X2199171Y1366738D3*
Y1316738D3*
Y1266738D3*
D32*
X2353510Y1341738D3*
D28*
X2466374Y1740559D3*
X2416374Y1740539D3*
X2366374D3*
X2316374D3*
D29*
X2391374Y1586199D3*
D31*
X2194974Y1979454D3*
X2194993Y1929454D3*
Y1879454D3*
Y1829454D3*
D32*
X2349333Y1904454D3*
D28*
X2429848Y675346D3*
X2379848Y675327D3*
X2329848D3*
X2279848D3*
D29*
X2354848Y520987D3*
D31*
X2184009Y901810D3*
X2184029Y851810D3*
Y801810D3*
Y751810D3*
D32*
X2338369Y826810D3*
D18*
X2059386Y1623547D3*
X2134189D3*
X2114352Y1727573D3*
X2189155D3*
X2003875Y534514D3*
X2078678D3*
X2080042Y615339D3*
X2154845D3*
X599916Y684516D3*
X525113D3*
X822789Y698377D3*
X747986D3*
X527320Y601626D3*
X602123D3*
D33*
X2142675Y1896743D3*
Y1829814D3*
D18*
X751713Y603134D3*
X826516D3*
X1958546Y1091919D3*
X2033349D3*
D33*
X1418640Y639932D3*
Y573003D3*
D18*
X1196386Y1868014D3*
X1271189D3*
X1111122Y1790270D3*
X1185925D3*
X2114828Y1183151D3*
X2189631D3*
X1112618Y1682610D3*
X1187421D3*
D33*
X2124106Y1340429D3*
Y1273500D3*
D34*
X2003486Y1770122D3*
Y1990594D3*
D33*
X2118946Y821251D3*
Y754322D3*
D18*
X944650Y1633017D3*
X1019453D3*
D19*
X1013060Y1850465D3*
Y1775661D3*
D34*
X2003969Y1220786D3*
Y1441259D3*
X2002739Y711215D3*
Y931688D3*
D18*
X1562560Y1823451D3*
X1637364D3*
X1487129Y1741180D3*
X1561932D3*
X1551538Y1659079D3*
X1626341D3*
D19*
X1268614Y1737333D3*
Y1662530D3*
D18*
X1404841Y1795594D3*
X1330038D3*
X1424249Y933010D3*
X1499052D3*
X1417962Y1063163D3*
X1343159D3*
D19*
X1347827Y976953D3*
Y902150D3*
D18*
X1226429Y983904D3*
X1151626D3*
X1257882Y902052D3*
X1183079D3*
D19*
X1846790Y1963598D3*
Y1888795D3*
X1883467Y1423427D3*
Y1348623D3*
X1874165Y891568D3*
Y816765D3*
D18*
X1643390Y794566D3*
X1568587D3*
X650810Y1313340D3*
X725613D3*
X724865Y1212772D3*
X650062D3*
D36*
X1113155Y1481224D3*
Y1461539D3*
Y1441854D3*
Y1422169D3*
Y1402484D3*
Y1382799D3*
Y1363114D3*
Y1343429D3*
Y1323744D3*
Y1304059D3*
Y1284374D3*
Y1264689D3*
D37*
X1140714Y1237130D3*
X1160399D3*
X1180084D3*
X1199769D3*
X1219454D3*
X1239139D3*
X1258824D3*
X1278509D3*
X1298194D3*
X1317879D3*
X1337564D3*
X1357249D3*
D36*
X1384808Y1264689D3*
Y1284374D3*
Y1304059D3*
Y1323744D3*
Y1343429D3*
Y1363114D3*
Y1382799D3*
Y1402484D3*
Y1422169D3*
Y1441854D3*
Y1461539D3*
X1384814Y1481224D3*
D37*
X1357249Y1508783D3*
X1337564D3*
X1317879D3*
X1298194D3*
X1278509D3*
X1258824D3*
X1239139D3*
X1219454D3*
X1199769D3*
X1180084D3*
X1160399D3*
X1140714D3*
D38*
X1248984Y1372957D3*
D24*
X1521306Y2006782D3*
D25*
X1421306D3*
D39*
X2559291Y1899825D3*
X2559860Y821419D3*
X2563297Y1340029D3*
M02*
